%TF.GenerationSoftware,KiCad,Pcbnew,(6.0.2)*%
%TF.CreationDate,2022-06-29T22:10:34+03:00*%
%TF.ProjectId,zx-bus_board,7a782d62-7573-45f6-926f-6172642e6b69,rev?*%
%TF.SameCoordinates,Original*%
%TF.FileFunction,Legend,Bot*%
%TF.FilePolarity,Positive*%
%FSLAX46Y46*%
G04 Gerber Fmt 4.6, Leading zero omitted, Abs format (unit mm)*
G04 Created by KiCad (PCBNEW (6.0.2)) date 2022-06-29 22:10:34*
%MOMM*%
%LPD*%
G01*
G04 APERTURE LIST*
%ADD10C,0.150000*%
G04 APERTURE END LIST*
D10*
X190280900Y-97234284D02*
X190280900Y-96758094D01*
X189995186Y-97329522D02*
X190995186Y-96996189D01*
X189995186Y-96662856D01*
X189995186Y-95805713D02*
X189995186Y-96377141D01*
X189995186Y-96091427D02*
X190995186Y-96091427D01*
X190852328Y-96186665D01*
X190757090Y-96281903D01*
X190709471Y-96377141D01*
X173053333Y-103592380D02*
X172434285Y-103592380D01*
X172767619Y-103973333D01*
X172624761Y-103973333D01*
X172529523Y-104020952D01*
X172481904Y-104068571D01*
X172434285Y-104163809D01*
X172434285Y-104401904D01*
X172481904Y-104497142D01*
X172529523Y-104544761D01*
X172624761Y-104592380D01*
X172910476Y-104592380D01*
X173005714Y-104544761D01*
X173053333Y-104497142D01*
X216661904Y-103687619D02*
X216614285Y-103640000D01*
X216519047Y-103592380D01*
X216280952Y-103592380D01*
X216185714Y-103640000D01*
X216138095Y-103687619D01*
X216090476Y-103782857D01*
X216090476Y-103878095D01*
X216138095Y-104020952D01*
X216709523Y-104592380D01*
X216090476Y-104592380D01*
X215471428Y-103592380D02*
X215376190Y-103592380D01*
X215280952Y-103640000D01*
X215233333Y-103687619D01*
X215185714Y-103782857D01*
X215138095Y-103973333D01*
X215138095Y-104211428D01*
X215185714Y-104401904D01*
X215233333Y-104497142D01*
X215280952Y-104544761D01*
X215376190Y-104592380D01*
X215471428Y-104592380D01*
X215566666Y-104544761D01*
X215614285Y-104497142D01*
X215661904Y-104401904D01*
X215709523Y-104211428D01*
X215709523Y-103973333D01*
X215661904Y-103782857D01*
X215614285Y-103687619D01*
X215566666Y-103640000D01*
X215471428Y-103592380D01*
X233453095Y-97234284D02*
X233453095Y-96758094D01*
X233167381Y-97329522D02*
X234167381Y-96996189D01*
X233167381Y-96662856D01*
X233167381Y-96281903D02*
X233167381Y-96091427D01*
X233215000Y-95996189D01*
X233262619Y-95948570D01*
X233405476Y-95853332D01*
X233595952Y-95805713D01*
X233976904Y-95805713D01*
X234072142Y-95853332D01*
X234119762Y-95900951D01*
X234167381Y-95996189D01*
X234167381Y-96186665D01*
X234119762Y-96281903D01*
X234072142Y-96329522D01*
X233976904Y-96377141D01*
X233738809Y-96377141D01*
X233643571Y-96329522D01*
X233595952Y-96281903D01*
X233548333Y-96186665D01*
X233548333Y-95996189D01*
X233595952Y-95900951D01*
X233643571Y-95853332D01*
X233738809Y-95805713D01*
X174807619Y-97781904D02*
X175807619Y-97781904D01*
X175807619Y-97543809D01*
X175760000Y-97400952D01*
X175664761Y-97305714D01*
X175569523Y-97258095D01*
X175379047Y-97210476D01*
X175236190Y-97210476D01*
X175045714Y-97258095D01*
X174950476Y-97305714D01*
X174855238Y-97400952D01*
X174807619Y-97543809D01*
X174807619Y-97781904D01*
X175807619Y-96591428D02*
X175807619Y-96400952D01*
X175760000Y-96305714D01*
X175664761Y-96210476D01*
X175474285Y-96162857D01*
X175140952Y-96162857D01*
X174950476Y-96210476D01*
X174855238Y-96305714D01*
X174807619Y-96400952D01*
X174807619Y-96591428D01*
X174855238Y-96686666D01*
X174950476Y-96781904D01*
X175140952Y-96829523D01*
X175474285Y-96829523D01*
X175664761Y-96781904D01*
X175760000Y-96686666D01*
X175807619Y-96591428D01*
X174855238Y-95781904D02*
X174807619Y-95639047D01*
X174807619Y-95400952D01*
X174855238Y-95305714D01*
X174902857Y-95258095D01*
X174998095Y-95210476D01*
X175093333Y-95210476D01*
X175188571Y-95258095D01*
X175236190Y-95305714D01*
X175283809Y-95400952D01*
X175331428Y-95591428D01*
X175379047Y-95686666D01*
X175426666Y-95734285D01*
X175521904Y-95781904D01*
X175617142Y-95781904D01*
X175712380Y-95734285D01*
X175760000Y-95686666D01*
X175807619Y-95591428D01*
X175807619Y-95353333D01*
X175760000Y-95210476D01*
X185967619Y-97567619D02*
X185967619Y-96948571D01*
X185586666Y-97281904D01*
X185586666Y-97139047D01*
X185539047Y-97043809D01*
X185491428Y-96996190D01*
X185396190Y-96948571D01*
X185158095Y-96948571D01*
X185062857Y-96996190D01*
X185015238Y-97043809D01*
X184967619Y-97139047D01*
X184967619Y-97424761D01*
X185015238Y-97520000D01*
X185062857Y-97567619D01*
X185062857Y-96520000D02*
X185015238Y-96472380D01*
X184967619Y-96520000D01*
X185015238Y-96567619D01*
X185062857Y-96520000D01*
X184967619Y-96520000D01*
X185967619Y-95567619D02*
X185967619Y-96043809D01*
X185491428Y-96091428D01*
X185539047Y-96043809D01*
X185586666Y-95948571D01*
X185586666Y-95710476D01*
X185539047Y-95615238D01*
X185491428Y-95567619D01*
X185396190Y-95520000D01*
X185158095Y-95520000D01*
X185062857Y-95567619D01*
X185015238Y-95615238D01*
X184967619Y-95710476D01*
X184967619Y-95948571D01*
X185015238Y-96043809D01*
X185062857Y-96091428D01*
X190690476Y-104592380D02*
X191261904Y-104592380D01*
X190976190Y-104592380D02*
X190976190Y-103592380D01*
X191071428Y-103735238D01*
X191166666Y-103830476D01*
X191261904Y-103878095D01*
X190071428Y-103592380D02*
X189976190Y-103592380D01*
X189880952Y-103640000D01*
X189833333Y-103687619D01*
X189785714Y-103782857D01*
X189738095Y-103973333D01*
X189738095Y-104211428D01*
X189785714Y-104401904D01*
X189833333Y-104497142D01*
X189880952Y-104544761D01*
X189976190Y-104592380D01*
X190071428Y-104592380D01*
X190166666Y-104544761D01*
X190214285Y-104497142D01*
X190261904Y-104401904D01*
X190309523Y-104211428D01*
X190309523Y-103973333D01*
X190261904Y-103782857D01*
X190214285Y-103687619D01*
X190166666Y-103640000D01*
X190071428Y-103592380D01*
X244649523Y-103592380D02*
X244030476Y-103592380D01*
X244363809Y-103973333D01*
X244220952Y-103973333D01*
X244125714Y-104020952D01*
X244078095Y-104068571D01*
X244030476Y-104163809D01*
X244030476Y-104401904D01*
X244078095Y-104497142D01*
X244125714Y-104544761D01*
X244220952Y-104592380D01*
X244506666Y-104592380D01*
X244601904Y-104544761D01*
X244649523Y-104497142D01*
X243078095Y-104592380D02*
X243649523Y-104592380D01*
X243363809Y-104592380D02*
X243363809Y-103592380D01*
X243459047Y-103735238D01*
X243554285Y-103830476D01*
X243649523Y-103878095D01*
X203390476Y-104592380D02*
X203961904Y-104592380D01*
X203676190Y-104592380D02*
X203676190Y-103592380D01*
X203771428Y-103735238D01*
X203866666Y-103830476D01*
X203961904Y-103878095D01*
X202485714Y-103592380D02*
X202961904Y-103592380D01*
X203009523Y-104068571D01*
X202961904Y-104020952D01*
X202866666Y-103973333D01*
X202628571Y-103973333D01*
X202533333Y-104020952D01*
X202485714Y-104068571D01*
X202438095Y-104163809D01*
X202438095Y-104401904D01*
X202485714Y-104497142D01*
X202533333Y-104544761D01*
X202628571Y-104592380D01*
X202866666Y-104592380D01*
X202961904Y-104544761D01*
X203009523Y-104497142D01*
X201160000Y-97281904D02*
X201207619Y-97377142D01*
X201207619Y-97520000D01*
X201160000Y-97662857D01*
X201064761Y-97758095D01*
X200969523Y-97805714D01*
X200779047Y-97853333D01*
X200636190Y-97853333D01*
X200445714Y-97805714D01*
X200350476Y-97758095D01*
X200255238Y-97662857D01*
X200207619Y-97520000D01*
X200207619Y-97424761D01*
X200255238Y-97281904D01*
X200302857Y-97234285D01*
X200636190Y-97234285D01*
X200636190Y-97424761D01*
X200207619Y-96805714D02*
X201207619Y-96805714D01*
X200207619Y-96234285D01*
X201207619Y-96234285D01*
X200207619Y-95758095D02*
X201207619Y-95758095D01*
X201207619Y-95520000D01*
X201160000Y-95377142D01*
X201064761Y-95281904D01*
X200969523Y-95234285D01*
X200779047Y-95186666D01*
X200636190Y-95186666D01*
X200445714Y-95234285D01*
X200350476Y-95281904D01*
X200255238Y-95377142D01*
X200207619Y-95520000D01*
X200207619Y-95758095D01*
X224116071Y-103687619D02*
X224068452Y-103640000D01*
X223973214Y-103592380D01*
X223735119Y-103592380D01*
X223639881Y-103640000D01*
X223592262Y-103687619D01*
X223544643Y-103782857D01*
X223544643Y-103878095D01*
X223592262Y-104020952D01*
X224163690Y-104592380D01*
X223544643Y-104592380D01*
X223211309Y-103592380D02*
X222592262Y-103592380D01*
X222925595Y-103973333D01*
X222782738Y-103973333D01*
X222687500Y-104020952D01*
X222639881Y-104068571D01*
X222592262Y-104163809D01*
X222592262Y-104401904D01*
X222639881Y-104497142D01*
X222687500Y-104544761D01*
X222782738Y-104592380D01*
X223068452Y-104592380D01*
X223163690Y-104544761D01*
X223211309Y-104497142D01*
X205930476Y-104592380D02*
X206501904Y-104592380D01*
X206216190Y-104592380D02*
X206216190Y-103592380D01*
X206311428Y-103735238D01*
X206406666Y-103830476D01*
X206501904Y-103878095D01*
X205073333Y-103592380D02*
X205263809Y-103592380D01*
X205359047Y-103640000D01*
X205406666Y-103687619D01*
X205501904Y-103830476D01*
X205549523Y-104020952D01*
X205549523Y-104401904D01*
X205501904Y-104497142D01*
X205454285Y-104544761D01*
X205359047Y-104592380D01*
X205168571Y-104592380D01*
X205073333Y-104544761D01*
X205025714Y-104497142D01*
X204978095Y-104401904D01*
X204978095Y-104163809D01*
X205025714Y-104068571D01*
X205073333Y-104020952D01*
X205168571Y-103973333D01*
X205359047Y-103973333D01*
X205454285Y-104020952D01*
X205501904Y-104068571D01*
X205549523Y-104163809D01*
X202736744Y-97210475D02*
X203212934Y-97543808D01*
X202736744Y-97781903D02*
X203736744Y-97781903D01*
X203736744Y-97400951D01*
X203689125Y-97305713D01*
X203641505Y-97258094D01*
X203546267Y-97210475D01*
X203403410Y-97210475D01*
X203308172Y-97258094D01*
X203260553Y-97305713D01*
X203212934Y-97400951D01*
X203212934Y-97781903D01*
X202736744Y-96781903D02*
X203736744Y-96781903D01*
X203736744Y-96543808D01*
X203689125Y-96400951D01*
X203593886Y-96305713D01*
X203498648Y-96258094D01*
X203308172Y-96210475D01*
X203165315Y-96210475D01*
X202974839Y-96258094D01*
X202879601Y-96305713D01*
X202784363Y-96400951D01*
X202736744Y-96543808D01*
X202736744Y-96781903D01*
X202736744Y-95210475D02*
X203212934Y-95543808D01*
X202736744Y-95781903D02*
X203736744Y-95781903D01*
X203736744Y-95400951D01*
X203689125Y-95305713D01*
X203641505Y-95258094D01*
X203546267Y-95210475D01*
X203403410Y-95210475D01*
X203308172Y-95258094D01*
X203260553Y-95305713D01*
X203212934Y-95400951D01*
X203212934Y-95781903D01*
X198310476Y-104592380D02*
X198881904Y-104592380D01*
X198596190Y-104592380D02*
X198596190Y-103592380D01*
X198691428Y-103735238D01*
X198786666Y-103830476D01*
X198881904Y-103878095D01*
X197977142Y-103592380D02*
X197358095Y-103592380D01*
X197691428Y-103973333D01*
X197548571Y-103973333D01*
X197453333Y-104020952D01*
X197405714Y-104068571D01*
X197358095Y-104163809D01*
X197358095Y-104401904D01*
X197405714Y-104497142D01*
X197453333Y-104544761D01*
X197548571Y-104592380D01*
X197834285Y-104592380D01*
X197929523Y-104544761D01*
X197977142Y-104497142D01*
X197653676Y-97553332D02*
X198653676Y-97553332D01*
X198653676Y-97086665D02*
X198653676Y-96953332D01*
X198606057Y-96886665D01*
X198510818Y-96819999D01*
X198320342Y-96786665D01*
X197987009Y-96786665D01*
X197796533Y-96819999D01*
X197701295Y-96886665D01*
X197653676Y-96953332D01*
X197653676Y-97086665D01*
X197701295Y-97153332D01*
X197796533Y-97219999D01*
X197987009Y-97253332D01*
X198320342Y-97253332D01*
X198510818Y-97219999D01*
X198606057Y-97153332D01*
X198653676Y-97086665D01*
X198606057Y-96119999D02*
X198653676Y-96186665D01*
X198653676Y-96286665D01*
X198606057Y-96386665D01*
X198510818Y-96453332D01*
X198415580Y-96486665D01*
X198225104Y-96519999D01*
X198082247Y-96519999D01*
X197891771Y-96486665D01*
X197796533Y-96453332D01*
X197701295Y-96386665D01*
X197653676Y-96286665D01*
X197653676Y-96219999D01*
X197701295Y-96119999D01*
X197748914Y-96086665D01*
X198082247Y-96086665D01*
X198082247Y-96219999D01*
X198177485Y-95786665D02*
X198177485Y-95553332D01*
X197653676Y-95453332D02*
X197653676Y-95786665D01*
X198653676Y-95786665D01*
X198653676Y-95453332D01*
X170465714Y-103687619D02*
X170418095Y-103640000D01*
X170322857Y-103592380D01*
X170084761Y-103592380D01*
X169989523Y-103640000D01*
X169941904Y-103687619D01*
X169894285Y-103782857D01*
X169894285Y-103878095D01*
X169941904Y-104020952D01*
X170513333Y-104592380D01*
X169894285Y-104592380D01*
X187793333Y-97234285D02*
X187793333Y-96758095D01*
X187507619Y-97329523D02*
X188507619Y-96996190D01*
X187507619Y-96662857D01*
X188507619Y-96139047D02*
X188507619Y-96043809D01*
X188460000Y-95948571D01*
X188412380Y-95900952D01*
X188317142Y-95853333D01*
X188126666Y-95805714D01*
X187888571Y-95805714D01*
X187698095Y-95853333D01*
X187602857Y-95900952D01*
X187555238Y-95948571D01*
X187507619Y-96043809D01*
X187507619Y-96139047D01*
X187555238Y-96234285D01*
X187602857Y-96281904D01*
X187698095Y-96329523D01*
X187888571Y-96377142D01*
X188126666Y-96377142D01*
X188317142Y-96329523D01*
X188412380Y-96281904D01*
X188460000Y-96234285D01*
X188507619Y-96139047D01*
X180840000Y-97281904D02*
X180887619Y-97377142D01*
X180887619Y-97520000D01*
X180840000Y-97662857D01*
X180744761Y-97758095D01*
X180649523Y-97805714D01*
X180459047Y-97853333D01*
X180316190Y-97853333D01*
X180125714Y-97805714D01*
X180030476Y-97758095D01*
X179935238Y-97662857D01*
X179887619Y-97520000D01*
X179887619Y-97424761D01*
X179935238Y-97281904D01*
X179982857Y-97234285D01*
X180316190Y-97234285D01*
X180316190Y-97424761D01*
X179887619Y-96805714D02*
X180887619Y-96805714D01*
X179887619Y-96234285D01*
X180887619Y-96234285D01*
X179887619Y-95758095D02*
X180887619Y-95758095D01*
X180887619Y-95520000D01*
X180840000Y-95377142D01*
X180744761Y-95281904D01*
X180649523Y-95234285D01*
X180459047Y-95186666D01*
X180316190Y-95186666D01*
X180125714Y-95234285D01*
X180030476Y-95281904D01*
X179935238Y-95377142D01*
X179887619Y-95520000D01*
X179887619Y-95758095D01*
X167473333Y-97710476D02*
X167473333Y-97234285D01*
X167187619Y-97805714D02*
X168187619Y-97472380D01*
X167187619Y-97139047D01*
X167187619Y-96281904D02*
X167187619Y-96853333D01*
X167187619Y-96567619D02*
X168187619Y-96567619D01*
X168044761Y-96662857D01*
X167949523Y-96758095D01*
X167901904Y-96853333D01*
X167854285Y-95424761D02*
X167187619Y-95424761D01*
X168235238Y-95662857D02*
X167520952Y-95900952D01*
X167520952Y-95281904D01*
X236981904Y-103687619D02*
X236934285Y-103640000D01*
X236839047Y-103592380D01*
X236600952Y-103592380D01*
X236505714Y-103640000D01*
X236458095Y-103687619D01*
X236410476Y-103782857D01*
X236410476Y-103878095D01*
X236458095Y-104020952D01*
X237029523Y-104592380D01*
X236410476Y-104592380D01*
X235839047Y-104020952D02*
X235934285Y-103973333D01*
X235981904Y-103925714D01*
X236029523Y-103830476D01*
X236029523Y-103782857D01*
X235981904Y-103687619D01*
X235934285Y-103640000D01*
X235839047Y-103592380D01*
X235648571Y-103592380D01*
X235553333Y-103640000D01*
X235505714Y-103687619D01*
X235458095Y-103782857D01*
X235458095Y-103830476D01*
X235505714Y-103925714D01*
X235553333Y-103973333D01*
X235648571Y-104020952D01*
X235839047Y-104020952D01*
X235934285Y-104068571D01*
X235981904Y-104116190D01*
X236029523Y-104211428D01*
X236029523Y-104401904D01*
X235981904Y-104497142D01*
X235934285Y-104544761D01*
X235839047Y-104592380D01*
X235648571Y-104592380D01*
X235553333Y-104544761D01*
X235505714Y-104497142D01*
X235458095Y-104401904D01*
X235458095Y-104211428D01*
X235505714Y-104116190D01*
X235553333Y-104068571D01*
X235648571Y-104020952D01*
X192856322Y-97234284D02*
X192856322Y-96758094D01*
X192570608Y-97329522D02*
X193570608Y-96996189D01*
X192570608Y-96662856D01*
X193475369Y-96377141D02*
X193522989Y-96329522D01*
X193570608Y-96234284D01*
X193570608Y-95996189D01*
X193522989Y-95900951D01*
X193475369Y-95853332D01*
X193380131Y-95805713D01*
X193284893Y-95805713D01*
X193142036Y-95853332D01*
X192570608Y-96424760D01*
X192570608Y-95805713D01*
X228179550Y-97186665D02*
X228131931Y-97234284D01*
X228084312Y-97377141D01*
X228084312Y-97472379D01*
X228131931Y-97615237D01*
X228227169Y-97710475D01*
X228322407Y-97758094D01*
X228512883Y-97805713D01*
X228655740Y-97805713D01*
X228846216Y-97758094D01*
X228941454Y-97710475D01*
X229036693Y-97615237D01*
X229084312Y-97472379D01*
X229084312Y-97377141D01*
X229036693Y-97234284D01*
X228989073Y-97186665D01*
X228131931Y-96805713D02*
X228084312Y-96662856D01*
X228084312Y-96424760D01*
X228131931Y-96329522D01*
X228179550Y-96281903D01*
X228274788Y-96234284D01*
X228370026Y-96234284D01*
X228465264Y-96281903D01*
X228512883Y-96329522D01*
X228560502Y-96424760D01*
X228608121Y-96615237D01*
X228655740Y-96710475D01*
X228703359Y-96758094D01*
X228798597Y-96805713D01*
X228893835Y-96805713D01*
X228989073Y-96758094D01*
X229036693Y-96710475D01*
X229084312Y-96615237D01*
X229084312Y-96377141D01*
X229036693Y-96234284D01*
X228084312Y-95234284D02*
X228560502Y-95567618D01*
X228084312Y-95805713D02*
X229084312Y-95805713D01*
X229084312Y-95424760D01*
X229036693Y-95329522D01*
X228989073Y-95281903D01*
X228893835Y-95234284D01*
X228750978Y-95234284D01*
X228655740Y-95281903D01*
X228608121Y-95329522D01*
X228560502Y-95424760D01*
X228560502Y-95805713D01*
X242109523Y-103592380D02*
X241490476Y-103592380D01*
X241823809Y-103973333D01*
X241680952Y-103973333D01*
X241585714Y-104020952D01*
X241538095Y-104068571D01*
X241490476Y-104163809D01*
X241490476Y-104401904D01*
X241538095Y-104497142D01*
X241585714Y-104544761D01*
X241680952Y-104592380D01*
X241966666Y-104592380D01*
X242061904Y-104544761D01*
X242109523Y-104497142D01*
X240871428Y-103592380D02*
X240776190Y-103592380D01*
X240680952Y-103640000D01*
X240633333Y-103687619D01*
X240585714Y-103782857D01*
X240538095Y-103973333D01*
X240538095Y-104211428D01*
X240585714Y-104401904D01*
X240633333Y-104497142D01*
X240680952Y-104544761D01*
X240776190Y-104592380D01*
X240871428Y-104592380D01*
X240966666Y-104544761D01*
X241014285Y-104497142D01*
X241061904Y-104401904D01*
X241109523Y-104211428D01*
X241109523Y-103973333D01*
X241061904Y-103782857D01*
X241014285Y-103687619D01*
X240966666Y-103640000D01*
X240871428Y-103592380D01*
X165028571Y-96448571D02*
X164885714Y-96496190D01*
X164838095Y-96543809D01*
X164790476Y-96639047D01*
X164790476Y-96781904D01*
X164838095Y-96877142D01*
X164885714Y-96924761D01*
X164980952Y-96972380D01*
X165361904Y-96972380D01*
X165361904Y-95972380D01*
X165028571Y-95972380D01*
X164933333Y-96020000D01*
X164885714Y-96067619D01*
X164838095Y-96162857D01*
X164838095Y-96258095D01*
X164885714Y-96353333D01*
X164933333Y-96400952D01*
X165028571Y-96448571D01*
X165361904Y-96448571D01*
X236028516Y-97710475D02*
X236028516Y-97234284D01*
X235742802Y-97805713D02*
X236742802Y-97472379D01*
X235742802Y-97139046D01*
X235742802Y-96281903D02*
X235742802Y-96853332D01*
X235742802Y-96567618D02*
X236742802Y-96567618D01*
X236599944Y-96662856D01*
X236504706Y-96758094D01*
X236457087Y-96853332D01*
X235742802Y-95329522D02*
X235742802Y-95900951D01*
X235742802Y-95615237D02*
X236742802Y-95615237D01*
X236599944Y-95710475D01*
X236504706Y-95805713D01*
X236457087Y-95900951D01*
X188150476Y-104592380D02*
X187960000Y-104592380D01*
X187864761Y-104544761D01*
X187817142Y-104497142D01*
X187721904Y-104354285D01*
X187674285Y-104163809D01*
X187674285Y-103782857D01*
X187721904Y-103687619D01*
X187769523Y-103640000D01*
X187864761Y-103592380D01*
X188055238Y-103592380D01*
X188150476Y-103640000D01*
X188198095Y-103687619D01*
X188245714Y-103782857D01*
X188245714Y-104020952D01*
X188198095Y-104116190D01*
X188150476Y-104163809D01*
X188055238Y-104211428D01*
X187864761Y-104211428D01*
X187769523Y-104163809D01*
X187721904Y-104116190D01*
X187674285Y-104020952D01*
X231901904Y-103687619D02*
X231854285Y-103640000D01*
X231759047Y-103592380D01*
X231520952Y-103592380D01*
X231425714Y-103640000D01*
X231378095Y-103687619D01*
X231330476Y-103782857D01*
X231330476Y-103878095D01*
X231378095Y-104020952D01*
X231949523Y-104592380D01*
X231330476Y-104592380D01*
X230473333Y-103592380D02*
X230663809Y-103592380D01*
X230759047Y-103640000D01*
X230806666Y-103687619D01*
X230901904Y-103830476D01*
X230949523Y-104020952D01*
X230949523Y-104401904D01*
X230901904Y-104497142D01*
X230854285Y-104544761D01*
X230759047Y-104592380D01*
X230568571Y-104592380D01*
X230473333Y-104544761D01*
X230425714Y-104497142D01*
X230378095Y-104401904D01*
X230378095Y-104163809D01*
X230425714Y-104068571D01*
X230473333Y-104020952D01*
X230568571Y-103973333D01*
X230759047Y-103973333D01*
X230854285Y-104020952D01*
X230901904Y-104068571D01*
X230949523Y-104163809D01*
X175069523Y-103925714D02*
X175069523Y-104592380D01*
X175307619Y-103544761D02*
X175545714Y-104259047D01*
X174926666Y-104259047D01*
X208470476Y-104592380D02*
X209041904Y-104592380D01*
X208756190Y-104592380D02*
X208756190Y-103592380D01*
X208851428Y-103735238D01*
X208946666Y-103830476D01*
X209041904Y-103878095D01*
X208137142Y-103592380D02*
X207470476Y-103592380D01*
X207899047Y-104592380D01*
X172619286Y-97805713D02*
X172619286Y-97043808D01*
X172238334Y-97424760D02*
X173000238Y-97424760D01*
X173238334Y-96091427D02*
X173238334Y-96567618D01*
X172762143Y-96615237D01*
X172809762Y-96567618D01*
X172857381Y-96472379D01*
X172857381Y-96234284D01*
X172809762Y-96139046D01*
X172762143Y-96091427D01*
X172666905Y-96043808D01*
X172428810Y-96043808D01*
X172333572Y-96091427D01*
X172285953Y-96139046D01*
X172238334Y-96234284D01*
X172238334Y-96472379D01*
X172285953Y-96567618D01*
X172333572Y-96615237D01*
X173238334Y-95758094D02*
X172238334Y-95424760D01*
X173238334Y-95091427D01*
X225862379Y-97234284D02*
X225862379Y-96758094D01*
X225576665Y-97329522D02*
X226576665Y-96996189D01*
X225576665Y-96662856D01*
X226243331Y-95900951D02*
X225576665Y-95900951D01*
X226624284Y-96139046D02*
X225909998Y-96377141D01*
X225909998Y-95758094D01*
X200850476Y-104592380D02*
X201421904Y-104592380D01*
X201136190Y-104592380D02*
X201136190Y-103592380D01*
X201231428Y-103735238D01*
X201326666Y-103830476D01*
X201421904Y-103878095D01*
X199993333Y-103925714D02*
X199993333Y-104592380D01*
X200231428Y-103544761D02*
X200469523Y-104259047D01*
X199850476Y-104259047D01*
X239521904Y-103687619D02*
X239474285Y-103640000D01*
X239379047Y-103592380D01*
X239140952Y-103592380D01*
X239045714Y-103640000D01*
X238998095Y-103687619D01*
X238950476Y-103782857D01*
X238950476Y-103878095D01*
X238998095Y-104020952D01*
X239569523Y-104592380D01*
X238950476Y-104592380D01*
X238474285Y-104592380D02*
X238283809Y-104592380D01*
X238188571Y-104544761D01*
X238140952Y-104497142D01*
X238045714Y-104354285D01*
X237998095Y-104163809D01*
X237998095Y-103782857D01*
X238045714Y-103687619D01*
X238093333Y-103640000D01*
X238188571Y-103592380D01*
X238379047Y-103592380D01*
X238474285Y-103640000D01*
X238521904Y-103687619D01*
X238569523Y-103782857D01*
X238569523Y-104020952D01*
X238521904Y-104116190D01*
X238474285Y-104163809D01*
X238379047Y-104211428D01*
X238188571Y-104211428D01*
X238093333Y-104163809D01*
X238045714Y-104116190D01*
X237998095Y-104020952D01*
X177561904Y-103592380D02*
X178038095Y-103592380D01*
X178085714Y-104068571D01*
X178038095Y-104020952D01*
X177942857Y-103973333D01*
X177704761Y-103973333D01*
X177609523Y-104020952D01*
X177561904Y-104068571D01*
X177514285Y-104163809D01*
X177514285Y-104401904D01*
X177561904Y-104497142D01*
X177609523Y-104544761D01*
X177704761Y-104592380D01*
X177942857Y-104592380D01*
X178038095Y-104544761D01*
X178085714Y-104497142D01*
X221741904Y-103687619D02*
X221694285Y-103640000D01*
X221599047Y-103592380D01*
X221360952Y-103592380D01*
X221265714Y-103640000D01*
X221218095Y-103687619D01*
X221170476Y-103782857D01*
X221170476Y-103878095D01*
X221218095Y-104020952D01*
X221789523Y-104592380D01*
X221170476Y-104592380D01*
X220789523Y-103687619D02*
X220741904Y-103640000D01*
X220646666Y-103592380D01*
X220408571Y-103592380D01*
X220313333Y-103640000D01*
X220265714Y-103687619D01*
X220218095Y-103782857D01*
X220218095Y-103878095D01*
X220265714Y-104020952D01*
X220837142Y-104592380D01*
X220218095Y-104592380D01*
X226821904Y-103687619D02*
X226774285Y-103640000D01*
X226679047Y-103592380D01*
X226440952Y-103592380D01*
X226345714Y-103640000D01*
X226298095Y-103687619D01*
X226250476Y-103782857D01*
X226250476Y-103878095D01*
X226298095Y-104020952D01*
X226869523Y-104592380D01*
X226250476Y-104592380D01*
X225393333Y-103925714D02*
X225393333Y-104592380D01*
X225631428Y-103544761D02*
X225869523Y-104259047D01*
X225250476Y-104259047D01*
X234389632Y-103630838D02*
X234342013Y-103583219D01*
X234246775Y-103535599D01*
X234008680Y-103535599D01*
X233913442Y-103583219D01*
X233865823Y-103630838D01*
X233818204Y-103726076D01*
X233818204Y-103821314D01*
X233865823Y-103964171D01*
X234437251Y-104535599D01*
X233818204Y-104535599D01*
X233484870Y-103535599D02*
X232818204Y-103535599D01*
X233246775Y-104535599D01*
X213426690Y-97472379D02*
X213379071Y-97329522D01*
X213331452Y-97281903D01*
X213236214Y-97234284D01*
X213093357Y-97234284D01*
X212998119Y-97281903D01*
X212950500Y-97329522D01*
X212902881Y-97424760D01*
X212902881Y-97805713D01*
X213902881Y-97805713D01*
X213902881Y-97472379D01*
X213855262Y-97377141D01*
X213807642Y-97329522D01*
X213712404Y-97281903D01*
X213617166Y-97281903D01*
X213521928Y-97329522D01*
X213474309Y-97377141D01*
X213426690Y-97472379D01*
X213426690Y-97805713D01*
X212902881Y-96234284D02*
X213379071Y-96567618D01*
X212902881Y-96805713D02*
X213902881Y-96805713D01*
X213902881Y-96424760D01*
X213855262Y-96329522D01*
X213807642Y-96281903D01*
X213712404Y-96234284D01*
X213569547Y-96234284D01*
X213474309Y-96281903D01*
X213426690Y-96329522D01*
X213379071Y-96424760D01*
X213379071Y-96805713D01*
X212807642Y-95139046D02*
X212855262Y-95234284D01*
X212950500Y-95329522D01*
X213093357Y-95472379D01*
X213140976Y-95567618D01*
X213140976Y-95662856D01*
X212902881Y-95615237D02*
X212950500Y-95710475D01*
X213045738Y-95805713D01*
X213236214Y-95853332D01*
X213569547Y-95853332D01*
X213760023Y-95805713D01*
X213855262Y-95710475D01*
X213902881Y-95615237D01*
X213902881Y-95424760D01*
X213855262Y-95329522D01*
X213760023Y-95234284D01*
X213569547Y-95186665D01*
X213236214Y-95186665D01*
X213045738Y-95234284D01*
X212950500Y-95329522D01*
X212902881Y-95424760D01*
X212902881Y-95615237D01*
X170013333Y-97710476D02*
X170013333Y-97234285D01*
X169727619Y-97805714D02*
X170727619Y-97472380D01*
X169727619Y-97139047D01*
X169727619Y-96281904D02*
X169727619Y-96853333D01*
X169727619Y-96567619D02*
X170727619Y-96567619D01*
X170584761Y-96662857D01*
X170489523Y-96758095D01*
X170441904Y-96853333D01*
X170632380Y-95900952D02*
X170680000Y-95853333D01*
X170727619Y-95758095D01*
X170727619Y-95520000D01*
X170680000Y-95424761D01*
X170632380Y-95377142D01*
X170537142Y-95329523D01*
X170441904Y-95329523D01*
X170299047Y-95377142D01*
X169727619Y-95948571D01*
X169727619Y-95329523D01*
X218271664Y-97234284D02*
X218271664Y-96758094D01*
X217985950Y-97329522D02*
X218985950Y-96996189D01*
X217985950Y-96662856D01*
X218985950Y-96424760D02*
X218985950Y-95758094D01*
X217985950Y-96186665D01*
X185515238Y-104020952D02*
X185610476Y-103973333D01*
X185658095Y-103925714D01*
X185705714Y-103830476D01*
X185705714Y-103782857D01*
X185658095Y-103687619D01*
X185610476Y-103640000D01*
X185515238Y-103592380D01*
X185324761Y-103592380D01*
X185229523Y-103640000D01*
X185181904Y-103687619D01*
X185134285Y-103782857D01*
X185134285Y-103830476D01*
X185181904Y-103925714D01*
X185229523Y-103973333D01*
X185324761Y-104020952D01*
X185515238Y-104020952D01*
X185610476Y-104068571D01*
X185658095Y-104116190D01*
X185705714Y-104211428D01*
X185705714Y-104401904D01*
X185658095Y-104497142D01*
X185610476Y-104544761D01*
X185515238Y-104592380D01*
X185324761Y-104592380D01*
X185229523Y-104544761D01*
X185181904Y-104497142D01*
X185134285Y-104401904D01*
X185134285Y-104211428D01*
X185181904Y-104116190D01*
X185229523Y-104068571D01*
X185324761Y-104020952D01*
X183380000Y-97281904D02*
X183427619Y-97377142D01*
X183427619Y-97520000D01*
X183380000Y-97662857D01*
X183284761Y-97758095D01*
X183189523Y-97805714D01*
X182999047Y-97853333D01*
X182856190Y-97853333D01*
X182665714Y-97805714D01*
X182570476Y-97758095D01*
X182475238Y-97662857D01*
X182427619Y-97520000D01*
X182427619Y-97424761D01*
X182475238Y-97281904D01*
X182522857Y-97234285D01*
X182856190Y-97234285D01*
X182856190Y-97424761D01*
X182427619Y-96805714D02*
X183427619Y-96805714D01*
X182427619Y-96234285D01*
X183427619Y-96234285D01*
X182427619Y-95758095D02*
X183427619Y-95758095D01*
X183427619Y-95520000D01*
X183380000Y-95377142D01*
X183284761Y-95281904D01*
X183189523Y-95234285D01*
X182999047Y-95186666D01*
X182856190Y-95186666D01*
X182665714Y-95234285D01*
X182570476Y-95281904D01*
X182475238Y-95377142D01*
X182427619Y-95520000D01*
X182427619Y-95758095D01*
X183213333Y-103592380D02*
X182546666Y-103592380D01*
X182975238Y-104592380D01*
X213550476Y-104592380D02*
X214121904Y-104592380D01*
X213836190Y-104592380D02*
X213836190Y-103592380D01*
X213931428Y-103735238D01*
X214026666Y-103830476D01*
X214121904Y-103878095D01*
X213074285Y-104592380D02*
X212883809Y-104592380D01*
X212788571Y-104544761D01*
X212740952Y-104497142D01*
X212645714Y-104354285D01*
X212598095Y-104163809D01*
X212598095Y-103782857D01*
X212645714Y-103687619D01*
X212693333Y-103640000D01*
X212788571Y-103592380D01*
X212979047Y-103592380D01*
X213074285Y-103640000D01*
X213121904Y-103687619D01*
X213169523Y-103782857D01*
X213169523Y-104020952D01*
X213121904Y-104116190D01*
X213074285Y-104163809D01*
X212979047Y-104211428D01*
X212788571Y-104211428D01*
X212693333Y-104163809D01*
X212645714Y-104116190D01*
X212598095Y-104020952D01*
X223286958Y-97234284D02*
X223286958Y-96758094D01*
X223001244Y-97329522D02*
X224001244Y-96996189D01*
X223001244Y-96662856D01*
X224001244Y-95853332D02*
X224001244Y-96329522D01*
X223525053Y-96377141D01*
X223572672Y-96329522D01*
X223620291Y-96234284D01*
X223620291Y-95996189D01*
X223572672Y-95900951D01*
X223525053Y-95853332D01*
X223429815Y-95805713D01*
X223191720Y-95805713D01*
X223096482Y-95853332D01*
X223048863Y-95900951D01*
X223001244Y-95996189D01*
X223001244Y-96234284D01*
X223048863Y-96329522D01*
X223096482Y-96377141D01*
X215447619Y-97139047D02*
X215923809Y-97472380D01*
X215447619Y-97710476D02*
X216447619Y-97710476D01*
X216447619Y-97329523D01*
X216400000Y-97234285D01*
X216352380Y-97186666D01*
X216257142Y-97139047D01*
X216114285Y-97139047D01*
X216019047Y-97186666D01*
X215971428Y-97234285D01*
X215923809Y-97329523D01*
X215923809Y-97710476D01*
X215971428Y-96710476D02*
X215971428Y-96377142D01*
X215447619Y-96234285D02*
X215447619Y-96710476D01*
X216447619Y-96710476D01*
X216447619Y-96234285D01*
X215495238Y-95853333D02*
X215447619Y-95710476D01*
X215447619Y-95472380D01*
X215495238Y-95377142D01*
X215542857Y-95329523D01*
X215638095Y-95281904D01*
X215733333Y-95281904D01*
X215828571Y-95329523D01*
X215876190Y-95377142D01*
X215923809Y-95472380D01*
X215971428Y-95662857D01*
X216019047Y-95758095D01*
X216066666Y-95805714D01*
X216161904Y-95853333D01*
X216257142Y-95853333D01*
X216352380Y-95805714D01*
X216400000Y-95758095D01*
X216447619Y-95662857D01*
X216447619Y-95424761D01*
X216400000Y-95281904D01*
X211010476Y-104592380D02*
X211581904Y-104592380D01*
X211296190Y-104592380D02*
X211296190Y-103592380D01*
X211391428Y-103735238D01*
X211486666Y-103830476D01*
X211581904Y-103878095D01*
X210439047Y-104020952D02*
X210534285Y-103973333D01*
X210581904Y-103925714D01*
X210629523Y-103830476D01*
X210629523Y-103782857D01*
X210581904Y-103687619D01*
X210534285Y-103640000D01*
X210439047Y-103592380D01*
X210248571Y-103592380D01*
X210153333Y-103640000D01*
X210105714Y-103687619D01*
X210058095Y-103782857D01*
X210058095Y-103830476D01*
X210105714Y-103925714D01*
X210153333Y-103973333D01*
X210248571Y-104020952D01*
X210439047Y-104020952D01*
X210534285Y-104068571D01*
X210581904Y-104116190D01*
X210629523Y-104211428D01*
X210629523Y-104401904D01*
X210581904Y-104497142D01*
X210534285Y-104544761D01*
X210439047Y-104592380D01*
X210248571Y-104592380D01*
X210153333Y-104544761D01*
X210105714Y-104497142D01*
X210058095Y-104401904D01*
X210058095Y-104211428D01*
X210105714Y-104116190D01*
X210153333Y-104068571D01*
X210248571Y-104020952D01*
X167354285Y-104592380D02*
X167925714Y-104592380D01*
X167640000Y-104592380D02*
X167640000Y-103592380D01*
X167735238Y-103735238D01*
X167830476Y-103830476D01*
X167925714Y-103878095D01*
X220779311Y-97234284D02*
X220779311Y-96758094D01*
X220493597Y-97329522D02*
X221493597Y-96996189D01*
X220493597Y-96662856D01*
X221493597Y-95900951D02*
X221493597Y-96091427D01*
X221445978Y-96186665D01*
X221398358Y-96234284D01*
X221255501Y-96329522D01*
X221065025Y-96377141D01*
X220684073Y-96377141D01*
X220588835Y-96329522D01*
X220541216Y-96281903D01*
X220493597Y-96186665D01*
X220493597Y-95996189D01*
X220541216Y-95900951D01*
X220588835Y-95853332D01*
X220684073Y-95805713D01*
X220922168Y-95805713D01*
X221017406Y-95853332D01*
X221065025Y-95900951D01*
X221112644Y-95996189D01*
X221112644Y-96186665D01*
X221065025Y-96281903D01*
X221017406Y-96329522D01*
X220922168Y-96377141D01*
X180149523Y-103592380D02*
X180340000Y-103592380D01*
X180435238Y-103640000D01*
X180482857Y-103687619D01*
X180578095Y-103830476D01*
X180625714Y-104020952D01*
X180625714Y-104401904D01*
X180578095Y-104497142D01*
X180530476Y-104544761D01*
X180435238Y-104592380D01*
X180244761Y-104592380D01*
X180149523Y-104544761D01*
X180101904Y-104497142D01*
X180054285Y-104401904D01*
X180054285Y-104163809D01*
X180101904Y-104068571D01*
X180149523Y-104020952D01*
X180244761Y-103973333D01*
X180435238Y-103973333D01*
X180530476Y-104020952D01*
X180578095Y-104068571D01*
X180625714Y-104163809D01*
X195413333Y-97234285D02*
X195413333Y-96758095D01*
X195127619Y-97329523D02*
X196127619Y-96996190D01*
X195127619Y-96662857D01*
X196127619Y-96424761D02*
X196127619Y-95805714D01*
X195746666Y-96139047D01*
X195746666Y-95996190D01*
X195699047Y-95900952D01*
X195651428Y-95853333D01*
X195556190Y-95805714D01*
X195318095Y-95805714D01*
X195222857Y-95853333D01*
X195175238Y-95900952D01*
X195127619Y-95996190D01*
X195127619Y-96281904D01*
X195175238Y-96377142D01*
X195222857Y-96424761D01*
X246308571Y-96448571D02*
X246165714Y-96496190D01*
X246118095Y-96543809D01*
X246070476Y-96639047D01*
X246070476Y-96781904D01*
X246118095Y-96877142D01*
X246165714Y-96924761D01*
X246260952Y-96972380D01*
X246641904Y-96972380D01*
X246641904Y-95972380D01*
X246308571Y-95972380D01*
X246213333Y-96020000D01*
X246165714Y-96067619D01*
X246118095Y-96162857D01*
X246118095Y-96258095D01*
X246165714Y-96353333D01*
X246213333Y-96400952D01*
X246308571Y-96448571D01*
X246641904Y-96448571D01*
X193230476Y-104592380D02*
X193801904Y-104592380D01*
X193516190Y-104592380D02*
X193516190Y-103592380D01*
X193611428Y-103735238D01*
X193706666Y-103830476D01*
X193801904Y-103878095D01*
X192278095Y-104592380D02*
X192849523Y-104592380D01*
X192563809Y-104592380D02*
X192563809Y-103592380D01*
X192659047Y-103735238D01*
X192754285Y-103830476D01*
X192849523Y-103878095D01*
X241778251Y-97281903D02*
X241825870Y-97377141D01*
X241825870Y-97519999D01*
X241778251Y-97662856D01*
X241683012Y-97758094D01*
X241587774Y-97805713D01*
X241397298Y-97853332D01*
X241254441Y-97853332D01*
X241063965Y-97805713D01*
X240968727Y-97758094D01*
X240873489Y-97662856D01*
X240825870Y-97519999D01*
X240825870Y-97424760D01*
X240873489Y-97281903D01*
X240921108Y-97234284D01*
X241254441Y-97234284D01*
X241254441Y-97424760D01*
X240825870Y-96805713D02*
X241825870Y-96805713D01*
X240825870Y-96234284D01*
X241825870Y-96234284D01*
X240825870Y-95758094D02*
X241825870Y-95758094D01*
X241825870Y-95519999D01*
X241778251Y-95377141D01*
X241683012Y-95281903D01*
X241587774Y-95234284D01*
X241397298Y-95186665D01*
X241254441Y-95186665D01*
X241063965Y-95234284D01*
X240968727Y-95281903D01*
X240873489Y-95377141D01*
X240825870Y-95519999D01*
X240825870Y-95758094D01*
X231183542Y-97377141D02*
X231135923Y-97234284D01*
X231088304Y-97186665D01*
X230993066Y-97139046D01*
X230850209Y-97139046D01*
X230754971Y-97186665D01*
X230707352Y-97234284D01*
X230659733Y-97329522D01*
X230659733Y-97710475D01*
X231659733Y-97710475D01*
X231659733Y-97377141D01*
X231612114Y-97281903D01*
X231564494Y-97234284D01*
X231469256Y-97186665D01*
X231374018Y-97186665D01*
X231278780Y-97234284D01*
X231231161Y-97281903D01*
X231183542Y-97377141D01*
X231183542Y-97710475D01*
X230945447Y-96758094D02*
X230945447Y-96281903D01*
X230659733Y-96853332D02*
X231659733Y-96519999D01*
X230659733Y-96186665D01*
X230659733Y-95853332D02*
X231659733Y-95853332D01*
X230659733Y-95281903D02*
X231231161Y-95710475D01*
X231659733Y-95281903D02*
X231088304Y-95853332D01*
X229361904Y-103687619D02*
X229314285Y-103640000D01*
X229219047Y-103592380D01*
X228980952Y-103592380D01*
X228885714Y-103640000D01*
X228838095Y-103687619D01*
X228790476Y-103782857D01*
X228790476Y-103878095D01*
X228838095Y-104020952D01*
X229409523Y-104592380D01*
X228790476Y-104592380D01*
X227885714Y-103592380D02*
X228361904Y-103592380D01*
X228409523Y-104068571D01*
X228361904Y-104020952D01*
X228266666Y-103973333D01*
X228028571Y-103973333D01*
X227933333Y-104020952D01*
X227885714Y-104068571D01*
X227838095Y-104163809D01*
X227838095Y-104401904D01*
X227885714Y-104497142D01*
X227933333Y-104544761D01*
X228028571Y-104592380D01*
X228266666Y-104592380D01*
X228361904Y-104544761D01*
X228409523Y-104497142D01*
X195770476Y-104592380D02*
X196341904Y-104592380D01*
X196056190Y-104592380D02*
X196056190Y-103592380D01*
X196151428Y-103735238D01*
X196246666Y-103830476D01*
X196341904Y-103878095D01*
X195389523Y-103687619D02*
X195341904Y-103640000D01*
X195246666Y-103592380D01*
X195008571Y-103592380D01*
X194913333Y-103640000D01*
X194865714Y-103687619D01*
X194818095Y-103782857D01*
X194818095Y-103878095D01*
X194865714Y-104020952D01*
X195437142Y-104592380D01*
X194818095Y-104592380D01*
X219201904Y-103687619D02*
X219154285Y-103640000D01*
X219059047Y-103592380D01*
X218820952Y-103592380D01*
X218725714Y-103640000D01*
X218678095Y-103687619D01*
X218630476Y-103782857D01*
X218630476Y-103878095D01*
X218678095Y-104020952D01*
X219249523Y-104592380D01*
X218630476Y-104592380D01*
X217678095Y-104592380D02*
X218249523Y-104592380D01*
X217963809Y-104592380D02*
X217963809Y-103592380D01*
X218059047Y-103735238D01*
X218154285Y-103830476D01*
X218249523Y-103878095D01*
M02*
