M48
; DRILL file {KiCad (6.0.2)} date Thu Jun 30 00:29:22 2022
; FORMAT={-:-/ absolute / inch / decimal}
; #@! TF.CreationDate,2022-06-30T00:29:22+03:00
; #@! TF.GenerationSoftware,Kicad,Pcbnew,(6.0.2)
; #@! TF.FileFunction,Plated,1,2,PTH
FMAT,2
INCH
; #@! TA.AperFunction,Plated,PTH,ComponentDrill
T1C0.0300
; #@! TA.AperFunction,Plated,PTH,ComponentDrill
T2C0.0354
%
G90
G05
T1
X9.6Y-4.0
T2
X6.2Y-0.8
X6.2Y-0.9
X6.2Y-1.0
X6.2Y-1.1
X6.2Y-1.1
X6.2Y-1.2
X6.2Y-1.3
X6.2Y-1.4
X6.2Y-1.5
X6.2Y-1.6
X6.2Y-1.7
X6.2Y-1.8
X6.2Y-1.9
X6.2Y-2.0
X6.2Y-2.1
X6.2Y-2.2
X6.2Y-2.3
X6.2Y-2.4
X6.2Y-2.5
X6.2Y-2.6
X6.2Y-2.7
X6.2Y-2.8
X6.2Y-2.9
X6.2Y-3.0
X6.2Y-3.1
X6.2Y-3.2
X6.2Y-3.3
X6.2Y-3.4
X6.2Y-3.5
X6.2Y-3.6
X6.2Y-3.7
X6.2Y-3.8
X6.2Y-3.9
X6.3Y-0.7
X6.3Y-0.8
X6.3Y-0.9
X6.3Y-1.0
X6.3Y-1.1
X6.3Y-1.2
X6.3Y-1.3
X6.3Y-1.4
X6.3Y-1.5
X6.3Y-1.6
X6.3Y-1.7
X6.3Y-1.8
X6.3Y-1.9
X6.3Y-2.0
X6.3Y-2.1
X6.3Y-2.2
X6.3Y-2.3
X6.3Y-2.4
X6.3Y-2.5
X6.3Y-2.6
X6.3Y-2.7
X6.3Y-2.8
X6.3Y-2.9
X6.3Y-3.0
X6.3Y-3.1
X6.3Y-3.2
X6.3Y-3.3
X6.3Y-3.4
X6.3Y-3.5
X6.3Y-3.6
X6.3Y-3.7
X6.3Y-3.8
X6.3Y-3.9
X6.4Y-0.7
X6.4Y-0.8
X6.4Y-0.9
X6.4Y-1.0
X6.4Y-1.1
X6.4Y-1.2
X6.4Y-1.3
X6.4Y-1.4
X6.4Y-1.5
X6.4Y-1.6
X6.4Y-1.7
X6.4Y-1.8
X6.4Y-1.9
X6.4Y-2.0
X6.4Y-2.1
X6.4Y-2.2
X6.4Y-2.3
X6.4Y-2.4
X6.4Y-2.5
X6.4Y-2.6
X6.4Y-2.7
X6.4Y-2.8
X6.4Y-2.9
X6.4Y-3.0
X6.4Y-3.1
X6.4Y-3.2
X6.4Y-3.3
X6.4Y-3.4
X6.4Y-3.5
X6.4Y-3.6
X6.4Y-3.7
X6.4Y-3.8
X6.4Y-3.9
X6.5Y-0.7
X6.5Y-0.8
X6.5Y-0.9
X6.5Y-1.0
X6.5Y-1.1
X6.5Y-1.2
X6.5Y-1.3
X6.5Y-1.4
X6.5Y-1.5
X6.5Y-1.6
X6.5Y-1.7
X6.5Y-1.8
X6.5Y-1.9
X6.5Y-2.0
X6.5Y-2.1
X6.5Y-2.2
X6.5Y-2.3
X6.5Y-2.4
X6.5Y-2.5
X6.5Y-2.6
X6.5Y-2.7
X6.5Y-2.8
X6.5Y-2.9
X6.5Y-3.0
X6.5Y-3.1
X6.5Y-3.2
X6.5Y-3.3
X6.5Y-3.4
X6.5Y-3.5
X6.5Y-3.6
X6.5Y-3.7
X6.5Y-3.9
X6.6Y-0.7
X6.6Y-0.8
X6.6Y-0.9
X6.6Y-1.0
X6.6Y-1.1
X6.6Y-1.2
X6.6Y-1.3
X6.6Y-1.4
X6.6Y-1.5
X6.6Y-1.6
X6.6Y-1.7
X6.6Y-1.8
X6.6Y-1.9
X6.6Y-2.0
X6.6Y-2.1
X6.6Y-2.2
X6.6Y-2.3
X6.6Y-2.4
X6.6Y-2.5
X6.6Y-2.6
X6.6Y-2.7
X6.6Y-2.8
X6.6Y-2.9
X6.6Y-3.0
X6.6Y-3.1
X6.6Y-3.2
X6.6Y-3.3
X6.6Y-3.4
X6.6Y-3.5
X6.6Y-3.6
X6.6Y-3.7
X6.6Y-3.9
X6.6Y-4.0
X6.7Y-0.7
X6.7Y-0.8
X6.7Y-0.9
X6.7Y-1.0
X6.7Y-1.1
X6.7Y-1.2
X6.7Y-1.3
X6.7Y-1.4
X6.7Y-1.5
X6.7Y-1.6
X6.7Y-1.7
X6.7Y-1.8
X6.7Y-1.9
X6.7Y-2.0
X6.7Y-2.1
X6.7Y-2.2
X6.7Y-2.3
X6.7Y-2.4
X6.7Y-2.5
X6.7Y-2.6
X6.7Y-2.7
X6.7Y-2.8
X6.7Y-2.9
X6.7Y-3.0
X6.7Y-3.1
X6.7Y-3.2
X6.7Y-3.3
X6.7Y-3.4
X6.7Y-3.5
X6.7Y-3.6
X6.7Y-3.7
X6.7Y-3.9
X6.7Y-3.9
X6.7Y-4.0
X6.8Y-0.7
X6.8Y-0.8
X6.8Y-0.9
X6.8Y-1.0
X6.8Y-1.1
X6.8Y-1.2
X6.8Y-1.3
X6.8Y-1.4
X6.8Y-1.5
X6.8Y-1.6
X6.8Y-1.7
X6.8Y-1.8
X6.8Y-1.9
X6.8Y-2.0
X6.8Y-2.1
X6.8Y-2.2
X6.8Y-2.3
X6.8Y-2.4
X6.8Y-2.5
X6.8Y-2.6
X6.8Y-2.7
X6.8Y-2.8
X6.8Y-2.9
X6.8Y-3.0
X6.8Y-3.1
X6.8Y-3.2
X6.8Y-3.3
X6.8Y-3.4
X6.8Y-3.5
X6.8Y-3.6
X6.8Y-3.7
X6.8Y-3.9
X6.8Y-4.0
X6.8Y-4.0
X6.9Y-0.7
X6.9Y-0.8
X6.9Y-0.9
X6.9Y-1.0
X6.9Y-1.1
X6.9Y-1.2
X6.9Y-1.3
X6.9Y-1.4
X6.9Y-1.5
X6.9Y-1.6
X6.9Y-1.7
X6.9Y-1.8
X6.9Y-1.9
X6.9Y-2.0
X6.9Y-2.1
X6.9Y-2.2
X6.9Y-2.3
X6.9Y-2.4
X6.9Y-2.5
X6.9Y-2.6
X6.9Y-2.7
X6.9Y-2.8
X6.9Y-2.9
X6.9Y-3.0
X6.9Y-3.1
X6.9Y-3.2
X6.9Y-3.3
X6.9Y-3.4
X6.9Y-3.5
X6.9Y-3.6
X6.9Y-3.7
X6.9Y-3.9
X6.9Y-3.9
X6.9Y-4.0
X7.0Y-0.7
X7.0Y-0.8
X7.0Y-0.9
X7.0Y-1.0
X7.0Y-1.1
X7.0Y-1.2
X7.0Y-1.3
X7.0Y-1.4
X7.0Y-1.5
X7.0Y-1.6
X7.0Y-1.7
X7.0Y-1.8
X7.0Y-1.9
X7.0Y-2.0
X7.0Y-2.1
X7.0Y-2.2
X7.0Y-2.3
X7.0Y-2.4
X7.0Y-2.5
X7.0Y-2.6
X7.0Y-2.7
X7.0Y-2.8
X7.0Y-2.9
X7.0Y-3.0
X7.0Y-3.1
X7.0Y-3.2
X7.0Y-3.3
X7.0Y-3.4
X7.0Y-3.5
X7.0Y-3.6
X7.0Y-3.7
X7.0Y-3.9
X7.0Y-4.0
X7.1Y-0.7
X7.1Y-0.8
X7.1Y-0.9
X7.1Y-1.0
X7.1Y-1.1
X7.1Y-1.2
X7.1Y-1.3
X7.1Y-1.4
X7.1Y-1.5
X7.1Y-1.6
X7.1Y-1.7
X7.1Y-1.8
X7.1Y-1.9
X7.1Y-2.0
X7.1Y-2.1
X7.1Y-2.2
X7.1Y-2.3
X7.1Y-2.4
X7.1Y-2.5
X7.1Y-2.6
X7.1Y-2.7
X7.1Y-2.8
X7.1Y-2.9
X7.1Y-3.0
X7.1Y-3.1
X7.1Y-3.2
X7.1Y-3.3
X7.1Y-3.4
X7.1Y-3.5
X7.1Y-3.6
X7.1Y-3.7
X7.1Y-3.9
X7.1Y-3.9
X7.1Y-4.0
X7.2Y-0.7
X7.2Y-0.8
X7.2Y-0.9
X7.2Y-1.0
X7.2Y-1.1
X7.2Y-1.2
X7.2Y-1.3
X7.2Y-1.4
X7.2Y-1.5
X7.2Y-1.6
X7.2Y-1.7
X7.2Y-1.8
X7.2Y-1.9
X7.2Y-2.0
X7.2Y-2.1
X7.2Y-2.2
X7.2Y-2.3
X7.2Y-2.4
X7.2Y-2.5
X7.2Y-2.6
X7.2Y-2.7
X7.2Y-2.8
X7.2Y-2.9
X7.2Y-3.0
X7.2Y-3.1
X7.2Y-3.2
X7.2Y-3.3
X7.2Y-3.4
X7.2Y-3.5
X7.2Y-3.6
X7.2Y-3.7
X7.2Y-3.9
X7.2Y-4.0
X7.2Y-4.0
X7.3Y-0.7
X7.3Y-0.8
X7.3Y-0.9
X7.3Y-1.0
X7.3Y-1.1
X7.3Y-1.2
X7.3Y-1.3
X7.3Y-1.4
X7.3Y-1.5
X7.3Y-1.6
X7.3Y-1.7
X7.3Y-1.8
X7.3Y-1.9
X7.3Y-2.0
X7.3Y-2.1
X7.3Y-2.2
X7.3Y-2.3
X7.3Y-2.4
X7.3Y-2.5
X7.3Y-2.6
X7.3Y-2.7
X7.3Y-2.8
X7.3Y-2.9
X7.3Y-3.0
X7.3Y-3.1
X7.3Y-3.2
X7.3Y-3.3
X7.3Y-3.4
X7.3Y-3.5
X7.3Y-3.6
X7.3Y-3.7
X7.3Y-3.9
X7.3Y-3.9
X7.3Y-4.0
X7.4Y-0.7
X7.4Y-0.8
X7.4Y-0.9
X7.4Y-1.0
X7.4Y-1.1
X7.4Y-1.2
X7.4Y-1.3
X7.4Y-1.4
X7.4Y-1.5
X7.4Y-1.6
X7.4Y-1.7
X7.4Y-1.8
X7.4Y-1.9
X7.4Y-2.0
X7.4Y-2.1
X7.4Y-2.2
X7.4Y-2.3
X7.4Y-2.4
X7.4Y-2.5
X7.4Y-2.6
X7.4Y-2.7
X7.4Y-2.8
X7.4Y-2.9
X7.4Y-3.0
X7.4Y-3.1
X7.4Y-3.2
X7.4Y-3.3
X7.4Y-3.4
X7.4Y-3.5
X7.4Y-3.6
X7.4Y-3.7
X7.4Y-3.9
X7.4Y-4.0
X7.4Y-4.0
X7.4Y-4.0
X7.4Y-4.0
X7.5Y-0.7
X7.5Y-0.8
X7.5Y-0.9
X7.5Y-1.0
X7.5Y-1.1
X7.5Y-1.2
X7.5Y-1.3
X7.5Y-1.4
X7.5Y-1.5
X7.5Y-1.6
X7.5Y-1.7
X7.5Y-1.8
X7.5Y-1.9
X7.5Y-2.0
X7.5Y-2.1
X7.5Y-2.2
X7.5Y-2.3
X7.5Y-2.4
X7.5Y-2.5
X7.5Y-2.6
X7.5Y-2.7
X7.5Y-2.8
X7.5Y-2.9
X7.5Y-3.0
X7.5Y-3.1
X7.5Y-3.2
X7.5Y-3.3
X7.5Y-3.4
X7.5Y-3.5
X7.5Y-3.6
X7.5Y-3.7
X7.5Y-3.9
X7.5Y-3.9
X7.5Y-4.0
X7.6Y-0.7
X7.6Y-0.8
X7.6Y-0.9
X7.6Y-1.0
X7.6Y-1.1
X7.6Y-1.2
X7.6Y-1.3
X7.6Y-1.4
X7.6Y-1.5
X7.6Y-1.6
X7.6Y-1.7
X7.6Y-1.8
X7.6Y-1.9
X7.6Y-2.0
X7.6Y-2.1
X7.6Y-2.2
X7.6Y-2.3
X7.6Y-2.4
X7.6Y-2.5
X7.6Y-2.6
X7.6Y-2.7
X7.6Y-2.8
X7.6Y-2.9
X7.6Y-3.0
X7.6Y-3.1
X7.6Y-3.2
X7.6Y-3.3
X7.6Y-3.4
X7.6Y-3.5
X7.6Y-3.6
X7.6Y-3.7
X7.6Y-3.9
X7.6Y-4.0
X7.6Y-4.0
X7.7Y-0.7
X7.7Y-0.8
X7.7Y-0.9
X7.7Y-1.0
X7.7Y-1.1
X7.7Y-1.2
X7.7Y-1.3
X7.7Y-1.4
X7.7Y-1.5
X7.7Y-1.6
X7.7Y-1.7
X7.7Y-1.8
X7.7Y-1.9
X7.7Y-2.0
X7.7Y-2.1
X7.7Y-2.2
X7.7Y-2.3
X7.7Y-2.4
X7.7Y-2.5
X7.7Y-2.6
X7.7Y-2.7
X7.7Y-2.8
X7.7Y-2.9
X7.7Y-3.0
X7.7Y-3.1
X7.7Y-3.2
X7.7Y-3.3
X7.7Y-3.4
X7.7Y-3.5
X7.7Y-3.6
X7.7Y-3.7
X7.7Y-3.9
X7.7Y-3.9
X7.7Y-4.0
X7.8Y-0.7
X7.8Y-0.8
X7.8Y-0.9
X7.8Y-1.0
X7.8Y-1.1
X7.8Y-1.2
X7.8Y-1.3
X7.8Y-1.4
X7.8Y-1.5
X7.8Y-1.6
X7.8Y-1.7
X7.8Y-1.8
X7.8Y-1.9
X7.8Y-2.0
X7.8Y-2.1
X7.8Y-2.2
X7.8Y-2.3
X7.8Y-2.4
X7.8Y-2.5
X7.8Y-2.6
X7.8Y-2.7
X7.8Y-2.8
X7.8Y-2.9
X7.8Y-3.0
X7.8Y-3.1
X7.8Y-3.2
X7.8Y-3.3
X7.8Y-3.4
X7.8Y-3.5
X7.8Y-3.6
X7.8Y-3.7
X7.8Y-3.9
X7.8Y-4.0
X7.8Y-4.0
X7.8Y-4.0
X7.8Y-4.0
X7.9Y-0.7
X7.9Y-0.8
X7.9Y-0.9
X7.9Y-1.0
X7.9Y-1.1
X7.9Y-1.2
X7.9Y-1.3
X7.9Y-1.4
X7.9Y-1.5
X7.9Y-1.6
X7.9Y-1.7
X7.9Y-1.8
X7.9Y-1.9
X7.9Y-2.0
X7.9Y-2.1
X7.9Y-2.2
X7.9Y-2.3
X7.9Y-2.4
X7.9Y-2.5
X7.9Y-2.6
X7.9Y-2.7
X7.9Y-2.8
X7.9Y-2.9
X7.9Y-3.0
X7.9Y-3.1
X7.9Y-3.2
X7.9Y-3.3
X7.9Y-3.4
X7.9Y-3.5
X7.9Y-3.6
X7.9Y-3.7
X7.9Y-3.9
X7.9Y-3.9
X7.9Y-4.0
X8.0Y-0.7
X8.0Y-0.8
X8.0Y-0.9
X8.0Y-1.0
X8.0Y-1.1
X8.0Y-1.2
X8.0Y-1.3
X8.0Y-1.4
X8.0Y-1.5
X8.0Y-1.6
X8.0Y-1.7
X8.0Y-1.8
X8.0Y-1.9
X8.0Y-2.0
X8.0Y-2.1
X8.0Y-2.2
X8.0Y-2.3
X8.0Y-2.4
X8.0Y-2.5
X8.0Y-2.6
X8.0Y-2.7
X8.0Y-2.8
X8.0Y-2.9
X8.0Y-3.0
X8.0Y-3.1
X8.0Y-3.2
X8.0Y-3.3
X8.0Y-3.4
X8.0Y-3.5
X8.0Y-3.6
X8.0Y-3.7
X8.0Y-3.9
X8.0Y-4.0
X8.0Y-4.0
X8.1Y-0.7
X8.1Y-0.8
X8.1Y-0.9
X8.1Y-1.0
X8.1Y-1.1
X8.1Y-1.2
X8.1Y-1.3
X8.1Y-1.4
X8.1Y-1.5
X8.1Y-1.6
X8.1Y-1.7
X8.1Y-1.8
X8.1Y-1.9
X8.1Y-2.0
X8.1Y-2.1
X8.1Y-2.2
X8.1Y-2.3
X8.1Y-2.4
X8.1Y-2.5
X8.1Y-2.6
X8.1Y-2.7
X8.1Y-2.8
X8.1Y-2.9
X8.1Y-3.0
X8.1Y-3.1
X8.1Y-3.2
X8.1Y-3.3
X8.1Y-3.4
X8.1Y-3.5
X8.1Y-3.6
X8.1Y-3.7
X8.1Y-3.9
X8.1Y-3.9
X8.1Y-4.0
X8.2Y-0.7
X8.2Y-0.8
X8.2Y-0.9
X8.2Y-1.0
X8.2Y-1.1
X8.2Y-1.2
X8.2Y-1.3
X8.2Y-1.4
X8.2Y-1.5
X8.2Y-1.6
X8.2Y-1.7
X8.2Y-1.8
X8.2Y-1.9
X8.2Y-2.0
X8.2Y-2.1
X8.2Y-2.2
X8.2Y-2.3
X8.2Y-2.4
X8.2Y-2.5
X8.2Y-2.6
X8.2Y-2.7
X8.2Y-2.8
X8.2Y-2.9
X8.2Y-3.0
X8.2Y-3.1
X8.2Y-3.2
X8.2Y-3.3
X8.2Y-3.4
X8.2Y-3.5
X8.2Y-3.6
X8.2Y-3.7
X8.2Y-3.9
X8.2Y-4.0
X8.2Y-4.0
X8.2Y-4.0
X8.2Y-4.0
X8.3Y-0.7
X8.3Y-0.8
X8.3Y-0.9
X8.3Y-1.0
X8.3Y-1.1
X8.3Y-1.2
X8.3Y-1.3
X8.3Y-1.4
X8.3Y-1.5
X8.3Y-1.6
X8.3Y-1.7
X8.3Y-1.8
X8.3Y-1.9
X8.3Y-2.0
X8.3Y-2.1
X8.3Y-2.2
X8.3Y-2.3
X8.3Y-2.4
X8.3Y-2.5
X8.3Y-2.6
X8.3Y-2.7
X8.3Y-2.8
X8.3Y-2.9
X8.3Y-3.0
X8.3Y-3.1
X8.3Y-3.2
X8.3Y-3.3
X8.3Y-3.4
X8.3Y-3.5
X8.3Y-3.6
X8.3Y-3.7
X8.3Y-3.9
X8.3Y-3.9
X8.3Y-4.0
X8.4Y-0.7
X8.4Y-0.8
X8.4Y-0.9
X8.4Y-1.0
X8.4Y-1.1
X8.4Y-1.2
X8.4Y-1.3
X8.4Y-1.4
X8.4Y-1.5
X8.4Y-1.6
X8.4Y-1.7
X8.4Y-1.8
X8.4Y-1.9
X8.4Y-2.0
X8.4Y-2.1
X8.4Y-2.2
X8.4Y-2.3
X8.4Y-2.4
X8.4Y-2.5
X8.4Y-2.6
X8.4Y-2.7
X8.4Y-2.8
X8.4Y-2.9
X8.4Y-3.0
X8.4Y-3.1
X8.4Y-3.2
X8.4Y-3.3
X8.4Y-3.4
X8.4Y-3.5
X8.4Y-3.6
X8.4Y-3.7
X8.4Y-3.9
X8.4Y-4.0
X8.4Y-4.0
X8.5Y-0.7
X8.5Y-0.8
X8.5Y-0.9
X8.5Y-1.0
X8.5Y-1.1
X8.5Y-1.2
X8.5Y-1.3
X8.5Y-1.4
X8.5Y-1.5
X8.5Y-1.6
X8.5Y-1.7
X8.5Y-1.8
X8.5Y-1.9
X8.5Y-2.0
X8.5Y-2.1
X8.5Y-2.2
X8.5Y-2.3
X8.5Y-2.4
X8.5Y-2.5
X8.5Y-2.6
X8.5Y-2.7
X8.5Y-2.8
X8.5Y-2.9
X8.5Y-3.0
X8.5Y-3.1
X8.5Y-3.2
X8.5Y-3.3
X8.5Y-3.4
X8.5Y-3.5
X8.5Y-3.6
X8.5Y-3.7
X8.5Y-3.9
X8.5Y-3.9
X8.5Y-4.0
X8.6Y-0.7
X8.6Y-0.8
X8.6Y-0.9
X8.6Y-1.0
X8.6Y-1.1
X8.6Y-1.2
X8.6Y-1.3
X8.6Y-1.4
X8.6Y-1.5
X8.6Y-1.6
X8.6Y-1.7
X8.6Y-1.8
X8.6Y-1.9
X8.6Y-2.0
X8.6Y-2.1
X8.6Y-2.2
X8.6Y-2.3
X8.6Y-2.4
X8.6Y-2.5
X8.6Y-2.6
X8.6Y-2.7
X8.6Y-2.8
X8.6Y-2.9
X8.6Y-3.0
X8.6Y-3.1
X8.6Y-3.2
X8.6Y-3.3
X8.6Y-3.4
X8.6Y-3.5
X8.6Y-3.6
X8.6Y-3.7
X8.6Y-3.9
X8.6Y-4.0
X8.6Y-4.0
X8.6Y-4.0
X8.6Y-4.0
X8.7Y-0.7
X8.7Y-0.8
X8.7Y-0.9
X8.7Y-1.0
X8.7Y-1.1
X8.7Y-1.2
X8.7Y-1.3
X8.7Y-1.4
X8.7Y-1.5
X8.7Y-1.6
X8.7Y-1.7
X8.7Y-1.8
X8.7Y-1.9
X8.7Y-2.0
X8.7Y-2.1
X8.7Y-2.2
X8.7Y-2.3
X8.7Y-2.4
X8.7Y-2.5
X8.7Y-2.6
X8.7Y-2.7
X8.7Y-2.8
X8.7Y-2.9
X8.7Y-3.0
X8.7Y-3.1
X8.7Y-3.2
X8.7Y-3.3
X8.7Y-3.4
X8.7Y-3.5
X8.7Y-3.6
X8.7Y-3.7
X8.7Y-3.9
X8.7Y-3.9
X8.7Y-4.0
X8.8Y-0.7
X8.8Y-0.8
X8.8Y-0.9
X8.8Y-1.0
X8.8Y-1.1
X8.8Y-1.2
X8.8Y-1.3
X8.8Y-1.4
X8.8Y-1.5
X8.8Y-1.6
X8.8Y-1.7
X8.8Y-1.8
X8.8Y-1.9
X8.8Y-2.0
X8.8Y-2.1
X8.8Y-2.2
X8.8Y-2.3
X8.8Y-2.4
X8.8Y-2.5
X8.8Y-2.6
X8.8Y-2.7
X8.8Y-2.8
X8.8Y-2.9
X8.8Y-3.0
X8.8Y-3.1
X8.8Y-3.2
X8.8Y-3.3
X8.8Y-3.4
X8.8Y-3.5
X8.8Y-3.6
X8.8Y-3.7
X8.8Y-3.9
X8.8Y-4.0
X8.8Y-4.0
X8.9Y-0.7
X8.9Y-0.8
X8.9Y-0.9
X8.9Y-1.0
X8.9Y-1.1
X8.9Y-1.2
X8.9Y-1.3
X8.9Y-1.4
X8.9Y-1.5
X8.9Y-1.6
X8.9Y-1.7
X8.9Y-1.8
X8.9Y-1.9
X8.9Y-2.0
X8.9Y-2.1
X8.9Y-2.2
X8.9Y-2.3
X8.9Y-2.4
X8.9Y-2.5
X8.9Y-2.6
X8.9Y-2.7
X8.9Y-2.8
X8.9Y-2.9
X8.9Y-3.0
X8.9Y-3.1
X8.9Y-3.2
X8.9Y-3.3
X8.9Y-3.4
X8.9Y-3.5
X8.9Y-3.6
X8.9Y-3.7
X8.9Y-3.9
X8.9Y-3.9
X8.9Y-4.0
X9.0Y-0.7
X9.0Y-0.8
X9.0Y-0.9
X9.0Y-1.0
X9.0Y-1.1
X9.0Y-1.2
X9.0Y-1.3
X9.0Y-1.4
X9.0Y-1.5
X9.0Y-1.6
X9.0Y-1.7
X9.0Y-1.8
X9.0Y-1.9
X9.0Y-2.0
X9.0Y-2.1
X9.0Y-2.2
X9.0Y-2.3
X9.0Y-2.4
X9.0Y-2.5
X9.0Y-2.6
X9.0Y-2.7
X9.0Y-2.8
X9.0Y-2.9
X9.0Y-3.0
X9.0Y-3.1
X9.0Y-3.2
X9.0Y-3.3
X9.0Y-3.4
X9.0Y-3.5
X9.0Y-3.6
X9.0Y-3.7
X9.0Y-3.9
X9.0Y-4.0
X9.0Y-4.0
X9.0Y-4.0
X9.0Y-4.0
X9.1Y-0.7
X9.1Y-0.8
X9.1Y-0.9
X9.1Y-1.0
X9.1Y-1.1
X9.1Y-1.2
X9.1Y-1.3
X9.1Y-1.4
X9.1Y-1.5
X9.1Y-1.6
X9.1Y-1.7
X9.1Y-1.8
X9.1Y-1.9
X9.1Y-2.0
X9.1Y-2.1
X9.1Y-2.2
X9.1Y-2.3
X9.1Y-2.4
X9.1Y-2.5
X9.1Y-2.6
X9.1Y-2.7
X9.1Y-2.8
X9.1Y-2.9
X9.1Y-3.0
X9.1Y-3.1
X9.1Y-3.2
X9.1Y-3.3
X9.1Y-3.4
X9.1Y-3.5
X9.1Y-3.6
X9.1Y-3.7
X9.1Y-3.9
X9.1Y-3.9
X9.1Y-4.0
X9.2Y-0.7
X9.2Y-0.8
X9.2Y-0.9
X9.2Y-1.0
X9.2Y-1.1
X9.2Y-1.2
X9.2Y-1.3
X9.2Y-1.4
X9.2Y-1.5
X9.2Y-1.6
X9.2Y-1.7
X9.2Y-1.8
X9.2Y-1.9
X9.2Y-2.0
X9.2Y-2.1
X9.2Y-2.2
X9.2Y-2.3
X9.2Y-2.4
X9.2Y-2.5
X9.2Y-2.6
X9.2Y-2.7
X9.2Y-2.8
X9.2Y-2.9
X9.2Y-3.0
X9.2Y-3.1
X9.2Y-3.2
X9.2Y-3.3
X9.2Y-3.4
X9.2Y-3.5
X9.2Y-3.6
X9.2Y-3.7
X9.2Y-3.9
X9.2Y-4.0
X9.2Y-4.0
X9.3Y-0.7
X9.3Y-0.8
X9.3Y-0.9
X9.3Y-1.0
X9.3Y-1.1
X9.3Y-1.2
X9.3Y-1.3
X9.3Y-1.4
X9.3Y-1.5
X9.3Y-1.6
X9.3Y-1.7
X9.3Y-1.8
X9.3Y-1.9
X9.3Y-2.0
X9.3Y-2.1
X9.3Y-2.2
X9.3Y-2.3
X9.3Y-2.4
X9.3Y-2.5
X9.3Y-2.6
X9.3Y-2.7
X9.3Y-2.8
X9.3Y-2.9
X9.3Y-3.0
X9.3Y-3.1
X9.3Y-3.2
X9.3Y-3.3
X9.3Y-3.4
X9.3Y-3.5
X9.3Y-3.6
X9.3Y-3.7
X9.3Y-3.9
X9.3Y-3.9
X9.3Y-4.0
X9.4Y-0.7
X9.4Y-0.8
X9.4Y-0.9
X9.4Y-1.0
X9.4Y-1.1
X9.4Y-1.2
X9.4Y-1.3
X9.4Y-1.4
X9.4Y-1.5
X9.4Y-1.6
X9.4Y-1.7
X9.4Y-1.8
X9.4Y-1.9
X9.4Y-2.0
X9.4Y-2.1
X9.4Y-2.2
X9.4Y-2.3
X9.4Y-2.4
X9.4Y-2.5
X9.4Y-2.6
X9.4Y-2.7
X9.4Y-2.8
X9.4Y-2.9
X9.4Y-3.0
X9.4Y-3.1
X9.4Y-3.2
X9.4Y-3.3
X9.4Y-3.4
X9.4Y-3.5
X9.4Y-3.6
X9.4Y-3.7
X9.4Y-3.9
X9.4Y-4.0
X9.4Y-4.0
X9.4Y-4.0
X9.4Y-4.0
X9.5Y-0.7
X9.5Y-0.8
X9.5Y-0.9
X9.5Y-1.0
X9.5Y-1.1
X9.5Y-1.2
X9.5Y-1.3
X9.5Y-1.4
X9.5Y-1.5
X9.5Y-1.6
X9.5Y-1.7
X9.5Y-1.8
X9.5Y-1.9
X9.5Y-2.0
X9.5Y-2.1
X9.5Y-2.2
X9.5Y-2.3
X9.5Y-2.4
X9.5Y-2.5
X9.5Y-2.6
X9.5Y-2.7
X9.5Y-2.8
X9.5Y-2.9
X9.5Y-3.0
X9.5Y-3.1
X9.5Y-3.2
X9.5Y-3.3
X9.5Y-3.4
X9.5Y-3.5
X9.5Y-3.6
X9.5Y-3.7
X9.5Y-3.9
X9.5Y-3.9
X9.5Y-4.0
X9.6Y-0.7
X9.6Y-0.8
X9.6Y-0.9
X9.6Y-1.0
X9.6Y-1.1
X9.6Y-1.2
X9.6Y-1.3
X9.6Y-1.4
X9.6Y-1.5
X9.6Y-1.6
X9.6Y-1.7
X9.6Y-1.8
X9.6Y-1.9
X9.6Y-2.0
X9.6Y-2.1
X9.6Y-2.2
X9.6Y-2.3
X9.6Y-2.4
X9.6Y-2.5
X9.6Y-2.6
X9.6Y-2.7
X9.6Y-2.8
X9.6Y-2.9
X9.6Y-3.0
X9.6Y-3.1
X9.6Y-3.2
X9.6Y-3.3
X9.6Y-3.4
X9.6Y-3.5
X9.6Y-3.6
X9.6Y-3.7
X9.6Y-3.9
X9.6Y-4.0
X9.6Y-4.0
X9.7Y-0.7
X9.7Y-0.8
X9.7Y-0.9
X9.7Y-1.0
X9.7Y-1.1
X9.7Y-1.2
X9.7Y-1.3
X9.7Y-1.4
X9.7Y-1.5
X9.7Y-1.6
X9.7Y-1.7
X9.7Y-1.8
X9.7Y-1.9
X9.7Y-2.0
X9.7Y-2.1
X9.7Y-2.2
X9.7Y-2.3
X9.7Y-2.4
X9.7Y-2.5
X9.7Y-2.6
X9.7Y-2.7
X9.7Y-2.8
X9.7Y-2.9
X9.7Y-3.0
X9.7Y-3.1
X9.7Y-3.2
X9.7Y-3.3
X9.7Y-3.4
X9.7Y-3.5
X9.7Y-3.6
X9.7Y-3.7
X9.7Y-3.9
X9.7Y-3.9
X9.8Y-0.7
X9.8Y-0.8
X9.8Y-0.9
X9.8Y-1.0
X9.8Y-1.1
X9.8Y-1.2
X9.8Y-1.3
X9.8Y-1.4
X9.8Y-1.5
X9.8Y-1.6
X9.8Y-1.7
X9.8Y-1.8
X9.8Y-1.9
X9.8Y-2.0
X9.8Y-2.1
X9.8Y-2.2
X9.8Y-2.3
X9.8Y-2.4
X9.8Y-2.5
X9.8Y-2.6
X9.8Y-2.7
X9.8Y-2.8
X9.8Y-2.9
X9.8Y-3.0
X9.8Y-3.1
X9.8Y-3.2
X9.8Y-3.3
X9.8Y-3.4
X9.8Y-3.5
X9.8Y-3.6
X9.8Y-3.7
X9.8Y-3.8
X9.8Y-3.9
X9.9Y-0.7
X9.9Y-0.8
X9.9Y-0.9
X9.9Y-1.0
X9.9Y-1.1
X9.9Y-1.2
X9.9Y-1.3
X9.9Y-1.4
X9.9Y-1.5
X9.9Y-1.6
X9.9Y-1.7
X9.9Y-1.8
X9.9Y-1.9
X9.9Y-2.0
X9.9Y-2.1
X9.9Y-2.2
X9.9Y-2.3
X9.9Y-2.4
X9.9Y-2.5
X9.9Y-2.6
X9.9Y-2.7
X9.9Y-2.8
X9.9Y-2.9
X9.9Y-3.0
X9.9Y-3.1
X9.9Y-3.2
X9.9Y-3.3
X9.9Y-3.4
X9.9Y-3.5
X9.9Y-3.6
X9.9Y-3.7
X9.9Y-3.8
X9.9Y-3.9
X10.0Y-0.8
X10.0Y-0.9
X10.0Y-1.0
X10.0Y-1.1
X10.0Y-1.2
X10.0Y-1.3
X10.0Y-1.4
X10.0Y-1.5
X10.0Y-1.6
X10.0Y-1.7
X10.0Y-1.8
X10.0Y-1.9
X10.0Y-2.0
X10.0Y-2.1
X10.0Y-2.2
X10.0Y-2.3
X10.0Y-2.4
X10.0Y-2.5
X10.0Y-2.6
X10.0Y-2.7
X10.0Y-2.8
X10.0Y-2.9
X10.0Y-3.0
X10.0Y-3.1
X10.0Y-3.2
X10.0Y-3.3
X10.0Y-3.4
X10.0Y-3.5
X10.0Y-3.6
X10.0Y-3.7
X10.0Y-3.8
X10.0Y-3.9
T0
M30
