%TF.GenerationSoftware,KiCad,Pcbnew,(6.0.2)*%
%TF.CreationDate,2022-06-29T22:10:34+03:00*%
%TF.ProjectId,zx-bus_board,7a782d62-7573-45f6-926f-6172642e6b69,rev?*%
%TF.SameCoordinates,Original*%
%TF.FileFunction,Legend,Top*%
%TF.FilePolarity,Positive*%
%FSLAX46Y46*%
G04 Gerber Fmt 4.6, Leading zero omitted, Abs format (unit mm)*
G04 Created by KiCad (PCBNEW (6.0.2)) date 2022-06-29 22:10:34*
%MOMM*%
%LPD*%
G01*
G04 APERTURE LIST*
%ADD10C,0.150000*%
%ADD11C,0.300000*%
G04 APERTURE END LIST*
D10*
X187769523Y-104592380D02*
X187960000Y-104592380D01*
X188055238Y-104544761D01*
X188102857Y-104497142D01*
X188198095Y-104354285D01*
X188245714Y-104163809D01*
X188245714Y-103782857D01*
X188198095Y-103687619D01*
X188150476Y-103640000D01*
X188055238Y-103592380D01*
X187864761Y-103592380D01*
X187769523Y-103640000D01*
X187721904Y-103687619D01*
X187674285Y-103782857D01*
X187674285Y-104020952D01*
X187721904Y-104116190D01*
X187769523Y-104163809D01*
X187864761Y-104211428D01*
X188055238Y-104211428D01*
X188150476Y-104163809D01*
X188198095Y-104116190D01*
X188245714Y-104020952D01*
X180530476Y-103592380D02*
X180340000Y-103592380D01*
X180244761Y-103640000D01*
X180197142Y-103687619D01*
X180101904Y-103830476D01*
X180054285Y-104020952D01*
X180054285Y-104401904D01*
X180101904Y-104497142D01*
X180149523Y-104544761D01*
X180244761Y-104592380D01*
X180435238Y-104592380D01*
X180530476Y-104544761D01*
X180578095Y-104497142D01*
X180625714Y-104401904D01*
X180625714Y-104163809D01*
X180578095Y-104068571D01*
X180530476Y-104020952D01*
X180435238Y-103973333D01*
X180244761Y-103973333D01*
X180149523Y-104020952D01*
X180101904Y-104068571D01*
X180054285Y-104163809D01*
X233846666Y-97710476D02*
X233846666Y-97234285D01*
X234132380Y-97805714D02*
X233132380Y-97472380D01*
X234132380Y-97139047D01*
X234132380Y-96281904D02*
X234132380Y-96853333D01*
X234132380Y-96567619D02*
X233132380Y-96567619D01*
X233275238Y-96662857D01*
X233370476Y-96758095D01*
X233418095Y-96853333D01*
X233132380Y-95662857D02*
X233132380Y-95567619D01*
X233180000Y-95472380D01*
X233227619Y-95424761D01*
X233322857Y-95377142D01*
X233513333Y-95329523D01*
X233751428Y-95329523D01*
X233941904Y-95377142D01*
X234037142Y-95424761D01*
X234084761Y-95472380D01*
X234132380Y-95567619D01*
X234132380Y-95662857D01*
X234084761Y-95758095D01*
X234037142Y-95805714D01*
X233941904Y-95853333D01*
X233751428Y-95900952D01*
X233513333Y-95900952D01*
X233322857Y-95853333D01*
X233227619Y-95805714D01*
X233180000Y-95758095D01*
X233132380Y-95662857D01*
X243030476Y-103592380D02*
X243649523Y-103592380D01*
X243316190Y-103973333D01*
X243459047Y-103973333D01*
X243554285Y-104020952D01*
X243601904Y-104068571D01*
X243649523Y-104163809D01*
X243649523Y-104401904D01*
X243601904Y-104497142D01*
X243554285Y-104544761D01*
X243459047Y-104592380D01*
X243173333Y-104592380D01*
X243078095Y-104544761D01*
X243030476Y-104497142D01*
X244601904Y-104592380D02*
X244030476Y-104592380D01*
X244316190Y-104592380D02*
X244316190Y-103592380D01*
X244220952Y-103735238D01*
X244125714Y-103830476D01*
X244030476Y-103878095D01*
X200456786Y-104535599D02*
X199885358Y-104535599D01*
X200171072Y-104535599D02*
X200171072Y-103535599D01*
X200075834Y-103678457D01*
X199980596Y-103773695D01*
X199885358Y-103821314D01*
X201313929Y-103868933D02*
X201313929Y-104535599D01*
X201075834Y-103487980D02*
X200837739Y-104202266D01*
X201456786Y-104202266D01*
X213169523Y-104592380D02*
X212598095Y-104592380D01*
X212883809Y-104592380D02*
X212883809Y-103592380D01*
X212788571Y-103735238D01*
X212693333Y-103830476D01*
X212598095Y-103878095D01*
X213645714Y-104592380D02*
X213836190Y-104592380D01*
X213931428Y-104544761D01*
X213979047Y-104497142D01*
X214074285Y-104354285D01*
X214121904Y-104163809D01*
X214121904Y-103782857D01*
X214074285Y-103687619D01*
X214026666Y-103640000D01*
X213931428Y-103592380D01*
X213740952Y-103592380D01*
X213645714Y-103640000D01*
X213598095Y-103687619D01*
X213550476Y-103782857D01*
X213550476Y-104020952D01*
X213598095Y-104116190D01*
X213645714Y-104163809D01*
X213740952Y-104211428D01*
X213931428Y-104211428D01*
X214026666Y-104163809D01*
X214074285Y-104116190D01*
X214121904Y-104020952D01*
X185872380Y-97258095D02*
X184872380Y-97258095D01*
X184872380Y-97020000D01*
X184920000Y-96877142D01*
X185015238Y-96781904D01*
X185110476Y-96734285D01*
X185300952Y-96686666D01*
X185443809Y-96686666D01*
X185634285Y-96734285D01*
X185729523Y-96781904D01*
X185824761Y-96877142D01*
X185872380Y-97020000D01*
X185872380Y-97258095D01*
X184967619Y-96305714D02*
X184920000Y-96258095D01*
X184872380Y-96162857D01*
X184872380Y-95924761D01*
X184920000Y-95829523D01*
X184967619Y-95781904D01*
X185062857Y-95734285D01*
X185158095Y-95734285D01*
X185300952Y-95781904D01*
X185872380Y-96353333D01*
X185872380Y-95734285D01*
X201066084Y-97612169D02*
X200066084Y-97612169D01*
X201066084Y-97040740D01*
X200066084Y-97040740D01*
X201066084Y-96564550D02*
X200066084Y-96564550D01*
X200780370Y-96231216D01*
X200066084Y-95897883D01*
X201066084Y-95897883D01*
X201066084Y-95421692D02*
X200066084Y-95421692D01*
X246141904Y-96686666D02*
X246618095Y-96686666D01*
X246046666Y-96972380D02*
X246380000Y-95972380D01*
X246713333Y-96972380D01*
X215138095Y-103687619D02*
X215185714Y-103640000D01*
X215280952Y-103592380D01*
X215519047Y-103592380D01*
X215614285Y-103640000D01*
X215661904Y-103687619D01*
X215709523Y-103782857D01*
X215709523Y-103878095D01*
X215661904Y-104020952D01*
X215090476Y-104592380D01*
X215709523Y-104592380D01*
X216328571Y-103592380D02*
X216423809Y-103592380D01*
X216519047Y-103640000D01*
X216566666Y-103687619D01*
X216614285Y-103782857D01*
X216661904Y-103973333D01*
X216661904Y-104211428D01*
X216614285Y-104401904D01*
X216566666Y-104497142D01*
X216519047Y-104544761D01*
X216423809Y-104592380D01*
X216328571Y-104592380D01*
X216233333Y-104544761D01*
X216185714Y-104497142D01*
X216138095Y-104401904D01*
X216090476Y-104211428D01*
X216090476Y-103973333D01*
X216138095Y-103782857D01*
X216185714Y-103687619D01*
X216233333Y-103640000D01*
X216328571Y-103592380D01*
X170346666Y-97710476D02*
X170346666Y-97234285D01*
X170632380Y-97805714D02*
X169632380Y-97472380D01*
X170632380Y-97139047D01*
X170632380Y-96281904D02*
X170632380Y-96853333D01*
X170632380Y-96567619D02*
X169632380Y-96567619D01*
X169775238Y-96662857D01*
X169870476Y-96758095D01*
X169918095Y-96853333D01*
X169632380Y-95948571D02*
X169632380Y-95329523D01*
X170013333Y-95662857D01*
X170013333Y-95520000D01*
X170060952Y-95424761D01*
X170108571Y-95377142D01*
X170203809Y-95329523D01*
X170441904Y-95329523D01*
X170537142Y-95377142D01*
X170584761Y-95424761D01*
X170632380Y-95520000D01*
X170632380Y-95805714D01*
X170584761Y-95900952D01*
X170537142Y-95948571D01*
X182546666Y-103592380D02*
X183213333Y-103592380D01*
X182784761Y-104592380D01*
X172386666Y-103592380D02*
X173005714Y-103592380D01*
X172672380Y-103973333D01*
X172815238Y-103973333D01*
X172910476Y-104020952D01*
X172958095Y-104068571D01*
X173005714Y-104163809D01*
X173005714Y-104401904D01*
X172958095Y-104497142D01*
X172910476Y-104544761D01*
X172815238Y-104592380D01*
X172529523Y-104592380D01*
X172434285Y-104544761D01*
X172386666Y-104497142D01*
X211272380Y-96710476D02*
X210796190Y-97043809D01*
X211272380Y-97281904D02*
X210272380Y-97281904D01*
X210272380Y-96900952D01*
X210320000Y-96805714D01*
X210367619Y-96758095D01*
X210462857Y-96710476D01*
X210605714Y-96710476D01*
X210700952Y-96758095D01*
X210748571Y-96805714D01*
X210796190Y-96900952D01*
X210796190Y-97281904D01*
X211272380Y-96281904D02*
X210272380Y-96281904D01*
X210272380Y-96043809D01*
X210320000Y-95900952D01*
X210415238Y-95805714D01*
X210510476Y-95758095D01*
X210700952Y-95710476D01*
X210843809Y-95710476D01*
X211034285Y-95758095D01*
X211129523Y-95805714D01*
X211224761Y-95900952D01*
X211272380Y-96043809D01*
X211272380Y-96281904D01*
X195983016Y-97255026D02*
X194983016Y-97255026D01*
X194983016Y-97016931D01*
X195030636Y-96874073D01*
X195125874Y-96778835D01*
X195221112Y-96731216D01*
X195411588Y-96683597D01*
X195554445Y-96683597D01*
X195744921Y-96731216D01*
X195840159Y-96778835D01*
X195935397Y-96874073D01*
X195983016Y-97016931D01*
X195983016Y-97255026D01*
X195316350Y-95826454D02*
X195983016Y-95826454D01*
X194935397Y-96064550D02*
X195649683Y-96302645D01*
X195649683Y-95683597D01*
X167925714Y-104592380D02*
X167354285Y-104592380D01*
X167640000Y-104592380D02*
X167640000Y-103592380D01*
X167544761Y-103735238D01*
X167449523Y-103830476D01*
X167354285Y-103878095D01*
X229052380Y-97303333D02*
X228576190Y-97536666D01*
X229052380Y-97703333D02*
X228052380Y-97703333D01*
X228052380Y-97436666D01*
X228100000Y-97370000D01*
X228147619Y-97336666D01*
X228242857Y-97303333D01*
X228385714Y-97303333D01*
X228480952Y-97336666D01*
X228528571Y-97370000D01*
X228576190Y-97436666D01*
X228576190Y-97703333D01*
X228528571Y-96770000D02*
X228528571Y-97003333D01*
X229052380Y-97003333D02*
X228052380Y-97003333D01*
X228052380Y-96670000D01*
X229004761Y-96436666D02*
X229052380Y-96336666D01*
X229052380Y-96170000D01*
X229004761Y-96103333D01*
X228957142Y-96070000D01*
X228861904Y-96036666D01*
X228766666Y-96036666D01*
X228671428Y-96070000D01*
X228623809Y-96103333D01*
X228576190Y-96170000D01*
X228528571Y-96303333D01*
X228480952Y-96370000D01*
X228433333Y-96403333D01*
X228338095Y-96436666D01*
X228242857Y-96436666D01*
X228147619Y-96403333D01*
X228100000Y-96370000D01*
X228052380Y-96303333D01*
X228052380Y-96136666D01*
X228100000Y-96036666D01*
X229052380Y-95736666D02*
X228052380Y-95736666D01*
X228528571Y-95736666D02*
X228528571Y-95336666D01*
X229052380Y-95336666D02*
X228052380Y-95336666D01*
X203652380Y-97591428D02*
X202652380Y-97591428D01*
X203128571Y-97591428D02*
X203128571Y-97020000D01*
X203652380Y-97020000D02*
X202652380Y-97020000D01*
X203652380Y-96067619D02*
X203652380Y-96543809D01*
X202652380Y-96543809D01*
X202652380Y-95877142D02*
X202652380Y-95305714D01*
X203652380Y-95591428D02*
X202652380Y-95591428D01*
X217678095Y-103687619D02*
X217725714Y-103640000D01*
X217820952Y-103592380D01*
X218059047Y-103592380D01*
X218154285Y-103640000D01*
X218201904Y-103687619D01*
X218249523Y-103782857D01*
X218249523Y-103878095D01*
X218201904Y-104020952D01*
X217630476Y-104592380D01*
X218249523Y-104592380D01*
X219201904Y-104592380D02*
X218630476Y-104592380D01*
X218916190Y-104592380D02*
X218916190Y-103592380D01*
X218820952Y-103735238D01*
X218725714Y-103830476D01*
X218630476Y-103878095D01*
X193475369Y-97255026D02*
X192475369Y-97255026D01*
X192475369Y-97016931D01*
X192522989Y-96874073D01*
X192618227Y-96778835D01*
X192713465Y-96731216D01*
X192903941Y-96683597D01*
X193046798Y-96683597D01*
X193237274Y-96731216D01*
X193332512Y-96778835D01*
X193427750Y-96874073D01*
X193475369Y-97016931D01*
X193475369Y-97255026D01*
X192475369Y-96350264D02*
X192475369Y-95731216D01*
X192856322Y-96064550D01*
X192856322Y-95921692D01*
X192903941Y-95826454D01*
X192951560Y-95778835D01*
X193046798Y-95731216D01*
X193284893Y-95731216D01*
X193380131Y-95778835D01*
X193427750Y-95826454D01*
X193475369Y-95921692D01*
X193475369Y-96207407D01*
X193427750Y-96302645D01*
X193380131Y-96350264D01*
X235458095Y-103687619D02*
X235505714Y-103640000D01*
X235600952Y-103592380D01*
X235839047Y-103592380D01*
X235934285Y-103640000D01*
X235981904Y-103687619D01*
X236029523Y-103782857D01*
X236029523Y-103878095D01*
X235981904Y-104020952D01*
X235410476Y-104592380D01*
X236029523Y-104592380D01*
X236600952Y-104020952D02*
X236505714Y-103973333D01*
X236458095Y-103925714D01*
X236410476Y-103830476D01*
X236410476Y-103782857D01*
X236458095Y-103687619D01*
X236505714Y-103640000D01*
X236600952Y-103592380D01*
X236791428Y-103592380D01*
X236886666Y-103640000D01*
X236934285Y-103687619D01*
X236981904Y-103782857D01*
X236981904Y-103830476D01*
X236934285Y-103925714D01*
X236886666Y-103973333D01*
X236791428Y-104020952D01*
X236600952Y-104020952D01*
X236505714Y-104068571D01*
X236458095Y-104116190D01*
X236410476Y-104211428D01*
X236410476Y-104401904D01*
X236458095Y-104497142D01*
X236505714Y-104544761D01*
X236600952Y-104592380D01*
X236791428Y-104592380D01*
X236886666Y-104544761D01*
X236934285Y-104497142D01*
X236981904Y-104401904D01*
X236981904Y-104211428D01*
X236934285Y-104116190D01*
X236886666Y-104068571D01*
X236791428Y-104020952D01*
X192868360Y-104592380D02*
X192296932Y-104592380D01*
X192582646Y-104592380D02*
X192582646Y-103592380D01*
X192487408Y-103735238D01*
X192392170Y-103830476D01*
X192296932Y-103878095D01*
X193820741Y-104592380D02*
X193249313Y-104592380D01*
X193535027Y-104592380D02*
X193535027Y-103592380D01*
X193439789Y-103735238D01*
X193344551Y-103830476D01*
X193249313Y-103878095D01*
X190309523Y-104592380D02*
X189738095Y-104592380D01*
X190023809Y-104592380D02*
X190023809Y-103592380D01*
X189928571Y-103735238D01*
X189833333Y-103830476D01*
X189738095Y-103878095D01*
X190928571Y-103592380D02*
X191023809Y-103592380D01*
X191119047Y-103640000D01*
X191166666Y-103687619D01*
X191214285Y-103782857D01*
X191261904Y-103973333D01*
X191261904Y-104211428D01*
X191214285Y-104401904D01*
X191166666Y-104497142D01*
X191119047Y-104544761D01*
X191023809Y-104592380D01*
X190928571Y-104592380D01*
X190833333Y-104544761D01*
X190785714Y-104497142D01*
X190738095Y-104401904D01*
X190690476Y-104211428D01*
X190690476Y-103973333D01*
X190738095Y-103782857D01*
X190785714Y-103687619D01*
X190833333Y-103640000D01*
X190928571Y-103592380D01*
X203083549Y-104535599D02*
X202512121Y-104535599D01*
X202797835Y-104535599D02*
X202797835Y-103535599D01*
X202702597Y-103678457D01*
X202607359Y-103773695D01*
X202512121Y-103821314D01*
X203988311Y-103535599D02*
X203512121Y-103535599D01*
X203464502Y-104011790D01*
X203512121Y-103964171D01*
X203607359Y-103916552D01*
X203845454Y-103916552D01*
X203940692Y-103964171D01*
X203988311Y-104011790D01*
X204035930Y-104107028D01*
X204035930Y-104345123D01*
X203988311Y-104440361D01*
X203940692Y-104487980D01*
X203845454Y-104535599D01*
X203607359Y-104535599D01*
X203512121Y-104487980D01*
X203464502Y-104440361D01*
X227838095Y-103687619D02*
X227885714Y-103640000D01*
X227980952Y-103592380D01*
X228219047Y-103592380D01*
X228314285Y-103640000D01*
X228361904Y-103687619D01*
X228409523Y-103782857D01*
X228409523Y-103878095D01*
X228361904Y-104020952D01*
X227790476Y-104592380D01*
X228409523Y-104592380D01*
X229314285Y-103592380D02*
X228838095Y-103592380D01*
X228790476Y-104068571D01*
X228838095Y-104020952D01*
X228933333Y-103973333D01*
X229171428Y-103973333D01*
X229266666Y-104020952D01*
X229314285Y-104068571D01*
X229361904Y-104163809D01*
X229361904Y-104401904D01*
X229314285Y-104497142D01*
X229266666Y-104544761D01*
X229171428Y-104592380D01*
X228933333Y-104592380D01*
X228838095Y-104544761D01*
X228790476Y-104497142D01*
X188392300Y-97255026D02*
X187392300Y-97255026D01*
X187392300Y-97016931D01*
X187439920Y-96874073D01*
X187535158Y-96778835D01*
X187630396Y-96731216D01*
X187820872Y-96683597D01*
X187963729Y-96683597D01*
X188154205Y-96731216D01*
X188249443Y-96778835D01*
X188344681Y-96874073D01*
X188392300Y-97016931D01*
X188392300Y-97255026D01*
X187392300Y-95826454D02*
X187392300Y-96016931D01*
X187439920Y-96112169D01*
X187487539Y-96159788D01*
X187630396Y-96255026D01*
X187820872Y-96302645D01*
X188201824Y-96302645D01*
X188297062Y-96255026D01*
X188344681Y-96207407D01*
X188392300Y-96112169D01*
X188392300Y-95921692D01*
X188344681Y-95826454D01*
X188297062Y-95778835D01*
X188201824Y-95731216D01*
X187963729Y-95731216D01*
X187868491Y-95778835D01*
X187820872Y-95826454D01*
X187773253Y-95921692D01*
X187773253Y-96112169D01*
X187820872Y-96207407D01*
X187868491Y-96255026D01*
X187963729Y-96302645D01*
X175126933Y-97350264D02*
X175174552Y-97207407D01*
X175222171Y-97159788D01*
X175317409Y-97112169D01*
X175460266Y-97112169D01*
X175555504Y-97159788D01*
X175603123Y-97207407D01*
X175650742Y-97302645D01*
X175650742Y-97683597D01*
X174650742Y-97683597D01*
X174650742Y-97350264D01*
X174698362Y-97255026D01*
X174745981Y-97207407D01*
X174841219Y-97159788D01*
X174936457Y-97159788D01*
X175031695Y-97207407D01*
X175079314Y-97255026D01*
X175126933Y-97350264D01*
X175126933Y-97683597D01*
X175650742Y-96207407D02*
X175650742Y-96683597D01*
X174650742Y-96683597D01*
X175650742Y-95874073D02*
X174650742Y-95874073D01*
X175650742Y-95302645D02*
X175079314Y-95731216D01*
X174650742Y-95302645D02*
X175222171Y-95874073D01*
X205593566Y-104535599D02*
X205022138Y-104535599D01*
X205307852Y-104535599D02*
X205307852Y-103535599D01*
X205212614Y-103678457D01*
X205117376Y-103773695D01*
X205022138Y-103821314D01*
X206450709Y-103535599D02*
X206260233Y-103535599D01*
X206164995Y-103583219D01*
X206117376Y-103630838D01*
X206022138Y-103773695D01*
X205974519Y-103964171D01*
X205974519Y-104345123D01*
X206022138Y-104440361D01*
X206069757Y-104487980D01*
X206164995Y-104535599D01*
X206355471Y-104535599D01*
X206450709Y-104487980D01*
X206498328Y-104440361D01*
X206545947Y-104345123D01*
X206545947Y-104107028D01*
X206498328Y-104011790D01*
X206450709Y-103964171D01*
X206355471Y-103916552D01*
X206164995Y-103916552D01*
X206069757Y-103964171D01*
X206022138Y-104011790D01*
X205974519Y-104107028D01*
X198558437Y-97421692D02*
X197558437Y-97421692D01*
X198558437Y-96945502D02*
X197558437Y-96945502D01*
X198558437Y-96374073D01*
X197558437Y-96374073D01*
X197558437Y-96040740D02*
X197558437Y-95469311D01*
X198558437Y-95755026D02*
X197558437Y-95755026D01*
X195378378Y-104535599D02*
X194806950Y-104535599D01*
X195092664Y-104535599D02*
X195092664Y-103535599D01*
X194997426Y-103678457D01*
X194902188Y-103773695D01*
X194806950Y-103821314D01*
X195759331Y-103630838D02*
X195806950Y-103583219D01*
X195902188Y-103535599D01*
X196140283Y-103535599D01*
X196235521Y-103583219D01*
X196283140Y-103630838D01*
X196330759Y-103726076D01*
X196330759Y-103821314D01*
X196283140Y-103964171D01*
X195711712Y-104535599D01*
X196330759Y-104535599D01*
X183309232Y-97255026D02*
X182309232Y-97255026D01*
X182309232Y-97016931D01*
X182356852Y-96874073D01*
X182452090Y-96778835D01*
X182547328Y-96731216D01*
X182737804Y-96683597D01*
X182880661Y-96683597D01*
X183071137Y-96731216D01*
X183166375Y-96778835D01*
X183261613Y-96874073D01*
X183309232Y-97016931D01*
X183309232Y-97255026D01*
X183309232Y-95731216D02*
X183309232Y-96302645D01*
X183309232Y-96016931D02*
X182309232Y-96016931D01*
X182452090Y-96112169D01*
X182547328Y-96207407D01*
X182594947Y-96302645D01*
X208724574Y-97600264D02*
X207724574Y-97600264D01*
X207724574Y-97133597D02*
X207724574Y-97000264D01*
X207772194Y-96933597D01*
X207867432Y-96866931D01*
X208057908Y-96833597D01*
X208391241Y-96833597D01*
X208581717Y-96866931D01*
X208676955Y-96933597D01*
X208724574Y-97000264D01*
X208724574Y-97133597D01*
X208676955Y-97200264D01*
X208581717Y-97266931D01*
X208391241Y-97300264D01*
X208057908Y-97300264D01*
X207867432Y-97266931D01*
X207772194Y-97200264D01*
X207724574Y-97133597D01*
X208724574Y-96133597D02*
X208248384Y-96366931D01*
X208724574Y-96533597D02*
X207724574Y-96533597D01*
X207724574Y-96266931D01*
X207772194Y-96200264D01*
X207819813Y-96166931D01*
X207915051Y-96133597D01*
X208057908Y-96133597D01*
X208153146Y-96166931D01*
X208200765Y-96200264D01*
X208248384Y-96266931D01*
X208248384Y-96533597D01*
X208819813Y-95366931D02*
X208772194Y-95433597D01*
X208676955Y-95500264D01*
X208534098Y-95600264D01*
X208486479Y-95666931D01*
X208486479Y-95733597D01*
X208724574Y-95700264D02*
X208676955Y-95766931D01*
X208581717Y-95833597D01*
X208391241Y-95866931D01*
X208057908Y-95866931D01*
X207867432Y-95833597D01*
X207772194Y-95766931D01*
X207724574Y-95700264D01*
X207724574Y-95566931D01*
X207772194Y-95500264D01*
X207867432Y-95433597D01*
X208057908Y-95400264D01*
X208391241Y-95400264D01*
X208581717Y-95433597D01*
X208676955Y-95500264D01*
X208724574Y-95566931D01*
X208724574Y-95700264D01*
X240800000Y-97281904D02*
X240752380Y-97377142D01*
X240752380Y-97520000D01*
X240800000Y-97662857D01*
X240895238Y-97758095D01*
X240990476Y-97805714D01*
X241180952Y-97853333D01*
X241323809Y-97853333D01*
X241514285Y-97805714D01*
X241609523Y-97758095D01*
X241704761Y-97662857D01*
X241752380Y-97520000D01*
X241752380Y-97424761D01*
X241704761Y-97281904D01*
X241657142Y-97234285D01*
X241323809Y-97234285D01*
X241323809Y-97424761D01*
X241752380Y-96805714D02*
X240752380Y-96805714D01*
X241752380Y-96234285D01*
X240752380Y-96234285D01*
X241752380Y-95758095D02*
X240752380Y-95758095D01*
X240752380Y-95520000D01*
X240800000Y-95377142D01*
X240895238Y-95281904D01*
X240990476Y-95234285D01*
X241180952Y-95186666D01*
X241323809Y-95186666D01*
X241514285Y-95234285D01*
X241609523Y-95281904D01*
X241704761Y-95377142D01*
X241752380Y-95520000D01*
X241752380Y-95758095D01*
X231306666Y-97234285D02*
X231306666Y-96758095D01*
X231592380Y-97329523D02*
X230592380Y-96996190D01*
X231592380Y-96662857D01*
X231020952Y-96186666D02*
X230973333Y-96281904D01*
X230925714Y-96329523D01*
X230830476Y-96377142D01*
X230782857Y-96377142D01*
X230687619Y-96329523D01*
X230640000Y-96281904D01*
X230592380Y-96186666D01*
X230592380Y-95996190D01*
X230640000Y-95900952D01*
X230687619Y-95853333D01*
X230782857Y-95805714D01*
X230830476Y-95805714D01*
X230925714Y-95853333D01*
X230973333Y-95900952D01*
X231020952Y-95996190D01*
X231020952Y-96186666D01*
X231068571Y-96281904D01*
X231116190Y-96329523D01*
X231211428Y-96377142D01*
X231401904Y-96377142D01*
X231497142Y-96329523D01*
X231544761Y-96281904D01*
X231592380Y-96186666D01*
X231592380Y-95996190D01*
X231544761Y-95900952D01*
X231497142Y-95853333D01*
X231401904Y-95805714D01*
X231211428Y-95805714D01*
X231116190Y-95853333D01*
X231068571Y-95900952D01*
X231020952Y-95996190D01*
X240465002Y-103592380D02*
X241084049Y-103592380D01*
X240750716Y-103973333D01*
X240893573Y-103973333D01*
X240988811Y-104020952D01*
X241036430Y-104068571D01*
X241084049Y-104163809D01*
X241084049Y-104401904D01*
X241036430Y-104497142D01*
X240988811Y-104544761D01*
X240893573Y-104592380D01*
X240607859Y-104592380D01*
X240512621Y-104544761D01*
X240465002Y-104497142D01*
X241703097Y-103592380D02*
X241798335Y-103592380D01*
X241893573Y-103640000D01*
X241941192Y-103687619D01*
X241988811Y-103782857D01*
X242036430Y-103973333D01*
X242036430Y-104211428D01*
X241988811Y-104401904D01*
X241941192Y-104497142D01*
X241893573Y-104544761D01*
X241798335Y-104592380D01*
X241703097Y-104592380D01*
X241607859Y-104544761D01*
X241560240Y-104497142D01*
X241512621Y-104401904D01*
X241465002Y-104211428D01*
X241465002Y-103973333D01*
X241512621Y-103782857D01*
X241560240Y-103687619D01*
X241607859Y-103640000D01*
X241703097Y-103592380D01*
X173172380Y-97258095D02*
X172172380Y-97258095D01*
X172172380Y-97020000D01*
X172220000Y-96877142D01*
X172315238Y-96781904D01*
X172410476Y-96734285D01*
X172600952Y-96686666D01*
X172743809Y-96686666D01*
X172934285Y-96734285D01*
X173029523Y-96781904D01*
X173124761Y-96877142D01*
X173172380Y-97020000D01*
X173172380Y-97258095D01*
X172172380Y-96353333D02*
X172172380Y-95686666D01*
X173172380Y-96115238D01*
X220218095Y-103687619D02*
X220265714Y-103640000D01*
X220360952Y-103592380D01*
X220599047Y-103592380D01*
X220694285Y-103640000D01*
X220741904Y-103687619D01*
X220789523Y-103782857D01*
X220789523Y-103878095D01*
X220741904Y-104020952D01*
X220170476Y-104592380D01*
X220789523Y-104592380D01*
X221170476Y-103687619D02*
X221218095Y-103640000D01*
X221313333Y-103592380D01*
X221551428Y-103592380D01*
X221646666Y-103640000D01*
X221694285Y-103687619D01*
X221741904Y-103782857D01*
X221741904Y-103878095D01*
X221694285Y-104020952D01*
X221122857Y-104592380D01*
X221741904Y-104592380D01*
X222758095Y-103687619D02*
X222805714Y-103640000D01*
X222900952Y-103592380D01*
X223139047Y-103592380D01*
X223234285Y-103640000D01*
X223281904Y-103687619D01*
X223329523Y-103782857D01*
X223329523Y-103878095D01*
X223281904Y-104020952D01*
X222710476Y-104592380D01*
X223329523Y-104592380D01*
X223662857Y-103592380D02*
X224281904Y-103592380D01*
X223948571Y-103973333D01*
X224091428Y-103973333D01*
X224186666Y-104020952D01*
X224234285Y-104068571D01*
X224281904Y-104163809D01*
X224281904Y-104401904D01*
X224234285Y-104497142D01*
X224186666Y-104544761D01*
X224091428Y-104592380D01*
X223805714Y-104592380D01*
X223710476Y-104544761D01*
X223662857Y-104497142D01*
X164861904Y-96686666D02*
X165338095Y-96686666D01*
X164766666Y-96972380D02*
X165100000Y-95972380D01*
X165433333Y-96972380D01*
X226512380Y-97329523D02*
X225512380Y-97329523D01*
X226226666Y-96996190D01*
X225512380Y-96662857D01*
X226512380Y-96662857D01*
X226512380Y-95662857D02*
X226512380Y-96234285D01*
X226512380Y-95948571D02*
X225512380Y-95948571D01*
X225655238Y-96043809D01*
X225750476Y-96139047D01*
X225798095Y-96234285D01*
D11*
X156897142Y-100778571D02*
X157897142Y-100778571D01*
X156897142Y-102278571D01*
X157897142Y-102278571D01*
X158325714Y-100778571D02*
X159325714Y-102278571D01*
X159325714Y-100778571D02*
X158325714Y-102278571D01*
X159897142Y-101707142D02*
X161040000Y-101707142D01*
X162254285Y-101492857D02*
X162468571Y-101564285D01*
X162540000Y-101635714D01*
X162611428Y-101778571D01*
X162611428Y-101992857D01*
X162540000Y-102135714D01*
X162468571Y-102207142D01*
X162325714Y-102278571D01*
X161754285Y-102278571D01*
X161754285Y-100778571D01*
X162254285Y-100778571D01*
X162397142Y-100850000D01*
X162468571Y-100921428D01*
X162540000Y-101064285D01*
X162540000Y-101207142D01*
X162468571Y-101350000D01*
X162397142Y-101421428D01*
X162254285Y-101492857D01*
X161754285Y-101492857D01*
X163254285Y-100778571D02*
X163254285Y-101992857D01*
X163325714Y-102135714D01*
X163397142Y-102207142D01*
X163540000Y-102278571D01*
X163825714Y-102278571D01*
X163968571Y-102207142D01*
X164040000Y-102135714D01*
X164111428Y-101992857D01*
X164111428Y-100778571D01*
X164754285Y-102207142D02*
X164968571Y-102278571D01*
X165325714Y-102278571D01*
X165468571Y-102207142D01*
X165540000Y-102135714D01*
X165611428Y-101992857D01*
X165611428Y-101850000D01*
X165540000Y-101707142D01*
X165468571Y-101635714D01*
X165325714Y-101564285D01*
X165040000Y-101492857D01*
X164897142Y-101421428D01*
X164825714Y-101350000D01*
X164754285Y-101207142D01*
X164754285Y-101064285D01*
X164825714Y-100921428D01*
X164897142Y-100850000D01*
X165040000Y-100778571D01*
X165397142Y-100778571D01*
X165611428Y-100850000D01*
D10*
X190899947Y-97255026D02*
X189899947Y-97255026D01*
X189899947Y-97016931D01*
X189947567Y-96874073D01*
X190042805Y-96778835D01*
X190138043Y-96731216D01*
X190328519Y-96683597D01*
X190471376Y-96683597D01*
X190661852Y-96731216D01*
X190757090Y-96778835D01*
X190852328Y-96874073D01*
X190899947Y-97016931D01*
X190899947Y-97255026D01*
X189899947Y-95778835D02*
X189899947Y-96255026D01*
X190376138Y-96302645D01*
X190328519Y-96255026D01*
X190280900Y-96159788D01*
X190280900Y-95921692D01*
X190328519Y-95826454D01*
X190376138Y-95778835D01*
X190471376Y-95731216D01*
X190709471Y-95731216D01*
X190804709Y-95778835D01*
X190852328Y-95826454D01*
X190899947Y-95921692D01*
X190899947Y-96159788D01*
X190852328Y-96255026D01*
X190804709Y-96302645D01*
X197771651Y-104535599D02*
X197200223Y-104535599D01*
X197485937Y-104535599D02*
X197485937Y-103535599D01*
X197390699Y-103678457D01*
X197295461Y-103773695D01*
X197200223Y-103821314D01*
X198104985Y-103535599D02*
X198724032Y-103535599D01*
X198390699Y-103916552D01*
X198533556Y-103916552D01*
X198628794Y-103964171D01*
X198676413Y-104011790D01*
X198724032Y-104107028D01*
X198724032Y-104345123D01*
X198676413Y-104440361D01*
X198628794Y-104487980D01*
X198533556Y-104535599D01*
X198247842Y-104535599D01*
X198152604Y-104487980D01*
X198104985Y-104440361D01*
X178038095Y-103592380D02*
X177561904Y-103592380D01*
X177514285Y-104068571D01*
X177561904Y-104020952D01*
X177657142Y-103973333D01*
X177895238Y-103973333D01*
X177990476Y-104020952D01*
X178038095Y-104068571D01*
X178085714Y-104163809D01*
X178085714Y-104401904D01*
X178038095Y-104497142D01*
X177990476Y-104544761D01*
X177895238Y-104592380D01*
X177657142Y-104592380D01*
X177561904Y-104544761D01*
X177514285Y-104497142D01*
X185324761Y-104020952D02*
X185229523Y-103973333D01*
X185181904Y-103925714D01*
X185134285Y-103830476D01*
X185134285Y-103782857D01*
X185181904Y-103687619D01*
X185229523Y-103640000D01*
X185324761Y-103592380D01*
X185515238Y-103592380D01*
X185610476Y-103640000D01*
X185658095Y-103687619D01*
X185705714Y-103782857D01*
X185705714Y-103830476D01*
X185658095Y-103925714D01*
X185610476Y-103973333D01*
X185515238Y-104020952D01*
X185324761Y-104020952D01*
X185229523Y-104068571D01*
X185181904Y-104116190D01*
X185134285Y-104211428D01*
X185134285Y-104401904D01*
X185181904Y-104497142D01*
X185229523Y-104544761D01*
X185324761Y-104592380D01*
X185515238Y-104592380D01*
X185610476Y-104544761D01*
X185658095Y-104497142D01*
X185705714Y-104401904D01*
X185705714Y-104211428D01*
X185658095Y-104116190D01*
X185610476Y-104068571D01*
X185515238Y-104020952D01*
X230472550Y-103687619D02*
X230520169Y-103640000D01*
X230615407Y-103592380D01*
X230853502Y-103592380D01*
X230948740Y-103640000D01*
X230996359Y-103687619D01*
X231043978Y-103782857D01*
X231043978Y-103878095D01*
X230996359Y-104020952D01*
X230424931Y-104592380D01*
X231043978Y-104592380D01*
X231901121Y-103592380D02*
X231710645Y-103592380D01*
X231615407Y-103640000D01*
X231567788Y-103687619D01*
X231472550Y-103830476D01*
X231424931Y-104020952D01*
X231424931Y-104401904D01*
X231472550Y-104497142D01*
X231520169Y-104544761D01*
X231615407Y-104592380D01*
X231805883Y-104592380D01*
X231901121Y-104544761D01*
X231948740Y-104497142D01*
X231996359Y-104401904D01*
X231996359Y-104163809D01*
X231948740Y-104068571D01*
X231901121Y-104020952D01*
X231805883Y-103973333D01*
X231615407Y-103973333D01*
X231520169Y-104020952D01*
X231472550Y-104068571D01*
X231424931Y-104163809D01*
X225277397Y-103687619D02*
X225325016Y-103640000D01*
X225420254Y-103592380D01*
X225658349Y-103592380D01*
X225753587Y-103640000D01*
X225801206Y-103687619D01*
X225848825Y-103782857D01*
X225848825Y-103878095D01*
X225801206Y-104020952D01*
X225229778Y-104592380D01*
X225848825Y-104592380D01*
X226705968Y-103925714D02*
X226705968Y-104592380D01*
X226467873Y-103544761D02*
X226229778Y-104259047D01*
X226848825Y-104259047D01*
X169894285Y-103687619D02*
X169941904Y-103640000D01*
X170037142Y-103592380D01*
X170275238Y-103592380D01*
X170370476Y-103640000D01*
X170418095Y-103687619D01*
X170465714Y-103782857D01*
X170465714Y-103878095D01*
X170418095Y-104020952D01*
X169846666Y-104592380D01*
X170465714Y-104592380D01*
X180792380Y-97258095D02*
X179792380Y-97258095D01*
X179792380Y-97020000D01*
X179840000Y-96877142D01*
X179935238Y-96781904D01*
X180030476Y-96734285D01*
X180220952Y-96686666D01*
X180363809Y-96686666D01*
X180554285Y-96734285D01*
X180649523Y-96781904D01*
X180744761Y-96877142D01*
X180792380Y-97020000D01*
X180792380Y-97258095D01*
X179792380Y-96067619D02*
X179792380Y-95972380D01*
X179840000Y-95877142D01*
X179887619Y-95829523D01*
X179982857Y-95781904D01*
X180173333Y-95734285D01*
X180411428Y-95734285D01*
X180601904Y-95781904D01*
X180697142Y-95829523D01*
X180744761Y-95877142D01*
X180792380Y-95972380D01*
X180792380Y-96067619D01*
X180744761Y-96162857D01*
X180697142Y-96210476D01*
X180601904Y-96258095D01*
X180411428Y-96305714D01*
X180173333Y-96305714D01*
X179982857Y-96258095D01*
X179887619Y-96210476D01*
X179840000Y-96162857D01*
X179792380Y-96067619D01*
X237998095Y-103687619D02*
X238045714Y-103640000D01*
X238140952Y-103592380D01*
X238379047Y-103592380D01*
X238474285Y-103640000D01*
X238521904Y-103687619D01*
X238569523Y-103782857D01*
X238569523Y-103878095D01*
X238521904Y-104020952D01*
X237950476Y-104592380D01*
X238569523Y-104592380D01*
X239045714Y-104592380D02*
X239236190Y-104592380D01*
X239331428Y-104544761D01*
X239379047Y-104497142D01*
X239474285Y-104354285D01*
X239521904Y-104163809D01*
X239521904Y-103782857D01*
X239474285Y-103687619D01*
X239426666Y-103640000D01*
X239331428Y-103592380D01*
X239140952Y-103592380D01*
X239045714Y-103640000D01*
X238998095Y-103687619D01*
X238950476Y-103782857D01*
X238950476Y-104020952D01*
X238998095Y-104116190D01*
X239045714Y-104163809D01*
X239140952Y-104211428D01*
X239331428Y-104211428D01*
X239426666Y-104163809D01*
X239474285Y-104116190D01*
X239521904Y-104020952D01*
X167806666Y-97710476D02*
X167806666Y-97234285D01*
X168092380Y-97805714D02*
X167092380Y-97472380D01*
X168092380Y-97139047D01*
X168092380Y-96281904D02*
X168092380Y-96853333D01*
X168092380Y-96567619D02*
X167092380Y-96567619D01*
X167235238Y-96662857D01*
X167330476Y-96758095D01*
X167378095Y-96853333D01*
X167092380Y-95377142D02*
X167092380Y-95853333D01*
X167568571Y-95900952D01*
X167520952Y-95853333D01*
X167473333Y-95758095D01*
X167473333Y-95520000D01*
X167520952Y-95424761D01*
X167568571Y-95377142D01*
X167663809Y-95329523D01*
X167901904Y-95329523D01*
X167997142Y-95377142D01*
X168044761Y-95424761D01*
X168092380Y-95520000D01*
X168092380Y-95758095D01*
X168044761Y-95853333D01*
X167997142Y-95900952D01*
X232918095Y-103687619D02*
X232965714Y-103640000D01*
X233060952Y-103592380D01*
X233299047Y-103592380D01*
X233394285Y-103640000D01*
X233441904Y-103687619D01*
X233489523Y-103782857D01*
X233489523Y-103878095D01*
X233441904Y-104020952D01*
X232870476Y-104592380D01*
X233489523Y-104592380D01*
X233822857Y-103592380D02*
X234489523Y-103592380D01*
X234060952Y-104592380D01*
X210629523Y-104592380D02*
X210058095Y-104592380D01*
X210343809Y-104592380D02*
X210343809Y-103592380D01*
X210248571Y-103735238D01*
X210153333Y-103830476D01*
X210058095Y-103878095D01*
X211200952Y-104020952D02*
X211105714Y-103973333D01*
X211058095Y-103925714D01*
X211010476Y-103830476D01*
X211010476Y-103782857D01*
X211058095Y-103687619D01*
X211105714Y-103640000D01*
X211200952Y-103592380D01*
X211391428Y-103592380D01*
X211486666Y-103640000D01*
X211534285Y-103687619D01*
X211581904Y-103782857D01*
X211581904Y-103830476D01*
X211534285Y-103925714D01*
X211486666Y-103973333D01*
X211391428Y-104020952D01*
X211200952Y-104020952D01*
X211105714Y-104068571D01*
X211058095Y-104116190D01*
X211010476Y-104211428D01*
X211010476Y-104401904D01*
X211058095Y-104497142D01*
X211105714Y-104544761D01*
X211200952Y-104592380D01*
X211391428Y-104592380D01*
X211486666Y-104544761D01*
X211534285Y-104497142D01*
X211581904Y-104401904D01*
X211581904Y-104211428D01*
X211534285Y-104116190D01*
X211486666Y-104068571D01*
X211391428Y-104020952D01*
X208089523Y-104592380D02*
X207518095Y-104592380D01*
X207803809Y-104592380D02*
X207803809Y-103592380D01*
X207708571Y-103735238D01*
X207613333Y-103830476D01*
X207518095Y-103878095D01*
X208422857Y-103592380D02*
X209089523Y-103592380D01*
X208660952Y-104592380D01*
X212812380Y-97448571D02*
X213812380Y-97210476D01*
X213098095Y-97020000D01*
X213812380Y-96829523D01*
X212812380Y-96591428D01*
X213812380Y-95639047D02*
X213336190Y-95972380D01*
X213812380Y-96210476D02*
X212812380Y-96210476D01*
X212812380Y-95829523D01*
X212860000Y-95734285D01*
X212907619Y-95686666D01*
X213002857Y-95639047D01*
X213145714Y-95639047D01*
X213240952Y-95686666D01*
X213288571Y-95734285D01*
X213336190Y-95829523D01*
X213336190Y-96210476D01*
X175450476Y-103925714D02*
X175450476Y-104592380D01*
X175212380Y-103544761D02*
X174974285Y-104259047D01*
X175593333Y-104259047D01*
X217890711Y-97550264D02*
X218890711Y-97383597D01*
X218176426Y-97250264D01*
X218890711Y-97116931D01*
X217890711Y-96950264D01*
X218604997Y-96716931D02*
X218604997Y-96383597D01*
X218890711Y-96783597D02*
X217890711Y-96550264D01*
X218890711Y-96316931D01*
X218890711Y-96083597D02*
X217890711Y-96083597D01*
X217890711Y-95850264D02*
X217890711Y-95450264D01*
X218890711Y-95650264D02*
X217890711Y-95650264D01*
X206149152Y-97783597D02*
X205149152Y-97783597D01*
X205863438Y-97550264D01*
X205149152Y-97316931D01*
X206149152Y-97316931D01*
X206149152Y-96583597D02*
X205672962Y-96816931D01*
X206149152Y-96983597D02*
X205149152Y-96983597D01*
X205149152Y-96716931D01*
X205196772Y-96650264D01*
X205244391Y-96616931D01*
X205339629Y-96583597D01*
X205482486Y-96583597D01*
X205577724Y-96616931D01*
X205625343Y-96650264D01*
X205672962Y-96716931D01*
X205672962Y-96983597D01*
X205625343Y-96283597D02*
X205625343Y-96050264D01*
X206149152Y-95950264D02*
X206149152Y-96283597D01*
X205149152Y-96283597D01*
X205149152Y-95950264D01*
X206244391Y-95183597D02*
X206196772Y-95250264D01*
X206101533Y-95316931D01*
X205958676Y-95416931D01*
X205911057Y-95483597D01*
X205911057Y-95550264D01*
X206149152Y-95516931D02*
X206101533Y-95583597D01*
X206006295Y-95650264D01*
X205815819Y-95683597D01*
X205482486Y-95683597D01*
X205292010Y-95650264D01*
X205196772Y-95583597D01*
X205149152Y-95516931D01*
X205149152Y-95383597D01*
X205196772Y-95316931D01*
X205292010Y-95250264D01*
X205482486Y-95216931D01*
X205815819Y-95216931D01*
X206006295Y-95250264D01*
X206101533Y-95316931D01*
X206149152Y-95383597D01*
X206149152Y-95516931D01*
%TO.C,*%
%TO.C, *%
%TO.C,*%
%TD*%
M02*
