%TF.GenerationSoftware,KiCad,Pcbnew,(6.0.2)*%
%TF.CreationDate,2022-06-30T00:29:27+03:00*%
%TF.ProjectId,zx-bus_board,7a782d62-7573-45f6-926f-6172642e6b69,rev?*%
%TF.SameCoordinates,Original*%
%TF.FileFunction,Soldermask,Bot*%
%TF.FilePolarity,Negative*%
%FSLAX46Y46*%
G04 Gerber Fmt 4.6, Leading zero omitted, Abs format (unit mm)*
G04 Created by KiCad (PCBNEW (6.0.2)) date 2022-06-30 00:29:27*
%MOMM*%
%LPD*%
G01*
G04 APERTURE LIST*
G04 Aperture macros list*
%AMRoundRect*
0 Rectangle with rounded corners*
0 $1 Rounding radius*
0 $2 $3 $4 $5 $6 $7 $8 $9 X,Y pos of 4 corners*
0 Add a 4 corners polygon primitive as box body*
4,1,4,$2,$3,$4,$5,$6,$7,$8,$9,$2,$3,0*
0 Add four circle primitives for the rounded corners*
1,1,$1+$1,$2,$3*
1,1,$1+$1,$4,$5*
1,1,$1+$1,$6,$7*
1,1,$1+$1,$8,$9*
0 Add four rect primitives between the rounded corners*
20,1,$1+$1,$2,$3,$4,$5,0*
20,1,$1+$1,$4,$5,$6,$7,0*
20,1,$1+$1,$6,$7,$8,$9,0*
20,1,$1+$1,$8,$9,$2,$3,0*%
G04 Aperture macros list end*
%ADD10C,1.900000*%
%ADD11C,1.524000*%
%ADD12RoundRect,0.381000X-0.381000X-2.881000X0.381000X-2.881000X0.381000X2.881000X-0.381000X2.881000X0*%
G04 APERTURE END LIST*
D10*
%TO.C,REF\u002A\u002A*%
X226060000Y-93980000D03*
%TD*%
%TO.C,REF\u002A\u002A*%
X233680000Y-93980000D03*
%TD*%
%TO.C,REF\u002A\u002A*%
X231140000Y-60960000D03*
%TD*%
%TO.C,REF\u002A\u002A*%
X175260000Y-22860000D03*
%TD*%
%TO.C,REF\u002A\u002A*%
X215900000Y-71120000D03*
%TD*%
%TO.C,REF\u002A\u002A*%
X241300000Y-27940000D03*
%TD*%
%TO.C,REF\u002A\u002A*%
X180340000Y-20320000D03*
%TD*%
%TO.C,REF\u002A\u002A*%
X198120000Y-81280000D03*
%TD*%
%TO.C,REF\u002A\u002A*%
X177800000Y-20320000D03*
%TD*%
%TO.C,REF\u002A\u002A*%
X165100000Y-76200000D03*
%TD*%
%TO.C,REF\u002A\u002A*%
X198120000Y-48260000D03*
%TD*%
%TO.C,REF\u002A\u002A*%
X246380000Y-35560000D03*
%TD*%
%TO.C,REF\u002A\u002A*%
X208280000Y-99060000D03*
%TD*%
%TO.C,REF\u002A\u002A*%
X195580000Y-63500000D03*
%TD*%
%TO.C,REF\u002A\u002A*%
X243840000Y-43180000D03*
%TD*%
%TO.C,REF\u002A\u002A*%
X180340000Y-22860000D03*
%TD*%
%TO.C,REF\u002A\u002A*%
X180340000Y-83820000D03*
%TD*%
%TO.C,REF\u002A\u002A*%
X180340000Y-86360000D03*
%TD*%
%TO.C,REF\u002A\u002A*%
X241300000Y-81280000D03*
%TD*%
%TO.C,REF\u002A\u002A*%
X215900000Y-58420000D03*
%TD*%
%TO.C,REF\u002A\u002A*%
X195580000Y-76200000D03*
%TD*%
%TO.C,REF\u002A\u002A*%
X165100000Y-30480000D03*
%TD*%
%TO.C,REF\u002A\u002A*%
X165100000Y-50800000D03*
%TD*%
%TO.C,REF\u002A\u002A*%
X226060000Y-88900000D03*
%TD*%
%TO.C,REF\u002A\u002A*%
X177800000Y-60960000D03*
%TD*%
%TO.C,REF\u002A\u002A*%
X193040000Y-48260000D03*
%TD*%
%TO.C,REF\u002A\u002A*%
X246380000Y-99060000D03*
%TD*%
%TO.C,REF\u002A\u002A*%
X251460000Y-83820000D03*
%TD*%
%TO.C,REF\u002A\u002A*%
X223520000Y-81280000D03*
%TD*%
%TO.C,REF\u002A\u002A*%
X205740000Y-76200000D03*
%TD*%
%TO.C,REF\u002A\u002A*%
X223520000Y-93980000D03*
%TD*%
%TO.C,REF\u002A\u002A*%
X226060000Y-81280000D03*
%TD*%
%TO.C,REF\u002A\u002A*%
X233680000Y-48260000D03*
%TD*%
%TO.C,REF\u002A\u002A*%
X213360000Y-91440000D03*
%TD*%
%TO.C,REF\u002A\u002A*%
X165100000Y-71120000D03*
%TD*%
%TO.C,REF\u002A\u002A*%
X175260000Y-27940000D03*
%TD*%
%TO.C,REF\u002A\u002A*%
X182880000Y-35560000D03*
%TD*%
%TO.C,REF\u002A\u002A*%
X167640000Y-66040000D03*
%TD*%
%TO.C,REF\u002A\u002A*%
X213360000Y-76200000D03*
%TD*%
%TO.C,REF\u002A\u002A*%
X162560000Y-20320000D03*
%TD*%
%TO.C,REF\u002A\u002A*%
X187960000Y-76200000D03*
%TD*%
%TO.C,REF\u002A\u002A*%
X246380000Y-45720000D03*
%TD*%
%TO.C,REF\u002A\u002A*%
X218440000Y-55880000D03*
%TD*%
%TO.C,REF\u002A\u002A*%
X218440000Y-58420000D03*
%TD*%
%TO.C,REF\u002A\u002A*%
X215900000Y-43180000D03*
%TD*%
%TO.C,REF\u002A\u002A*%
X213360000Y-27940000D03*
%TD*%
%TO.C,REF\u002A\u002A*%
X243840000Y-17780000D03*
%TD*%
%TO.C,REF\u002A\u002A*%
X157480000Y-53340000D03*
%TD*%
%TO.C,REF\u002A\u002A*%
X198120000Y-71120000D03*
%TD*%
%TO.C,REF\u002A\u002A*%
X177800000Y-53340000D03*
%TD*%
%TO.C,REF\u002A\u002A*%
X223520000Y-76200000D03*
%TD*%
%TO.C,REF\u002A\u002A*%
X190500000Y-93980000D03*
%TD*%
%TO.C,REF\u002A\u002A*%
X254000000Y-45720000D03*
%TD*%
%TO.C,REF\u002A\u002A*%
X172720000Y-73660000D03*
%TD*%
%TO.C,REF\u002A\u002A*%
X170180000Y-53340000D03*
%TD*%
%TO.C,REF\u002A\u002A*%
X213360000Y-73660000D03*
%TD*%
%TO.C,REF\u002A\u002A*%
X254000000Y-91440000D03*
%TD*%
%TO.C,REF\u002A\u002A*%
X170180000Y-50800000D03*
%TD*%
%TO.C,REF\u002A\u002A*%
X236220000Y-78740000D03*
%TD*%
%TO.C,REF\u002A\u002A*%
X231140000Y-99060000D03*
%TD*%
%TO.C,REF\u002A\u002A*%
X213360000Y-30480000D03*
%TD*%
%TO.C,REF\u002A\u002A*%
X233680000Y-58420000D03*
%TD*%
%TO.C,REF\u002A\u002A*%
X254000000Y-38100000D03*
%TD*%
%TO.C,REF\u002A\u002A*%
X182880000Y-81280000D03*
%TD*%
%TO.C,REF\u002A\u002A*%
X210820000Y-81280000D03*
%TD*%
%TO.C,REF\u002A\u002A*%
X243840000Y-88900000D03*
%TD*%
%TO.C,REF\u002A\u002A*%
X205740000Y-22860000D03*
%TD*%
%TO.C,*%
X187960000Y-101600000D03*
%TD*%
%TO.C,REF\u002A\u002A*%
X193040000Y-20320000D03*
%TD*%
%TO.C,REF\u002A\u002A*%
X165100000Y-27940000D03*
%TD*%
%TO.C,REF\u002A\u002A*%
X162560000Y-30480000D03*
%TD*%
%TO.C,REF\u002A\u002A*%
X246380000Y-68580000D03*
%TD*%
%TO.C,REF\u002A\u002A*%
X236220000Y-50800000D03*
%TD*%
%TO.C,REF\u002A\u002A*%
X254000000Y-50800000D03*
%TD*%
%TO.C,REF\u002A\u002A*%
X160020000Y-78740000D03*
%TD*%
%TO.C,REF\u002A\u002A*%
X241300000Y-101600000D03*
%TD*%
%TO.C,REF\u002A\u002A*%
X233680000Y-88900000D03*
%TD*%
%TO.C,REF\u002A\u002A*%
X172720000Y-50800000D03*
%TD*%
%TO.C,REF\u002A\u002A*%
X162560000Y-73660000D03*
%TD*%
%TO.C,REF\u002A\u002A*%
X213360000Y-58420000D03*
%TD*%
%TO.C,REF\u002A\u002A*%
X157480000Y-60960000D03*
%TD*%
%TO.C,REF\u002A\u002A*%
X238760000Y-86360000D03*
%TD*%
%TO.C,REF\u002A\u002A*%
X185420000Y-91440000D03*
%TD*%
%TO.C,REF\u002A\u002A*%
X195580000Y-83820000D03*
%TD*%
%TO.C,REF\u002A\u002A*%
X200660000Y-53340000D03*
%TD*%
%TO.C,REF\u002A\u002A*%
X238760000Y-25400000D03*
%TD*%
%TO.C,REF\u002A\u002A*%
X190500000Y-53340000D03*
%TD*%
%TO.C,REF\u002A\u002A*%
X254000000Y-60960000D03*
%TD*%
%TO.C,REF\u002A\u002A*%
X254000000Y-53340000D03*
%TD*%
%TO.C,REF\u002A\u002A*%
X187960000Y-27940000D03*
%TD*%
%TO.C,REF\u002A\u002A*%
X193040000Y-30480000D03*
%TD*%
%TO.C,REF\u002A\u002A*%
X177800000Y-55880000D03*
%TD*%
%TO.C,REF\u002A\u002A*%
X228600000Y-93980000D03*
%TD*%
%TO.C,REF\u002A\u002A*%
X170180000Y-68580000D03*
%TD*%
%TO.C,REF\u002A\u002A*%
X226060000Y-83820000D03*
%TD*%
%TO.C,REF\u002A\u002A*%
X248920000Y-35560000D03*
%TD*%
%TO.C,REF\u002A\u002A*%
X167640000Y-40640000D03*
%TD*%
%TO.C,REF\u002A\u002A*%
X193040000Y-101600000D03*
%TD*%
%TO.C,REF\u002A\u002A*%
X185420000Y-25400000D03*
%TD*%
%TO.C,REF\u002A\u002A*%
X254000000Y-81280000D03*
%TD*%
%TO.C,REF\u002A\u002A*%
X162560000Y-25400000D03*
%TD*%
%TO.C,REF\u002A\u002A*%
X162560000Y-66040000D03*
%TD*%
%TO.C,REF\u002A\u002A*%
X236220000Y-101600000D03*
%TD*%
%TO.C,REF\u002A\u002A*%
X165100000Y-83820000D03*
%TD*%
%TO.C,REF\u002A\u002A*%
X187960000Y-48260000D03*
%TD*%
%TO.C,REF\u002A\u002A*%
X193040000Y-53340000D03*
%TD*%
%TO.C,REF\u002A\u002A*%
X157480000Y-20320000D03*
%TD*%
%TO.C,REF\u002A\u002A*%
X254000000Y-68580000D03*
%TD*%
%TO.C,REF\u002A\u002A*%
X226060000Y-50800000D03*
%TD*%
%TO.C,REF\u002A\u002A*%
X226060000Y-25400000D03*
%TD*%
%TO.C,REF\u002A\u002A*%
X223520000Y-35560000D03*
%TD*%
%TO.C,REF\u002A\u002A*%
X220980000Y-71120000D03*
%TD*%
%TO.C,REF\u002A\u002A*%
X200660000Y-76200000D03*
%TD*%
%TO.C,REF\u002A\u002A*%
X177800000Y-27940000D03*
%TD*%
%TO.C,REF\u002A\u002A*%
X185420000Y-53340000D03*
%TD*%
%TO.C,REF\u002A\u002A*%
X243840000Y-101600000D03*
%TD*%
%TO.C,REF\u002A\u002A*%
X167640000Y-86360000D03*
%TD*%
%TO.C,REF\u002A\u002A*%
X210820000Y-17780000D03*
%TD*%
%TO.C,REF\u002A\u002A*%
X205740000Y-43180000D03*
%TD*%
%TO.C,REF\u002A\u002A*%
X254000000Y-40640000D03*
%TD*%
%TO.C,REF\u002A\u002A*%
X220980000Y-33020000D03*
%TD*%
%TO.C,*%
X218440000Y-101600000D03*
%TD*%
%TO.C,REF\u002A\u002A*%
X180340000Y-43180000D03*
%TD*%
%TO.C,REF\u002A\u002A*%
X162560000Y-55880000D03*
%TD*%
%TO.C,REF\u002A\u002A*%
X213360000Y-38100000D03*
%TD*%
%TO.C,REF\u002A\u002A*%
X233680000Y-60960000D03*
%TD*%
%TO.C,REF\u002A\u002A*%
X170180000Y-91440000D03*
%TD*%
%TO.C,REF\u002A\u002A*%
X231140000Y-83820000D03*
%TD*%
%TO.C,REF\u002A\u002A*%
X231140000Y-101600000D03*
%TD*%
%TO.C,REF\u002A\u002A*%
X238760000Y-22860000D03*
%TD*%
%TO.C,REF\u002A\u002A*%
X248920000Y-55880000D03*
%TD*%
%TO.C,REF\u002A\u002A*%
X193040000Y-73660000D03*
%TD*%
%TO.C,REF\u002A\u002A*%
X241300000Y-76200000D03*
%TD*%
%TO.C,REF\u002A\u002A*%
X215900000Y-78740000D03*
%TD*%
%TO.C,REF\u002A\u002A*%
X246380000Y-20320000D03*
%TD*%
%TO.C,REF\u002A\u002A*%
X203200000Y-93980000D03*
%TD*%
%TO.C,REF\u002A\u002A*%
X162560000Y-48260000D03*
%TD*%
%TO.C,REF\u002A\u002A*%
X185420000Y-40640000D03*
%TD*%
%TO.C,REF\u002A\u002A*%
X243840000Y-38100000D03*
%TD*%
%TO.C,REF\u002A\u002A*%
X160020000Y-17780000D03*
%TD*%
%TO.C,REF\u002A\u002A*%
X236220000Y-76200000D03*
%TD*%
%TO.C,REF\u002A\u002A*%
X177800000Y-83820000D03*
%TD*%
%TO.C,REF\u002A\u002A*%
X220980000Y-53340000D03*
%TD*%
%TO.C,REF\u002A\u002A*%
X203200000Y-43180000D03*
%TD*%
%TO.C,REF\u002A\u002A*%
X195580000Y-50800000D03*
%TD*%
%TO.C,REF\u002A\u002A*%
X157480000Y-43180000D03*
%TD*%
%TO.C,REF\u002A\u002A*%
X248920000Y-58420000D03*
%TD*%
%TO.C,REF\u002A\u002A*%
X246380000Y-33020000D03*
%TD*%
%TO.C,REF\u002A\u002A*%
X170180000Y-17780000D03*
%TD*%
%TO.C,REF\u002A\u002A*%
X165100000Y-91440000D03*
%TD*%
%TO.C,REF\u002A\u002A*%
X187960000Y-53340000D03*
%TD*%
%TO.C,REF\u002A\u002A*%
X190500000Y-22860000D03*
%TD*%
%TO.C,REF\u002A\u002A*%
X223520000Y-20320000D03*
%TD*%
%TO.C,REF\u002A\u002A*%
X193040000Y-43180000D03*
%TD*%
%TO.C,REF\u002A\u002A*%
X205740000Y-101600000D03*
%TD*%
%TO.C,REF\u002A\u002A*%
X220980000Y-76200000D03*
%TD*%
%TO.C,REF\u002A\u002A*%
X180340000Y-33020000D03*
%TD*%
%TO.C,REF\u002A\u002A*%
X220980000Y-22860000D03*
%TD*%
%TO.C,REF\u002A\u002A*%
X213360000Y-83820000D03*
%TD*%
%TO.C,REF\u002A\u002A*%
X187960000Y-60960000D03*
%TD*%
%TO.C,REF\u002A\u002A*%
X160020000Y-99060000D03*
%TD*%
%TO.C,REF\u002A\u002A*%
X182880000Y-63500000D03*
%TD*%
%TO.C,REF\u002A\u002A*%
X238760000Y-63500000D03*
%TD*%
%TO.C,REF\u002A\u002A*%
X160020000Y-48260000D03*
%TD*%
%TO.C,REF\u002A\u002A*%
X157480000Y-33020000D03*
%TD*%
%TO.C,REF\u002A\u002A*%
X241300000Y-93980000D03*
%TD*%
%TO.C,REF\u002A\u002A*%
X203200000Y-27940000D03*
%TD*%
%TO.C,REF\u002A\u002A*%
X172720000Y-99060000D03*
%TD*%
%TO.C,REF\u002A\u002A*%
X172720000Y-58420000D03*
%TD*%
%TO.C,REF\u002A\u002A*%
X195580000Y-73660000D03*
%TD*%
%TO.C,REF\u002A\u002A*%
X220980000Y-81280000D03*
%TD*%
%TO.C,REF\u002A\u002A*%
X231140000Y-33020000D03*
%TD*%
%TO.C,REF\u002A\u002A*%
X246380000Y-91440000D03*
%TD*%
%TO.C,REF\u002A\u002A*%
X162560000Y-53340000D03*
%TD*%
%TO.C,REF\u002A\u002A*%
X170180000Y-78740000D03*
%TD*%
%TO.C,REF\u002A\u002A*%
X170180000Y-71120000D03*
%TD*%
%TO.C,REF\u002A\u002A*%
X160020000Y-68580000D03*
%TD*%
%TO.C,REF\u002A\u002A*%
X205740000Y-73660000D03*
%TD*%
%TO.C,REF\u002A\u002A*%
X248920000Y-86360000D03*
%TD*%
%TO.C,REF\u002A\u002A*%
X172720000Y-63500000D03*
%TD*%
%TO.C,REF\u002A\u002A*%
X157480000Y-25400000D03*
%TD*%
%TO.C,REF\u002A\u002A*%
X160020000Y-38100000D03*
%TD*%
%TO.C,REF\u002A\u002A*%
X205740000Y-17780000D03*
%TD*%
%TO.C,REF\u002A\u002A*%
X177800000Y-43180000D03*
%TD*%
%TO.C,REF\u002A\u002A*%
X177800000Y-76200000D03*
%TD*%
%TO.C,REF\u002A\u002A*%
X157480000Y-73660000D03*
%TD*%
%TO.C,REF\u002A\u002A*%
X203200000Y-60960000D03*
%TD*%
%TO.C,REF\u002A\u002A*%
X185420000Y-66040000D03*
%TD*%
%TO.C,REF\u002A\u002A*%
X218440000Y-68580000D03*
%TD*%
%TO.C,REF\u002A\u002A*%
X193040000Y-38100000D03*
%TD*%
%TO.C,REF\u002A\u002A*%
X172720000Y-30480000D03*
%TD*%
%TO.C,REF\u002A\u002A*%
X238760000Y-58420000D03*
%TD*%
%TO.C,REF\u002A\u002A*%
X162560000Y-71120000D03*
%TD*%
%TO.C,REF\u002A\u002A*%
X172720000Y-76200000D03*
%TD*%
%TO.C,REF\u002A\u002A*%
X157480000Y-68580000D03*
%TD*%
%TO.C,REF\u002A\u002A*%
X220980000Y-25400000D03*
%TD*%
%TO.C,REF\u002A\u002A*%
X160020000Y-93980000D03*
%TD*%
%TO.C,REF\u002A\u002A*%
X241300000Y-68580000D03*
%TD*%
%TO.C,REF\u002A\u002A*%
X208280000Y-55880000D03*
%TD*%
%TO.C,REF\u002A\u002A*%
X185420000Y-55880000D03*
%TD*%
%TO.C,REF\u002A\u002A*%
X198120000Y-33020000D03*
%TD*%
%TO.C,REF\u002A\u002A*%
X185420000Y-30480000D03*
%TD*%
%TO.C,REF\u002A\u002A*%
X187960000Y-55880000D03*
%TD*%
%TO.C,REF\u002A\u002A*%
X177800000Y-71120000D03*
%TD*%
%TO.C,REF\u002A\u002A*%
X243840000Y-81280000D03*
%TD*%
%TO.C,REF\u002A\u002A*%
X228600000Y-63500000D03*
%TD*%
%TO.C,REF\u002A\u002A*%
X223520000Y-17780000D03*
%TD*%
%TO.C,REF\u002A\u002A*%
X228600000Y-25400000D03*
%TD*%
%TO.C,REF\u002A\u002A*%
X185420000Y-33020000D03*
%TD*%
%TO.C,REF\u002A\u002A*%
X182880000Y-27940000D03*
%TD*%
%TO.C,REF\u002A\u002A*%
X167640000Y-83820000D03*
%TD*%
%TO.C,REF\u002A\u002A*%
X254000000Y-48260000D03*
%TD*%
%TO.C,REF\u002A\u002A*%
X238760000Y-33020000D03*
%TD*%
%TO.C,REF\u002A\u002A*%
X251460000Y-22860000D03*
%TD*%
%TO.C,*%
X195580000Y-99060000D03*
%TD*%
%TO.C,REF\u002A\u002A*%
X238760000Y-45720000D03*
%TD*%
%TO.C,*%
X213360000Y-101600000D03*
%TD*%
%TO.C,REF\u002A\u002A*%
X236220000Y-93980000D03*
%TD*%
%TO.C,REF\u002A\u002A*%
X213360000Y-43180000D03*
%TD*%
%TO.C,REF\u002A\u002A*%
X205740000Y-71120000D03*
%TD*%
%TO.C,REF\u002A\u002A*%
X198120000Y-101600000D03*
%TD*%
%TO.C,REF\u002A\u002A*%
X170180000Y-76200000D03*
%TD*%
%TO.C,REF\u002A\u002A*%
X208280000Y-27940000D03*
%TD*%
%TO.C,REF\u002A\u002A*%
X157480000Y-81280000D03*
%TD*%
%TO.C,REF\u002A\u002A*%
X182880000Y-17780000D03*
%TD*%
%TO.C,REF\u002A\u002A*%
X228600000Y-86360000D03*
%TD*%
%TO.C,REF\u002A\u002A*%
X162560000Y-43180000D03*
%TD*%
%TO.C,REF\u002A\u002A*%
X195580000Y-99060000D03*
%TD*%
%TO.C,REF\u002A\u002A*%
X251460000Y-99060000D03*
%TD*%
%TO.C,REF\u002A\u002A*%
X200660000Y-60960000D03*
%TD*%
%TO.C,REF\u002A\u002A*%
X190500000Y-86360000D03*
%TD*%
%TO.C,REF\u002A\u002A*%
X231140000Y-43180000D03*
%TD*%
%TO.C,REF\u002A\u002A*%
X215900000Y-83820000D03*
%TD*%
%TO.C,REF\u002A\u002A*%
X180340000Y-63500000D03*
%TD*%
%TO.C,REF\u002A\u002A*%
X243840000Y-55880000D03*
%TD*%
%TO.C,REF\u002A\u002A*%
X170180000Y-81280000D03*
%TD*%
%TO.C,REF\u002A\u002A*%
X165100000Y-43180000D03*
%TD*%
%TO.C,REF\u002A\u002A*%
X203200000Y-88900000D03*
%TD*%
%TO.C,REF\u002A\u002A*%
X228600000Y-88900000D03*
%TD*%
%TO.C,*%
X228600000Y-101600000D03*
%TD*%
%TO.C,REF\u002A\u002A*%
X210820000Y-53340000D03*
%TD*%
%TO.C,REF\u002A\u002A*%
X208280000Y-17780000D03*
%TD*%
%TO.C,REF\u002A\u002A*%
X180340000Y-81280000D03*
%TD*%
D11*
%TO.C,*%
X243840000Y-101600000D03*
%TD*%
D10*
%TO.C,REF\u002A\u002A*%
X243840000Y-91440000D03*
%TD*%
%TO.C,REF\u002A\u002A*%
X193040000Y-88900000D03*
%TD*%
%TO.C,REF\u002A\u002A*%
X177800000Y-81280000D03*
%TD*%
%TO.C,REF\u002A\u002A*%
X220980000Y-48260000D03*
%TD*%
%TO.C,*%
X218440000Y-101600000D03*
%TD*%
%TO.C,REF\u002A\u002A*%
X187960000Y-30480000D03*
%TD*%
%TO.C,REF\u002A\u002A*%
X203200000Y-101600000D03*
%TD*%
%TO.C,REF\u002A\u002A*%
X233680000Y-50800000D03*
%TD*%
%TO.C,REF\u002A\u002A*%
X243840000Y-63500000D03*
%TD*%
%TO.C,REF\u002A\u002A*%
X218440000Y-63500000D03*
%TD*%
%TO.C,REF\u002A\u002A*%
X195580000Y-45720000D03*
%TD*%
%TO.C,REF\u002A\u002A*%
X213360000Y-99060000D03*
%TD*%
%TO.C,REF\u002A\u002A*%
X228600000Y-55880000D03*
%TD*%
%TO.C,REF\u002A\u002A*%
X251460000Y-68580000D03*
%TD*%
%TO.C,REF\u002A\u002A*%
X233680000Y-40640000D03*
%TD*%
%TO.C,REF\u002A\u002A*%
X175260000Y-73660000D03*
%TD*%
%TO.C,REF\u002A\u002A*%
X187960000Y-66040000D03*
%TD*%
%TO.C,REF\u002A\u002A*%
X220980000Y-68580000D03*
%TD*%
%TO.C,REF\u002A\u002A*%
X193040000Y-45720000D03*
%TD*%
%TO.C,REF\u002A\u002A*%
X177800000Y-66040000D03*
%TD*%
%TO.C,REF\u002A\u002A*%
X205740000Y-99060000D03*
%TD*%
%TO.C,REF\u002A\u002A*%
X190500000Y-91440000D03*
%TD*%
%TO.C,REF\u002A\u002A*%
X185420000Y-58420000D03*
%TD*%
%TO.C,*%
X236220000Y-99060000D03*
%TD*%
%TO.C,REF\u002A\u002A*%
X185420000Y-81280000D03*
%TD*%
%TO.C,REF\u002A\u002A*%
X226060000Y-20320000D03*
%TD*%
%TO.C,REF\u002A\u002A*%
X167640000Y-53340000D03*
%TD*%
%TO.C,REF\u002A\u002A*%
X162560000Y-45720000D03*
%TD*%
%TO.C,REF\u002A\u002A*%
X165100000Y-17780000D03*
%TD*%
%TO.C,REF\u002A\u002A*%
X190500000Y-63500000D03*
%TD*%
%TO.C,REF\u002A\u002A*%
X213360000Y-71120000D03*
%TD*%
%TO.C,REF\u002A\u002A*%
X195580000Y-53340000D03*
%TD*%
%TO.C,REF\u002A\u002A*%
X172720000Y-25400000D03*
%TD*%
%TO.C,REF\u002A\u002A*%
X190500000Y-68580000D03*
%TD*%
%TO.C,REF\u002A\u002A*%
X248920000Y-30480000D03*
%TD*%
%TO.C,REF\u002A\u002A*%
X195580000Y-86360000D03*
%TD*%
%TO.C,REF\u002A\u002A*%
X223520000Y-55880000D03*
%TD*%
%TO.C,REF\u002A\u002A*%
X218440000Y-20320000D03*
%TD*%
%TO.C,REF\u002A\u002A*%
X187960000Y-33020000D03*
%TD*%
%TO.C,REF\u002A\u002A*%
X248920000Y-83820000D03*
%TD*%
%TO.C,REF\u002A\u002A*%
X182880000Y-45720000D03*
%TD*%
%TO.C,REF\u002A\u002A*%
X231140000Y-88900000D03*
%TD*%
%TO.C,REF\u002A\u002A*%
X167640000Y-48260000D03*
%TD*%
%TO.C,REF\u002A\u002A*%
X226060000Y-55880000D03*
%TD*%
%TO.C,REF\u002A\u002A*%
X248920000Y-27940000D03*
%TD*%
%TO.C,REF\u002A\u002A*%
X167640000Y-20320000D03*
%TD*%
%TO.C,REF\u002A\u002A*%
X172720000Y-88900000D03*
%TD*%
%TO.C,REF\u002A\u002A*%
X193040000Y-22860000D03*
%TD*%
%TO.C,REF\u002A\u002A*%
X208280000Y-81280000D03*
%TD*%
%TO.C,REF\u002A\u002A*%
X198120000Y-27940000D03*
%TD*%
%TO.C,REF\u002A\u002A*%
X248920000Y-38100000D03*
%TD*%
%TO.C,*%
X243840000Y-101600000D03*
%TD*%
%TO.C,REF\u002A\u002A*%
X220980000Y-101600000D03*
%TD*%
%TO.C,REF\u002A\u002A*%
X248920000Y-71120000D03*
%TD*%
%TO.C,REF\u002A\u002A*%
X236220000Y-81280000D03*
%TD*%
%TO.C,REF\u002A\u002A*%
X243840000Y-50800000D03*
%TD*%
%TO.C,REF\u002A\u002A*%
X213360000Y-20320000D03*
%TD*%
%TO.C,REF\u002A\u002A*%
X177800000Y-68580000D03*
%TD*%
%TO.C,*%
X208280000Y-101600000D03*
%TD*%
%TO.C,REF\u002A\u002A*%
X170180000Y-27940000D03*
%TD*%
%TO.C,REF\u002A\u002A*%
X167640000Y-71120000D03*
%TD*%
%TO.C,REF\u002A\u002A*%
X231140000Y-76200000D03*
%TD*%
%TO.C,REF\u002A\u002A*%
X241300000Y-30480000D03*
%TD*%
%TO.C,REF\u002A\u002A*%
X246380000Y-50800000D03*
%TD*%
%TO.C,REF\u002A\u002A*%
X251460000Y-35560000D03*
%TD*%
%TO.C,REF\u002A\u002A*%
X251460000Y-91440000D03*
%TD*%
%TO.C,REF\u002A\u002A*%
X160020000Y-63500000D03*
%TD*%
%TO.C,REF\u002A\u002A*%
X198120000Y-68580000D03*
%TD*%
%TO.C,REF\u002A\u002A*%
X226060000Y-78740000D03*
%TD*%
%TO.C,REF\u002A\u002A*%
X172720000Y-101600000D03*
%TD*%
%TO.C,REF\u002A\u002A*%
X213360000Y-93980000D03*
%TD*%
%TO.C,REF\u002A\u002A*%
X180340000Y-35560000D03*
%TD*%
%TO.C,REF\u002A\u002A*%
X220980000Y-55880000D03*
%TD*%
%TO.C,REF\u002A\u002A*%
X175260000Y-50800000D03*
%TD*%
%TO.C,REF\u002A\u002A*%
X226060000Y-53340000D03*
%TD*%
%TO.C,REF\u002A\u002A*%
X238760000Y-83820000D03*
%TD*%
%TO.C,REF\u002A\u002A*%
X180340000Y-48260000D03*
%TD*%
%TO.C,REF\u002A\u002A*%
X200660000Y-68580000D03*
%TD*%
%TO.C,REF\u002A\u002A*%
X167640000Y-99060000D03*
%TD*%
%TO.C,REF\u002A\u002A*%
X182880000Y-38100000D03*
%TD*%
%TO.C,REF\u002A\u002A*%
X233680000Y-73660000D03*
%TD*%
%TO.C,REF\u002A\u002A*%
X185420000Y-71120000D03*
%TD*%
%TO.C,REF\u002A\u002A*%
X180340000Y-93980000D03*
%TD*%
%TO.C,REF\u002A\u002A*%
X210820000Y-88900000D03*
%TD*%
%TO.C,REF\u002A\u002A*%
X162560000Y-88900000D03*
%TD*%
%TO.C,REF\u002A\u002A*%
X246380000Y-60960000D03*
%TD*%
%TO.C,REF\u002A\u002A*%
X213360000Y-68580000D03*
%TD*%
%TO.C,REF\u002A\u002A*%
X243840000Y-25400000D03*
%TD*%
%TO.C,REF\u002A\u002A*%
X236220000Y-25400000D03*
%TD*%
%TO.C,REF\u002A\u002A*%
X198120000Y-20320000D03*
%TD*%
%TO.C,REF\u002A\u002A*%
X254000000Y-22860000D03*
%TD*%
%TO.C,REF\u002A\u002A*%
X200660000Y-48260000D03*
%TD*%
%TO.C,REF\u002A\u002A*%
X251460000Y-86360000D03*
%TD*%
%TO.C,REF\u002A\u002A*%
X165100000Y-55880000D03*
%TD*%
%TO.C,REF\u002A\u002A*%
X213360000Y-25400000D03*
%TD*%
%TO.C,REF\u002A\u002A*%
X220980000Y-78740000D03*
%TD*%
%TO.C,REF\u002A\u002A*%
X177800000Y-38100000D03*
%TD*%
%TO.C,REF\u002A\u002A*%
X248920000Y-48260000D03*
%TD*%
%TO.C,REF\u002A\u002A*%
X187960000Y-35560000D03*
%TD*%
%TO.C,REF\u002A\u002A*%
X233680000Y-27940000D03*
%TD*%
%TO.C,REF\u002A\u002A*%
X172720000Y-91440000D03*
%TD*%
%TO.C,REF\u002A\u002A*%
X187960000Y-83820000D03*
%TD*%
%TO.C,REF\u002A\u002A*%
X175260000Y-99060000D03*
%TD*%
%TO.C,REF\u002A\u002A*%
X254000000Y-25400000D03*
%TD*%
%TO.C,REF\u002A\u002A*%
X246380000Y-71120000D03*
%TD*%
%TO.C,REF\u002A\u002A*%
X182880000Y-73660000D03*
%TD*%
%TO.C,REF\u002A\u002A*%
X172720000Y-71120000D03*
%TD*%
%TO.C,REF\u002A\u002A*%
X198120000Y-93980000D03*
%TD*%
%TO.C,*%
X233680000Y-101600000D03*
%TD*%
%TO.C,REF\u002A\u002A*%
X218440000Y-43180000D03*
%TD*%
%TO.C,REF\u002A\u002A*%
X162560000Y-81280000D03*
%TD*%
%TO.C,REF\u002A\u002A*%
X177800000Y-35560000D03*
%TD*%
%TO.C,REF\u002A\u002A*%
X180340000Y-58420000D03*
%TD*%
%TO.C,REF\u002A\u002A*%
X246380000Y-27940000D03*
%TD*%
%TO.C,REF\u002A\u002A*%
X210820000Y-22860000D03*
%TD*%
%TO.C,REF\u002A\u002A*%
X215900000Y-35560000D03*
%TD*%
%TO.C,REF\u002A\u002A*%
X233680000Y-86360000D03*
%TD*%
%TO.C,REF\u002A\u002A*%
X208280000Y-73660000D03*
%TD*%
%TO.C,REF\u002A\u002A*%
X228600000Y-78740000D03*
%TD*%
%TO.C,REF\u002A\u002A*%
X210820000Y-35560000D03*
%TD*%
%TO.C,REF\u002A\u002A*%
X180340000Y-53340000D03*
%TD*%
%TO.C,REF\u002A\u002A*%
X160020000Y-33020000D03*
%TD*%
%TO.C,REF\u002A\u002A*%
X205740000Y-38100000D03*
%TD*%
%TO.C,REF\u002A\u002A*%
X248920000Y-88900000D03*
%TD*%
%TO.C,REF\u002A\u002A*%
X170180000Y-88900000D03*
%TD*%
%TO.C,REF\u002A\u002A*%
X251460000Y-78740000D03*
%TD*%
%TO.C,REF\u002A\u002A*%
X198120000Y-99060000D03*
%TD*%
%TO.C,REF\u002A\u002A*%
X157480000Y-55880000D03*
%TD*%
%TO.C,REF\u002A\u002A*%
X157480000Y-45720000D03*
%TD*%
%TO.C,REF\u002A\u002A*%
X190500000Y-71120000D03*
%TD*%
%TO.C,REF\u002A\u002A*%
X218440000Y-60960000D03*
%TD*%
%TO.C,REF\u002A\u002A*%
X241300000Y-35560000D03*
%TD*%
%TO.C,REF\u002A\u002A*%
X205740000Y-25400000D03*
%TD*%
%TO.C,REF\u002A\u002A*%
X226060000Y-33020000D03*
%TD*%
%TO.C,REF\u002A\u002A*%
X218440000Y-88900000D03*
%TD*%
%TO.C,REF\u002A\u002A*%
X233680000Y-83820000D03*
%TD*%
%TO.C,REF\u002A\u002A*%
X236220000Y-86360000D03*
%TD*%
%TO.C,REF\u002A\u002A*%
X175260000Y-38100000D03*
%TD*%
%TO.C,REF\u002A\u002A*%
X223520000Y-30480000D03*
%TD*%
%TO.C,REF\u002A\u002A*%
X182880000Y-71120000D03*
%TD*%
%TO.C,REF\u002A\u002A*%
X157480000Y-30480000D03*
%TD*%
%TO.C,REF\u002A\u002A*%
X208280000Y-91440000D03*
%TD*%
%TO.C,REF\u002A\u002A*%
X190500000Y-40640000D03*
%TD*%
%TO.C,REF\u002A\u002A*%
X203200000Y-25400000D03*
%TD*%
%TO.C,REF\u002A\u002A*%
X177800000Y-99060000D03*
%TD*%
%TO.C,REF\u002A\u002A*%
X198120000Y-53340000D03*
%TD*%
%TO.C,REF\u002A\u002A*%
X187960000Y-78740000D03*
%TD*%
%TO.C,REF\u002A\u002A*%
X251460000Y-73660000D03*
%TD*%
%TO.C,REF\u002A\u002A*%
X241300000Y-40640000D03*
%TD*%
%TO.C,REF\u002A\u002A*%
X205740000Y-20320000D03*
%TD*%
%TO.C,REF\u002A\u002A*%
X162560000Y-76200000D03*
%TD*%
%TO.C,REF\u002A\u002A*%
X157480000Y-27940000D03*
%TD*%
%TO.C,REF\u002A\u002A*%
X218440000Y-33020000D03*
%TD*%
%TO.C,REF\u002A\u002A*%
X241300000Y-88900000D03*
%TD*%
%TO.C,REF\u002A\u002A*%
X208280000Y-45720000D03*
%TD*%
%TO.C,REF\u002A\u002A*%
X226060000Y-38100000D03*
%TD*%
%TO.C,REF\u002A\u002A*%
X215900000Y-25400000D03*
%TD*%
%TO.C,REF\u002A\u002A*%
X226060000Y-58420000D03*
%TD*%
%TO.C,REF\u002A\u002A*%
X238760000Y-93980000D03*
%TD*%
%TO.C,REF\u002A\u002A*%
X208280000Y-30480000D03*
%TD*%
%TO.C,REF\u002A\u002A*%
X220980000Y-93980000D03*
%TD*%
%TO.C,REF\u002A\u002A*%
X210820000Y-78740000D03*
%TD*%
%TO.C,REF\u002A\u002A*%
X162560000Y-38100000D03*
%TD*%
%TO.C,REF\u002A\u002A*%
X231140000Y-20320000D03*
%TD*%
%TO.C,REF\u002A\u002A*%
X243840000Y-35560000D03*
%TD*%
%TO.C,REF\u002A\u002A*%
X218440000Y-40640000D03*
%TD*%
%TO.C,REF\u002A\u002A*%
X220980000Y-99060000D03*
%TD*%
%TO.C,REF\u002A\u002A*%
X213360000Y-88900000D03*
%TD*%
%TO.C,REF\u002A\u002A*%
X223520000Y-63500000D03*
%TD*%
%TO.C,REF\u002A\u002A*%
X208280000Y-53340000D03*
%TD*%
%TO.C,REF\u002A\u002A*%
X205740000Y-55880000D03*
%TD*%
%TO.C,REF\u002A\u002A*%
X233680000Y-43180000D03*
%TD*%
%TO.C,REF\u002A\u002A*%
X210820000Y-101600000D03*
%TD*%
%TO.C,REF\u002A\u002A*%
X236220000Y-48260000D03*
%TD*%
%TO.C,REF\u002A\u002A*%
X223520000Y-22860000D03*
%TD*%
%TO.C,REF\u002A\u002A*%
X177800000Y-33020000D03*
%TD*%
%TO.C,REF\u002A\u002A*%
X210820000Y-86360000D03*
%TD*%
%TO.C,REF\u002A\u002A*%
X241300000Y-53340000D03*
%TD*%
%TO.C,REF\u002A\u002A*%
X236220000Y-53340000D03*
%TD*%
%TO.C,REF\u002A\u002A*%
X233680000Y-63500000D03*
%TD*%
%TO.C,REF\u002A\u002A*%
X220980000Y-88900000D03*
%TD*%
%TO.C,REF\u002A\u002A*%
X203200000Y-68580000D03*
%TD*%
%TO.C,REF\u002A\u002A*%
X198120000Y-17780000D03*
%TD*%
%TO.C,REF\u002A\u002A*%
X187960000Y-38100000D03*
%TD*%
%TO.C,REF\u002A\u002A*%
X226060000Y-30480000D03*
%TD*%
%TO.C,REF\u002A\u002A*%
X231140000Y-38100000D03*
%TD*%
%TO.C,REF\u002A\u002A*%
X193040000Y-99060000D03*
%TD*%
%TO.C,REF\u002A\u002A*%
X195580000Y-33020000D03*
%TD*%
%TO.C,REF\u002A\u002A*%
X170180000Y-86360000D03*
%TD*%
%TO.C,REF\u002A\u002A*%
X215900000Y-20320000D03*
%TD*%
%TO.C,REF\u002A\u002A*%
X203200000Y-81280000D03*
%TD*%
%TO.C,REF\u002A\u002A*%
X185420000Y-45720000D03*
%TD*%
%TO.C,REF\u002A\u002A*%
X160020000Y-30480000D03*
%TD*%
%TO.C,REF\u002A\u002A*%
X233680000Y-25400000D03*
%TD*%
%TO.C,REF\u002A\u002A*%
X203200000Y-48260000D03*
%TD*%
%TO.C,REF\u002A\u002A*%
X172720000Y-55880000D03*
%TD*%
%TO.C,REF\u002A\u002A*%
X182880000Y-55880000D03*
%TD*%
%TO.C,REF\u002A\u002A*%
X200660000Y-40640000D03*
%TD*%
%TO.C,REF\u002A\u002A*%
X177800000Y-40640000D03*
%TD*%
%TO.C,REF\u002A\u002A*%
X210820000Y-93980000D03*
%TD*%
%TO.C,REF\u002A\u002A*%
X203200000Y-58420000D03*
%TD*%
%TO.C,REF\u002A\u002A*%
X187960000Y-43180000D03*
%TD*%
%TO.C,REF\u002A\u002A*%
X157480000Y-76200000D03*
%TD*%
%TO.C,REF\u002A\u002A*%
X231140000Y-86360000D03*
%TD*%
%TO.C,REF\u002A\u002A*%
X157480000Y-91440000D03*
%TD*%
%TO.C,REF\u002A\u002A*%
X238760000Y-60960000D03*
%TD*%
%TO.C,REF\u002A\u002A*%
X190500000Y-81280000D03*
%TD*%
%TO.C,REF\u002A\u002A*%
X177800000Y-25400000D03*
%TD*%
%TO.C,REF\u002A\u002A*%
X213360000Y-81280000D03*
%TD*%
%TO.C,REF\u002A\u002A*%
X198120000Y-73660000D03*
%TD*%
%TO.C,REF\u002A\u002A*%
X170180000Y-38100000D03*
%TD*%
%TO.C,REF\u002A\u002A*%
X165100000Y-88900000D03*
%TD*%
%TO.C,REF\u002A\u002A*%
X226060000Y-71120000D03*
%TD*%
%TO.C,REF\u002A\u002A*%
X246380000Y-40640000D03*
%TD*%
%TO.C,REF\u002A\u002A*%
X180340000Y-91440000D03*
%TD*%
%TO.C,*%
X208280000Y-101600000D03*
%TD*%
%TO.C,REF\u002A\u002A*%
X215900000Y-40640000D03*
%TD*%
%TO.C,REF\u002A\u002A*%
X213360000Y-101600000D03*
%TD*%
%TO.C,REF\u002A\u002A*%
X160020000Y-22860000D03*
%TD*%
%TO.C,REF\u002A\u002A*%
X185420000Y-50800000D03*
%TD*%
%TO.C,REF\u002A\u002A*%
X226060000Y-73660000D03*
%TD*%
%TO.C,*%
X210820000Y-99060000D03*
%TD*%
%TO.C,REF\u002A\u002A*%
X205740000Y-91440000D03*
%TD*%
%TO.C,REF\u002A\u002A*%
X170180000Y-60960000D03*
%TD*%
%TO.C,REF\u002A\u002A*%
X243840000Y-86360000D03*
%TD*%
%TO.C,REF\u002A\u002A*%
X226060000Y-17780000D03*
%TD*%
%TO.C,REF\u002A\u002A*%
X236220000Y-73660000D03*
%TD*%
%TO.C,REF\u002A\u002A*%
X182880000Y-53340000D03*
%TD*%
%TO.C,REF\u002A\u002A*%
X200660000Y-86360000D03*
%TD*%
%TO.C,REF\u002A\u002A*%
X220980000Y-83820000D03*
%TD*%
%TO.C,REF\u002A\u002A*%
X218440000Y-25400000D03*
%TD*%
%TO.C,REF\u002A\u002A*%
X223520000Y-71120000D03*
%TD*%
%TO.C,REF\u002A\u002A*%
X162560000Y-91440000D03*
%TD*%
%TO.C,REF\u002A\u002A*%
X236220000Y-68580000D03*
%TD*%
%TO.C,REF\u002A\u002A*%
X182880000Y-20320000D03*
%TD*%
%TO.C,REF\u002A\u002A*%
X175260000Y-71120000D03*
%TD*%
%TO.C,REF\u002A\u002A*%
X182880000Y-48260000D03*
%TD*%
%TO.C,REF\u002A\u002A*%
X165100000Y-33020000D03*
%TD*%
%TO.C,REF\u002A\u002A*%
X228600000Y-48260000D03*
%TD*%
%TO.C,REF\u002A\u002A*%
X210820000Y-91440000D03*
%TD*%
%TO.C,REF\u002A\u002A*%
X187960000Y-71120000D03*
%TD*%
%TO.C,REF\u002A\u002A*%
X180340000Y-99060000D03*
%TD*%
%TO.C,REF\u002A\u002A*%
X177800000Y-63500000D03*
%TD*%
%TO.C,REF\u002A\u002A*%
X185420000Y-20320000D03*
%TD*%
%TO.C,REF\u002A\u002A*%
X210820000Y-66040000D03*
%TD*%
%TO.C,REF\u002A\u002A*%
X251460000Y-45720000D03*
%TD*%
%TO.C,*%
X238760000Y-101600000D03*
%TD*%
%TO.C,REF\u002A\u002A*%
X162560000Y-83820000D03*
%TD*%
%TO.C,REF\u002A\u002A*%
X246380000Y-48260000D03*
%TD*%
%TO.C,REF\u002A\u002A*%
X190500000Y-78740000D03*
%TD*%
%TO.C,REF\u002A\u002A*%
X205740000Y-27940000D03*
%TD*%
%TO.C,REF\u002A\u002A*%
X231140000Y-35560000D03*
%TD*%
%TO.C,REF\u002A\u002A*%
X200660000Y-78740000D03*
%TD*%
%TO.C,*%
X241300000Y-99060000D03*
%TD*%
%TO.C,REF\u002A\u002A*%
X160020000Y-25400000D03*
%TD*%
%TO.C,REF\u002A\u002A*%
X200660000Y-81280000D03*
%TD*%
%TO.C,REF\u002A\u002A*%
X238760000Y-43180000D03*
%TD*%
%TO.C,REF\u002A\u002A*%
X251460000Y-40640000D03*
%TD*%
%TO.C,REF\u002A\u002A*%
X238760000Y-20320000D03*
%TD*%
%TO.C,REF\u002A\u002A*%
X182880000Y-78740000D03*
%TD*%
%TO.C,REF\u002A\u002A*%
X218440000Y-71120000D03*
%TD*%
%TO.C,REF\u002A\u002A*%
X193040000Y-86360000D03*
%TD*%
%TO.C,REF\u002A\u002A*%
X223520000Y-58420000D03*
%TD*%
%TO.C,REF\u002A\u002A*%
X236220000Y-43180000D03*
%TD*%
%TO.C,REF\u002A\u002A*%
X228600000Y-68580000D03*
%TD*%
%TO.C,REF\u002A\u002A*%
X238760000Y-35560000D03*
%TD*%
%TO.C,REF\u002A\u002A*%
X208280000Y-93980000D03*
%TD*%
%TO.C,REF\u002A\u002A*%
X238760000Y-55880000D03*
%TD*%
%TO.C,REF\u002A\u002A*%
X170180000Y-66040000D03*
%TD*%
%TO.C,REF\u002A\u002A*%
X177800000Y-50800000D03*
%TD*%
%TO.C,REF\u002A\u002A*%
X210820000Y-76200000D03*
%TD*%
%TO.C,REF\u002A\u002A*%
X160020000Y-20320000D03*
%TD*%
%TO.C,REF\u002A\u002A*%
X246380000Y-25400000D03*
%TD*%
%TO.C,REF\u002A\u002A*%
X231140000Y-81280000D03*
%TD*%
%TO.C,REF\u002A\u002A*%
X185420000Y-93980000D03*
%TD*%
%TO.C,REF\u002A\u002A*%
X243840000Y-68580000D03*
%TD*%
%TO.C,REF\u002A\u002A*%
X157480000Y-58420000D03*
%TD*%
%TO.C,REF\u002A\u002A*%
X198120000Y-66040000D03*
%TD*%
%TO.C,REF\u002A\u002A*%
X241300000Y-50800000D03*
%TD*%
%TO.C,REF\u002A\u002A*%
X193040000Y-63500000D03*
%TD*%
%TO.C,REF\u002A\u002A*%
X203200000Y-63500000D03*
%TD*%
%TO.C,REF\u002A\u002A*%
X243840000Y-27940000D03*
%TD*%
%TO.C,REF\u002A\u002A*%
X198120000Y-83820000D03*
%TD*%
%TO.C,REF\u002A\u002A*%
X170180000Y-55880000D03*
%TD*%
%TO.C,REF\u002A\u002A*%
X231140000Y-93980000D03*
%TD*%
%TO.C,REF\u002A\u002A*%
X185420000Y-22860000D03*
%TD*%
%TO.C,REF\u002A\u002A*%
X226060000Y-60960000D03*
%TD*%
%TO.C,REF\u002A\u002A*%
X203200000Y-99060000D03*
%TD*%
%TO.C,REF\u002A\u002A*%
X205740000Y-81280000D03*
%TD*%
%TO.C,REF\u002A\u002A*%
X243840000Y-71120000D03*
%TD*%
%TO.C,REF\u002A\u002A*%
X233680000Y-68580000D03*
%TD*%
%TO.C,REF\u002A\u002A*%
X172720000Y-45720000D03*
%TD*%
%TO.C,REF\u002A\u002A*%
X187960000Y-50800000D03*
%TD*%
%TO.C,REF\u002A\u002A*%
X205740000Y-66040000D03*
%TD*%
%TO.C,REF\u002A\u002A*%
X162560000Y-68580000D03*
%TD*%
%TO.C,REF\u002A\u002A*%
X215900000Y-76200000D03*
%TD*%
%TO.C,REF\u002A\u002A*%
X193040000Y-76200000D03*
%TD*%
%TO.C,REF\u002A\u002A*%
X160020000Y-50800000D03*
%TD*%
%TO.C,REF\u002A\u002A*%
X220980000Y-40640000D03*
%TD*%
%TO.C,REF\u002A\u002A*%
X223520000Y-53340000D03*
%TD*%
%TO.C,REF\u002A\u002A*%
X177800000Y-86360000D03*
%TD*%
%TO.C,REF\u002A\u002A*%
X160020000Y-35560000D03*
%TD*%
%TO.C,REF\u002A\u002A*%
X193040000Y-66040000D03*
%TD*%
%TO.C,REF\u002A\u002A*%
X241300000Y-22860000D03*
%TD*%
%TO.C,REF\u002A\u002A*%
X233680000Y-20320000D03*
%TD*%
%TO.C,REF\u002A\u002A*%
X233680000Y-38100000D03*
%TD*%
%TO.C,REF\u002A\u002A*%
X248920000Y-20320000D03*
%TD*%
%TO.C,REF\u002A\u002A*%
X190500000Y-55880000D03*
%TD*%
%TO.C,REF\u002A\u002A*%
X223520000Y-38100000D03*
%TD*%
%TO.C,REF\u002A\u002A*%
X203200000Y-35560000D03*
%TD*%
%TO.C,REF\u002A\u002A*%
X218440000Y-30480000D03*
%TD*%
%TO.C,REF\u002A\u002A*%
X187960000Y-81280000D03*
%TD*%
%TO.C,REF\u002A\u002A*%
X205740000Y-60960000D03*
%TD*%
%TO.C,REF\u002A\u002A*%
X190500000Y-88900000D03*
%TD*%
%TO.C,REF\u002A\u002A*%
X248920000Y-22860000D03*
%TD*%
%TO.C,REF\u002A\u002A*%
X165100000Y-48260000D03*
%TD*%
%TO.C,REF\u002A\u002A*%
X185420000Y-17780000D03*
%TD*%
%TO.C,REF\u002A\u002A*%
X236220000Y-35560000D03*
%TD*%
%TO.C,REF\u002A\u002A*%
X241300000Y-78740000D03*
%TD*%
%TO.C,REF\u002A\u002A*%
X238760000Y-48260000D03*
%TD*%
%TO.C,REF\u002A\u002A*%
X228600000Y-91440000D03*
%TD*%
%TO.C,*%
X193040000Y-101600000D03*
%TD*%
%TO.C,REF\u002A\u002A*%
X210820000Y-71120000D03*
%TD*%
%TO.C,*%
X231140000Y-99060000D03*
%TD*%
%TO.C,REF\u002A\u002A*%
X172720000Y-93980000D03*
%TD*%
%TO.C,REF\u002A\u002A*%
X165100000Y-38100000D03*
%TD*%
%TO.C,*%
X246380000Y-99060000D03*
%TD*%
%TO.C,REF\u002A\u002A*%
X251460000Y-60960000D03*
%TD*%
%TO.C,REF\u002A\u002A*%
X193040000Y-40640000D03*
%TD*%
%TO.C,REF\u002A\u002A*%
X251460000Y-38100000D03*
%TD*%
%TO.C,REF\u002A\u002A*%
X160020000Y-86360000D03*
%TD*%
%TO.C,REF\u002A\u002A*%
X254000000Y-76200000D03*
%TD*%
%TO.C,REF\u002A\u002A*%
X175260000Y-88900000D03*
%TD*%
%TO.C,REF\u002A\u002A*%
X185420000Y-68580000D03*
%TD*%
%TO.C,REF\u002A\u002A*%
X213360000Y-50800000D03*
%TD*%
%TO.C,REF\u002A\u002A*%
X248920000Y-45720000D03*
%TD*%
%TO.C,REF\u002A\u002A*%
X182880000Y-76200000D03*
%TD*%
%TO.C,REF\u002A\u002A*%
X218440000Y-83820000D03*
%TD*%
%TO.C,REF\u002A\u002A*%
X213360000Y-45720000D03*
%TD*%
%TO.C,REF\u002A\u002A*%
X220980000Y-63500000D03*
%TD*%
%TO.C,REF\u002A\u002A*%
X218440000Y-101600000D03*
%TD*%
%TO.C,REF\u002A\u002A*%
X185420000Y-48260000D03*
%TD*%
%TO.C,REF\u002A\u002A*%
X190500000Y-27940000D03*
%TD*%
%TO.C,REF\u002A\u002A*%
X170180000Y-101600000D03*
%TD*%
%TO.C,REF\u002A\u002A*%
X215900000Y-45720000D03*
%TD*%
%TO.C,REF\u002A\u002A*%
X218440000Y-17780000D03*
%TD*%
%TO.C,REF\u002A\u002A*%
X213360000Y-53340000D03*
%TD*%
%TO.C,REF\u002A\u002A*%
X177800000Y-101600000D03*
%TD*%
%TO.C,REF\u002A\u002A*%
X254000000Y-96520000D03*
%TD*%
%TO.C,REF\u002A\u002A*%
X160020000Y-27940000D03*
%TD*%
%TO.C,REF\u002A\u002A*%
X246380000Y-83820000D03*
%TD*%
%TO.C,REF\u002A\u002A*%
X208280000Y-58420000D03*
%TD*%
%TO.C,REF\u002A\u002A*%
X254000000Y-43180000D03*
%TD*%
%TO.C,REF\u002A\u002A*%
X198120000Y-63500000D03*
%TD*%
%TO.C,REF\u002A\u002A*%
X248920000Y-78740000D03*
%TD*%
%TO.C,REF\u002A\u002A*%
X236220000Y-45720000D03*
%TD*%
%TO.C,REF\u002A\u002A*%
X157480000Y-96520000D03*
%TD*%
%TO.C,REF\u002A\u002A*%
X160020000Y-73660000D03*
%TD*%
%TO.C,REF\u002A\u002A*%
X238760000Y-68580000D03*
%TD*%
%TO.C,REF\u002A\u002A*%
X213360000Y-40640000D03*
%TD*%
%TO.C,REF\u002A\u002A*%
X193040000Y-50800000D03*
%TD*%
%TO.C,REF\u002A\u002A*%
X238760000Y-40640000D03*
%TD*%
%TO.C,REF\u002A\u002A*%
X251460000Y-66040000D03*
%TD*%
%TO.C,REF\u002A\u002A*%
X175260000Y-43180000D03*
%TD*%
%TO.C,REF\u002A\u002A*%
X195580000Y-91440000D03*
%TD*%
%TO.C,REF\u002A\u002A*%
X200660000Y-45720000D03*
%TD*%
%TO.C,REF\u002A\u002A*%
X205740000Y-88900000D03*
%TD*%
%TO.C,REF\u002A\u002A*%
X233680000Y-35560000D03*
%TD*%
%TO.C,REF\u002A\u002A*%
X248920000Y-25400000D03*
%TD*%
%TO.C,REF\u002A\u002A*%
X215900000Y-48260000D03*
%TD*%
%TO.C,REF\u002A\u002A*%
X248920000Y-93980000D03*
%TD*%
%TO.C,REF\u002A\u002A*%
X251460000Y-71120000D03*
%TD*%
%TO.C,REF\u002A\u002A*%
X236220000Y-58420000D03*
%TD*%
%TO.C,REF\u002A\u002A*%
X236220000Y-88900000D03*
%TD*%
%TO.C,REF\u002A\u002A*%
X251460000Y-53340000D03*
%TD*%
%TO.C,REF\u002A\u002A*%
X241300000Y-45720000D03*
%TD*%
%TO.C,REF\u002A\u002A*%
X170180000Y-33020000D03*
%TD*%
%TO.C,REF\u002A\u002A*%
X162560000Y-93980000D03*
%TD*%
%TO.C,REF\u002A\u002A*%
X218440000Y-76200000D03*
%TD*%
%TO.C,REF\u002A\u002A*%
X231140000Y-40640000D03*
%TD*%
%TO.C,REF\u002A\u002A*%
X238760000Y-53340000D03*
%TD*%
%TO.C,REF\u002A\u002A*%
X205740000Y-53340000D03*
%TD*%
%TO.C,REF\u002A\u002A*%
X180340000Y-101600000D03*
%TD*%
%TO.C,REF\u002A\u002A*%
X198120000Y-22860000D03*
%TD*%
%TO.C,REF\u002A\u002A*%
X198120000Y-88900000D03*
%TD*%
%TO.C,REF\u002A\u002A*%
X220980000Y-27940000D03*
%TD*%
%TO.C,REF\u002A\u002A*%
X195580000Y-71120000D03*
%TD*%
%TO.C,REF\u002A\u002A*%
X248920000Y-17780000D03*
%TD*%
%TO.C,REF\u002A\u002A*%
X200660000Y-43180000D03*
%TD*%
%TO.C,REF\u002A\u002A*%
X187960000Y-101600000D03*
%TD*%
%TO.C,REF\u002A\u002A*%
X170180000Y-99060000D03*
%TD*%
%TO.C,REF\u002A\u002A*%
X165100000Y-86360000D03*
%TD*%
%TO.C,REF\u002A\u002A*%
X208280000Y-71120000D03*
%TD*%
%TO.C,REF\u002A\u002A*%
X195580000Y-55880000D03*
%TD*%
%TO.C,REF\u002A\u002A*%
X251460000Y-63500000D03*
%TD*%
%TO.C,REF\u002A\u002A*%
X175260000Y-91440000D03*
%TD*%
%TO.C,REF\u002A\u002A*%
X238760000Y-81280000D03*
%TD*%
%TO.C,REF\u002A\u002A*%
X215900000Y-81280000D03*
%TD*%
%TO.C,REF\u002A\u002A*%
X203200000Y-73660000D03*
%TD*%
%TO.C,REF\u002A\u002A*%
X238760000Y-101600000D03*
%TD*%
%TO.C,REF\u002A\u002A*%
X177800000Y-73660000D03*
%TD*%
%TO.C,REF\u002A\u002A*%
X190500000Y-20320000D03*
%TD*%
%TO.C,REF\u002A\u002A*%
X210820000Y-40640000D03*
%TD*%
%TO.C,REF\u002A\u002A*%
X218440000Y-99060000D03*
%TD*%
%TO.C,REF\u002A\u002A*%
X248920000Y-63500000D03*
%TD*%
%TO.C,REF\u002A\u002A*%
X195580000Y-68580000D03*
%TD*%
%TO.C,REF\u002A\u002A*%
X223520000Y-33020000D03*
%TD*%
%TO.C,REF\u002A\u002A*%
X243840000Y-99060000D03*
%TD*%
%TO.C,REF\u002A\u002A*%
X200660000Y-83820000D03*
%TD*%
%TO.C,REF\u002A\u002A*%
X198120000Y-50800000D03*
%TD*%
%TO.C,REF\u002A\u002A*%
X233680000Y-17780000D03*
%TD*%
%TO.C,REF\u002A\u002A*%
X210820000Y-99060000D03*
%TD*%
%TO.C,REF\u002A\u002A*%
X205740000Y-30480000D03*
%TD*%
%TO.C,*%
X220980000Y-99060000D03*
%TD*%
%TO.C,REF\u002A\u002A*%
X193040000Y-25400000D03*
%TD*%
%TO.C,REF\u002A\u002A*%
X215900000Y-93980000D03*
%TD*%
%TO.C,REF\u002A\u002A*%
X167640000Y-58420000D03*
%TD*%
%TO.C,REF\u002A\u002A*%
X200660000Y-27940000D03*
%TD*%
%TO.C,REF\u002A\u002A*%
X251460000Y-96520000D03*
%TD*%
%TO.C,REF\u002A\u002A*%
X172720000Y-35560000D03*
%TD*%
%TO.C,REF\u002A\u002A*%
X251460000Y-33020000D03*
%TD*%
%TO.C,REF\u002A\u002A*%
X175260000Y-58420000D03*
%TD*%
%TO.C,REF\u002A\u002A*%
X251460000Y-30480000D03*
%TD*%
%TO.C,REF\u002A\u002A*%
X160020000Y-88900000D03*
%TD*%
%TO.C,REF\u002A\u002A*%
X170180000Y-63500000D03*
%TD*%
%TO.C,REF\u002A\u002A*%
X223520000Y-45720000D03*
%TD*%
%TO.C,REF\u002A\u002A*%
X218440000Y-53340000D03*
%TD*%
%TO.C,REF\u002A\u002A*%
X215900000Y-22860000D03*
%TD*%
%TO.C,REF\u002A\u002A*%
X162560000Y-33020000D03*
%TD*%
%TO.C,REF\u002A\u002A*%
X205740000Y-33020000D03*
%TD*%
%TO.C,REF\u002A\u002A*%
X215900000Y-55880000D03*
%TD*%
%TO.C,REF\u002A\u002A*%
X243840000Y-73660000D03*
%TD*%
%TO.C,REF\u002A\u002A*%
X203200000Y-38100000D03*
%TD*%
%TO.C,REF\u002A\u002A*%
X248920000Y-66040000D03*
%TD*%
%TO.C,REF\u002A\u002A*%
X190500000Y-99060000D03*
%TD*%
%TO.C,REF\u002A\u002A*%
X248920000Y-99060000D03*
%TD*%
%TO.C,REF\u002A\u002A*%
X218440000Y-81280000D03*
%TD*%
%TO.C,REF\u002A\u002A*%
X203200000Y-40640000D03*
%TD*%
%TO.C,REF\u002A\u002A*%
X228600000Y-38100000D03*
%TD*%
%TO.C,REF\u002A\u002A*%
X167640000Y-78740000D03*
%TD*%
%TO.C,REF\u002A\u002A*%
X177800000Y-22860000D03*
%TD*%
%TO.C,REF\u002A\u002A*%
X177800000Y-30480000D03*
%TD*%
%TO.C,REF\u002A\u002A*%
X210820000Y-33020000D03*
%TD*%
%TO.C,REF\u002A\u002A*%
X162560000Y-63500000D03*
%TD*%
%TO.C,REF\u002A\u002A*%
X200660000Y-30480000D03*
%TD*%
%TO.C,REF\u002A\u002A*%
X231140000Y-45720000D03*
%TD*%
%TO.C,REF\u002A\u002A*%
X162560000Y-78740000D03*
%TD*%
%TO.C,REF\u002A\u002A*%
X193040000Y-17780000D03*
%TD*%
%TO.C,REF\u002A\u002A*%
X157480000Y-35560000D03*
%TD*%
%TO.C,REF\u002A\u002A*%
X208280000Y-66040000D03*
%TD*%
%TO.C,REF\u002A\u002A*%
X241300000Y-20320000D03*
%TD*%
%TO.C,REF\u002A\u002A*%
X223520000Y-40640000D03*
%TD*%
%TO.C,REF\u002A\u002A*%
X200660000Y-38100000D03*
%TD*%
%TO.C,REF\u002A\u002A*%
X165100000Y-66040000D03*
%TD*%
%TO.C,REF\u002A\u002A*%
X175260000Y-53340000D03*
%TD*%
%TO.C,REF\u002A\u002A*%
X233680000Y-91440000D03*
%TD*%
%TO.C,REF\u002A\u002A*%
X167640000Y-55880000D03*
%TD*%
%TO.C,REF\u002A\u002A*%
X246380000Y-66040000D03*
%TD*%
%TO.C,REF\u002A\u002A*%
X167640000Y-76200000D03*
%TD*%
%TO.C,REF\u002A\u002A*%
X175260000Y-93980000D03*
%TD*%
%TO.C,REF\u002A\u002A*%
X254000000Y-93980000D03*
%TD*%
%TO.C,REF\u002A\u002A*%
X182880000Y-99060000D03*
%TD*%
%TO.C,REF\u002A\u002A*%
X195580000Y-20320000D03*
%TD*%
%TO.C,REF\u002A\u002A*%
X160020000Y-83820000D03*
%TD*%
%TO.C,REF\u002A\u002A*%
X246380000Y-73660000D03*
%TD*%
%TO.C,REF\u002A\u002A*%
X241300000Y-25400000D03*
%TD*%
%TO.C,REF\u002A\u002A*%
X215900000Y-50800000D03*
%TD*%
%TO.C,REF\u002A\u002A*%
X241300000Y-60960000D03*
%TD*%
%TO.C,REF\u002A\u002A*%
X200660000Y-99060000D03*
%TD*%
%TO.C,REF\u002A\u002A*%
X228600000Y-33020000D03*
%TD*%
%TO.C,REF\u002A\u002A*%
X231140000Y-63500000D03*
%TD*%
%TO.C,REF\u002A\u002A*%
X254000000Y-88900000D03*
%TD*%
%TO.C,REF\u002A\u002A*%
X205740000Y-40640000D03*
%TD*%
%TO.C,REF\u002A\u002A*%
X190500000Y-45720000D03*
%TD*%
%TO.C,REF\u002A\u002A*%
X208280000Y-60960000D03*
%TD*%
%TO.C,REF\u002A\u002A*%
X220980000Y-35560000D03*
%TD*%
%TO.C,REF\u002A\u002A*%
X167640000Y-38100000D03*
%TD*%
%TO.C,REF\u002A\u002A*%
X195580000Y-48260000D03*
%TD*%
%TO.C,REF\u002A\u002A*%
X165100000Y-68580000D03*
%TD*%
%TO.C,REF\u002A\u002A*%
X157480000Y-40640000D03*
%TD*%
%TO.C,REF\u002A\u002A*%
X195580000Y-93980000D03*
%TD*%
%TO.C,REF\u002A\u002A*%
X195580000Y-40640000D03*
%TD*%
%TO.C,REF\u002A\u002A*%
X223520000Y-73660000D03*
%TD*%
%TO.C,REF\u002A\u002A*%
X160020000Y-58420000D03*
%TD*%
%TO.C,REF\u002A\u002A*%
X238760000Y-91440000D03*
%TD*%
%TO.C,REF\u002A\u002A*%
X213360000Y-35560000D03*
%TD*%
%TO.C,REF\u002A\u002A*%
X241300000Y-43180000D03*
%TD*%
%TO.C,REF\u002A\u002A*%
X160020000Y-43180000D03*
%TD*%
%TO.C,REF\u002A\u002A*%
X167640000Y-30480000D03*
%TD*%
%TO.C,REF\u002A\u002A*%
X236220000Y-38100000D03*
%TD*%
%TO.C,REF\u002A\u002A*%
X160020000Y-91440000D03*
%TD*%
%TO.C,REF\u002A\u002A*%
X236220000Y-66040000D03*
%TD*%
%TO.C,REF\u002A\u002A*%
X175260000Y-81280000D03*
%TD*%
%TO.C,REF\u002A\u002A*%
X233680000Y-45720000D03*
%TD*%
%TO.C,REF\u002A\u002A*%
X208280000Y-50800000D03*
%TD*%
%TO.C,REF\u002A\u002A*%
X187960000Y-25400000D03*
%TD*%
%TO.C,REF\u002A\u002A*%
X193040000Y-83820000D03*
%TD*%
%TO.C,REF\u002A\u002A*%
X218440000Y-73660000D03*
%TD*%
%TO.C,REF\u002A\u002A*%
X203200000Y-53340000D03*
%TD*%
%TO.C,REF\u002A\u002A*%
X241300000Y-91440000D03*
%TD*%
%TO.C,REF\u002A\u002A*%
X185420000Y-88900000D03*
%TD*%
%TO.C,REF\u002A\u002A*%
X226060000Y-101600000D03*
%TD*%
%TO.C,REF\u002A\u002A*%
X220980000Y-73660000D03*
%TD*%
%TO.C,REF\u002A\u002A*%
X167640000Y-88900000D03*
%TD*%
%TO.C,REF\u002A\u002A*%
X226060000Y-43180000D03*
%TD*%
%TO.C,REF\u002A\u002A*%
X238760000Y-17780000D03*
%TD*%
%TO.C,REF\u002A\u002A*%
X226060000Y-66040000D03*
%TD*%
%TO.C,REF\u002A\u002A*%
X187960000Y-63500000D03*
%TD*%
%TO.C,REF\u002A\u002A*%
X243840000Y-22860000D03*
%TD*%
%TO.C,REF\u002A\u002A*%
X251460000Y-76200000D03*
%TD*%
%TO.C,REF\u002A\u002A*%
X210820000Y-43180000D03*
%TD*%
%TO.C,REF\u002A\u002A*%
X162560000Y-86360000D03*
%TD*%
%TO.C,REF\u002A\u002A*%
X236220000Y-22860000D03*
%TD*%
%TO.C,REF\u002A\u002A*%
X175260000Y-20320000D03*
%TD*%
%TO.C,REF\u002A\u002A*%
X254000000Y-73660000D03*
%TD*%
%TO.C,REF\u002A\u002A*%
X238760000Y-50800000D03*
%TD*%
%TO.C,REF\u002A\u002A*%
X180340000Y-50800000D03*
%TD*%
%TO.C,*%
X172720000Y-101600000D03*
%TD*%
D12*
%TO.C, *%
X167640000Y-109220000D03*
X170180000Y-109220000D03*
X172720000Y-109220000D03*
X175260000Y-109220000D03*
X177800000Y-109220000D03*
X180340000Y-109220000D03*
X182880000Y-109220000D03*
X185420000Y-109220000D03*
X187960000Y-109220000D03*
X190500000Y-109220000D03*
X193040000Y-109220000D03*
X195580000Y-109220000D03*
X198120000Y-109220000D03*
X200660000Y-109220000D03*
X203200000Y-109220000D03*
X205740000Y-109220000D03*
X208280000Y-109220000D03*
X210820000Y-109220000D03*
X213360000Y-109220000D03*
X215900000Y-109220000D03*
X218440000Y-109220000D03*
X220980000Y-109220000D03*
X223520000Y-109220000D03*
X226060000Y-109220000D03*
X228600000Y-109220000D03*
X231140000Y-109220000D03*
X233680000Y-109220000D03*
X236220000Y-109220000D03*
X238760000Y-109220000D03*
X241300000Y-109220000D03*
X243840000Y-109220000D03*
%TD*%
D10*
%TO.C,REF\u002A\u002A*%
X200660000Y-50800000D03*
%TD*%
%TO.C,REF\u002A\u002A*%
X210820000Y-58420000D03*
%TD*%
%TO.C,REF\u002A\u002A*%
X213360000Y-60960000D03*
%TD*%
%TO.C,REF\u002A\u002A*%
X231140000Y-17780000D03*
%TD*%
%TO.C,*%
X208280000Y-101600000D03*
%TD*%
%TO.C,REF\u002A\u002A*%
X241300000Y-71120000D03*
%TD*%
%TO.C,REF\u002A\u002A*%
X226060000Y-76200000D03*
%TD*%
%TO.C,REF\u002A\u002A*%
X223520000Y-88900000D03*
%TD*%
%TO.C,REF\u002A\u002A*%
X157480000Y-86360000D03*
%TD*%
%TO.C,REF\u002A\u002A*%
X215900000Y-33020000D03*
%TD*%
%TO.C,REF\u002A\u002A*%
X185420000Y-63500000D03*
%TD*%
%TO.C,REF\u002A\u002A*%
X157480000Y-78740000D03*
%TD*%
%TO.C,REF\u002A\u002A*%
X205740000Y-93980000D03*
%TD*%
%TO.C,REF\u002A\u002A*%
X231140000Y-27940000D03*
%TD*%
%TO.C,REF\u002A\u002A*%
X198120000Y-35560000D03*
%TD*%
%TO.C,REF\u002A\u002A*%
X175260000Y-45720000D03*
%TD*%
%TO.C,REF\u002A\u002A*%
X238760000Y-78740000D03*
%TD*%
%TO.C,REF\u002A\u002A*%
X238760000Y-66040000D03*
%TD*%
%TO.C,REF\u002A\u002A*%
X182880000Y-86360000D03*
%TD*%
%TO.C,REF\u002A\u002A*%
X226060000Y-68580000D03*
%TD*%
%TO.C,REF\u002A\u002A*%
X170180000Y-20320000D03*
%TD*%
%TO.C,REF\u002A\u002A*%
X236220000Y-83820000D03*
%TD*%
%TO.C,REF\u002A\u002A*%
X160020000Y-45720000D03*
%TD*%
%TO.C,REF\u002A\u002A*%
X254000000Y-86360000D03*
%TD*%
%TO.C,REF\u002A\u002A*%
X193040000Y-35560000D03*
%TD*%
%TO.C,REF\u002A\u002A*%
X228600000Y-53340000D03*
%TD*%
%TO.C,*%
X187960000Y-101600000D03*
%TD*%
%TO.C,REF\u002A\u002A*%
X198120000Y-91440000D03*
%TD*%
%TO.C,REF\u002A\u002A*%
X236220000Y-20320000D03*
%TD*%
%TO.C,*%
X187960000Y-101600000D03*
%TD*%
%TO.C,REF\u002A\u002A*%
X170180000Y-73660000D03*
%TD*%
%TO.C,REF\u002A\u002A*%
X175260000Y-63500000D03*
%TD*%
%TO.C,REF\u002A\u002A*%
X157480000Y-88900000D03*
%TD*%
%TO.C,REF\u002A\u002A*%
X195580000Y-60960000D03*
%TD*%
%TO.C,REF\u002A\u002A*%
X203200000Y-91440000D03*
%TD*%
%TO.C,REF\u002A\u002A*%
X160020000Y-81280000D03*
%TD*%
%TO.C,*%
X228600000Y-101600000D03*
%TD*%
%TO.C,REF\u002A\u002A*%
X208280000Y-78740000D03*
%TD*%
%TO.C,REF\u002A\u002A*%
X228600000Y-81280000D03*
%TD*%
%TO.C,REF\u002A\u002A*%
X195580000Y-58420000D03*
%TD*%
%TO.C,REF\u002A\u002A*%
X167640000Y-45720000D03*
%TD*%
%TO.C,REF\u002A\u002A*%
X198120000Y-58420000D03*
%TD*%
%TO.C,REF\u002A\u002A*%
X198120000Y-78740000D03*
%TD*%
%TO.C,REF\u002A\u002A*%
X182880000Y-88900000D03*
%TD*%
%TO.C,REF\u002A\u002A*%
X215900000Y-101600000D03*
%TD*%
%TO.C,REF\u002A\u002A*%
X243840000Y-78740000D03*
%TD*%
%TO.C,*%
X226060000Y-99060000D03*
%TD*%
%TO.C,REF\u002A\u002A*%
X175260000Y-86360000D03*
%TD*%
%TO.C,REF\u002A\u002A*%
X175260000Y-33020000D03*
%TD*%
%TO.C,REF\u002A\u002A*%
X246380000Y-55880000D03*
%TD*%
%TO.C,REF\u002A\u002A*%
X200660000Y-17780000D03*
%TD*%
%TO.C,REF\u002A\u002A*%
X182880000Y-40640000D03*
%TD*%
%TO.C,REF\u002A\u002A*%
X213360000Y-48260000D03*
%TD*%
%TO.C,REF\u002A\u002A*%
X226060000Y-40640000D03*
%TD*%
%TO.C,REF\u002A\u002A*%
X251460000Y-25400000D03*
%TD*%
%TO.C,REF\u002A\u002A*%
X210820000Y-83820000D03*
%TD*%
%TO.C,REF\u002A\u002A*%
X167640000Y-27940000D03*
%TD*%
%TO.C,REF\u002A\u002A*%
X238760000Y-88900000D03*
%TD*%
%TO.C,REF\u002A\u002A*%
X236220000Y-55880000D03*
%TD*%
%TO.C,REF\u002A\u002A*%
X241300000Y-83820000D03*
%TD*%
%TO.C,*%
X205740000Y-99060000D03*
%TD*%
%TO.C,REF\u002A\u002A*%
X208280000Y-76200000D03*
%TD*%
%TO.C,REF\u002A\u002A*%
X243840000Y-45720000D03*
%TD*%
%TO.C,REF\u002A\u002A*%
X233680000Y-99060000D03*
%TD*%
%TO.C,REF\u002A\u002A*%
X185420000Y-35560000D03*
%TD*%
%TO.C,REF\u002A\u002A*%
X167640000Y-33020000D03*
%TD*%
%TO.C,REF\u002A\u002A*%
X165100000Y-25400000D03*
%TD*%
%TO.C,REF\u002A\u002A*%
X210820000Y-27940000D03*
%TD*%
%TO.C,REF\u002A\u002A*%
X226060000Y-45720000D03*
%TD*%
%TO.C,REF\u002A\u002A*%
X243840000Y-58420000D03*
%TD*%
%TO.C,REF\u002A\u002A*%
X195580000Y-17780000D03*
%TD*%
%TO.C,REF\u002A\u002A*%
X215900000Y-99060000D03*
%TD*%
%TO.C,REF\u002A\u002A*%
X228600000Y-73660000D03*
%TD*%
%TO.C,REF\u002A\u002A*%
X198120000Y-76200000D03*
%TD*%
%TO.C,REF\u002A\u002A*%
X251460000Y-81280000D03*
%TD*%
%TO.C,REF\u002A\u002A*%
X254000000Y-99060000D03*
%TD*%
%TO.C,REF\u002A\u002A*%
X167640000Y-63500000D03*
%TD*%
%TO.C,REF\u002A\u002A*%
X177800000Y-48260000D03*
%TD*%
%TO.C,REF\u002A\u002A*%
X218440000Y-78740000D03*
%TD*%
%TO.C,REF\u002A\u002A*%
X205740000Y-48260000D03*
%TD*%
%TO.C,REF\u002A\u002A*%
X193040000Y-60960000D03*
%TD*%
%TO.C,REF\u002A\u002A*%
X185420000Y-60960000D03*
%TD*%
%TO.C,REF\u002A\u002A*%
X175260000Y-40640000D03*
%TD*%
%TO.C,REF\u002A\u002A*%
X210820000Y-68580000D03*
%TD*%
%TO.C,REF\u002A\u002A*%
X226060000Y-27940000D03*
%TD*%
%TO.C,REF\u002A\u002A*%
X251460000Y-50800000D03*
%TD*%
%TO.C,REF\u002A\u002A*%
X160020000Y-96520000D03*
%TD*%
%TO.C,REF\u002A\u002A*%
X195580000Y-30480000D03*
%TD*%
%TO.C,REF\u002A\u002A*%
X246380000Y-58420000D03*
%TD*%
%TO.C,REF\u002A\u002A*%
X231140000Y-73660000D03*
%TD*%
%TO.C,REF\u002A\u002A*%
X228600000Y-27940000D03*
%TD*%
%TO.C,REF\u002A\u002A*%
X167640000Y-43180000D03*
%TD*%
%TO.C,REF\u002A\u002A*%
X160020000Y-66040000D03*
%TD*%
%TO.C,REF\u002A\u002A*%
X193040000Y-91440000D03*
%TD*%
%TO.C,REF\u002A\u002A*%
X157480000Y-27940000D03*
%TD*%
%TO.C,REF\u002A\u002A*%
X187960000Y-45720000D03*
%TD*%
%TO.C,REF\u002A\u002A*%
X198120000Y-30480000D03*
%TD*%
%TO.C,REF\u002A\u002A*%
X241300000Y-58420000D03*
%TD*%
%TO.C,REF\u002A\u002A*%
X162560000Y-27940000D03*
%TD*%
%TO.C,REF\u002A\u002A*%
X233680000Y-22860000D03*
%TD*%
%TO.C,REF\u002A\u002A*%
X170180000Y-83820000D03*
%TD*%
%TO.C,REF\u002A\u002A*%
X218440000Y-38100000D03*
%TD*%
%TO.C,REF\u002A\u002A*%
X172720000Y-81280000D03*
%TD*%
%TO.C,REF\u002A\u002A*%
X226060000Y-99060000D03*
%TD*%
%TO.C,REF\u002A\u002A*%
X215900000Y-63500000D03*
%TD*%
%TO.C,REF\u002A\u002A*%
X231140000Y-68580000D03*
%TD*%
%TO.C,REF\u002A\u002A*%
X182880000Y-33020000D03*
%TD*%
%TO.C,REF\u002A\u002A*%
X172720000Y-27940000D03*
%TD*%
%TO.C,REF\u002A\u002A*%
X187960000Y-20320000D03*
%TD*%
%TO.C,REF\u002A\u002A*%
X205740000Y-78740000D03*
%TD*%
%TO.C,REF\u002A\u002A*%
X187960000Y-91440000D03*
%TD*%
%TO.C,REF\u002A\u002A*%
X162560000Y-58420000D03*
%TD*%
%TO.C,REF\u002A\u002A*%
X248920000Y-96520000D03*
%TD*%
%TO.C,REF\u002A\u002A*%
X198120000Y-60960000D03*
%TD*%
%TO.C,REF\u002A\u002A*%
X175260000Y-68580000D03*
%TD*%
%TO.C,REF\u002A\u002A*%
X203200000Y-50800000D03*
%TD*%
%TO.C,REF\u002A\u002A*%
X203200000Y-83820000D03*
%TD*%
%TO.C,*%
X198120000Y-101600000D03*
%TD*%
%TO.C,REF\u002A\u002A*%
X208280000Y-63500000D03*
%TD*%
%TO.C,REF\u002A\u002A*%
X208280000Y-86360000D03*
%TD*%
%TO.C,REF\u002A\u002A*%
X251460000Y-43180000D03*
%TD*%
%TO.C,REF\u002A\u002A*%
X208280000Y-38100000D03*
%TD*%
%TO.C,REF\u002A\u002A*%
X160020000Y-40640000D03*
%TD*%
%TO.C,REF\u002A\u002A*%
X210820000Y-20320000D03*
%TD*%
%TO.C,REF\u002A\u002A*%
X254000000Y-27940000D03*
%TD*%
%TO.C,*%
X198120000Y-101600000D03*
%TD*%
%TO.C,REF\u002A\u002A*%
X187960000Y-99060000D03*
%TD*%
%TO.C,REF\u002A\u002A*%
X170180000Y-43180000D03*
%TD*%
%TO.C,REF\u002A\u002A*%
X203200000Y-17780000D03*
%TD*%
%TO.C,REF\u002A\u002A*%
X228600000Y-20320000D03*
%TD*%
%TO.C,REF\u002A\u002A*%
X187960000Y-86360000D03*
%TD*%
%TO.C,REF\u002A\u002A*%
X246380000Y-93980000D03*
%TD*%
%TO.C,REF\u002A\u002A*%
X177800000Y-93980000D03*
%TD*%
%TO.C,REF\u002A\u002A*%
X200660000Y-33020000D03*
%TD*%
%TO.C,REF\u002A\u002A*%
X218440000Y-27940000D03*
%TD*%
%TO.C,REF\u002A\u002A*%
X172720000Y-33020000D03*
%TD*%
%TO.C,REF\u002A\u002A*%
X187960000Y-40640000D03*
%TD*%
%TO.C,REF\u002A\u002A*%
X210820000Y-25400000D03*
%TD*%
%TO.C,REF\u002A\u002A*%
X157480000Y-93980000D03*
%TD*%
%TO.C,REF\u002A\u002A*%
X246380000Y-88900000D03*
%TD*%
%TO.C,REF\u002A\u002A*%
X248920000Y-33020000D03*
%TD*%
%TO.C,REF\u002A\u002A*%
X205740000Y-35560000D03*
%TD*%
%TO.C,REF\u002A\u002A*%
X180340000Y-68580000D03*
%TD*%
%TO.C,*%
X185420000Y-99060000D03*
%TD*%
%TO.C,REF\u002A\u002A*%
X228600000Y-17780000D03*
%TD*%
%TO.C,REF\u002A\u002A*%
X241300000Y-99060000D03*
%TD*%
%TO.C,REF\u002A\u002A*%
X198120000Y-45720000D03*
%TD*%
%TO.C,REF\u002A\u002A*%
X231140000Y-25400000D03*
%TD*%
%TO.C,REF\u002A\u002A*%
X198120000Y-86360000D03*
%TD*%
%TO.C,REF\u002A\u002A*%
X162560000Y-96520000D03*
%TD*%
%TO.C,REF\u002A\u002A*%
X175260000Y-30480000D03*
%TD*%
%TO.C,REF\u002A\u002A*%
X205740000Y-86360000D03*
%TD*%
%TO.C,REF\u002A\u002A*%
X172720000Y-66040000D03*
%TD*%
%TO.C,REF\u002A\u002A*%
X246380000Y-22860000D03*
%TD*%
%TO.C,REF\u002A\u002A*%
X203200000Y-78740000D03*
%TD*%
%TO.C,REF\u002A\u002A*%
X175260000Y-76200000D03*
%TD*%
%TO.C,REF\u002A\u002A*%
X236220000Y-60960000D03*
%TD*%
%TO.C,*%
X215900000Y-99060000D03*
%TD*%
%TO.C,REF\u002A\u002A*%
X175260000Y-17780000D03*
%TD*%
%TO.C,REF\u002A\u002A*%
X220980000Y-30480000D03*
%TD*%
%TO.C,REF\u002A\u002A*%
X210820000Y-48260000D03*
%TD*%
%TO.C,REF\u002A\u002A*%
X200660000Y-88900000D03*
%TD*%
%TO.C,REF\u002A\u002A*%
X238760000Y-30480000D03*
%TD*%
%TO.C,REF\u002A\u002A*%
X228600000Y-99060000D03*
%TD*%
%TO.C,REF\u002A\u002A*%
X223520000Y-25400000D03*
%TD*%
%TO.C,REF\u002A\u002A*%
X236220000Y-91440000D03*
%TD*%
%TO.C,REF\u002A\u002A*%
X248920000Y-73660000D03*
%TD*%
%TO.C,REF\u002A\u002A*%
X254000000Y-58420000D03*
%TD*%
%TO.C,REF\u002A\u002A*%
X223520000Y-101600000D03*
%TD*%
%TO.C,REF\u002A\u002A*%
X200660000Y-20320000D03*
%TD*%
%TO.C,REF\u002A\u002A*%
X180340000Y-71120000D03*
%TD*%
%TO.C,REF\u002A\u002A*%
X254000000Y-78740000D03*
%TD*%
%TO.C,REF\u002A\u002A*%
X193040000Y-55880000D03*
%TD*%
%TO.C,REF\u002A\u002A*%
X195580000Y-35560000D03*
%TD*%
%TO.C,REF\u002A\u002A*%
X208280000Y-68580000D03*
%TD*%
%TO.C,REF\u002A\u002A*%
X190500000Y-17780000D03*
%TD*%
%TO.C,REF\u002A\u002A*%
X246380000Y-78740000D03*
%TD*%
%TO.C,REF\u002A\u002A*%
X180340000Y-60960000D03*
%TD*%
%TO.C,REF\u002A\u002A*%
X233680000Y-101600000D03*
%TD*%
%TO.C,REF\u002A\u002A*%
X248920000Y-76200000D03*
%TD*%
%TO.C,REF\u002A\u002A*%
X246380000Y-86360000D03*
%TD*%
%TO.C,REF\u002A\u002A*%
X190500000Y-33020000D03*
%TD*%
%TO.C,*%
X228600000Y-101600000D03*
%TD*%
%TO.C,REF\u002A\u002A*%
X160020000Y-60960000D03*
%TD*%
%TO.C,REF\u002A\u002A*%
X180340000Y-27940000D03*
%TD*%
%TO.C,REF\u002A\u002A*%
X203200000Y-76200000D03*
%TD*%
%TO.C,REF\u002A\u002A*%
X170180000Y-93980000D03*
%TD*%
%TO.C,REF\u002A\u002A*%
X157480000Y-99060000D03*
%TD*%
%TO.C,REF\u002A\u002A*%
X223520000Y-66040000D03*
%TD*%
%TO.C,REF\u002A\u002A*%
X182880000Y-43180000D03*
%TD*%
%TO.C,REF\u002A\u002A*%
X170180000Y-22860000D03*
%TD*%
%TO.C,REF\u002A\u002A*%
X233680000Y-76200000D03*
%TD*%
%TO.C,REF\u002A\u002A*%
X172720000Y-60960000D03*
%TD*%
%TO.C,REF\u002A\u002A*%
X226060000Y-48260000D03*
%TD*%
%TO.C,REF\u002A\u002A*%
X213360000Y-78740000D03*
%TD*%
%TO.C,REF\u002A\u002A*%
X241300000Y-73660000D03*
%TD*%
%TO.C,REF\u002A\u002A*%
X182880000Y-25400000D03*
%TD*%
%TO.C,REF\u002A\u002A*%
X170180000Y-35560000D03*
%TD*%
%TO.C,REF\u002A\u002A*%
X238760000Y-27940000D03*
%TD*%
%TO.C,REF\u002A\u002A*%
X193040000Y-71120000D03*
%TD*%
%TO.C,REF\u002A\u002A*%
X203200000Y-30480000D03*
%TD*%
%TO.C,REF\u002A\u002A*%
X187960000Y-88900000D03*
%TD*%
%TO.C,REF\u002A\u002A*%
X233680000Y-66040000D03*
%TD*%
%TO.C,REF\u002A\u002A*%
X220980000Y-60960000D03*
%TD*%
%TO.C,REF\u002A\u002A*%
X248920000Y-40640000D03*
%TD*%
%TO.C,REF\u002A\u002A*%
X243840000Y-60960000D03*
%TD*%
%TO.C,REF\u002A\u002A*%
X200660000Y-93980000D03*
%TD*%
%TO.C,REF\u002A\u002A*%
X208280000Y-35560000D03*
%TD*%
%TO.C,REF\u002A\u002A*%
X193040000Y-27940000D03*
%TD*%
%TO.C,REF\u002A\u002A*%
X180340000Y-38100000D03*
%TD*%
%TO.C,REF\u002A\u002A*%
X246380000Y-76200000D03*
%TD*%
%TO.C,REF\u002A\u002A*%
X254000000Y-63500000D03*
%TD*%
%TO.C,REF\u002A\u002A*%
X231140000Y-30480000D03*
%TD*%
%TO.C,REF\u002A\u002A*%
X226060000Y-35560000D03*
%TD*%
%TO.C,REF\u002A\u002A*%
X162560000Y-50800000D03*
%TD*%
%TO.C,REF\u002A\u002A*%
X246380000Y-53340000D03*
%TD*%
%TO.C,REF\u002A\u002A*%
X220980000Y-38100000D03*
%TD*%
%TO.C,REF\u002A\u002A*%
X231140000Y-71120000D03*
%TD*%
%TO.C,REF\u002A\u002A*%
X228600000Y-30480000D03*
%TD*%
%TO.C,REF\u002A\u002A*%
X254000000Y-83820000D03*
%TD*%
%TO.C,REF\u002A\u002A*%
X215900000Y-66040000D03*
%TD*%
%TO.C,REF\u002A\u002A*%
X218440000Y-91440000D03*
%TD*%
%TO.C,REF\u002A\u002A*%
X195580000Y-27940000D03*
%TD*%
%TO.C,REF\u002A\u002A*%
X210820000Y-30480000D03*
%TD*%
%TO.C,REF\u002A\u002A*%
X177800000Y-88900000D03*
%TD*%
%TO.C,REF\u002A\u002A*%
X157480000Y-38100000D03*
%TD*%
%TO.C,REF\u002A\u002A*%
X241300000Y-17780000D03*
%TD*%
%TO.C,REF\u002A\u002A*%
X215900000Y-86360000D03*
%TD*%
%TO.C,REF\u002A\u002A*%
X185420000Y-76200000D03*
%TD*%
%TO.C,REF\u002A\u002A*%
X187960000Y-73660000D03*
%TD*%
%TO.C,REF\u002A\u002A*%
X210820000Y-38100000D03*
%TD*%
%TO.C,REF\u002A\u002A*%
X213360000Y-66040000D03*
%TD*%
%TO.C,REF\u002A\u002A*%
X228600000Y-43180000D03*
%TD*%
%TO.C,REF\u002A\u002A*%
X167640000Y-101600000D03*
%TD*%
%TO.C,REF\u002A\u002A*%
X203200000Y-71120000D03*
%TD*%
%TO.C,REF\u002A\u002A*%
X200660000Y-73660000D03*
%TD*%
%TO.C,REF\u002A\u002A*%
X231140000Y-58420000D03*
%TD*%
%TO.C,REF\u002A\u002A*%
X233680000Y-78740000D03*
%TD*%
%TO.C,*%
X238760000Y-101600000D03*
%TD*%
%TO.C,REF\u002A\u002A*%
X233680000Y-71120000D03*
%TD*%
%TO.C,REF\u002A\u002A*%
X182880000Y-91440000D03*
%TD*%
%TO.C,REF\u002A\u002A*%
X208280000Y-22860000D03*
%TD*%
%TO.C,REF\u002A\u002A*%
X175260000Y-78740000D03*
%TD*%
%TO.C,REF\u002A\u002A*%
X167640000Y-93980000D03*
%TD*%
%TO.C,REF\u002A\u002A*%
X190500000Y-60960000D03*
%TD*%
%TO.C,REF\u002A\u002A*%
X200660000Y-66040000D03*
%TD*%
%TO.C,REF\u002A\u002A*%
X198120000Y-43180000D03*
%TD*%
%TO.C,REF\u002A\u002A*%
X208280000Y-88900000D03*
%TD*%
%TO.C,REF\u002A\u002A*%
X246380000Y-38100000D03*
%TD*%
%TO.C,REF\u002A\u002A*%
X236220000Y-71120000D03*
%TD*%
%TO.C,REF\u002A\u002A*%
X167640000Y-60960000D03*
%TD*%
%TO.C,REF\u002A\u002A*%
X218440000Y-66040000D03*
%TD*%
%TO.C,REF\u002A\u002A*%
X215900000Y-68580000D03*
%TD*%
%TO.C,REF\u002A\u002A*%
X236220000Y-99060000D03*
%TD*%
%TO.C,REF\u002A\u002A*%
X193040000Y-78740000D03*
%TD*%
%TO.C,REF\u002A\u002A*%
X165100000Y-63500000D03*
%TD*%
%TO.C,REF\u002A\u002A*%
X218440000Y-86360000D03*
%TD*%
%TO.C,REF\u002A\u002A*%
X195580000Y-38100000D03*
%TD*%
%TO.C,REF\u002A\u002A*%
X210820000Y-50800000D03*
%TD*%
%TO.C,REF\u002A\u002A*%
X231140000Y-55880000D03*
%TD*%
%TO.C,REF\u002A\u002A*%
X190500000Y-73660000D03*
%TD*%
%TO.C,REF\u002A\u002A*%
X172720000Y-68580000D03*
%TD*%
%TO.C,REF\u002A\u002A*%
X167640000Y-68580000D03*
%TD*%
%TO.C,REF\u002A\u002A*%
X213360000Y-86360000D03*
%TD*%
%TO.C,REF\u002A\u002A*%
X165100000Y-73660000D03*
%TD*%
%TO.C,REF\u002A\u002A*%
X254000000Y-33020000D03*
%TD*%
%TO.C,REF\u002A\u002A*%
X165100000Y-53340000D03*
%TD*%
%TO.C,REF\u002A\u002A*%
X187960000Y-17780000D03*
%TD*%
%TO.C,REF\u002A\u002A*%
X195580000Y-78740000D03*
%TD*%
%TO.C,REF\u002A\u002A*%
X243840000Y-93980000D03*
%TD*%
%TO.C,REF\u002A\u002A*%
X243840000Y-83820000D03*
%TD*%
%TO.C,REF\u002A\u002A*%
X190500000Y-48260000D03*
%TD*%
%TO.C,REF\u002A\u002A*%
X165100000Y-58420000D03*
%TD*%
%TO.C,REF\u002A\u002A*%
X190500000Y-58420000D03*
%TD*%
%TO.C,REF\u002A\u002A*%
X228600000Y-50800000D03*
%TD*%
%TO.C,REF\u002A\u002A*%
X213360000Y-33020000D03*
%TD*%
%TO.C,REF\u002A\u002A*%
X185420000Y-73660000D03*
%TD*%
%TO.C,REF\u002A\u002A*%
X195580000Y-66040000D03*
%TD*%
%TO.C,REF\u002A\u002A*%
X226060000Y-86360000D03*
%TD*%
%TO.C,REF\u002A\u002A*%
X238760000Y-99060000D03*
%TD*%
%TO.C,*%
X198120000Y-101600000D03*
%TD*%
%TO.C,REF\u002A\u002A*%
X246380000Y-30480000D03*
%TD*%
%TO.C,REF\u002A\u002A*%
X223520000Y-48260000D03*
%TD*%
%TO.C,REF\u002A\u002A*%
X198120000Y-38100000D03*
%TD*%
%TO.C,REF\u002A\u002A*%
X246380000Y-43180000D03*
%TD*%
%TO.C,REF\u002A\u002A*%
X162560000Y-99060000D03*
%TD*%
%TO.C,REF\u002A\u002A*%
X233680000Y-53340000D03*
%TD*%
%TO.C,*%
X175260000Y-99060000D03*
%TD*%
%TO.C,REF\u002A\u002A*%
X254000000Y-71120000D03*
%TD*%
%TO.C,REF\u002A\u002A*%
X203200000Y-20320000D03*
%TD*%
%TO.C,REF\u002A\u002A*%
X236220000Y-63500000D03*
%TD*%
%TO.C,REF\u002A\u002A*%
X185420000Y-83820000D03*
%TD*%
%TO.C,REF\u002A\u002A*%
X180340000Y-76200000D03*
%TD*%
%TO.C,*%
X203200000Y-101600000D03*
%TD*%
%TO.C,*%
X190500000Y-99060000D03*
%TD*%
%TO.C,REF\u002A\u002A*%
X208280000Y-40640000D03*
%TD*%
%TO.C,REF\u002A\u002A*%
X200660000Y-91440000D03*
%TD*%
%TO.C,REF\u002A\u002A*%
X210820000Y-63500000D03*
%TD*%
%TO.C,REF\u002A\u002A*%
X213360000Y-55880000D03*
%TD*%
%TO.C,REF\u002A\u002A*%
X193040000Y-33020000D03*
%TD*%
%TO.C,REF\u002A\u002A*%
X198120000Y-55880000D03*
%TD*%
%TO.C,REF\u002A\u002A*%
X160020000Y-76200000D03*
%TD*%
%TO.C,REF\u002A\u002A*%
X157480000Y-71120000D03*
%TD*%
%TO.C,REF\u002A\u002A*%
X246380000Y-63500000D03*
%TD*%
%TO.C,REF\u002A\u002A*%
X243840000Y-48260000D03*
%TD*%
%TO.C,REF\u002A\u002A*%
X246380000Y-81280000D03*
%TD*%
%TO.C,REF\u002A\u002A*%
X190500000Y-101600000D03*
%TD*%
%TO.C,REF\u002A\u002A*%
X251460000Y-93980000D03*
%TD*%
%TO.C,REF\u002A\u002A*%
X165100000Y-45720000D03*
%TD*%
%TO.C,REF\u002A\u002A*%
X248920000Y-43180000D03*
%TD*%
%TO.C,REF\u002A\u002A*%
X167640000Y-17780000D03*
%TD*%
%TO.C,REF\u002A\u002A*%
X182880000Y-101600000D03*
%TD*%
%TO.C,REF\u002A\u002A*%
X157480000Y-83820000D03*
%TD*%
%TO.C,REF\u002A\u002A*%
X175260000Y-48260000D03*
%TD*%
%TO.C,REF\u002A\u002A*%
X193040000Y-93980000D03*
%TD*%
%TO.C,REF\u002A\u002A*%
X243840000Y-40640000D03*
%TD*%
%TO.C,REF\u002A\u002A*%
X208280000Y-25400000D03*
%TD*%
%TO.C,REF\u002A\u002A*%
X157480000Y-63500000D03*
%TD*%
%TO.C,REF\u002A\u002A*%
X198120000Y-40640000D03*
%TD*%
%TO.C,REF\u002A\u002A*%
X238760000Y-76200000D03*
%TD*%
%TO.C,REF\u002A\u002A*%
X167640000Y-25400000D03*
%TD*%
%TO.C,REF\u002A\u002A*%
X226060000Y-22860000D03*
%TD*%
%TO.C,REF\u002A\u002A*%
X190500000Y-35560000D03*
%TD*%
%TO.C,REF\u002A\u002A*%
X157480000Y-48260000D03*
%TD*%
%TO.C,REF\u002A\u002A*%
X185420000Y-86360000D03*
%TD*%
%TO.C,REF\u002A\u002A*%
X172720000Y-86360000D03*
%TD*%
%TO.C,REF\u002A\u002A*%
X203200000Y-66040000D03*
%TD*%
%TO.C,REF\u002A\u002A*%
X180340000Y-30480000D03*
%TD*%
%TO.C,REF\u002A\u002A*%
X185420000Y-27940000D03*
%TD*%
%TO.C,REF\u002A\u002A*%
X167640000Y-73660000D03*
%TD*%
%TO.C,REF\u002A\u002A*%
X170180000Y-25400000D03*
%TD*%
%TO.C,REF\u002A\u002A*%
X223520000Y-99060000D03*
%TD*%
%TO.C,REF\u002A\u002A*%
X172720000Y-17780000D03*
%TD*%
%TO.C,REF\u002A\u002A*%
X190500000Y-50800000D03*
%TD*%
%TO.C,REF\u002A\u002A*%
X223520000Y-43180000D03*
%TD*%
%TO.C,REF\u002A\u002A*%
X187960000Y-22860000D03*
%TD*%
%TO.C,REF\u002A\u002A*%
X193040000Y-68580000D03*
%TD*%
%TO.C,REF\u002A\u002A*%
X172720000Y-40640000D03*
%TD*%
%TO.C,REF\u002A\u002A*%
X203200000Y-86360000D03*
%TD*%
%TO.C,REF\u002A\u002A*%
X215900000Y-38100000D03*
%TD*%
%TO.C,REF\u002A\u002A*%
X251460000Y-88900000D03*
%TD*%
%TO.C,REF\u002A\u002A*%
X200660000Y-55880000D03*
%TD*%
%TO.C,REF\u002A\u002A*%
X180340000Y-25400000D03*
%TD*%
%TO.C,REF\u002A\u002A*%
X251460000Y-20320000D03*
%TD*%
%TO.C,REF\u002A\u002A*%
X218440000Y-93980000D03*
%TD*%
%TO.C,REF\u002A\u002A*%
X170180000Y-40640000D03*
%TD*%
%TO.C,REF\u002A\u002A*%
X236220000Y-30480000D03*
%TD*%
%TO.C,REF\u002A\u002A*%
X165100000Y-20320000D03*
%TD*%
%TO.C,REF\u002A\u002A*%
X170180000Y-30480000D03*
%TD*%
%TO.C,REF\u002A\u002A*%
X165100000Y-78740000D03*
%TD*%
%TO.C,REF\u002A\u002A*%
X167640000Y-22860000D03*
%TD*%
%TO.C,REF\u002A\u002A*%
X248920000Y-50800000D03*
%TD*%
%TO.C,REF\u002A\u002A*%
X203200000Y-45720000D03*
%TD*%
%TO.C,REF\u002A\u002A*%
X228600000Y-35560000D03*
%TD*%
%TO.C,REF\u002A\u002A*%
X248920000Y-91440000D03*
%TD*%
%TO.C,REF\u002A\u002A*%
X165100000Y-81280000D03*
%TD*%
%TO.C,REF\u002A\u002A*%
X157480000Y-50800000D03*
%TD*%
%TO.C,REF\u002A\u002A*%
X220980000Y-66040000D03*
%TD*%
%TO.C,REF\u002A\u002A*%
X215900000Y-60960000D03*
%TD*%
%TO.C,REF\u002A\u002A*%
X228600000Y-76200000D03*
%TD*%
%TO.C,REF\u002A\u002A*%
X238760000Y-38100000D03*
%TD*%
%TO.C,REF\u002A\u002A*%
X182880000Y-60960000D03*
%TD*%
%TO.C,REF\u002A\u002A*%
X157480000Y-22860000D03*
%TD*%
%TO.C,REF\u002A\u002A*%
X236220000Y-27940000D03*
%TD*%
%TO.C,REF\u002A\u002A*%
X195580000Y-43180000D03*
%TD*%
%TO.C,REF\u002A\u002A*%
X208280000Y-33020000D03*
%TD*%
%TO.C,REF\u002A\u002A*%
X170180000Y-48260000D03*
%TD*%
%TO.C,REF\u002A\u002A*%
X165100000Y-35560000D03*
%TD*%
%TO.C,REF\u002A\u002A*%
X238760000Y-73660000D03*
%TD*%
%TO.C,REF\u002A\u002A*%
X233680000Y-55880000D03*
%TD*%
%TO.C,*%
X218440000Y-101600000D03*
%TD*%
%TO.C,REF\u002A\u002A*%
X177800000Y-45720000D03*
%TD*%
%TO.C,REF\u002A\u002A*%
X182880000Y-83820000D03*
%TD*%
%TO.C,REF\u002A\u002A*%
X241300000Y-63500000D03*
%TD*%
%TO.C,REF\u002A\u002A*%
X220980000Y-20320000D03*
%TD*%
%TO.C,REF\u002A\u002A*%
X172720000Y-53340000D03*
%TD*%
%TO.C,REF\u002A\u002A*%
X215900000Y-73660000D03*
%TD*%
%TO.C,REF\u002A\u002A*%
X223520000Y-86360000D03*
%TD*%
%TO.C,REF\u002A\u002A*%
X231140000Y-22860000D03*
%TD*%
%TO.C,REF\u002A\u002A*%
X198120000Y-25400000D03*
%TD*%
%TO.C,REF\u002A\u002A*%
X231140000Y-78740000D03*
%TD*%
%TO.C,REF\u002A\u002A*%
X220980000Y-43180000D03*
%TD*%
%TO.C,REF\u002A\u002A*%
X231140000Y-50800000D03*
%TD*%
%TO.C,REF\u002A\u002A*%
X228600000Y-22860000D03*
%TD*%
%TO.C,REF\u002A\u002A*%
X236220000Y-33020000D03*
%TD*%
%TO.C,REF\u002A\u002A*%
X215900000Y-53340000D03*
%TD*%
%TO.C,REF\u002A\u002A*%
X215900000Y-88900000D03*
%TD*%
%TO.C,REF\u002A\u002A*%
X177800000Y-17780000D03*
%TD*%
%TO.C,REF\u002A\u002A*%
X243840000Y-53340000D03*
%TD*%
%TO.C,REF\u002A\u002A*%
X228600000Y-40640000D03*
%TD*%
%TO.C,*%
X223520000Y-101600000D03*
%TD*%
%TO.C,REF\u002A\u002A*%
X185420000Y-101600000D03*
%TD*%
%TO.C,REF\u002A\u002A*%
X241300000Y-33020000D03*
%TD*%
%TO.C,REF\u002A\u002A*%
X175260000Y-83820000D03*
%TD*%
%TO.C,REF\u002A\u002A*%
X182880000Y-22860000D03*
%TD*%
%TO.C,REF\u002A\u002A*%
X241300000Y-38100000D03*
%TD*%
%TO.C,REF\u002A\u002A*%
X185420000Y-43180000D03*
%TD*%
%TO.C,REF\u002A\u002A*%
X238760000Y-71120000D03*
%TD*%
%TO.C,REF\u002A\u002A*%
X175260000Y-101600000D03*
%TD*%
%TO.C,REF\u002A\u002A*%
X236220000Y-17780000D03*
%TD*%
%TO.C,REF\u002A\u002A*%
X175260000Y-60960000D03*
%TD*%
%TO.C,REF\u002A\u002A*%
X172720000Y-38100000D03*
%TD*%
%TO.C,REF\u002A\u002A*%
X251460000Y-55880000D03*
%TD*%
%TO.C,REF\u002A\u002A*%
X228600000Y-71120000D03*
%TD*%
%TO.C,REF\u002A\u002A*%
X182880000Y-58420000D03*
%TD*%
%TO.C,REF\u002A\u002A*%
X223520000Y-60960000D03*
%TD*%
%TO.C,REF\u002A\u002A*%
X162560000Y-22860000D03*
%TD*%
%TO.C,REF\u002A\u002A*%
X215900000Y-27940000D03*
%TD*%
%TO.C,*%
X180340000Y-99060000D03*
%TD*%
%TO.C,REF\u002A\u002A*%
X226060000Y-63500000D03*
%TD*%
%TO.C,REF\u002A\u002A*%
X190500000Y-38100000D03*
%TD*%
%TO.C,REF\u002A\u002A*%
X210820000Y-73660000D03*
%TD*%
%TO.C,REF\u002A\u002A*%
X228600000Y-83820000D03*
%TD*%
%TO.C,REF\u002A\u002A*%
X167640000Y-81280000D03*
%TD*%
%TO.C,REF\u002A\u002A*%
X231140000Y-91440000D03*
%TD*%
%TO.C,REF\u002A\u002A*%
X210820000Y-45720000D03*
%TD*%
%TO.C,REF\u002A\u002A*%
X254000000Y-35560000D03*
%TD*%
%TO.C,REF\u002A\u002A*%
X190500000Y-25400000D03*
%TD*%
%TO.C,REF\u002A\u002A*%
X215900000Y-17780000D03*
%TD*%
%TO.C,REF\u002A\u002A*%
X205740000Y-50800000D03*
%TD*%
%TO.C,REF\u002A\u002A*%
X200660000Y-101600000D03*
%TD*%
%TO.C,REF\u002A\u002A*%
X160020000Y-53340000D03*
%TD*%
%TO.C,REF\u002A\u002A*%
X233680000Y-33020000D03*
%TD*%
%TO.C,REF\u002A\u002A*%
X187960000Y-93980000D03*
%TD*%
%TO.C,REF\u002A\u002A*%
X177800000Y-78740000D03*
%TD*%
%TO.C,REF\u002A\u002A*%
X180340000Y-66040000D03*
%TD*%
%TO.C,REF\u002A\u002A*%
X180340000Y-55880000D03*
%TD*%
%TO.C,REF\u002A\u002A*%
X251460000Y-48260000D03*
%TD*%
%TO.C,REF\u002A\u002A*%
X228600000Y-58420000D03*
%TD*%
%TO.C,REF\u002A\u002A*%
X228600000Y-101600000D03*
%TD*%
%TO.C,REF\u002A\u002A*%
X243840000Y-20320000D03*
%TD*%
%TO.C,REF\u002A\u002A*%
X243840000Y-66040000D03*
%TD*%
%TO.C,REF\u002A\u002A*%
X246380000Y-17780000D03*
%TD*%
%TO.C,REF\u002A\u002A*%
X248920000Y-53340000D03*
%TD*%
%TO.C,REF\u002A\u002A*%
X180340000Y-45720000D03*
%TD*%
%TO.C,REF\u002A\u002A*%
X193040000Y-58420000D03*
%TD*%
%TO.C,*%
X200660000Y-99060000D03*
%TD*%
%TO.C,REF\u002A\u002A*%
X218440000Y-22860000D03*
%TD*%
%TO.C,REF\u002A\u002A*%
X182880000Y-68580000D03*
%TD*%
%TO.C,REF\u002A\u002A*%
X195580000Y-22860000D03*
%TD*%
%TO.C,REF\u002A\u002A*%
X208280000Y-43180000D03*
%TD*%
%TO.C,REF\u002A\u002A*%
X208280000Y-20320000D03*
%TD*%
%TO.C,REF\u002A\u002A*%
X251460000Y-58420000D03*
%TD*%
%TO.C,REF\u002A\u002A*%
X213360000Y-17780000D03*
%TD*%
%TO.C,REF\u002A\u002A*%
X175260000Y-25400000D03*
%TD*%
%TO.C,REF\u002A\u002A*%
X223520000Y-83820000D03*
%TD*%
%TO.C,REF\u002A\u002A*%
X182880000Y-93980000D03*
%TD*%
%TO.C,REF\u002A\u002A*%
X205740000Y-68580000D03*
%TD*%
%TO.C,REF\u002A\u002A*%
X203200000Y-33020000D03*
%TD*%
%TO.C,REF\u002A\u002A*%
X175260000Y-66040000D03*
%TD*%
%TO.C,REF\u002A\u002A*%
X208280000Y-83820000D03*
%TD*%
%TO.C,REF\u002A\u002A*%
X241300000Y-86360000D03*
%TD*%
%TO.C,REF\u002A\u002A*%
X170180000Y-45720000D03*
%TD*%
%TO.C,REF\u002A\u002A*%
X172720000Y-22860000D03*
%TD*%
%TO.C,REF\u002A\u002A*%
X210820000Y-55880000D03*
%TD*%
%TO.C,REF\u002A\u002A*%
X233680000Y-30480000D03*
%TD*%
%TO.C,REF\u002A\u002A*%
X215900000Y-30480000D03*
%TD*%
%TO.C,REF\u002A\u002A*%
X228600000Y-66040000D03*
%TD*%
%TO.C,REF\u002A\u002A*%
X223520000Y-27940000D03*
%TD*%
%TO.C,REF\u002A\u002A*%
X190500000Y-83820000D03*
%TD*%
%TO.C,REF\u002A\u002A*%
X200660000Y-58420000D03*
%TD*%
%TO.C,REF\u002A\u002A*%
X220980000Y-58420000D03*
%TD*%
%TO.C,REF\u002A\u002A*%
X220980000Y-50800000D03*
%TD*%
%TO.C,REF\u002A\u002A*%
X241300000Y-66040000D03*
%TD*%
%TO.C,REF\u002A\u002A*%
X167640000Y-50800000D03*
%TD*%
%TO.C,REF\u002A\u002A*%
X172720000Y-43180000D03*
%TD*%
%TO.C,REF\u002A\u002A*%
X175260000Y-35560000D03*
%TD*%
%TO.C,REF\u002A\u002A*%
X175260000Y-55880000D03*
%TD*%
%TO.C,REF\u002A\u002A*%
X226060000Y-91440000D03*
%TD*%
%TO.C,REF\u002A\u002A*%
X254000000Y-66040000D03*
%TD*%
%TO.C,REF\u002A\u002A*%
X185420000Y-38100000D03*
%TD*%
%TO.C,REF\u002A\u002A*%
X165100000Y-40640000D03*
%TD*%
%TO.C,REF\u002A\u002A*%
X195580000Y-25400000D03*
%TD*%
%TO.C,REF\u002A\u002A*%
X251460000Y-27940000D03*
%TD*%
%TO.C,REF\u002A\u002A*%
X185420000Y-78740000D03*
%TD*%
%TO.C,REF\u002A\u002A*%
X241300000Y-55880000D03*
%TD*%
%TO.C,REF\u002A\u002A*%
X251460000Y-17780000D03*
%TD*%
%TO.C,REF\u002A\u002A*%
X203200000Y-55880000D03*
%TD*%
%TO.C,REF\u002A\u002A*%
X231140000Y-48260000D03*
%TD*%
%TO.C,REF\u002A\u002A*%
X220980000Y-45720000D03*
%TD*%
%TO.C,REF\u002A\u002A*%
X243840000Y-30480000D03*
%TD*%
%TO.C,REF\u002A\u002A*%
X172720000Y-48260000D03*
%TD*%
%TO.C,REF\u002A\u002A*%
X223520000Y-78740000D03*
%TD*%
%TO.C,REF\u002A\u002A*%
X182880000Y-50800000D03*
%TD*%
%TO.C,REF\u002A\u002A*%
X220980000Y-91440000D03*
%TD*%
%TO.C,REF\u002A\u002A*%
X193040000Y-81280000D03*
%TD*%
%TO.C,REF\u002A\u002A*%
X190500000Y-43180000D03*
%TD*%
%TO.C,REF\u002A\u002A*%
X254000000Y-20320000D03*
%TD*%
%TO.C,REF\u002A\u002A*%
X220980000Y-86360000D03*
%TD*%
%TO.C,REF\u002A\u002A*%
X205740000Y-83820000D03*
%TD*%
%TO.C,REF\u002A\u002A*%
X203200000Y-22860000D03*
%TD*%
%TO.C,REF\u002A\u002A*%
X180340000Y-73660000D03*
%TD*%
%TO.C,REF\u002A\u002A*%
X162560000Y-60960000D03*
%TD*%
%TO.C,REF\u002A\u002A*%
X170180000Y-58420000D03*
%TD*%
%TO.C,REF\u002A\u002A*%
X162560000Y-17780000D03*
%TD*%
%TO.C,REF\u002A\u002A*%
X165100000Y-99060000D03*
%TD*%
%TO.C,REF\u002A\u002A*%
X187960000Y-58420000D03*
%TD*%
%TO.C,REF\u002A\u002A*%
X200660000Y-22860000D03*
%TD*%
%TO.C,REF\u002A\u002A*%
X172720000Y-20320000D03*
%TD*%
%TO.C,REF\u002A\u002A*%
X200660000Y-71120000D03*
%TD*%
%TO.C,REF\u002A\u002A*%
X200660000Y-63500000D03*
%TD*%
%TO.C,REF\u002A\u002A*%
X223520000Y-68580000D03*
%TD*%
%TO.C,REF\u002A\u002A*%
X162560000Y-35560000D03*
%TD*%
%TO.C,REF\u002A\u002A*%
X185420000Y-99060000D03*
%TD*%
%TO.C,REF\u002A\u002A*%
X223520000Y-50800000D03*
%TD*%
%TO.C,REF\u002A\u002A*%
X254000000Y-55880000D03*
%TD*%
%TO.C,REF\u002A\u002A*%
X210820000Y-60960000D03*
%TD*%
%TO.C,*%
X170180000Y-99060000D03*
%TD*%
%TO.C,REF\u002A\u002A*%
X213360000Y-22860000D03*
%TD*%
%TO.C,REF\u002A\u002A*%
X208280000Y-101600000D03*
%TD*%
%TO.C,REF\u002A\u002A*%
X160020000Y-71120000D03*
%TD*%
%TO.C,REF\u002A\u002A*%
X243840000Y-33020000D03*
%TD*%
%TO.C,REF\u002A\u002A*%
X180340000Y-78740000D03*
%TD*%
%TO.C,REF\u002A\u002A*%
X248920000Y-81280000D03*
%TD*%
%TO.C,REF\u002A\u002A*%
X200660000Y-35560000D03*
%TD*%
%TO.C,REF\u002A\u002A*%
X220980000Y-17780000D03*
%TD*%
%TO.C,REF\u002A\u002A*%
X218440000Y-50800000D03*
%TD*%
%TO.C,REF\u002A\u002A*%
X195580000Y-101600000D03*
%TD*%
%TO.C,REF\u002A\u002A*%
X200660000Y-25400000D03*
%TD*%
%TO.C,REF\u002A\u002A*%
X243840000Y-76200000D03*
%TD*%
%TO.C,REF\u002A\u002A*%
X177800000Y-91440000D03*
%TD*%
%TO.C,REF\u002A\u002A*%
X231140000Y-66040000D03*
%TD*%
%TO.C,REF\u002A\u002A*%
X172720000Y-78740000D03*
%TD*%
%TO.C,REF\u002A\u002A*%
X165100000Y-93980000D03*
%TD*%
%TO.C,REF\u002A\u002A*%
X223520000Y-91440000D03*
%TD*%
%TO.C,REF\u002A\u002A*%
X213360000Y-63500000D03*
%TD*%
%TO.C,REF\u002A\u002A*%
X228600000Y-45720000D03*
%TD*%
%TO.C,REF\u002A\u002A*%
X165100000Y-22860000D03*
%TD*%
%TO.C,REF\u002A\u002A*%
X162560000Y-40640000D03*
%TD*%
%TO.C,REF\u002A\u002A*%
X218440000Y-45720000D03*
%TD*%
%TO.C,*%
X238760000Y-101600000D03*
%TD*%
%TO.C,REF\u002A\u002A*%
X172720000Y-83820000D03*
%TD*%
%TO.C,REF\u002A\u002A*%
X215900000Y-91440000D03*
%TD*%
%TO.C,REF\u002A\u002A*%
X208280000Y-48260000D03*
%TD*%
%TO.C,REF\u002A\u002A*%
X182880000Y-66040000D03*
%TD*%
%TO.C,REF\u002A\u002A*%
X160020000Y-55880000D03*
%TD*%
%TO.C,REF\u002A\u002A*%
X180340000Y-88900000D03*
%TD*%
%TO.C,REF\u002A\u002A*%
X218440000Y-48260000D03*
%TD*%
%TO.C,REF\u002A\u002A*%
X205740000Y-63500000D03*
%TD*%
%TO.C,REF\u002A\u002A*%
X180340000Y-40640000D03*
%TD*%
%TO.C,*%
X182880000Y-101600000D03*
%TD*%
%TO.C,REF\u002A\u002A*%
X218440000Y-35560000D03*
%TD*%
%TO.C,REF\u002A\u002A*%
X190500000Y-66040000D03*
%TD*%
%TO.C,REF\u002A\u002A*%
X205740000Y-58420000D03*
%TD*%
%TO.C,REF\u002A\u002A*%
X180340000Y-17780000D03*
%TD*%
%TO.C,REF\u002A\u002A*%
X157480000Y-66040000D03*
%TD*%
%TO.C,REF\u002A\u002A*%
X165100000Y-60960000D03*
%TD*%
%TO.C,REF\u002A\u002A*%
X182880000Y-30480000D03*
%TD*%
%TO.C,REF\u002A\u002A*%
X231140000Y-53340000D03*
%TD*%
%TO.C,REF\u002A\u002A*%
X233680000Y-81280000D03*
%TD*%
%TO.C,REF\u002A\u002A*%
X190500000Y-76200000D03*
%TD*%
%TO.C,REF\u002A\u002A*%
X195580000Y-88900000D03*
%TD*%
%TO.C,REF\u002A\u002A*%
X195580000Y-81280000D03*
%TD*%
%TO.C,REF\u002A\u002A*%
X167640000Y-91440000D03*
%TD*%
%TO.C,REF\u002A\u002A*%
X254000000Y-30480000D03*
%TD*%
%TO.C,REF\u002A\u002A*%
X177800000Y-58420000D03*
%TD*%
%TO.C,REF\u002A\u002A*%
X187960000Y-68580000D03*
%TD*%
%TO.C,REF\u002A\u002A*%
X190500000Y-30480000D03*
%TD*%
%TO.C,REF\u002A\u002A*%
X248920000Y-60960000D03*
%TD*%
%TO.C,REF\u002A\u002A*%
X228600000Y-60960000D03*
%TD*%
%TO.C,REF\u002A\u002A*%
X248920000Y-68580000D03*
%TD*%
%TO.C,REF\u002A\u002A*%
X205740000Y-45720000D03*
%TD*%
%TO.C,REF\u002A\u002A*%
X241300000Y-48260000D03*
%TD*%
%TO.C,REF\u002A\u002A*%
X236220000Y-40640000D03*
%TD*%
%TO.C,REF\u002A\u002A*%
X167640000Y-35560000D03*
%TD*%
M02*
