%TF.GenerationSoftware,KiCad,Pcbnew,(6.0.2)*%
%TF.CreationDate,2022-06-30T00:29:27+03:00*%
%TF.ProjectId,zx-bus_board,7a782d62-7573-45f6-926f-6172642e6b69,rev?*%
%TF.SameCoordinates,Original*%
%TF.FileFunction,Copper,L2,Bot*%
%TF.FilePolarity,Positive*%
%FSLAX46Y46*%
G04 Gerber Fmt 4.6, Leading zero omitted, Abs format (unit mm)*
G04 Created by KiCad (PCBNEW (6.0.2)) date 2022-06-30 00:29:27*
%MOMM*%
%LPD*%
G01*
G04 APERTURE LIST*
G04 Aperture macros list*
%AMRoundRect*
0 Rectangle with rounded corners*
0 $1 Rounding radius*
0 $2 $3 $4 $5 $6 $7 $8 $9 X,Y pos of 4 corners*
0 Add a 4 corners polygon primitive as box body*
4,1,4,$2,$3,$4,$5,$6,$7,$8,$9,$2,$3,0*
0 Add four circle primitives for the rounded corners*
1,1,$1+$1,$2,$3*
1,1,$1+$1,$4,$5*
1,1,$1+$1,$6,$7*
1,1,$1+$1,$8,$9*
0 Add four rect primitives between the rounded corners*
20,1,$1+$1,$2,$3,$4,$5,0*
20,1,$1+$1,$4,$5,$6,$7,0*
20,1,$1+$1,$6,$7,$8,$9,0*
20,1,$1+$1,$8,$9,$2,$3,0*%
G04 Aperture macros list end*
%ADD10C,0.300000*%
%TA.AperFunction,NonConductor*%
%ADD11C,0.300000*%
%TD*%
%TA.AperFunction,ComponentPad*%
%ADD12C,1.900000*%
%TD*%
%TA.AperFunction,ComponentPad*%
%ADD13C,1.524000*%
%TD*%
%TA.AperFunction,SMDPad,CuDef*%
%ADD14RoundRect,0.381000X-0.381000X-2.881000X0.381000X-2.881000X0.381000X2.881000X-0.381000X2.881000X0*%
%TD*%
%TA.AperFunction,Conductor*%
%ADD15C,0.750000*%
%TD*%
%TA.AperFunction,Conductor*%
%ADD16C,0.200000*%
%TD*%
%TA.AperFunction,Conductor*%
%ADD17C,0.250000*%
%TD*%
G04 APERTURE END LIST*
D10*
D11*
X254975714Y-100778571D02*
X254047142Y-100778571D01*
X254547142Y-101350000D01*
X254332857Y-101350000D01*
X254190000Y-101421428D01*
X254118571Y-101492857D01*
X254047142Y-101635714D01*
X254047142Y-101992857D01*
X254118571Y-102135714D01*
X254190000Y-102207142D01*
X254332857Y-102278571D01*
X254761428Y-102278571D01*
X254904285Y-102207142D01*
X254975714Y-102135714D01*
X253118571Y-100778571D02*
X252975714Y-100778571D01*
X252832857Y-100850000D01*
X252761428Y-100921428D01*
X252690000Y-101064285D01*
X252618571Y-101350000D01*
X252618571Y-101707142D01*
X252690000Y-101992857D01*
X252761428Y-102135714D01*
X252832857Y-102207142D01*
X252975714Y-102278571D01*
X253118571Y-102278571D01*
X253261428Y-102207142D01*
X253332857Y-102135714D01*
X253404285Y-101992857D01*
X253475714Y-101707142D01*
X253475714Y-101350000D01*
X253404285Y-101064285D01*
X253332857Y-100921428D01*
X253261428Y-100850000D01*
X253118571Y-100778571D01*
X251975714Y-102135714D02*
X251904285Y-102207142D01*
X251975714Y-102278571D01*
X252047142Y-102207142D01*
X251975714Y-102135714D01*
X251975714Y-102278571D01*
X250975714Y-100778571D02*
X250832857Y-100778571D01*
X250690000Y-100850000D01*
X250618571Y-100921428D01*
X250547142Y-101064285D01*
X250475714Y-101350000D01*
X250475714Y-101707142D01*
X250547142Y-101992857D01*
X250618571Y-102135714D01*
X250690000Y-102207142D01*
X250832857Y-102278571D01*
X250975714Y-102278571D01*
X251118571Y-102207142D01*
X251190000Y-102135714D01*
X251261428Y-101992857D01*
X251332857Y-101707142D01*
X251332857Y-101350000D01*
X251261428Y-101064285D01*
X251190000Y-100921428D01*
X251118571Y-100850000D01*
X250975714Y-100778571D01*
X249190000Y-100778571D02*
X249475714Y-100778571D01*
X249618571Y-100850000D01*
X249690000Y-100921428D01*
X249832857Y-101135714D01*
X249904285Y-101421428D01*
X249904285Y-101992857D01*
X249832857Y-102135714D01*
X249761428Y-102207142D01*
X249618571Y-102278571D01*
X249332857Y-102278571D01*
X249190000Y-102207142D01*
X249118571Y-102135714D01*
X249047142Y-101992857D01*
X249047142Y-101635714D01*
X249118571Y-101492857D01*
X249190000Y-101421428D01*
X249332857Y-101350000D01*
X249618571Y-101350000D01*
X249761428Y-101421428D01*
X249832857Y-101492857D01*
X249904285Y-101635714D01*
X248404285Y-102135714D02*
X248332857Y-102207142D01*
X248404285Y-102278571D01*
X248475714Y-102207142D01*
X248404285Y-102135714D01*
X248404285Y-102278571D01*
X247761428Y-100921428D02*
X247690000Y-100850000D01*
X247547142Y-100778571D01*
X247190000Y-100778571D01*
X247047142Y-100850000D01*
X246975714Y-100921428D01*
X246904285Y-101064285D01*
X246904285Y-101207142D01*
X246975714Y-101421428D01*
X247832857Y-102278571D01*
X246904285Y-102278571D01*
X246332857Y-100921428D02*
X246261428Y-100850000D01*
X246118571Y-100778571D01*
X245761428Y-100778571D01*
X245618571Y-100850000D01*
X245547142Y-100921428D01*
X245475714Y-101064285D01*
X245475714Y-101207142D01*
X245547142Y-101421428D01*
X246404285Y-102278571D01*
X245475714Y-102278571D01*
D10*
D11*
X163869285Y-102278571D02*
X164369285Y-101564285D01*
X164726428Y-102278571D02*
X164726428Y-100778571D01*
X164155000Y-100778571D01*
X164012142Y-100850000D01*
X163940714Y-100921428D01*
X163869285Y-101064285D01*
X163869285Y-101278571D01*
X163940714Y-101421428D01*
X164012142Y-101492857D01*
X164155000Y-101564285D01*
X164726428Y-101564285D01*
X163226428Y-101492857D02*
X162726428Y-101492857D01*
X162512142Y-102278571D02*
X163226428Y-102278571D01*
X163226428Y-100778571D01*
X162512142Y-100778571D01*
X162083571Y-100778571D02*
X161583571Y-102278571D01*
X161083571Y-100778571D01*
X159155000Y-100778571D02*
X159012142Y-100778571D01*
X158869285Y-100850000D01*
X158797857Y-100921428D01*
X158726428Y-101064285D01*
X158655000Y-101350000D01*
X158655000Y-101707142D01*
X158726428Y-101992857D01*
X158797857Y-102135714D01*
X158869285Y-102207142D01*
X159012142Y-102278571D01*
X159155000Y-102278571D01*
X159297857Y-102207142D01*
X159369285Y-102135714D01*
X159440714Y-101992857D01*
X159512142Y-101707142D01*
X159512142Y-101350000D01*
X159440714Y-101064285D01*
X159369285Y-100921428D01*
X159297857Y-100850000D01*
X159155000Y-100778571D01*
X158012142Y-102135714D02*
X157940714Y-102207142D01*
X158012142Y-102278571D01*
X158083571Y-102207142D01*
X158012142Y-102135714D01*
X158012142Y-102278571D01*
X157369285Y-100921428D02*
X157297857Y-100850000D01*
X157155000Y-100778571D01*
X156797857Y-100778571D01*
X156655000Y-100850000D01*
X156583571Y-100921428D01*
X156512142Y-101064285D01*
X156512142Y-101207142D01*
X156583571Y-101421428D01*
X157440714Y-102278571D01*
X156512142Y-102278571D01*
D12*
%TO.P,REF\u002A\u002A,*%
%TO.N,*%
X226060000Y-93980000D03*
%TD*%
%TO.P,REF\u002A\u002A,*%
%TO.N,*%
X233680000Y-93980000D03*
%TD*%
%TO.P,REF\u002A\u002A,*%
%TO.N,*%
X231140000Y-60960000D03*
%TD*%
%TO.P,REF\u002A\u002A,*%
%TO.N,*%
X175260000Y-22860000D03*
%TD*%
%TO.P,REF\u002A\u002A,*%
%TO.N,*%
X215900000Y-71120000D03*
%TD*%
%TO.P,REF\u002A\u002A,*%
%TO.N,*%
X241300000Y-27940000D03*
%TD*%
%TO.P,REF\u002A\u002A,*%
%TO.N,*%
X180340000Y-20320000D03*
%TD*%
%TO.P,REF\u002A\u002A,*%
%TO.N,*%
X198120000Y-81280000D03*
%TD*%
%TO.P,REF\u002A\u002A,*%
%TO.N,*%
X177800000Y-20320000D03*
%TD*%
%TO.P,REF\u002A\u002A,*%
%TO.N,*%
X165100000Y-76200000D03*
%TD*%
%TO.P,REF\u002A\u002A,*%
%TO.N,*%
X198120000Y-48260000D03*
%TD*%
%TO.P,REF\u002A\u002A,*%
%TO.N,*%
X246380000Y-35560000D03*
%TD*%
%TO.P,REF\u002A\u002A,*%
%TO.N,*%
X208280000Y-99060000D03*
%TD*%
%TO.P,REF\u002A\u002A,*%
%TO.N,*%
X195580000Y-63500000D03*
%TD*%
%TO.P,REF\u002A\u002A,*%
%TO.N,*%
X243840000Y-43180000D03*
%TD*%
%TO.P,REF\u002A\u002A,*%
%TO.N,*%
X180340000Y-22860000D03*
%TD*%
%TO.P,REF\u002A\u002A,*%
%TO.N,*%
X180340000Y-83820000D03*
%TD*%
%TO.P,REF\u002A\u002A,*%
%TO.N,*%
X180340000Y-86360000D03*
%TD*%
%TO.P,REF\u002A\u002A,*%
%TO.N,*%
X241300000Y-81280000D03*
%TD*%
%TO.P,REF\u002A\u002A,*%
%TO.N,*%
X215900000Y-58420000D03*
%TD*%
%TO.P,REF\u002A\u002A,*%
%TO.N,*%
X195580000Y-76200000D03*
%TD*%
%TO.P,REF\u002A\u002A,*%
%TO.N,*%
X165100000Y-30480000D03*
%TD*%
%TO.P,REF\u002A\u002A,*%
%TO.N,*%
X165100000Y-50800000D03*
%TD*%
%TO.P,REF\u002A\u002A,*%
%TO.N,*%
X226060000Y-88900000D03*
%TD*%
%TO.P,REF\u002A\u002A,*%
%TO.N,*%
X177800000Y-60960000D03*
%TD*%
%TO.P,REF\u002A\u002A,*%
%TO.N,*%
X193040000Y-48260000D03*
%TD*%
%TO.P,REF\u002A\u002A,*%
%TO.N,*%
X246380000Y-99060000D03*
%TD*%
%TO.P,REF\u002A\u002A,*%
%TO.N,*%
X251460000Y-83820000D03*
%TD*%
%TO.P,REF\u002A\u002A,*%
%TO.N,*%
X223520000Y-81280000D03*
%TD*%
%TO.P,REF\u002A\u002A,*%
%TO.N,*%
X205740000Y-76200000D03*
%TD*%
%TO.P,REF\u002A\u002A,*%
%TO.N,*%
X223520000Y-93980000D03*
%TD*%
%TO.P,REF\u002A\u002A,*%
%TO.N,*%
X226060000Y-81280000D03*
%TD*%
%TO.P,REF\u002A\u002A,*%
%TO.N,*%
X233680000Y-48260000D03*
%TD*%
%TO.P,REF\u002A\u002A,*%
%TO.N,*%
X213360000Y-91440000D03*
%TD*%
%TO.P,REF\u002A\u002A,*%
%TO.N,*%
X165100000Y-71120000D03*
%TD*%
%TO.P,REF\u002A\u002A,*%
%TO.N,*%
X175260000Y-27940000D03*
%TD*%
%TO.P,REF\u002A\u002A,*%
%TO.N,*%
X182880000Y-35560000D03*
%TD*%
%TO.P,REF\u002A\u002A,*%
%TO.N,*%
X167640000Y-66040000D03*
%TD*%
%TO.P,REF\u002A\u002A,*%
%TO.N,*%
X213360000Y-76200000D03*
%TD*%
%TO.P,REF\u002A\u002A,*%
%TO.N,*%
X162560000Y-20320000D03*
%TD*%
%TO.P,REF\u002A\u002A,*%
%TO.N,*%
X187960000Y-76200000D03*
%TD*%
%TO.P,REF\u002A\u002A,*%
%TO.N,*%
X246380000Y-45720000D03*
%TD*%
%TO.P,REF\u002A\u002A,*%
%TO.N,*%
X218440000Y-55880000D03*
%TD*%
%TO.P,REF\u002A\u002A,*%
%TO.N,*%
X218440000Y-58420000D03*
%TD*%
%TO.P,REF\u002A\u002A,*%
%TO.N,*%
X215900000Y-43180000D03*
%TD*%
%TO.P,REF\u002A\u002A,*%
%TO.N,*%
X213360000Y-27940000D03*
%TD*%
%TO.P,REF\u002A\u002A,*%
%TO.N,*%
X243840000Y-17780000D03*
%TD*%
%TO.P,REF\u002A\u002A,*%
%TO.N,*%
X157480000Y-53340000D03*
%TD*%
%TO.P,REF\u002A\u002A,*%
%TO.N,*%
X198120000Y-71120000D03*
%TD*%
%TO.P,REF\u002A\u002A,*%
%TO.N,*%
X177800000Y-53340000D03*
%TD*%
%TO.P,REF\u002A\u002A,*%
%TO.N,*%
X223520000Y-76200000D03*
%TD*%
%TO.P,REF\u002A\u002A,*%
%TO.N,*%
X190500000Y-93980000D03*
%TD*%
%TO.P,REF\u002A\u002A,*%
%TO.N,*%
X254000000Y-45720000D03*
%TD*%
%TO.P,REF\u002A\u002A,*%
%TO.N,*%
X172720000Y-73660000D03*
%TD*%
%TO.P,REF\u002A\u002A,*%
%TO.N,*%
X170180000Y-53340000D03*
%TD*%
%TO.P,REF\u002A\u002A,*%
%TO.N,*%
X213360000Y-73660000D03*
%TD*%
%TO.P,REF\u002A\u002A,*%
%TO.N,*%
X254000000Y-91440000D03*
%TD*%
%TO.P,REF\u002A\u002A,*%
%TO.N,*%
X170180000Y-50800000D03*
%TD*%
%TO.P,REF\u002A\u002A,*%
%TO.N,*%
X236220000Y-78740000D03*
%TD*%
%TO.P,REF\u002A\u002A,*%
%TO.N,*%
X231140000Y-99060000D03*
%TD*%
%TO.P,REF\u002A\u002A,*%
%TO.N,*%
X213360000Y-30480000D03*
%TD*%
%TO.P,REF\u002A\u002A,*%
%TO.N,*%
X233680000Y-58420000D03*
%TD*%
%TO.P,REF\u002A\u002A,*%
%TO.N,*%
X254000000Y-38100000D03*
%TD*%
%TO.P,REF\u002A\u002A,*%
%TO.N,*%
X182880000Y-81280000D03*
%TD*%
%TO.P,REF\u002A\u002A,*%
%TO.N,*%
X210820000Y-81280000D03*
%TD*%
%TO.P,REF\u002A\u002A,*%
%TO.N,*%
X243840000Y-88900000D03*
%TD*%
%TO.P,REF\u002A\u002A,*%
%TO.N,*%
X205740000Y-22860000D03*
%TD*%
%TO.P,,*%
%TO.N,*%
X187960000Y-101600000D03*
%TD*%
%TO.P,REF\u002A\u002A,*%
%TO.N,*%
X193040000Y-20320000D03*
%TD*%
%TO.P,REF\u002A\u002A,*%
%TO.N,*%
X165100000Y-27940000D03*
%TD*%
%TO.P,REF\u002A\u002A,*%
%TO.N,*%
X162560000Y-30480000D03*
%TD*%
%TO.P,REF\u002A\u002A,*%
%TO.N,*%
X246380000Y-68580000D03*
%TD*%
%TO.P,REF\u002A\u002A,*%
%TO.N,*%
X236220000Y-50800000D03*
%TD*%
%TO.P,REF\u002A\u002A,*%
%TO.N,*%
X254000000Y-50800000D03*
%TD*%
%TO.P,REF\u002A\u002A,*%
%TO.N,*%
X160020000Y-78740000D03*
%TD*%
%TO.P,REF\u002A\u002A,*%
%TO.N,*%
X241300000Y-101600000D03*
%TD*%
%TO.P,REF\u002A\u002A,*%
%TO.N,*%
X233680000Y-88900000D03*
%TD*%
%TO.P,REF\u002A\u002A,*%
%TO.N,*%
X172720000Y-50800000D03*
%TD*%
%TO.P,REF\u002A\u002A,*%
%TO.N,*%
X162560000Y-73660000D03*
%TD*%
%TO.P,REF\u002A\u002A,*%
%TO.N,*%
X213360000Y-58420000D03*
%TD*%
%TO.P,REF\u002A\u002A,*%
%TO.N,*%
X157480000Y-60960000D03*
%TD*%
%TO.P,REF\u002A\u002A,*%
%TO.N,*%
X238760000Y-86360000D03*
%TD*%
%TO.P,REF\u002A\u002A,*%
%TO.N,*%
X185420000Y-91440000D03*
%TD*%
%TO.P,REF\u002A\u002A,*%
%TO.N,*%
X195580000Y-83820000D03*
%TD*%
%TO.P,REF\u002A\u002A,*%
%TO.N,*%
X200660000Y-53340000D03*
%TD*%
%TO.P,REF\u002A\u002A,*%
%TO.N,*%
X238760000Y-25400000D03*
%TD*%
%TO.P,REF\u002A\u002A,*%
%TO.N,*%
X190500000Y-53340000D03*
%TD*%
%TO.P,REF\u002A\u002A,*%
%TO.N,*%
X254000000Y-60960000D03*
%TD*%
%TO.P,REF\u002A\u002A,*%
%TO.N,*%
X254000000Y-53340000D03*
%TD*%
%TO.P,REF\u002A\u002A,*%
%TO.N,*%
X187960000Y-27940000D03*
%TD*%
%TO.P,REF\u002A\u002A,*%
%TO.N,*%
X193040000Y-30480000D03*
%TD*%
%TO.P,REF\u002A\u002A,*%
%TO.N,*%
X177800000Y-55880000D03*
%TD*%
%TO.P,REF\u002A\u002A,*%
%TO.N,*%
X228600000Y-93980000D03*
%TD*%
%TO.P,REF\u002A\u002A,*%
%TO.N,*%
X170180000Y-68580000D03*
%TD*%
%TO.P,REF\u002A\u002A,*%
%TO.N,*%
X226060000Y-83820000D03*
%TD*%
%TO.P,REF\u002A\u002A,*%
%TO.N,*%
X248920000Y-35560000D03*
%TD*%
%TO.P,REF\u002A\u002A,*%
%TO.N,*%
X167640000Y-40640000D03*
%TD*%
%TO.P,REF\u002A\u002A,*%
%TO.N,*%
X193040000Y-101600000D03*
%TD*%
%TO.P,REF\u002A\u002A,*%
%TO.N,*%
X185420000Y-25400000D03*
%TD*%
%TO.P,REF\u002A\u002A,*%
%TO.N,*%
X254000000Y-81280000D03*
%TD*%
%TO.P,REF\u002A\u002A,*%
%TO.N,*%
X162560000Y-25400000D03*
%TD*%
%TO.P,REF\u002A\u002A,*%
%TO.N,*%
X162560000Y-66040000D03*
%TD*%
%TO.P,REF\u002A\u002A,*%
%TO.N,*%
X236220000Y-101600000D03*
%TD*%
%TO.P,REF\u002A\u002A,*%
%TO.N,*%
X165100000Y-83820000D03*
%TD*%
%TO.P,REF\u002A\u002A,*%
%TO.N,*%
X187960000Y-48260000D03*
%TD*%
%TO.P,REF\u002A\u002A,*%
%TO.N,*%
X193040000Y-53340000D03*
%TD*%
%TO.P,REF\u002A\u002A,*%
%TO.N,*%
X157480000Y-20320000D03*
%TD*%
%TO.P,REF\u002A\u002A,*%
%TO.N,*%
X254000000Y-68580000D03*
%TD*%
%TO.P,REF\u002A\u002A,*%
%TO.N,*%
X226060000Y-50800000D03*
%TD*%
%TO.P,REF\u002A\u002A,*%
%TO.N,*%
X226060000Y-25400000D03*
%TD*%
%TO.P,REF\u002A\u002A,*%
%TO.N,*%
X223520000Y-35560000D03*
%TD*%
%TO.P,REF\u002A\u002A,*%
%TO.N,*%
X220980000Y-71120000D03*
%TD*%
%TO.P,REF\u002A\u002A,*%
%TO.N,*%
X200660000Y-76200000D03*
%TD*%
%TO.P,REF\u002A\u002A,*%
%TO.N,*%
X177800000Y-27940000D03*
%TD*%
%TO.P,REF\u002A\u002A,*%
%TO.N,*%
X185420000Y-53340000D03*
%TD*%
%TO.P,REF\u002A\u002A,*%
%TO.N,*%
X243840000Y-101600000D03*
%TD*%
%TO.P,REF\u002A\u002A,*%
%TO.N,*%
X167640000Y-86360000D03*
%TD*%
%TO.P,REF\u002A\u002A,*%
%TO.N,*%
X210820000Y-17780000D03*
%TD*%
%TO.P,REF\u002A\u002A,*%
%TO.N,*%
X205740000Y-43180000D03*
%TD*%
%TO.P,REF\u002A\u002A,*%
%TO.N,*%
X254000000Y-40640000D03*
%TD*%
%TO.P,REF\u002A\u002A,*%
%TO.N,*%
X220980000Y-33020000D03*
%TD*%
%TO.P,,*%
%TO.N,*%
X218440000Y-101600000D03*
%TD*%
%TO.P,REF\u002A\u002A,*%
%TO.N,*%
X180340000Y-43180000D03*
%TD*%
%TO.P,REF\u002A\u002A,*%
%TO.N,*%
X162560000Y-55880000D03*
%TD*%
%TO.P,REF\u002A\u002A,*%
%TO.N,*%
X213360000Y-38100000D03*
%TD*%
%TO.P,REF\u002A\u002A,*%
%TO.N,*%
X233680000Y-60960000D03*
%TD*%
%TO.P,REF\u002A\u002A,*%
%TO.N,*%
X170180000Y-91440000D03*
%TD*%
%TO.P,REF\u002A\u002A,*%
%TO.N,*%
X231140000Y-83820000D03*
%TD*%
%TO.P,REF\u002A\u002A,*%
%TO.N,*%
X231140000Y-101600000D03*
%TD*%
%TO.P,REF\u002A\u002A,*%
%TO.N,*%
X238760000Y-22860000D03*
%TD*%
%TO.P,REF\u002A\u002A,*%
%TO.N,*%
X248920000Y-55880000D03*
%TD*%
%TO.P,REF\u002A\u002A,*%
%TO.N,*%
X193040000Y-73660000D03*
%TD*%
%TO.P,REF\u002A\u002A,*%
%TO.N,*%
X241300000Y-76200000D03*
%TD*%
%TO.P,REF\u002A\u002A,*%
%TO.N,*%
X215900000Y-78740000D03*
%TD*%
%TO.P,REF\u002A\u002A,*%
%TO.N,*%
X246380000Y-20320000D03*
%TD*%
%TO.P,REF\u002A\u002A,*%
%TO.N,*%
X203200000Y-93980000D03*
%TD*%
%TO.P,REF\u002A\u002A,*%
%TO.N,*%
X162560000Y-48260000D03*
%TD*%
%TO.P,REF\u002A\u002A,*%
%TO.N,*%
X185420000Y-40640000D03*
%TD*%
%TO.P,REF\u002A\u002A,*%
%TO.N,*%
X243840000Y-38100000D03*
%TD*%
%TO.P,REF\u002A\u002A,*%
%TO.N,*%
X160020000Y-17780000D03*
%TD*%
%TO.P,REF\u002A\u002A,*%
%TO.N,*%
X236220000Y-76200000D03*
%TD*%
%TO.P,REF\u002A\u002A,*%
%TO.N,*%
X177800000Y-83820000D03*
%TD*%
%TO.P,REF\u002A\u002A,*%
%TO.N,*%
X220980000Y-53340000D03*
%TD*%
%TO.P,REF\u002A\u002A,*%
%TO.N,*%
X203200000Y-43180000D03*
%TD*%
%TO.P,REF\u002A\u002A,*%
%TO.N,*%
X195580000Y-50800000D03*
%TD*%
%TO.P,REF\u002A\u002A,*%
%TO.N,*%
X157480000Y-43180000D03*
%TD*%
%TO.P,REF\u002A\u002A,*%
%TO.N,*%
X248920000Y-58420000D03*
%TD*%
%TO.P,REF\u002A\u002A,*%
%TO.N,*%
X246380000Y-33020000D03*
%TD*%
%TO.P,REF\u002A\u002A,*%
%TO.N,*%
X170180000Y-17780000D03*
%TD*%
%TO.P,REF\u002A\u002A,*%
%TO.N,*%
X165100000Y-91440000D03*
%TD*%
%TO.P,REF\u002A\u002A,*%
%TO.N,*%
X187960000Y-53340000D03*
%TD*%
%TO.P,REF\u002A\u002A,*%
%TO.N,*%
X190500000Y-22860000D03*
%TD*%
%TO.P,REF\u002A\u002A,*%
%TO.N,*%
X223520000Y-20320000D03*
%TD*%
%TO.P,REF\u002A\u002A,*%
%TO.N,*%
X193040000Y-43180000D03*
%TD*%
%TO.P,REF\u002A\u002A,*%
%TO.N,*%
X205740000Y-101600000D03*
%TD*%
%TO.P,REF\u002A\u002A,*%
%TO.N,*%
X220980000Y-76200000D03*
%TD*%
%TO.P,REF\u002A\u002A,*%
%TO.N,*%
X180340000Y-33020000D03*
%TD*%
%TO.P,REF\u002A\u002A,*%
%TO.N,*%
X220980000Y-22860000D03*
%TD*%
%TO.P,REF\u002A\u002A,*%
%TO.N,*%
X213360000Y-83820000D03*
%TD*%
%TO.P,REF\u002A\u002A,*%
%TO.N,*%
X187960000Y-60960000D03*
%TD*%
%TO.P,REF\u002A\u002A,*%
%TO.N,*%
X160020000Y-99060000D03*
%TD*%
%TO.P,REF\u002A\u002A,*%
%TO.N,*%
X182880000Y-63500000D03*
%TD*%
%TO.P,REF\u002A\u002A,*%
%TO.N,*%
X238760000Y-63500000D03*
%TD*%
%TO.P,REF\u002A\u002A,*%
%TO.N,*%
X160020000Y-48260000D03*
%TD*%
%TO.P,REF\u002A\u002A,*%
%TO.N,*%
X157480000Y-33020000D03*
%TD*%
%TO.P,REF\u002A\u002A,*%
%TO.N,*%
X241300000Y-93980000D03*
%TD*%
%TO.P,REF\u002A\u002A,*%
%TO.N,*%
X203200000Y-27940000D03*
%TD*%
%TO.P,REF\u002A\u002A,*%
%TO.N,*%
X172720000Y-99060000D03*
%TD*%
%TO.P,REF\u002A\u002A,*%
%TO.N,*%
X172720000Y-58420000D03*
%TD*%
%TO.P,REF\u002A\u002A,*%
%TO.N,*%
X195580000Y-73660000D03*
%TD*%
%TO.P,REF\u002A\u002A,*%
%TO.N,*%
X220980000Y-81280000D03*
%TD*%
%TO.P,REF\u002A\u002A,*%
%TO.N,*%
X231140000Y-33020000D03*
%TD*%
%TO.P,REF\u002A\u002A,*%
%TO.N,*%
X246380000Y-91440000D03*
%TD*%
%TO.P,REF\u002A\u002A,*%
%TO.N,*%
X162560000Y-53340000D03*
%TD*%
%TO.P,REF\u002A\u002A,*%
%TO.N,*%
X170180000Y-78740000D03*
%TD*%
%TO.P,REF\u002A\u002A,*%
%TO.N,*%
X170180000Y-71120000D03*
%TD*%
%TO.P,REF\u002A\u002A,*%
%TO.N,*%
X160020000Y-68580000D03*
%TD*%
%TO.P,REF\u002A\u002A,*%
%TO.N,*%
X205740000Y-73660000D03*
%TD*%
%TO.P,REF\u002A\u002A,*%
%TO.N,*%
X248920000Y-86360000D03*
%TD*%
%TO.P,REF\u002A\u002A,*%
%TO.N,*%
X172720000Y-63500000D03*
%TD*%
%TO.P,REF\u002A\u002A,*%
%TO.N,*%
X157480000Y-25400000D03*
%TD*%
%TO.P,REF\u002A\u002A,*%
%TO.N,*%
X160020000Y-38100000D03*
%TD*%
%TO.P,REF\u002A\u002A,*%
%TO.N,*%
X205740000Y-17780000D03*
%TD*%
%TO.P,REF\u002A\u002A,*%
%TO.N,*%
X177800000Y-43180000D03*
%TD*%
%TO.P,REF\u002A\u002A,*%
%TO.N,*%
X177800000Y-76200000D03*
%TD*%
%TO.P,REF\u002A\u002A,*%
%TO.N,*%
X157480000Y-73660000D03*
%TD*%
%TO.P,REF\u002A\u002A,*%
%TO.N,*%
X203200000Y-60960000D03*
%TD*%
%TO.P,REF\u002A\u002A,*%
%TO.N,*%
X185420000Y-66040000D03*
%TD*%
%TO.P,REF\u002A\u002A,*%
%TO.N,*%
X218440000Y-68580000D03*
%TD*%
%TO.P,REF\u002A\u002A,*%
%TO.N,*%
X193040000Y-38100000D03*
%TD*%
%TO.P,REF\u002A\u002A,*%
%TO.N,*%
X172720000Y-30480000D03*
%TD*%
%TO.P,REF\u002A\u002A,*%
%TO.N,*%
X238760000Y-58420000D03*
%TD*%
%TO.P,REF\u002A\u002A,*%
%TO.N,*%
X162560000Y-71120000D03*
%TD*%
%TO.P,REF\u002A\u002A,*%
%TO.N,*%
X172720000Y-76200000D03*
%TD*%
%TO.P,REF\u002A\u002A,*%
%TO.N,*%
X157480000Y-68580000D03*
%TD*%
%TO.P,REF\u002A\u002A,*%
%TO.N,*%
X220980000Y-25400000D03*
%TD*%
%TO.P,REF\u002A\u002A,*%
%TO.N,*%
X160020000Y-93980000D03*
%TD*%
%TO.P,REF\u002A\u002A,*%
%TO.N,*%
X241300000Y-68580000D03*
%TD*%
%TO.P,REF\u002A\u002A,*%
%TO.N,*%
X208280000Y-55880000D03*
%TD*%
%TO.P,REF\u002A\u002A,*%
%TO.N,*%
X185420000Y-55880000D03*
%TD*%
%TO.P,REF\u002A\u002A,*%
%TO.N,*%
X198120000Y-33020000D03*
%TD*%
%TO.P,REF\u002A\u002A,*%
%TO.N,*%
X185420000Y-30480000D03*
%TD*%
%TO.P,REF\u002A\u002A,*%
%TO.N,*%
X187960000Y-55880000D03*
%TD*%
%TO.P,REF\u002A\u002A,*%
%TO.N,*%
X177800000Y-71120000D03*
%TD*%
%TO.P,REF\u002A\u002A,*%
%TO.N,*%
X243840000Y-81280000D03*
%TD*%
%TO.P,REF\u002A\u002A,*%
%TO.N,*%
X228600000Y-63500000D03*
%TD*%
%TO.P,REF\u002A\u002A,*%
%TO.N,*%
X223520000Y-17780000D03*
%TD*%
%TO.P,REF\u002A\u002A,*%
%TO.N,*%
X228600000Y-25400000D03*
%TD*%
%TO.P,REF\u002A\u002A,*%
%TO.N,*%
X185420000Y-33020000D03*
%TD*%
%TO.P,REF\u002A\u002A,*%
%TO.N,*%
X182880000Y-27940000D03*
%TD*%
%TO.P,REF\u002A\u002A,*%
%TO.N,*%
X167640000Y-83820000D03*
%TD*%
%TO.P,REF\u002A\u002A,*%
%TO.N,*%
X254000000Y-48260000D03*
%TD*%
%TO.P,REF\u002A\u002A,*%
%TO.N,*%
X238760000Y-33020000D03*
%TD*%
%TO.P,REF\u002A\u002A,*%
%TO.N,*%
X251460000Y-22860000D03*
%TD*%
%TO.P,,*%
%TO.N,*%
X195580000Y-99060000D03*
%TD*%
%TO.P,REF\u002A\u002A,*%
%TO.N,*%
X238760000Y-45720000D03*
%TD*%
%TO.P,,*%
%TO.N,*%
X213360000Y-101600000D03*
%TD*%
%TO.P,REF\u002A\u002A,*%
%TO.N,*%
X236220000Y-93980000D03*
%TD*%
%TO.P,REF\u002A\u002A,*%
%TO.N,*%
X213360000Y-43180000D03*
%TD*%
%TO.P,REF\u002A\u002A,*%
%TO.N,*%
X205740000Y-71120000D03*
%TD*%
%TO.P,REF\u002A\u002A,*%
%TO.N,*%
X198120000Y-101600000D03*
%TD*%
%TO.P,REF\u002A\u002A,*%
%TO.N,*%
X170180000Y-76200000D03*
%TD*%
%TO.P,REF\u002A\u002A,*%
%TO.N,*%
X208280000Y-27940000D03*
%TD*%
%TO.P,REF\u002A\u002A,*%
%TO.N,*%
X157480000Y-81280000D03*
%TD*%
%TO.P,REF\u002A\u002A,*%
%TO.N,*%
X182880000Y-17780000D03*
%TD*%
%TO.P,REF\u002A\u002A,*%
%TO.N,*%
X228600000Y-86360000D03*
%TD*%
%TO.P,REF\u002A\u002A,*%
%TO.N,*%
X162560000Y-43180000D03*
%TD*%
%TO.P,REF\u002A\u002A,*%
%TO.N,*%
X195580000Y-99060000D03*
%TD*%
%TO.P,REF\u002A\u002A,*%
%TO.N,*%
X251460000Y-99060000D03*
%TD*%
%TO.P,REF\u002A\u002A,*%
%TO.N,*%
X200660000Y-60960000D03*
%TD*%
%TO.P,REF\u002A\u002A,*%
%TO.N,*%
X190500000Y-86360000D03*
%TD*%
%TO.P,REF\u002A\u002A,*%
%TO.N,*%
X231140000Y-43180000D03*
%TD*%
%TO.P,REF\u002A\u002A,*%
%TO.N,*%
X215900000Y-83820000D03*
%TD*%
%TO.P,REF\u002A\u002A,*%
%TO.N,*%
X180340000Y-63500000D03*
%TD*%
%TO.P,REF\u002A\u002A,*%
%TO.N,*%
X243840000Y-55880000D03*
%TD*%
%TO.P,REF\u002A\u002A,*%
%TO.N,*%
X170180000Y-81280000D03*
%TD*%
%TO.P,REF\u002A\u002A,*%
%TO.N,*%
X165100000Y-43180000D03*
%TD*%
%TO.P,REF\u002A\u002A,*%
%TO.N,*%
X203200000Y-88900000D03*
%TD*%
%TO.P,REF\u002A\u002A,*%
%TO.N,*%
X228600000Y-88900000D03*
%TD*%
%TO.P,,*%
%TO.N,*%
X228600000Y-101600000D03*
%TD*%
%TO.P,REF\u002A\u002A,*%
%TO.N,*%
X210820000Y-53340000D03*
%TD*%
%TO.P,REF\u002A\u002A,*%
%TO.N,*%
X208280000Y-17780000D03*
%TD*%
%TO.P,REF\u002A\u002A,*%
%TO.N,*%
X180340000Y-81280000D03*
%TD*%
D13*
%TO.P,,1*%
%TO.N,N/C*%
X243840000Y-101600000D03*
%TD*%
D12*
%TO.P,REF\u002A\u002A,*%
%TO.N,*%
X243840000Y-91440000D03*
%TD*%
%TO.P,REF\u002A\u002A,*%
%TO.N,*%
X193040000Y-88900000D03*
%TD*%
%TO.P,REF\u002A\u002A,*%
%TO.N,*%
X177800000Y-81280000D03*
%TD*%
%TO.P,REF\u002A\u002A,*%
%TO.N,*%
X220980000Y-48260000D03*
%TD*%
%TO.P,,*%
%TO.N,*%
X218440000Y-101600000D03*
%TD*%
%TO.P,REF\u002A\u002A,*%
%TO.N,*%
X187960000Y-30480000D03*
%TD*%
%TO.P,REF\u002A\u002A,*%
%TO.N,*%
X203200000Y-101600000D03*
%TD*%
%TO.P,REF\u002A\u002A,*%
%TO.N,*%
X233680000Y-50800000D03*
%TD*%
%TO.P,REF\u002A\u002A,*%
%TO.N,*%
X243840000Y-63500000D03*
%TD*%
%TO.P,REF\u002A\u002A,*%
%TO.N,*%
X218440000Y-63500000D03*
%TD*%
%TO.P,REF\u002A\u002A,*%
%TO.N,*%
X195580000Y-45720000D03*
%TD*%
%TO.P,REF\u002A\u002A,*%
%TO.N,*%
X213360000Y-99060000D03*
%TD*%
%TO.P,REF\u002A\u002A,*%
%TO.N,*%
X228600000Y-55880000D03*
%TD*%
%TO.P,REF\u002A\u002A,*%
%TO.N,*%
X251460000Y-68580000D03*
%TD*%
%TO.P,REF\u002A\u002A,*%
%TO.N,*%
X233680000Y-40640000D03*
%TD*%
%TO.P,REF\u002A\u002A,*%
%TO.N,*%
X175260000Y-73660000D03*
%TD*%
%TO.P,REF\u002A\u002A,*%
%TO.N,*%
X187960000Y-66040000D03*
%TD*%
%TO.P,REF\u002A\u002A,*%
%TO.N,*%
X220980000Y-68580000D03*
%TD*%
%TO.P,REF\u002A\u002A,*%
%TO.N,*%
X193040000Y-45720000D03*
%TD*%
%TO.P,REF\u002A\u002A,*%
%TO.N,*%
X177800000Y-66040000D03*
%TD*%
%TO.P,REF\u002A\u002A,*%
%TO.N,*%
X205740000Y-99060000D03*
%TD*%
%TO.P,REF\u002A\u002A,*%
%TO.N,*%
X190500000Y-91440000D03*
%TD*%
%TO.P,REF\u002A\u002A,*%
%TO.N,*%
X185420000Y-58420000D03*
%TD*%
%TO.P,,*%
%TO.N,*%
X236220000Y-99060000D03*
%TD*%
%TO.P,REF\u002A\u002A,*%
%TO.N,*%
X185420000Y-81280000D03*
%TD*%
%TO.P,REF\u002A\u002A,*%
%TO.N,*%
X226060000Y-20320000D03*
%TD*%
%TO.P,REF\u002A\u002A,*%
%TO.N,*%
X167640000Y-53340000D03*
%TD*%
%TO.P,REF\u002A\u002A,*%
%TO.N,*%
X162560000Y-45720000D03*
%TD*%
%TO.P,REF\u002A\u002A,*%
%TO.N,*%
X165100000Y-17780000D03*
%TD*%
%TO.P,REF\u002A\u002A,*%
%TO.N,*%
X190500000Y-63500000D03*
%TD*%
%TO.P,REF\u002A\u002A,*%
%TO.N,*%
X213360000Y-71120000D03*
%TD*%
%TO.P,REF\u002A\u002A,*%
%TO.N,*%
X195580000Y-53340000D03*
%TD*%
%TO.P,REF\u002A\u002A,*%
%TO.N,*%
X172720000Y-25400000D03*
%TD*%
%TO.P,REF\u002A\u002A,*%
%TO.N,*%
X190500000Y-68580000D03*
%TD*%
%TO.P,REF\u002A\u002A,*%
%TO.N,*%
X248920000Y-30480000D03*
%TD*%
%TO.P,REF\u002A\u002A,*%
%TO.N,*%
X195580000Y-86360000D03*
%TD*%
%TO.P,REF\u002A\u002A,*%
%TO.N,*%
X223520000Y-55880000D03*
%TD*%
%TO.P,REF\u002A\u002A,*%
%TO.N,*%
X218440000Y-20320000D03*
%TD*%
%TO.P,REF\u002A\u002A,*%
%TO.N,*%
X187960000Y-33020000D03*
%TD*%
%TO.P,REF\u002A\u002A,*%
%TO.N,*%
X248920000Y-83820000D03*
%TD*%
%TO.P,REF\u002A\u002A,*%
%TO.N,*%
X182880000Y-45720000D03*
%TD*%
%TO.P,REF\u002A\u002A,*%
%TO.N,*%
X231140000Y-88900000D03*
%TD*%
%TO.P,REF\u002A\u002A,*%
%TO.N,*%
X167640000Y-48260000D03*
%TD*%
%TO.P,REF\u002A\u002A,*%
%TO.N,*%
X226060000Y-55880000D03*
%TD*%
%TO.P,REF\u002A\u002A,*%
%TO.N,*%
X248920000Y-27940000D03*
%TD*%
%TO.P,REF\u002A\u002A,*%
%TO.N,*%
X167640000Y-20320000D03*
%TD*%
%TO.P,REF\u002A\u002A,*%
%TO.N,*%
X172720000Y-88900000D03*
%TD*%
%TO.P,REF\u002A\u002A,*%
%TO.N,*%
X193040000Y-22860000D03*
%TD*%
%TO.P,REF\u002A\u002A,*%
%TO.N,*%
X208280000Y-81280000D03*
%TD*%
%TO.P,REF\u002A\u002A,*%
%TO.N,*%
X198120000Y-27940000D03*
%TD*%
%TO.P,REF\u002A\u002A,*%
%TO.N,*%
X248920000Y-38100000D03*
%TD*%
%TO.P,,*%
%TO.N,*%
X243840000Y-101600000D03*
%TD*%
%TO.P,REF\u002A\u002A,*%
%TO.N,*%
X220980000Y-101600000D03*
%TD*%
%TO.P,REF\u002A\u002A,*%
%TO.N,*%
X248920000Y-71120000D03*
%TD*%
%TO.P,REF\u002A\u002A,*%
%TO.N,*%
X236220000Y-81280000D03*
%TD*%
%TO.P,REF\u002A\u002A,*%
%TO.N,*%
X243840000Y-50800000D03*
%TD*%
%TO.P,REF\u002A\u002A,*%
%TO.N,*%
X213360000Y-20320000D03*
%TD*%
%TO.P,REF\u002A\u002A,*%
%TO.N,*%
X177800000Y-68580000D03*
%TD*%
%TO.P,,*%
%TO.N,*%
X208280000Y-101600000D03*
%TD*%
%TO.P,REF\u002A\u002A,*%
%TO.N,*%
X170180000Y-27940000D03*
%TD*%
%TO.P,REF\u002A\u002A,*%
%TO.N,*%
X167640000Y-71120000D03*
%TD*%
%TO.P,REF\u002A\u002A,*%
%TO.N,*%
X231140000Y-76200000D03*
%TD*%
%TO.P,REF\u002A\u002A,*%
%TO.N,*%
X241300000Y-30480000D03*
%TD*%
%TO.P,REF\u002A\u002A,*%
%TO.N,*%
X246380000Y-50800000D03*
%TD*%
%TO.P,REF\u002A\u002A,*%
%TO.N,*%
X251460000Y-35560000D03*
%TD*%
%TO.P,REF\u002A\u002A,*%
%TO.N,*%
X251460000Y-91440000D03*
%TD*%
%TO.P,REF\u002A\u002A,*%
%TO.N,*%
X160020000Y-63500000D03*
%TD*%
%TO.P,REF\u002A\u002A,*%
%TO.N,*%
X198120000Y-68580000D03*
%TD*%
%TO.P,REF\u002A\u002A,*%
%TO.N,*%
X226060000Y-78740000D03*
%TD*%
%TO.P,REF\u002A\u002A,*%
%TO.N,*%
X172720000Y-101600000D03*
%TD*%
%TO.P,REF\u002A\u002A,*%
%TO.N,*%
X213360000Y-93980000D03*
%TD*%
%TO.P,REF\u002A\u002A,*%
%TO.N,*%
X180340000Y-35560000D03*
%TD*%
%TO.P,REF\u002A\u002A,*%
%TO.N,*%
X220980000Y-55880000D03*
%TD*%
%TO.P,REF\u002A\u002A,*%
%TO.N,*%
X175260000Y-50800000D03*
%TD*%
%TO.P,REF\u002A\u002A,*%
%TO.N,*%
X226060000Y-53340000D03*
%TD*%
%TO.P,REF\u002A\u002A,*%
%TO.N,*%
X238760000Y-83820000D03*
%TD*%
%TO.P,REF\u002A\u002A,*%
%TO.N,*%
X180340000Y-48260000D03*
%TD*%
%TO.P,REF\u002A\u002A,*%
%TO.N,*%
X200660000Y-68580000D03*
%TD*%
%TO.P,REF\u002A\u002A,*%
%TO.N,*%
X167640000Y-99060000D03*
%TD*%
%TO.P,REF\u002A\u002A,*%
%TO.N,*%
X182880000Y-38100000D03*
%TD*%
%TO.P,REF\u002A\u002A,*%
%TO.N,*%
X233680000Y-73660000D03*
%TD*%
%TO.P,REF\u002A\u002A,*%
%TO.N,*%
X185420000Y-71120000D03*
%TD*%
%TO.P,REF\u002A\u002A,*%
%TO.N,*%
X180340000Y-93980000D03*
%TD*%
%TO.P,REF\u002A\u002A,*%
%TO.N,*%
X210820000Y-88900000D03*
%TD*%
%TO.P,REF\u002A\u002A,*%
%TO.N,*%
X162560000Y-88900000D03*
%TD*%
%TO.P,REF\u002A\u002A,*%
%TO.N,*%
X246380000Y-60960000D03*
%TD*%
%TO.P,REF\u002A\u002A,*%
%TO.N,*%
X213360000Y-68580000D03*
%TD*%
%TO.P,REF\u002A\u002A,*%
%TO.N,*%
X243840000Y-25400000D03*
%TD*%
%TO.P,REF\u002A\u002A,*%
%TO.N,*%
X236220000Y-25400000D03*
%TD*%
%TO.P,REF\u002A\u002A,*%
%TO.N,*%
X198120000Y-20320000D03*
%TD*%
%TO.P,REF\u002A\u002A,*%
%TO.N,*%
X254000000Y-22860000D03*
%TD*%
%TO.P,REF\u002A\u002A,*%
%TO.N,*%
X200660000Y-48260000D03*
%TD*%
%TO.P,REF\u002A\u002A,*%
%TO.N,*%
X251460000Y-86360000D03*
%TD*%
%TO.P,REF\u002A\u002A,*%
%TO.N,*%
X165100000Y-55880000D03*
%TD*%
%TO.P,REF\u002A\u002A,*%
%TO.N,*%
X213360000Y-25400000D03*
%TD*%
%TO.P,REF\u002A\u002A,*%
%TO.N,*%
X220980000Y-78740000D03*
%TD*%
%TO.P,REF\u002A\u002A,*%
%TO.N,*%
X177800000Y-38100000D03*
%TD*%
%TO.P,REF\u002A\u002A,*%
%TO.N,*%
X248920000Y-48260000D03*
%TD*%
%TO.P,REF\u002A\u002A,*%
%TO.N,*%
X187960000Y-35560000D03*
%TD*%
%TO.P,REF\u002A\u002A,*%
%TO.N,*%
X233680000Y-27940000D03*
%TD*%
%TO.P,REF\u002A\u002A,*%
%TO.N,*%
X172720000Y-91440000D03*
%TD*%
%TO.P,REF\u002A\u002A,*%
%TO.N,*%
X187960000Y-83820000D03*
%TD*%
%TO.P,REF\u002A\u002A,*%
%TO.N,*%
X175260000Y-99060000D03*
%TD*%
%TO.P,REF\u002A\u002A,*%
%TO.N,*%
X254000000Y-25400000D03*
%TD*%
%TO.P,REF\u002A\u002A,*%
%TO.N,*%
X246380000Y-71120000D03*
%TD*%
%TO.P,REF\u002A\u002A,*%
%TO.N,*%
X182880000Y-73660000D03*
%TD*%
%TO.P,REF\u002A\u002A,*%
%TO.N,*%
X172720000Y-71120000D03*
%TD*%
%TO.P,REF\u002A\u002A,*%
%TO.N,*%
X198120000Y-93980000D03*
%TD*%
%TO.P,,*%
%TO.N,*%
X233680000Y-101600000D03*
%TD*%
%TO.P,REF\u002A\u002A,*%
%TO.N,*%
X218440000Y-43180000D03*
%TD*%
%TO.P,REF\u002A\u002A,*%
%TO.N,*%
X162560000Y-81280000D03*
%TD*%
%TO.P,REF\u002A\u002A,*%
%TO.N,*%
X177800000Y-35560000D03*
%TD*%
%TO.P,REF\u002A\u002A,*%
%TO.N,*%
X180340000Y-58420000D03*
%TD*%
%TO.P,REF\u002A\u002A,*%
%TO.N,*%
X246380000Y-27940000D03*
%TD*%
%TO.P,REF\u002A\u002A,*%
%TO.N,*%
X210820000Y-22860000D03*
%TD*%
%TO.P,REF\u002A\u002A,*%
%TO.N,*%
X215900000Y-35560000D03*
%TD*%
%TO.P,REF\u002A\u002A,*%
%TO.N,*%
X233680000Y-86360000D03*
%TD*%
%TO.P,REF\u002A\u002A,*%
%TO.N,*%
X208280000Y-73660000D03*
%TD*%
%TO.P,REF\u002A\u002A,*%
%TO.N,*%
X228600000Y-78740000D03*
%TD*%
%TO.P,REF\u002A\u002A,*%
%TO.N,*%
X210820000Y-35560000D03*
%TD*%
%TO.P,REF\u002A\u002A,*%
%TO.N,*%
X180340000Y-53340000D03*
%TD*%
%TO.P,REF\u002A\u002A,*%
%TO.N,*%
X160020000Y-33020000D03*
%TD*%
%TO.P,REF\u002A\u002A,*%
%TO.N,*%
X205740000Y-38100000D03*
%TD*%
%TO.P,REF\u002A\u002A,*%
%TO.N,*%
X248920000Y-88900000D03*
%TD*%
%TO.P,REF\u002A\u002A,*%
%TO.N,*%
X170180000Y-88900000D03*
%TD*%
%TO.P,REF\u002A\u002A,*%
%TO.N,*%
X251460000Y-78740000D03*
%TD*%
%TO.P,REF\u002A\u002A,*%
%TO.N,*%
X198120000Y-99060000D03*
%TD*%
%TO.P,REF\u002A\u002A,*%
%TO.N,*%
X157480000Y-55880000D03*
%TD*%
%TO.P,REF\u002A\u002A,*%
%TO.N,*%
X157480000Y-45720000D03*
%TD*%
%TO.P,REF\u002A\u002A,*%
%TO.N,*%
X190500000Y-71120000D03*
%TD*%
%TO.P,REF\u002A\u002A,*%
%TO.N,*%
X218440000Y-60960000D03*
%TD*%
%TO.P,REF\u002A\u002A,*%
%TO.N,*%
X241300000Y-35560000D03*
%TD*%
%TO.P,REF\u002A\u002A,*%
%TO.N,*%
X205740000Y-25400000D03*
%TD*%
%TO.P,REF\u002A\u002A,*%
%TO.N,*%
X226060000Y-33020000D03*
%TD*%
%TO.P,REF\u002A\u002A,*%
%TO.N,*%
X218440000Y-88900000D03*
%TD*%
%TO.P,REF\u002A\u002A,*%
%TO.N,*%
X233680000Y-83820000D03*
%TD*%
%TO.P,REF\u002A\u002A,*%
%TO.N,*%
X236220000Y-86360000D03*
%TD*%
%TO.P,REF\u002A\u002A,*%
%TO.N,*%
X175260000Y-38100000D03*
%TD*%
%TO.P,REF\u002A\u002A,*%
%TO.N,*%
X223520000Y-30480000D03*
%TD*%
%TO.P,REF\u002A\u002A,*%
%TO.N,*%
X182880000Y-71120000D03*
%TD*%
%TO.P,REF\u002A\u002A,*%
%TO.N,*%
X157480000Y-30480000D03*
%TD*%
%TO.P,REF\u002A\u002A,*%
%TO.N,*%
X208280000Y-91440000D03*
%TD*%
%TO.P,REF\u002A\u002A,*%
%TO.N,*%
X190500000Y-40640000D03*
%TD*%
%TO.P,REF\u002A\u002A,*%
%TO.N,*%
X203200000Y-25400000D03*
%TD*%
%TO.P,REF\u002A\u002A,*%
%TO.N,*%
X177800000Y-99060000D03*
%TD*%
%TO.P,REF\u002A\u002A,*%
%TO.N,*%
X198120000Y-53340000D03*
%TD*%
%TO.P,REF\u002A\u002A,*%
%TO.N,*%
X187960000Y-78740000D03*
%TD*%
%TO.P,REF\u002A\u002A,*%
%TO.N,*%
X251460000Y-73660000D03*
%TD*%
%TO.P,REF\u002A\u002A,*%
%TO.N,*%
X241300000Y-40640000D03*
%TD*%
%TO.P,REF\u002A\u002A,*%
%TO.N,*%
X205740000Y-20320000D03*
%TD*%
%TO.P,REF\u002A\u002A,*%
%TO.N,*%
X162560000Y-76200000D03*
%TD*%
%TO.P,REF\u002A\u002A,*%
%TO.N,*%
X157480000Y-27940000D03*
%TD*%
%TO.P,REF\u002A\u002A,*%
%TO.N,*%
X218440000Y-33020000D03*
%TD*%
%TO.P,REF\u002A\u002A,*%
%TO.N,*%
X241300000Y-88900000D03*
%TD*%
%TO.P,REF\u002A\u002A,*%
%TO.N,*%
X208280000Y-45720000D03*
%TD*%
%TO.P,REF\u002A\u002A,*%
%TO.N,*%
X226060000Y-38100000D03*
%TD*%
%TO.P,REF\u002A\u002A,*%
%TO.N,*%
X215900000Y-25400000D03*
%TD*%
%TO.P,REF\u002A\u002A,*%
%TO.N,*%
X226060000Y-58420000D03*
%TD*%
%TO.P,REF\u002A\u002A,*%
%TO.N,*%
X238760000Y-93980000D03*
%TD*%
%TO.P,REF\u002A\u002A,*%
%TO.N,*%
X208280000Y-30480000D03*
%TD*%
%TO.P,REF\u002A\u002A,*%
%TO.N,*%
X220980000Y-93980000D03*
%TD*%
%TO.P,REF\u002A\u002A,*%
%TO.N,*%
X210820000Y-78740000D03*
%TD*%
%TO.P,REF\u002A\u002A,*%
%TO.N,*%
X162560000Y-38100000D03*
%TD*%
%TO.P,REF\u002A\u002A,*%
%TO.N,*%
X231140000Y-20320000D03*
%TD*%
%TO.P,REF\u002A\u002A,*%
%TO.N,*%
X243840000Y-35560000D03*
%TD*%
%TO.P,REF\u002A\u002A,*%
%TO.N,*%
X218440000Y-40640000D03*
%TD*%
%TO.P,REF\u002A\u002A,*%
%TO.N,*%
X220980000Y-99060000D03*
%TD*%
%TO.P,REF\u002A\u002A,*%
%TO.N,*%
X213360000Y-88900000D03*
%TD*%
%TO.P,REF\u002A\u002A,*%
%TO.N,*%
X223520000Y-63500000D03*
%TD*%
%TO.P,REF\u002A\u002A,*%
%TO.N,*%
X208280000Y-53340000D03*
%TD*%
%TO.P,REF\u002A\u002A,*%
%TO.N,*%
X205740000Y-55880000D03*
%TD*%
%TO.P,REF\u002A\u002A,*%
%TO.N,*%
X233680000Y-43180000D03*
%TD*%
%TO.P,REF\u002A\u002A,*%
%TO.N,*%
X210820000Y-101600000D03*
%TD*%
%TO.P,REF\u002A\u002A,*%
%TO.N,*%
X236220000Y-48260000D03*
%TD*%
%TO.P,REF\u002A\u002A,*%
%TO.N,*%
X223520000Y-22860000D03*
%TD*%
%TO.P,REF\u002A\u002A,*%
%TO.N,*%
X177800000Y-33020000D03*
%TD*%
%TO.P,REF\u002A\u002A,*%
%TO.N,*%
X210820000Y-86360000D03*
%TD*%
%TO.P,REF\u002A\u002A,*%
%TO.N,*%
X241300000Y-53340000D03*
%TD*%
%TO.P,REF\u002A\u002A,*%
%TO.N,*%
X236220000Y-53340000D03*
%TD*%
%TO.P,REF\u002A\u002A,*%
%TO.N,*%
X233680000Y-63500000D03*
%TD*%
%TO.P,REF\u002A\u002A,*%
%TO.N,*%
X220980000Y-88900000D03*
%TD*%
%TO.P,REF\u002A\u002A,*%
%TO.N,*%
X203200000Y-68580000D03*
%TD*%
%TO.P,REF\u002A\u002A,*%
%TO.N,*%
X198120000Y-17780000D03*
%TD*%
%TO.P,REF\u002A\u002A,*%
%TO.N,*%
X187960000Y-38100000D03*
%TD*%
%TO.P,REF\u002A\u002A,*%
%TO.N,*%
X226060000Y-30480000D03*
%TD*%
%TO.P,REF\u002A\u002A,*%
%TO.N,*%
X231140000Y-38100000D03*
%TD*%
%TO.P,REF\u002A\u002A,*%
%TO.N,*%
X193040000Y-99060000D03*
%TD*%
%TO.P,REF\u002A\u002A,*%
%TO.N,*%
X195580000Y-33020000D03*
%TD*%
%TO.P,REF\u002A\u002A,*%
%TO.N,*%
X170180000Y-86360000D03*
%TD*%
%TO.P,REF\u002A\u002A,*%
%TO.N,*%
X215900000Y-20320000D03*
%TD*%
%TO.P,REF\u002A\u002A,*%
%TO.N,*%
X203200000Y-81280000D03*
%TD*%
%TO.P,REF\u002A\u002A,*%
%TO.N,*%
X185420000Y-45720000D03*
%TD*%
%TO.P,REF\u002A\u002A,*%
%TO.N,*%
X160020000Y-30480000D03*
%TD*%
%TO.P,REF\u002A\u002A,*%
%TO.N,*%
X233680000Y-25400000D03*
%TD*%
%TO.P,REF\u002A\u002A,*%
%TO.N,*%
X203200000Y-48260000D03*
%TD*%
%TO.P,REF\u002A\u002A,*%
%TO.N,*%
X172720000Y-55880000D03*
%TD*%
%TO.P,REF\u002A\u002A,*%
%TO.N,*%
X182880000Y-55880000D03*
%TD*%
%TO.P,REF\u002A\u002A,*%
%TO.N,*%
X200660000Y-40640000D03*
%TD*%
%TO.P,REF\u002A\u002A,*%
%TO.N,*%
X177800000Y-40640000D03*
%TD*%
%TO.P,REF\u002A\u002A,*%
%TO.N,*%
X210820000Y-93980000D03*
%TD*%
%TO.P,REF\u002A\u002A,*%
%TO.N,*%
X203200000Y-58420000D03*
%TD*%
%TO.P,REF\u002A\u002A,*%
%TO.N,*%
X187960000Y-43180000D03*
%TD*%
%TO.P,REF\u002A\u002A,*%
%TO.N,*%
X157480000Y-76200000D03*
%TD*%
%TO.P,REF\u002A\u002A,*%
%TO.N,*%
X231140000Y-86360000D03*
%TD*%
%TO.P,REF\u002A\u002A,*%
%TO.N,*%
X157480000Y-91440000D03*
%TD*%
%TO.P,REF\u002A\u002A,*%
%TO.N,*%
X238760000Y-60960000D03*
%TD*%
%TO.P,REF\u002A\u002A,*%
%TO.N,*%
X190500000Y-81280000D03*
%TD*%
%TO.P,REF\u002A\u002A,*%
%TO.N,*%
X177800000Y-25400000D03*
%TD*%
%TO.P,REF\u002A\u002A,*%
%TO.N,*%
X213360000Y-81280000D03*
%TD*%
%TO.P,REF\u002A\u002A,*%
%TO.N,*%
X198120000Y-73660000D03*
%TD*%
%TO.P,REF\u002A\u002A,*%
%TO.N,*%
X170180000Y-38100000D03*
%TD*%
%TO.P,REF\u002A\u002A,*%
%TO.N,*%
X165100000Y-88900000D03*
%TD*%
%TO.P,REF\u002A\u002A,*%
%TO.N,*%
X226060000Y-71120000D03*
%TD*%
%TO.P,REF\u002A\u002A,*%
%TO.N,*%
X246380000Y-40640000D03*
%TD*%
%TO.P,REF\u002A\u002A,*%
%TO.N,*%
X180340000Y-91440000D03*
%TD*%
%TO.P,,*%
%TO.N,*%
X208280000Y-101600000D03*
%TD*%
%TO.P,REF\u002A\u002A,*%
%TO.N,*%
X215900000Y-40640000D03*
%TD*%
%TO.P,REF\u002A\u002A,*%
%TO.N,*%
X213360000Y-101600000D03*
%TD*%
%TO.P,REF\u002A\u002A,*%
%TO.N,*%
X160020000Y-22860000D03*
%TD*%
%TO.P,REF\u002A\u002A,*%
%TO.N,*%
X185420000Y-50800000D03*
%TD*%
%TO.P,REF\u002A\u002A,*%
%TO.N,*%
X226060000Y-73660000D03*
%TD*%
%TO.P,,*%
%TO.N,*%
X210820000Y-99060000D03*
%TD*%
%TO.P,REF\u002A\u002A,*%
%TO.N,*%
X205740000Y-91440000D03*
%TD*%
%TO.P,REF\u002A\u002A,*%
%TO.N,*%
X170180000Y-60960000D03*
%TD*%
%TO.P,REF\u002A\u002A,*%
%TO.N,*%
X243840000Y-86360000D03*
%TD*%
%TO.P,REF\u002A\u002A,*%
%TO.N,*%
X226060000Y-17780000D03*
%TD*%
%TO.P,REF\u002A\u002A,*%
%TO.N,*%
X236220000Y-73660000D03*
%TD*%
%TO.P,REF\u002A\u002A,*%
%TO.N,*%
X182880000Y-53340000D03*
%TD*%
%TO.P,REF\u002A\u002A,*%
%TO.N,*%
X200660000Y-86360000D03*
%TD*%
%TO.P,REF\u002A\u002A,*%
%TO.N,*%
X220980000Y-83820000D03*
%TD*%
%TO.P,REF\u002A\u002A,*%
%TO.N,*%
X218440000Y-25400000D03*
%TD*%
%TO.P,REF\u002A\u002A,*%
%TO.N,*%
X223520000Y-71120000D03*
%TD*%
%TO.P,REF\u002A\u002A,*%
%TO.N,*%
X162560000Y-91440000D03*
%TD*%
%TO.P,REF\u002A\u002A,*%
%TO.N,*%
X236220000Y-68580000D03*
%TD*%
%TO.P,REF\u002A\u002A,*%
%TO.N,*%
X182880000Y-20320000D03*
%TD*%
%TO.P,REF\u002A\u002A,*%
%TO.N,*%
X175260000Y-71120000D03*
%TD*%
%TO.P,REF\u002A\u002A,*%
%TO.N,*%
X182880000Y-48260000D03*
%TD*%
%TO.P,REF\u002A\u002A,*%
%TO.N,*%
X165100000Y-33020000D03*
%TD*%
%TO.P,REF\u002A\u002A,*%
%TO.N,*%
X228600000Y-48260000D03*
%TD*%
%TO.P,REF\u002A\u002A,*%
%TO.N,*%
X210820000Y-91440000D03*
%TD*%
%TO.P,REF\u002A\u002A,*%
%TO.N,*%
X187960000Y-71120000D03*
%TD*%
%TO.P,REF\u002A\u002A,*%
%TO.N,*%
X180340000Y-99060000D03*
%TD*%
%TO.P,REF\u002A\u002A,*%
%TO.N,*%
X177800000Y-63500000D03*
%TD*%
%TO.P,REF\u002A\u002A,*%
%TO.N,*%
X185420000Y-20320000D03*
%TD*%
%TO.P,REF\u002A\u002A,*%
%TO.N,*%
X210820000Y-66040000D03*
%TD*%
%TO.P,REF\u002A\u002A,*%
%TO.N,*%
X251460000Y-45720000D03*
%TD*%
%TO.P,,*%
%TO.N,*%
X238760000Y-101600000D03*
%TD*%
%TO.P,REF\u002A\u002A,*%
%TO.N,*%
X162560000Y-83820000D03*
%TD*%
%TO.P,REF\u002A\u002A,*%
%TO.N,*%
X246380000Y-48260000D03*
%TD*%
%TO.P,REF\u002A\u002A,*%
%TO.N,*%
X190500000Y-78740000D03*
%TD*%
%TO.P,REF\u002A\u002A,*%
%TO.N,*%
X205740000Y-27940000D03*
%TD*%
%TO.P,REF\u002A\u002A,*%
%TO.N,*%
X231140000Y-35560000D03*
%TD*%
%TO.P,REF\u002A\u002A,*%
%TO.N,*%
X200660000Y-78740000D03*
%TD*%
%TO.P,,*%
%TO.N,*%
X241300000Y-99060000D03*
%TD*%
%TO.P,REF\u002A\u002A,*%
%TO.N,*%
X160020000Y-25400000D03*
%TD*%
%TO.P,REF\u002A\u002A,*%
%TO.N,*%
X200660000Y-81280000D03*
%TD*%
%TO.P,REF\u002A\u002A,*%
%TO.N,*%
X238760000Y-43180000D03*
%TD*%
%TO.P,REF\u002A\u002A,*%
%TO.N,*%
X251460000Y-40640000D03*
%TD*%
%TO.P,REF\u002A\u002A,*%
%TO.N,*%
X238760000Y-20320000D03*
%TD*%
%TO.P,REF\u002A\u002A,*%
%TO.N,*%
X182880000Y-78740000D03*
%TD*%
%TO.P,REF\u002A\u002A,*%
%TO.N,*%
X218440000Y-71120000D03*
%TD*%
%TO.P,REF\u002A\u002A,*%
%TO.N,*%
X193040000Y-86360000D03*
%TD*%
%TO.P,REF\u002A\u002A,*%
%TO.N,*%
X223520000Y-58420000D03*
%TD*%
%TO.P,REF\u002A\u002A,*%
%TO.N,*%
X236220000Y-43180000D03*
%TD*%
%TO.P,REF\u002A\u002A,*%
%TO.N,*%
X228600000Y-68580000D03*
%TD*%
%TO.P,REF\u002A\u002A,*%
%TO.N,*%
X238760000Y-35560000D03*
%TD*%
%TO.P,REF\u002A\u002A,*%
%TO.N,*%
X208280000Y-93980000D03*
%TD*%
%TO.P,REF\u002A\u002A,*%
%TO.N,*%
X238760000Y-55880000D03*
%TD*%
%TO.P,REF\u002A\u002A,*%
%TO.N,*%
X170180000Y-66040000D03*
%TD*%
%TO.P,REF\u002A\u002A,*%
%TO.N,*%
X177800000Y-50800000D03*
%TD*%
%TO.P,REF\u002A\u002A,*%
%TO.N,*%
X210820000Y-76200000D03*
%TD*%
%TO.P,REF\u002A\u002A,*%
%TO.N,*%
X160020000Y-20320000D03*
%TD*%
%TO.P,REF\u002A\u002A,*%
%TO.N,*%
X246380000Y-25400000D03*
%TD*%
%TO.P,REF\u002A\u002A,*%
%TO.N,*%
X231140000Y-81280000D03*
%TD*%
%TO.P,REF\u002A\u002A,*%
%TO.N,*%
X185420000Y-93980000D03*
%TD*%
%TO.P,REF\u002A\u002A,*%
%TO.N,*%
X243840000Y-68580000D03*
%TD*%
%TO.P,REF\u002A\u002A,*%
%TO.N,*%
X157480000Y-58420000D03*
%TD*%
%TO.P,REF\u002A\u002A,*%
%TO.N,*%
X198120000Y-66040000D03*
%TD*%
%TO.P,REF\u002A\u002A,*%
%TO.N,*%
X241300000Y-50800000D03*
%TD*%
%TO.P,REF\u002A\u002A,*%
%TO.N,*%
X193040000Y-63500000D03*
%TD*%
%TO.P,REF\u002A\u002A,*%
%TO.N,*%
X203200000Y-63500000D03*
%TD*%
%TO.P,REF\u002A\u002A,*%
%TO.N,*%
X243840000Y-27940000D03*
%TD*%
%TO.P,REF\u002A\u002A,*%
%TO.N,*%
X198120000Y-83820000D03*
%TD*%
%TO.P,REF\u002A\u002A,*%
%TO.N,*%
X170180000Y-55880000D03*
%TD*%
%TO.P,REF\u002A\u002A,*%
%TO.N,*%
X231140000Y-93980000D03*
%TD*%
%TO.P,REF\u002A\u002A,*%
%TO.N,*%
X185420000Y-22860000D03*
%TD*%
%TO.P,REF\u002A\u002A,*%
%TO.N,*%
X226060000Y-60960000D03*
%TD*%
%TO.P,REF\u002A\u002A,*%
%TO.N,*%
X203200000Y-99060000D03*
%TD*%
%TO.P,REF\u002A\u002A,*%
%TO.N,*%
X205740000Y-81280000D03*
%TD*%
%TO.P,REF\u002A\u002A,*%
%TO.N,*%
X243840000Y-71120000D03*
%TD*%
%TO.P,REF\u002A\u002A,*%
%TO.N,*%
X233680000Y-68580000D03*
%TD*%
%TO.P,REF\u002A\u002A,*%
%TO.N,*%
X172720000Y-45720000D03*
%TD*%
%TO.P,REF\u002A\u002A,*%
%TO.N,*%
X187960000Y-50800000D03*
%TD*%
%TO.P,REF\u002A\u002A,*%
%TO.N,*%
X205740000Y-66040000D03*
%TD*%
%TO.P,REF\u002A\u002A,*%
%TO.N,*%
X162560000Y-68580000D03*
%TD*%
%TO.P,REF\u002A\u002A,*%
%TO.N,*%
X215900000Y-76200000D03*
%TD*%
%TO.P,REF\u002A\u002A,*%
%TO.N,*%
X193040000Y-76200000D03*
%TD*%
%TO.P,REF\u002A\u002A,*%
%TO.N,*%
X160020000Y-50800000D03*
%TD*%
%TO.P,REF\u002A\u002A,*%
%TO.N,*%
X220980000Y-40640000D03*
%TD*%
%TO.P,REF\u002A\u002A,*%
%TO.N,*%
X223520000Y-53340000D03*
%TD*%
%TO.P,REF\u002A\u002A,*%
%TO.N,*%
X177800000Y-86360000D03*
%TD*%
%TO.P,REF\u002A\u002A,*%
%TO.N,*%
X160020000Y-35560000D03*
%TD*%
%TO.P,REF\u002A\u002A,*%
%TO.N,*%
X193040000Y-66040000D03*
%TD*%
%TO.P,REF\u002A\u002A,*%
%TO.N,*%
X241300000Y-22860000D03*
%TD*%
%TO.P,REF\u002A\u002A,*%
%TO.N,*%
X233680000Y-20320000D03*
%TD*%
%TO.P,REF\u002A\u002A,*%
%TO.N,*%
X233680000Y-38100000D03*
%TD*%
%TO.P,REF\u002A\u002A,*%
%TO.N,*%
X248920000Y-20320000D03*
%TD*%
%TO.P,REF\u002A\u002A,*%
%TO.N,*%
X190500000Y-55880000D03*
%TD*%
%TO.P,REF\u002A\u002A,*%
%TO.N,*%
X223520000Y-38100000D03*
%TD*%
%TO.P,REF\u002A\u002A,*%
%TO.N,*%
X203200000Y-35560000D03*
%TD*%
%TO.P,REF\u002A\u002A,*%
%TO.N,*%
X218440000Y-30480000D03*
%TD*%
%TO.P,REF\u002A\u002A,*%
%TO.N,*%
X187960000Y-81280000D03*
%TD*%
%TO.P,REF\u002A\u002A,*%
%TO.N,*%
X205740000Y-60960000D03*
%TD*%
%TO.P,REF\u002A\u002A,*%
%TO.N,*%
X190500000Y-88900000D03*
%TD*%
%TO.P,REF\u002A\u002A,*%
%TO.N,*%
X248920000Y-22860000D03*
%TD*%
%TO.P,REF\u002A\u002A,*%
%TO.N,*%
X165100000Y-48260000D03*
%TD*%
%TO.P,REF\u002A\u002A,*%
%TO.N,*%
X185420000Y-17780000D03*
%TD*%
%TO.P,REF\u002A\u002A,*%
%TO.N,*%
X236220000Y-35560000D03*
%TD*%
%TO.P,REF\u002A\u002A,*%
%TO.N,*%
X241300000Y-78740000D03*
%TD*%
%TO.P,REF\u002A\u002A,*%
%TO.N,*%
X238760000Y-48260000D03*
%TD*%
%TO.P,REF\u002A\u002A,*%
%TO.N,*%
X228600000Y-91440000D03*
%TD*%
%TO.P,,*%
%TO.N,*%
X193040000Y-101600000D03*
%TD*%
%TO.P,REF\u002A\u002A,*%
%TO.N,*%
X210820000Y-71120000D03*
%TD*%
%TO.P,,*%
%TO.N,*%
X231140000Y-99060000D03*
%TD*%
%TO.P,REF\u002A\u002A,*%
%TO.N,*%
X172720000Y-93980000D03*
%TD*%
%TO.P,REF\u002A\u002A,*%
%TO.N,*%
X165100000Y-38100000D03*
%TD*%
%TO.P,,*%
%TO.N,*%
X246380000Y-99060000D03*
%TD*%
%TO.P,REF\u002A\u002A,*%
%TO.N,*%
X251460000Y-60960000D03*
%TD*%
%TO.P,REF\u002A\u002A,*%
%TO.N,*%
X193040000Y-40640000D03*
%TD*%
%TO.P,REF\u002A\u002A,*%
%TO.N,*%
X251460000Y-38100000D03*
%TD*%
%TO.P,REF\u002A\u002A,*%
%TO.N,*%
X160020000Y-86360000D03*
%TD*%
%TO.P,REF\u002A\u002A,*%
%TO.N,*%
X254000000Y-76200000D03*
%TD*%
%TO.P,REF\u002A\u002A,*%
%TO.N,*%
X175260000Y-88900000D03*
%TD*%
%TO.P,REF\u002A\u002A,*%
%TO.N,*%
X185420000Y-68580000D03*
%TD*%
%TO.P,REF\u002A\u002A,*%
%TO.N,*%
X213360000Y-50800000D03*
%TD*%
%TO.P,REF\u002A\u002A,*%
%TO.N,*%
X248920000Y-45720000D03*
%TD*%
%TO.P,REF\u002A\u002A,*%
%TO.N,*%
X182880000Y-76200000D03*
%TD*%
%TO.P,REF\u002A\u002A,*%
%TO.N,*%
X218440000Y-83820000D03*
%TD*%
%TO.P,REF\u002A\u002A,*%
%TO.N,*%
X213360000Y-45720000D03*
%TD*%
%TO.P,REF\u002A\u002A,*%
%TO.N,*%
X220980000Y-63500000D03*
%TD*%
%TO.P,REF\u002A\u002A,*%
%TO.N,*%
X218440000Y-101600000D03*
%TD*%
%TO.P,REF\u002A\u002A,*%
%TO.N,*%
X185420000Y-48260000D03*
%TD*%
%TO.P,REF\u002A\u002A,*%
%TO.N,*%
X190500000Y-27940000D03*
%TD*%
%TO.P,REF\u002A\u002A,*%
%TO.N,*%
X170180000Y-101600000D03*
%TD*%
%TO.P,REF\u002A\u002A,*%
%TO.N,*%
X215900000Y-45720000D03*
%TD*%
%TO.P,REF\u002A\u002A,*%
%TO.N,*%
X218440000Y-17780000D03*
%TD*%
%TO.P,REF\u002A\u002A,*%
%TO.N,*%
X213360000Y-53340000D03*
%TD*%
%TO.P,REF\u002A\u002A,*%
%TO.N,*%
X177800000Y-101600000D03*
%TD*%
%TO.P,REF\u002A\u002A,*%
%TO.N,*%
X254000000Y-96520000D03*
%TD*%
%TO.P,REF\u002A\u002A,*%
%TO.N,*%
X160020000Y-27940000D03*
%TD*%
%TO.P,REF\u002A\u002A,*%
%TO.N,*%
X246380000Y-83820000D03*
%TD*%
%TO.P,REF\u002A\u002A,*%
%TO.N,*%
X208280000Y-58420000D03*
%TD*%
%TO.P,REF\u002A\u002A,*%
%TO.N,*%
X254000000Y-43180000D03*
%TD*%
%TO.P,REF\u002A\u002A,*%
%TO.N,*%
X198120000Y-63500000D03*
%TD*%
%TO.P,REF\u002A\u002A,*%
%TO.N,*%
X248920000Y-78740000D03*
%TD*%
%TO.P,REF\u002A\u002A,*%
%TO.N,*%
X236220000Y-45720000D03*
%TD*%
%TO.P,REF\u002A\u002A,*%
%TO.N,*%
X157480000Y-96520000D03*
%TD*%
%TO.P,REF\u002A\u002A,*%
%TO.N,*%
X160020000Y-73660000D03*
%TD*%
%TO.P,REF\u002A\u002A,*%
%TO.N,*%
X238760000Y-68580000D03*
%TD*%
%TO.P,REF\u002A\u002A,*%
%TO.N,*%
X213360000Y-40640000D03*
%TD*%
%TO.P,REF\u002A\u002A,*%
%TO.N,*%
X193040000Y-50800000D03*
%TD*%
%TO.P,REF\u002A\u002A,*%
%TO.N,*%
X238760000Y-40640000D03*
%TD*%
%TO.P,REF\u002A\u002A,*%
%TO.N,*%
X251460000Y-66040000D03*
%TD*%
%TO.P,REF\u002A\u002A,*%
%TO.N,*%
X175260000Y-43180000D03*
%TD*%
%TO.P,REF\u002A\u002A,*%
%TO.N,*%
X195580000Y-91440000D03*
%TD*%
%TO.P,REF\u002A\u002A,*%
%TO.N,*%
X200660000Y-45720000D03*
%TD*%
%TO.P,REF\u002A\u002A,*%
%TO.N,*%
X205740000Y-88900000D03*
%TD*%
%TO.P,REF\u002A\u002A,*%
%TO.N,*%
X233680000Y-35560000D03*
%TD*%
%TO.P,REF\u002A\u002A,*%
%TO.N,*%
X248920000Y-25400000D03*
%TD*%
%TO.P,REF\u002A\u002A,*%
%TO.N,*%
X215900000Y-48260000D03*
%TD*%
%TO.P,REF\u002A\u002A,*%
%TO.N,*%
X248920000Y-93980000D03*
%TD*%
%TO.P,REF\u002A\u002A,*%
%TO.N,*%
X251460000Y-71120000D03*
%TD*%
%TO.P,REF\u002A\u002A,*%
%TO.N,*%
X236220000Y-58420000D03*
%TD*%
%TO.P,REF\u002A\u002A,*%
%TO.N,*%
X236220000Y-88900000D03*
%TD*%
%TO.P,REF\u002A\u002A,*%
%TO.N,*%
X251460000Y-53340000D03*
%TD*%
%TO.P,REF\u002A\u002A,*%
%TO.N,*%
X241300000Y-45720000D03*
%TD*%
%TO.P,REF\u002A\u002A,*%
%TO.N,*%
X170180000Y-33020000D03*
%TD*%
%TO.P,REF\u002A\u002A,*%
%TO.N,*%
X162560000Y-93980000D03*
%TD*%
%TO.P,REF\u002A\u002A,*%
%TO.N,*%
X218440000Y-76200000D03*
%TD*%
%TO.P,REF\u002A\u002A,*%
%TO.N,*%
X231140000Y-40640000D03*
%TD*%
%TO.P,REF\u002A\u002A,*%
%TO.N,*%
X238760000Y-53340000D03*
%TD*%
%TO.P,REF\u002A\u002A,*%
%TO.N,*%
X205740000Y-53340000D03*
%TD*%
%TO.P,REF\u002A\u002A,*%
%TO.N,*%
X180340000Y-101600000D03*
%TD*%
%TO.P,REF\u002A\u002A,*%
%TO.N,*%
X198120000Y-22860000D03*
%TD*%
%TO.P,REF\u002A\u002A,*%
%TO.N,*%
X198120000Y-88900000D03*
%TD*%
%TO.P,REF\u002A\u002A,*%
%TO.N,*%
X220980000Y-27940000D03*
%TD*%
%TO.P,REF\u002A\u002A,*%
%TO.N,*%
X195580000Y-71120000D03*
%TD*%
%TO.P,REF\u002A\u002A,*%
%TO.N,*%
X248920000Y-17780000D03*
%TD*%
%TO.P,REF\u002A\u002A,*%
%TO.N,*%
X200660000Y-43180000D03*
%TD*%
%TO.P,REF\u002A\u002A,*%
%TO.N,*%
X187960000Y-101600000D03*
%TD*%
%TO.P,REF\u002A\u002A,*%
%TO.N,*%
X170180000Y-99060000D03*
%TD*%
%TO.P,REF\u002A\u002A,*%
%TO.N,*%
X165100000Y-86360000D03*
%TD*%
%TO.P,REF\u002A\u002A,*%
%TO.N,*%
X208280000Y-71120000D03*
%TD*%
%TO.P,REF\u002A\u002A,*%
%TO.N,*%
X195580000Y-55880000D03*
%TD*%
%TO.P,REF\u002A\u002A,*%
%TO.N,*%
X251460000Y-63500000D03*
%TD*%
%TO.P,REF\u002A\u002A,*%
%TO.N,*%
X175260000Y-91440000D03*
%TD*%
%TO.P,REF\u002A\u002A,*%
%TO.N,*%
X238760000Y-81280000D03*
%TD*%
%TO.P,REF\u002A\u002A,*%
%TO.N,*%
X215900000Y-81280000D03*
%TD*%
%TO.P,REF\u002A\u002A,*%
%TO.N,*%
X203200000Y-73660000D03*
%TD*%
%TO.P,REF\u002A\u002A,*%
%TO.N,*%
X238760000Y-101600000D03*
%TD*%
%TO.P,REF\u002A\u002A,*%
%TO.N,*%
X177800000Y-73660000D03*
%TD*%
%TO.P,REF\u002A\u002A,*%
%TO.N,*%
X190500000Y-20320000D03*
%TD*%
%TO.P,REF\u002A\u002A,*%
%TO.N,*%
X210820000Y-40640000D03*
%TD*%
%TO.P,REF\u002A\u002A,*%
%TO.N,*%
X218440000Y-99060000D03*
%TD*%
%TO.P,REF\u002A\u002A,*%
%TO.N,*%
X248920000Y-63500000D03*
%TD*%
%TO.P,REF\u002A\u002A,*%
%TO.N,*%
X195580000Y-68580000D03*
%TD*%
%TO.P,REF\u002A\u002A,*%
%TO.N,*%
X223520000Y-33020000D03*
%TD*%
%TO.P,REF\u002A\u002A,*%
%TO.N,*%
X243840000Y-99060000D03*
%TD*%
%TO.P,REF\u002A\u002A,*%
%TO.N,*%
X200660000Y-83820000D03*
%TD*%
%TO.P,REF\u002A\u002A,*%
%TO.N,*%
X198120000Y-50800000D03*
%TD*%
%TO.P,REF\u002A\u002A,*%
%TO.N,*%
X233680000Y-17780000D03*
%TD*%
%TO.P,REF\u002A\u002A,*%
%TO.N,*%
X210820000Y-99060000D03*
%TD*%
%TO.P,REF\u002A\u002A,*%
%TO.N,*%
X205740000Y-30480000D03*
%TD*%
%TO.P,,*%
%TO.N,*%
X220980000Y-99060000D03*
%TD*%
%TO.P,REF\u002A\u002A,*%
%TO.N,*%
X193040000Y-25400000D03*
%TD*%
%TO.P,REF\u002A\u002A,*%
%TO.N,*%
X215900000Y-93980000D03*
%TD*%
%TO.P,REF\u002A\u002A,*%
%TO.N,*%
X167640000Y-58420000D03*
%TD*%
%TO.P,REF\u002A\u002A,*%
%TO.N,*%
X200660000Y-27940000D03*
%TD*%
%TO.P,REF\u002A\u002A,*%
%TO.N,*%
X251460000Y-96520000D03*
%TD*%
%TO.P,REF\u002A\u002A,*%
%TO.N,*%
X172720000Y-35560000D03*
%TD*%
%TO.P,REF\u002A\u002A,*%
%TO.N,*%
X251460000Y-33020000D03*
%TD*%
%TO.P,REF\u002A\u002A,*%
%TO.N,*%
X175260000Y-58420000D03*
%TD*%
%TO.P,REF\u002A\u002A,*%
%TO.N,*%
X251460000Y-30480000D03*
%TD*%
%TO.P,REF\u002A\u002A,*%
%TO.N,*%
X160020000Y-88900000D03*
%TD*%
%TO.P,REF\u002A\u002A,*%
%TO.N,*%
X170180000Y-63500000D03*
%TD*%
%TO.P,REF\u002A\u002A,*%
%TO.N,*%
X223520000Y-45720000D03*
%TD*%
%TO.P,REF\u002A\u002A,*%
%TO.N,*%
X218440000Y-53340000D03*
%TD*%
%TO.P,REF\u002A\u002A,*%
%TO.N,*%
X215900000Y-22860000D03*
%TD*%
%TO.P,REF\u002A\u002A,*%
%TO.N,*%
X162560000Y-33020000D03*
%TD*%
%TO.P,REF\u002A\u002A,*%
%TO.N,*%
X205740000Y-33020000D03*
%TD*%
%TO.P,REF\u002A\u002A,*%
%TO.N,*%
X215900000Y-55880000D03*
%TD*%
%TO.P,REF\u002A\u002A,*%
%TO.N,*%
X243840000Y-73660000D03*
%TD*%
%TO.P,REF\u002A\u002A,*%
%TO.N,*%
X203200000Y-38100000D03*
%TD*%
%TO.P,REF\u002A\u002A,*%
%TO.N,*%
X248920000Y-66040000D03*
%TD*%
%TO.P,REF\u002A\u002A,*%
%TO.N,*%
X190500000Y-99060000D03*
%TD*%
%TO.P,REF\u002A\u002A,*%
%TO.N,*%
X248920000Y-99060000D03*
%TD*%
%TO.P,REF\u002A\u002A,*%
%TO.N,*%
X218440000Y-81280000D03*
%TD*%
%TO.P,REF\u002A\u002A,*%
%TO.N,*%
X203200000Y-40640000D03*
%TD*%
%TO.P,REF\u002A\u002A,*%
%TO.N,*%
X228600000Y-38100000D03*
%TD*%
%TO.P,REF\u002A\u002A,*%
%TO.N,*%
X167640000Y-78740000D03*
%TD*%
%TO.P,REF\u002A\u002A,*%
%TO.N,*%
X177800000Y-22860000D03*
%TD*%
%TO.P,REF\u002A\u002A,*%
%TO.N,*%
X177800000Y-30480000D03*
%TD*%
%TO.P,REF\u002A\u002A,*%
%TO.N,*%
X210820000Y-33020000D03*
%TD*%
%TO.P,REF\u002A\u002A,*%
%TO.N,*%
X162560000Y-63500000D03*
%TD*%
%TO.P,REF\u002A\u002A,*%
%TO.N,*%
X200660000Y-30480000D03*
%TD*%
%TO.P,REF\u002A\u002A,*%
%TO.N,*%
X231140000Y-45720000D03*
%TD*%
%TO.P,REF\u002A\u002A,*%
%TO.N,*%
X162560000Y-78740000D03*
%TD*%
%TO.P,REF\u002A\u002A,*%
%TO.N,*%
X193040000Y-17780000D03*
%TD*%
%TO.P,REF\u002A\u002A,*%
%TO.N,*%
X157480000Y-35560000D03*
%TD*%
%TO.P,REF\u002A\u002A,*%
%TO.N,*%
X208280000Y-66040000D03*
%TD*%
%TO.P,REF\u002A\u002A,*%
%TO.N,*%
X241300000Y-20320000D03*
%TD*%
%TO.P,REF\u002A\u002A,*%
%TO.N,*%
X223520000Y-40640000D03*
%TD*%
%TO.P,REF\u002A\u002A,*%
%TO.N,*%
X200660000Y-38100000D03*
%TD*%
%TO.P,REF\u002A\u002A,*%
%TO.N,*%
X165100000Y-66040000D03*
%TD*%
%TO.P,REF\u002A\u002A,*%
%TO.N,*%
X175260000Y-53340000D03*
%TD*%
%TO.P,REF\u002A\u002A,*%
%TO.N,*%
X233680000Y-91440000D03*
%TD*%
%TO.P,REF\u002A\u002A,*%
%TO.N,*%
X167640000Y-55880000D03*
%TD*%
%TO.P,REF\u002A\u002A,*%
%TO.N,*%
X246380000Y-66040000D03*
%TD*%
%TO.P,REF\u002A\u002A,*%
%TO.N,*%
X167640000Y-76200000D03*
%TD*%
%TO.P,REF\u002A\u002A,*%
%TO.N,*%
X175260000Y-93980000D03*
%TD*%
%TO.P,REF\u002A\u002A,*%
%TO.N,*%
X254000000Y-93980000D03*
%TD*%
%TO.P,REF\u002A\u002A,*%
%TO.N,*%
X182880000Y-99060000D03*
%TD*%
%TO.P,REF\u002A\u002A,*%
%TO.N,*%
X195580000Y-20320000D03*
%TD*%
%TO.P,REF\u002A\u002A,*%
%TO.N,*%
X160020000Y-83820000D03*
%TD*%
%TO.P,REF\u002A\u002A,*%
%TO.N,*%
X246380000Y-73660000D03*
%TD*%
%TO.P,REF\u002A\u002A,*%
%TO.N,*%
X241300000Y-25400000D03*
%TD*%
%TO.P,REF\u002A\u002A,*%
%TO.N,*%
X215900000Y-50800000D03*
%TD*%
%TO.P,REF\u002A\u002A,*%
%TO.N,*%
X241300000Y-60960000D03*
%TD*%
%TO.P,REF\u002A\u002A,*%
%TO.N,*%
X200660000Y-99060000D03*
%TD*%
%TO.P,REF\u002A\u002A,*%
%TO.N,*%
X228600000Y-33020000D03*
%TD*%
%TO.P,REF\u002A\u002A,*%
%TO.N,*%
X231140000Y-63500000D03*
%TD*%
%TO.P,REF\u002A\u002A,*%
%TO.N,*%
X254000000Y-88900000D03*
%TD*%
%TO.P,REF\u002A\u002A,*%
%TO.N,*%
X205740000Y-40640000D03*
%TD*%
%TO.P,REF\u002A\u002A,*%
%TO.N,*%
X190500000Y-45720000D03*
%TD*%
%TO.P,REF\u002A\u002A,*%
%TO.N,*%
X208280000Y-60960000D03*
%TD*%
%TO.P,REF\u002A\u002A,*%
%TO.N,*%
X220980000Y-35560000D03*
%TD*%
%TO.P,REF\u002A\u002A,*%
%TO.N,*%
X167640000Y-38100000D03*
%TD*%
%TO.P,REF\u002A\u002A,*%
%TO.N,*%
X195580000Y-48260000D03*
%TD*%
%TO.P,REF\u002A\u002A,*%
%TO.N,*%
X165100000Y-68580000D03*
%TD*%
%TO.P,REF\u002A\u002A,*%
%TO.N,*%
X157480000Y-40640000D03*
%TD*%
%TO.P,REF\u002A\u002A,*%
%TO.N,*%
X195580000Y-93980000D03*
%TD*%
%TO.P,REF\u002A\u002A,*%
%TO.N,*%
X195580000Y-40640000D03*
%TD*%
%TO.P,REF\u002A\u002A,*%
%TO.N,*%
X223520000Y-73660000D03*
%TD*%
%TO.P,REF\u002A\u002A,*%
%TO.N,*%
X160020000Y-58420000D03*
%TD*%
%TO.P,REF\u002A\u002A,*%
%TO.N,*%
X238760000Y-91440000D03*
%TD*%
%TO.P,REF\u002A\u002A,*%
%TO.N,*%
X213360000Y-35560000D03*
%TD*%
%TO.P,REF\u002A\u002A,*%
%TO.N,*%
X241300000Y-43180000D03*
%TD*%
%TO.P,REF\u002A\u002A,*%
%TO.N,*%
X160020000Y-43180000D03*
%TD*%
%TO.P,REF\u002A\u002A,*%
%TO.N,*%
X167640000Y-30480000D03*
%TD*%
%TO.P,REF\u002A\u002A,*%
%TO.N,*%
X236220000Y-38100000D03*
%TD*%
%TO.P,REF\u002A\u002A,*%
%TO.N,*%
X160020000Y-91440000D03*
%TD*%
%TO.P,REF\u002A\u002A,*%
%TO.N,*%
X236220000Y-66040000D03*
%TD*%
%TO.P,REF\u002A\u002A,*%
%TO.N,*%
X175260000Y-81280000D03*
%TD*%
%TO.P,REF\u002A\u002A,*%
%TO.N,*%
X233680000Y-45720000D03*
%TD*%
%TO.P,REF\u002A\u002A,*%
%TO.N,*%
X208280000Y-50800000D03*
%TD*%
%TO.P,REF\u002A\u002A,*%
%TO.N,*%
X187960000Y-25400000D03*
%TD*%
%TO.P,REF\u002A\u002A,*%
%TO.N,*%
X193040000Y-83820000D03*
%TD*%
%TO.P,REF\u002A\u002A,*%
%TO.N,*%
X218440000Y-73660000D03*
%TD*%
%TO.P,REF\u002A\u002A,*%
%TO.N,*%
X203200000Y-53340000D03*
%TD*%
%TO.P,REF\u002A\u002A,*%
%TO.N,*%
X241300000Y-91440000D03*
%TD*%
%TO.P,REF\u002A\u002A,*%
%TO.N,*%
X185420000Y-88900000D03*
%TD*%
%TO.P,REF\u002A\u002A,*%
%TO.N,*%
X226060000Y-101600000D03*
%TD*%
%TO.P,REF\u002A\u002A,*%
%TO.N,*%
X220980000Y-73660000D03*
%TD*%
%TO.P,REF\u002A\u002A,*%
%TO.N,*%
X167640000Y-88900000D03*
%TD*%
%TO.P,REF\u002A\u002A,*%
%TO.N,*%
X226060000Y-43180000D03*
%TD*%
%TO.P,REF\u002A\u002A,*%
%TO.N,*%
X238760000Y-17780000D03*
%TD*%
%TO.P,REF\u002A\u002A,*%
%TO.N,*%
X226060000Y-66040000D03*
%TD*%
%TO.P,REF\u002A\u002A,*%
%TO.N,*%
X187960000Y-63500000D03*
%TD*%
%TO.P,REF\u002A\u002A,*%
%TO.N,*%
X243840000Y-22860000D03*
%TD*%
%TO.P,REF\u002A\u002A,*%
%TO.N,*%
X251460000Y-76200000D03*
%TD*%
%TO.P,REF\u002A\u002A,*%
%TO.N,*%
X210820000Y-43180000D03*
%TD*%
%TO.P,REF\u002A\u002A,*%
%TO.N,*%
X162560000Y-86360000D03*
%TD*%
%TO.P,REF\u002A\u002A,*%
%TO.N,*%
X236220000Y-22860000D03*
%TD*%
%TO.P,REF\u002A\u002A,*%
%TO.N,*%
X175260000Y-20320000D03*
%TD*%
%TO.P,REF\u002A\u002A,*%
%TO.N,*%
X254000000Y-73660000D03*
%TD*%
%TO.P,REF\u002A\u002A,*%
%TO.N,*%
X238760000Y-50800000D03*
%TD*%
%TO.P,REF\u002A\u002A,*%
%TO.N,*%
X180340000Y-50800000D03*
%TD*%
%TO.P,,*%
%TO.N,*%
X172720000Y-101600000D03*
%TD*%
D14*
%TO.P, ,32*%
%TO.N,N/C*%
X167640000Y-109220000D03*
%TO.P, ,33*%
X170180000Y-109220000D03*
%TO.P, ,34*%
X172720000Y-109220000D03*
%TO.P, ,35*%
X175260000Y-109220000D03*
%TO.P, ,36*%
X177800000Y-109220000D03*
%TO.P, ,37*%
X180340000Y-109220000D03*
%TO.P, ,38*%
X182880000Y-109220000D03*
%TO.P, ,39*%
X185420000Y-109220000D03*
%TO.P, ,40*%
X187960000Y-109220000D03*
%TO.P, ,41*%
X190500000Y-109220000D03*
%TO.P, ,42*%
X193040000Y-109220000D03*
%TO.P, ,43*%
X195580000Y-109220000D03*
%TO.P, ,44*%
X198120000Y-109220000D03*
%TO.P, ,45*%
X200660000Y-109220000D03*
%TO.P, ,46*%
X203200000Y-109220000D03*
%TO.P, ,47*%
X205740000Y-109220000D03*
%TO.P, ,48*%
X208280000Y-109220000D03*
%TO.P, ,49*%
X210820000Y-109220000D03*
%TO.P, ,50*%
X213360000Y-109220000D03*
%TO.P, ,51*%
X215900000Y-109220000D03*
%TO.P, ,52*%
X218440000Y-109220000D03*
%TO.P, ,53*%
X220980000Y-109220000D03*
%TO.P, ,54*%
X223520000Y-109220000D03*
%TO.P, ,55*%
X226060000Y-109220000D03*
%TO.P, ,56*%
X228600000Y-109220000D03*
%TO.P, ,57*%
X231140000Y-109220000D03*
%TO.P, ,58*%
X233680000Y-109220000D03*
%TO.P, ,59*%
X236220000Y-109220000D03*
%TO.P, ,60*%
X238760000Y-109220000D03*
%TO.P, ,61*%
X241300000Y-109220000D03*
%TO.P, ,62*%
X243840000Y-109220000D03*
%TD*%
D12*
%TO.P,REF\u002A\u002A,*%
%TO.N,*%
X200660000Y-50800000D03*
%TD*%
%TO.P,REF\u002A\u002A,*%
%TO.N,*%
X210820000Y-58420000D03*
%TD*%
%TO.P,REF\u002A\u002A,*%
%TO.N,*%
X213360000Y-60960000D03*
%TD*%
%TO.P,REF\u002A\u002A,*%
%TO.N,*%
X231140000Y-17780000D03*
%TD*%
%TO.P,,*%
%TO.N,*%
X208280000Y-101600000D03*
%TD*%
%TO.P,REF\u002A\u002A,*%
%TO.N,*%
X241300000Y-71120000D03*
%TD*%
%TO.P,REF\u002A\u002A,*%
%TO.N,*%
X226060000Y-76200000D03*
%TD*%
%TO.P,REF\u002A\u002A,*%
%TO.N,*%
X223520000Y-88900000D03*
%TD*%
%TO.P,REF\u002A\u002A,*%
%TO.N,*%
X157480000Y-86360000D03*
%TD*%
%TO.P,REF\u002A\u002A,*%
%TO.N,*%
X215900000Y-33020000D03*
%TD*%
%TO.P,REF\u002A\u002A,*%
%TO.N,*%
X185420000Y-63500000D03*
%TD*%
%TO.P,REF\u002A\u002A,*%
%TO.N,*%
X157480000Y-78740000D03*
%TD*%
%TO.P,REF\u002A\u002A,*%
%TO.N,*%
X205740000Y-93980000D03*
%TD*%
%TO.P,REF\u002A\u002A,*%
%TO.N,*%
X231140000Y-27940000D03*
%TD*%
%TO.P,REF\u002A\u002A,*%
%TO.N,*%
X198120000Y-35560000D03*
%TD*%
%TO.P,REF\u002A\u002A,*%
%TO.N,*%
X175260000Y-45720000D03*
%TD*%
%TO.P,REF\u002A\u002A,*%
%TO.N,*%
X238760000Y-78740000D03*
%TD*%
%TO.P,REF\u002A\u002A,*%
%TO.N,*%
X238760000Y-66040000D03*
%TD*%
%TO.P,REF\u002A\u002A,*%
%TO.N,*%
X182880000Y-86360000D03*
%TD*%
%TO.P,REF\u002A\u002A,*%
%TO.N,*%
X226060000Y-68580000D03*
%TD*%
%TO.P,REF\u002A\u002A,*%
%TO.N,*%
X170180000Y-20320000D03*
%TD*%
%TO.P,REF\u002A\u002A,*%
%TO.N,*%
X236220000Y-83820000D03*
%TD*%
%TO.P,REF\u002A\u002A,*%
%TO.N,*%
X160020000Y-45720000D03*
%TD*%
%TO.P,REF\u002A\u002A,*%
%TO.N,*%
X254000000Y-86360000D03*
%TD*%
%TO.P,REF\u002A\u002A,*%
%TO.N,*%
X193040000Y-35560000D03*
%TD*%
%TO.P,REF\u002A\u002A,*%
%TO.N,*%
X228600000Y-53340000D03*
%TD*%
%TO.P,,*%
%TO.N,*%
X187960000Y-101600000D03*
%TD*%
%TO.P,REF\u002A\u002A,*%
%TO.N,*%
X198120000Y-91440000D03*
%TD*%
%TO.P,REF\u002A\u002A,*%
%TO.N,*%
X236220000Y-20320000D03*
%TD*%
%TO.P,,*%
%TO.N,*%
X187960000Y-101600000D03*
%TD*%
%TO.P,REF\u002A\u002A,*%
%TO.N,*%
X170180000Y-73660000D03*
%TD*%
%TO.P,REF\u002A\u002A,*%
%TO.N,*%
X175260000Y-63500000D03*
%TD*%
%TO.P,REF\u002A\u002A,*%
%TO.N,*%
X157480000Y-88900000D03*
%TD*%
%TO.P,REF\u002A\u002A,*%
%TO.N,*%
X195580000Y-60960000D03*
%TD*%
%TO.P,REF\u002A\u002A,*%
%TO.N,*%
X203200000Y-91440000D03*
%TD*%
%TO.P,REF\u002A\u002A,*%
%TO.N,*%
X160020000Y-81280000D03*
%TD*%
%TO.P,,*%
%TO.N,*%
X228600000Y-101600000D03*
%TD*%
%TO.P,REF\u002A\u002A,*%
%TO.N,*%
X208280000Y-78740000D03*
%TD*%
%TO.P,REF\u002A\u002A,*%
%TO.N,*%
X228600000Y-81280000D03*
%TD*%
%TO.P,REF\u002A\u002A,*%
%TO.N,*%
X195580000Y-58420000D03*
%TD*%
%TO.P,REF\u002A\u002A,*%
%TO.N,*%
X167640000Y-45720000D03*
%TD*%
%TO.P,REF\u002A\u002A,*%
%TO.N,*%
X198120000Y-58420000D03*
%TD*%
%TO.P,REF\u002A\u002A,*%
%TO.N,*%
X198120000Y-78740000D03*
%TD*%
%TO.P,REF\u002A\u002A,*%
%TO.N,*%
X182880000Y-88900000D03*
%TD*%
%TO.P,REF\u002A\u002A,*%
%TO.N,*%
X215900000Y-101600000D03*
%TD*%
%TO.P,REF\u002A\u002A,*%
%TO.N,*%
X243840000Y-78740000D03*
%TD*%
%TO.P,,*%
%TO.N,*%
X226060000Y-99060000D03*
%TD*%
%TO.P,REF\u002A\u002A,*%
%TO.N,*%
X175260000Y-86360000D03*
%TD*%
%TO.P,REF\u002A\u002A,*%
%TO.N,*%
X175260000Y-33020000D03*
%TD*%
%TO.P,REF\u002A\u002A,*%
%TO.N,*%
X246380000Y-55880000D03*
%TD*%
%TO.P,REF\u002A\u002A,*%
%TO.N,*%
X200660000Y-17780000D03*
%TD*%
%TO.P,REF\u002A\u002A,*%
%TO.N,*%
X182880000Y-40640000D03*
%TD*%
%TO.P,REF\u002A\u002A,*%
%TO.N,*%
X213360000Y-48260000D03*
%TD*%
%TO.P,REF\u002A\u002A,*%
%TO.N,*%
X226060000Y-40640000D03*
%TD*%
%TO.P,REF\u002A\u002A,*%
%TO.N,*%
X251460000Y-25400000D03*
%TD*%
%TO.P,REF\u002A\u002A,*%
%TO.N,*%
X210820000Y-83820000D03*
%TD*%
%TO.P,REF\u002A\u002A,*%
%TO.N,*%
X167640000Y-27940000D03*
%TD*%
%TO.P,REF\u002A\u002A,*%
%TO.N,*%
X238760000Y-88900000D03*
%TD*%
%TO.P,REF\u002A\u002A,*%
%TO.N,*%
X236220000Y-55880000D03*
%TD*%
%TO.P,REF\u002A\u002A,*%
%TO.N,*%
X241300000Y-83820000D03*
%TD*%
%TO.P,,*%
%TO.N,*%
X205740000Y-99060000D03*
%TD*%
%TO.P,REF\u002A\u002A,*%
%TO.N,*%
X208280000Y-76200000D03*
%TD*%
%TO.P,REF\u002A\u002A,*%
%TO.N,*%
X243840000Y-45720000D03*
%TD*%
%TO.P,REF\u002A\u002A,*%
%TO.N,*%
X233680000Y-99060000D03*
%TD*%
%TO.P,REF\u002A\u002A,*%
%TO.N,*%
X185420000Y-35560000D03*
%TD*%
%TO.P,REF\u002A\u002A,*%
%TO.N,*%
X167640000Y-33020000D03*
%TD*%
%TO.P,REF\u002A\u002A,*%
%TO.N,*%
X165100000Y-25400000D03*
%TD*%
%TO.P,REF\u002A\u002A,*%
%TO.N,*%
X210820000Y-27940000D03*
%TD*%
%TO.P,REF\u002A\u002A,*%
%TO.N,*%
X226060000Y-45720000D03*
%TD*%
%TO.P,REF\u002A\u002A,*%
%TO.N,*%
X243840000Y-58420000D03*
%TD*%
%TO.P,REF\u002A\u002A,*%
%TO.N,*%
X195580000Y-17780000D03*
%TD*%
%TO.P,REF\u002A\u002A,*%
%TO.N,*%
X215900000Y-99060000D03*
%TD*%
%TO.P,REF\u002A\u002A,*%
%TO.N,*%
X228600000Y-73660000D03*
%TD*%
%TO.P,REF\u002A\u002A,*%
%TO.N,*%
X198120000Y-76200000D03*
%TD*%
%TO.P,REF\u002A\u002A,*%
%TO.N,*%
X251460000Y-81280000D03*
%TD*%
%TO.P,REF\u002A\u002A,*%
%TO.N,*%
X254000000Y-99060000D03*
%TD*%
%TO.P,REF\u002A\u002A,*%
%TO.N,*%
X167640000Y-63500000D03*
%TD*%
%TO.P,REF\u002A\u002A,*%
%TO.N,*%
X177800000Y-48260000D03*
%TD*%
%TO.P,REF\u002A\u002A,*%
%TO.N,*%
X218440000Y-78740000D03*
%TD*%
%TO.P,REF\u002A\u002A,*%
%TO.N,*%
X205740000Y-48260000D03*
%TD*%
%TO.P,REF\u002A\u002A,*%
%TO.N,*%
X193040000Y-60960000D03*
%TD*%
%TO.P,REF\u002A\u002A,*%
%TO.N,*%
X185420000Y-60960000D03*
%TD*%
%TO.P,REF\u002A\u002A,*%
%TO.N,*%
X175260000Y-40640000D03*
%TD*%
%TO.P,REF\u002A\u002A,*%
%TO.N,*%
X210820000Y-68580000D03*
%TD*%
%TO.P,REF\u002A\u002A,*%
%TO.N,*%
X226060000Y-27940000D03*
%TD*%
%TO.P,REF\u002A\u002A,*%
%TO.N,*%
X251460000Y-50800000D03*
%TD*%
%TO.P,REF\u002A\u002A,*%
%TO.N,*%
X160020000Y-96520000D03*
%TD*%
%TO.P,REF\u002A\u002A,*%
%TO.N,*%
X195580000Y-30480000D03*
%TD*%
%TO.P,REF\u002A\u002A,*%
%TO.N,*%
X246380000Y-58420000D03*
%TD*%
%TO.P,REF\u002A\u002A,*%
%TO.N,*%
X231140000Y-73660000D03*
%TD*%
%TO.P,REF\u002A\u002A,*%
%TO.N,*%
X228600000Y-27940000D03*
%TD*%
%TO.P,REF\u002A\u002A,*%
%TO.N,*%
X167640000Y-43180000D03*
%TD*%
%TO.P,REF\u002A\u002A,*%
%TO.N,*%
X160020000Y-66040000D03*
%TD*%
%TO.P,REF\u002A\u002A,*%
%TO.N,*%
X193040000Y-91440000D03*
%TD*%
%TO.P,REF\u002A\u002A,*%
%TO.N,*%
X157480000Y-27940000D03*
%TD*%
%TO.P,REF\u002A\u002A,*%
%TO.N,*%
X187960000Y-45720000D03*
%TD*%
%TO.P,REF\u002A\u002A,*%
%TO.N,*%
X198120000Y-30480000D03*
%TD*%
%TO.P,REF\u002A\u002A,*%
%TO.N,*%
X241300000Y-58420000D03*
%TD*%
%TO.P,REF\u002A\u002A,*%
%TO.N,*%
X162560000Y-27940000D03*
%TD*%
%TO.P,REF\u002A\u002A,*%
%TO.N,*%
X233680000Y-22860000D03*
%TD*%
%TO.P,REF\u002A\u002A,*%
%TO.N,*%
X170180000Y-83820000D03*
%TD*%
%TO.P,REF\u002A\u002A,*%
%TO.N,*%
X218440000Y-38100000D03*
%TD*%
%TO.P,REF\u002A\u002A,*%
%TO.N,*%
X172720000Y-81280000D03*
%TD*%
%TO.P,REF\u002A\u002A,*%
%TO.N,*%
X226060000Y-99060000D03*
%TD*%
%TO.P,REF\u002A\u002A,*%
%TO.N,*%
X215900000Y-63500000D03*
%TD*%
%TO.P,REF\u002A\u002A,*%
%TO.N,*%
X231140000Y-68580000D03*
%TD*%
%TO.P,REF\u002A\u002A,*%
%TO.N,*%
X182880000Y-33020000D03*
%TD*%
%TO.P,REF\u002A\u002A,*%
%TO.N,*%
X172720000Y-27940000D03*
%TD*%
%TO.P,REF\u002A\u002A,*%
%TO.N,*%
X187960000Y-20320000D03*
%TD*%
%TO.P,REF\u002A\u002A,*%
%TO.N,*%
X205740000Y-78740000D03*
%TD*%
%TO.P,REF\u002A\u002A,*%
%TO.N,*%
X187960000Y-91440000D03*
%TD*%
%TO.P,REF\u002A\u002A,*%
%TO.N,*%
X162560000Y-58420000D03*
%TD*%
%TO.P,REF\u002A\u002A,*%
%TO.N,*%
X248920000Y-96520000D03*
%TD*%
%TO.P,REF\u002A\u002A,*%
%TO.N,*%
X198120000Y-60960000D03*
%TD*%
%TO.P,REF\u002A\u002A,*%
%TO.N,*%
X175260000Y-68580000D03*
%TD*%
%TO.P,REF\u002A\u002A,*%
%TO.N,*%
X203200000Y-50800000D03*
%TD*%
%TO.P,REF\u002A\u002A,*%
%TO.N,*%
X203200000Y-83820000D03*
%TD*%
%TO.P,,*%
%TO.N,*%
X198120000Y-101600000D03*
%TD*%
%TO.P,REF\u002A\u002A,*%
%TO.N,*%
X208280000Y-63500000D03*
%TD*%
%TO.P,REF\u002A\u002A,*%
%TO.N,*%
X208280000Y-86360000D03*
%TD*%
%TO.P,REF\u002A\u002A,*%
%TO.N,*%
X251460000Y-43180000D03*
%TD*%
%TO.P,REF\u002A\u002A,*%
%TO.N,*%
X208280000Y-38100000D03*
%TD*%
%TO.P,REF\u002A\u002A,*%
%TO.N,*%
X160020000Y-40640000D03*
%TD*%
%TO.P,REF\u002A\u002A,*%
%TO.N,*%
X210820000Y-20320000D03*
%TD*%
%TO.P,REF\u002A\u002A,*%
%TO.N,*%
X254000000Y-27940000D03*
%TD*%
%TO.P,,*%
%TO.N,*%
X198120000Y-101600000D03*
%TD*%
%TO.P,REF\u002A\u002A,*%
%TO.N,*%
X187960000Y-99060000D03*
%TD*%
%TO.P,REF\u002A\u002A,*%
%TO.N,*%
X170180000Y-43180000D03*
%TD*%
%TO.P,REF\u002A\u002A,*%
%TO.N,*%
X203200000Y-17780000D03*
%TD*%
%TO.P,REF\u002A\u002A,*%
%TO.N,*%
X228600000Y-20320000D03*
%TD*%
%TO.P,REF\u002A\u002A,*%
%TO.N,*%
X187960000Y-86360000D03*
%TD*%
%TO.P,REF\u002A\u002A,*%
%TO.N,*%
X246380000Y-93980000D03*
%TD*%
%TO.P,REF\u002A\u002A,*%
%TO.N,*%
X177800000Y-93980000D03*
%TD*%
%TO.P,REF\u002A\u002A,*%
%TO.N,*%
X200660000Y-33020000D03*
%TD*%
%TO.P,REF\u002A\u002A,*%
%TO.N,*%
X218440000Y-27940000D03*
%TD*%
%TO.P,REF\u002A\u002A,*%
%TO.N,*%
X172720000Y-33020000D03*
%TD*%
%TO.P,REF\u002A\u002A,*%
%TO.N,*%
X187960000Y-40640000D03*
%TD*%
%TO.P,REF\u002A\u002A,*%
%TO.N,*%
X210820000Y-25400000D03*
%TD*%
%TO.P,REF\u002A\u002A,*%
%TO.N,*%
X157480000Y-93980000D03*
%TD*%
%TO.P,REF\u002A\u002A,*%
%TO.N,*%
X246380000Y-88900000D03*
%TD*%
%TO.P,REF\u002A\u002A,*%
%TO.N,*%
X248920000Y-33020000D03*
%TD*%
%TO.P,REF\u002A\u002A,*%
%TO.N,*%
X205740000Y-35560000D03*
%TD*%
%TO.P,REF\u002A\u002A,*%
%TO.N,*%
X180340000Y-68580000D03*
%TD*%
%TO.P,,*%
%TO.N,*%
X185420000Y-99060000D03*
%TD*%
%TO.P,REF\u002A\u002A,*%
%TO.N,*%
X228600000Y-17780000D03*
%TD*%
%TO.P,REF\u002A\u002A,*%
%TO.N,*%
X241300000Y-99060000D03*
%TD*%
%TO.P,REF\u002A\u002A,*%
%TO.N,*%
X198120000Y-45720000D03*
%TD*%
%TO.P,REF\u002A\u002A,*%
%TO.N,*%
X231140000Y-25400000D03*
%TD*%
%TO.P,REF\u002A\u002A,*%
%TO.N,*%
X198120000Y-86360000D03*
%TD*%
%TO.P,REF\u002A\u002A,*%
%TO.N,*%
X162560000Y-96520000D03*
%TD*%
%TO.P,REF\u002A\u002A,*%
%TO.N,*%
X175260000Y-30480000D03*
%TD*%
%TO.P,REF\u002A\u002A,*%
%TO.N,*%
X205740000Y-86360000D03*
%TD*%
%TO.P,REF\u002A\u002A,*%
%TO.N,*%
X172720000Y-66040000D03*
%TD*%
%TO.P,REF\u002A\u002A,*%
%TO.N,*%
X246380000Y-22860000D03*
%TD*%
%TO.P,REF\u002A\u002A,*%
%TO.N,*%
X203200000Y-78740000D03*
%TD*%
%TO.P,REF\u002A\u002A,*%
%TO.N,*%
X175260000Y-76200000D03*
%TD*%
%TO.P,REF\u002A\u002A,*%
%TO.N,*%
X236220000Y-60960000D03*
%TD*%
%TO.P,,*%
%TO.N,*%
X215900000Y-99060000D03*
%TD*%
%TO.P,REF\u002A\u002A,*%
%TO.N,*%
X175260000Y-17780000D03*
%TD*%
%TO.P,REF\u002A\u002A,*%
%TO.N,*%
X220980000Y-30480000D03*
%TD*%
%TO.P,REF\u002A\u002A,*%
%TO.N,*%
X210820000Y-48260000D03*
%TD*%
%TO.P,REF\u002A\u002A,*%
%TO.N,*%
X200660000Y-88900000D03*
%TD*%
%TO.P,REF\u002A\u002A,*%
%TO.N,*%
X238760000Y-30480000D03*
%TD*%
%TO.P,REF\u002A\u002A,*%
%TO.N,*%
X228600000Y-99060000D03*
%TD*%
%TO.P,REF\u002A\u002A,*%
%TO.N,*%
X223520000Y-25400000D03*
%TD*%
%TO.P,REF\u002A\u002A,*%
%TO.N,*%
X236220000Y-91440000D03*
%TD*%
%TO.P,REF\u002A\u002A,*%
%TO.N,*%
X248920000Y-73660000D03*
%TD*%
%TO.P,REF\u002A\u002A,*%
%TO.N,*%
X254000000Y-58420000D03*
%TD*%
%TO.P,REF\u002A\u002A,*%
%TO.N,*%
X223520000Y-101600000D03*
%TD*%
%TO.P,REF\u002A\u002A,*%
%TO.N,*%
X200660000Y-20320000D03*
%TD*%
%TO.P,REF\u002A\u002A,*%
%TO.N,*%
X180340000Y-71120000D03*
%TD*%
%TO.P,REF\u002A\u002A,*%
%TO.N,*%
X254000000Y-78740000D03*
%TD*%
%TO.P,REF\u002A\u002A,*%
%TO.N,*%
X193040000Y-55880000D03*
%TD*%
%TO.P,REF\u002A\u002A,*%
%TO.N,*%
X195580000Y-35560000D03*
%TD*%
%TO.P,REF\u002A\u002A,*%
%TO.N,*%
X208280000Y-68580000D03*
%TD*%
%TO.P,REF\u002A\u002A,*%
%TO.N,*%
X190500000Y-17780000D03*
%TD*%
%TO.P,REF\u002A\u002A,*%
%TO.N,*%
X246380000Y-78740000D03*
%TD*%
%TO.P,REF\u002A\u002A,*%
%TO.N,*%
X180340000Y-60960000D03*
%TD*%
%TO.P,REF\u002A\u002A,*%
%TO.N,*%
X233680000Y-101600000D03*
%TD*%
%TO.P,REF\u002A\u002A,*%
%TO.N,*%
X248920000Y-76200000D03*
%TD*%
%TO.P,REF\u002A\u002A,*%
%TO.N,*%
X246380000Y-86360000D03*
%TD*%
%TO.P,REF\u002A\u002A,*%
%TO.N,*%
X190500000Y-33020000D03*
%TD*%
%TO.P,,*%
%TO.N,*%
X228600000Y-101600000D03*
%TD*%
%TO.P,REF\u002A\u002A,*%
%TO.N,*%
X160020000Y-60960000D03*
%TD*%
%TO.P,REF\u002A\u002A,*%
%TO.N,*%
X180340000Y-27940000D03*
%TD*%
%TO.P,REF\u002A\u002A,*%
%TO.N,*%
X203200000Y-76200000D03*
%TD*%
%TO.P,REF\u002A\u002A,*%
%TO.N,*%
X170180000Y-93980000D03*
%TD*%
%TO.P,REF\u002A\u002A,*%
%TO.N,*%
X157480000Y-99060000D03*
%TD*%
%TO.P,REF\u002A\u002A,*%
%TO.N,*%
X223520000Y-66040000D03*
%TD*%
%TO.P,REF\u002A\u002A,*%
%TO.N,*%
X182880000Y-43180000D03*
%TD*%
%TO.P,REF\u002A\u002A,*%
%TO.N,*%
X170180000Y-22860000D03*
%TD*%
%TO.P,REF\u002A\u002A,*%
%TO.N,*%
X233680000Y-76200000D03*
%TD*%
%TO.P,REF\u002A\u002A,*%
%TO.N,*%
X172720000Y-60960000D03*
%TD*%
%TO.P,REF\u002A\u002A,*%
%TO.N,*%
X226060000Y-48260000D03*
%TD*%
%TO.P,REF\u002A\u002A,*%
%TO.N,*%
X213360000Y-78740000D03*
%TD*%
%TO.P,REF\u002A\u002A,*%
%TO.N,*%
X241300000Y-73660000D03*
%TD*%
%TO.P,REF\u002A\u002A,*%
%TO.N,*%
X182880000Y-25400000D03*
%TD*%
%TO.P,REF\u002A\u002A,*%
%TO.N,*%
X170180000Y-35560000D03*
%TD*%
%TO.P,REF\u002A\u002A,*%
%TO.N,*%
X238760000Y-27940000D03*
%TD*%
%TO.P,REF\u002A\u002A,*%
%TO.N,*%
X193040000Y-71120000D03*
%TD*%
%TO.P,REF\u002A\u002A,*%
%TO.N,*%
X203200000Y-30480000D03*
%TD*%
%TO.P,REF\u002A\u002A,*%
%TO.N,*%
X187960000Y-88900000D03*
%TD*%
%TO.P,REF\u002A\u002A,*%
%TO.N,*%
X233680000Y-66040000D03*
%TD*%
%TO.P,REF\u002A\u002A,*%
%TO.N,*%
X220980000Y-60960000D03*
%TD*%
%TO.P,REF\u002A\u002A,*%
%TO.N,*%
X248920000Y-40640000D03*
%TD*%
%TO.P,REF\u002A\u002A,*%
%TO.N,*%
X243840000Y-60960000D03*
%TD*%
%TO.P,REF\u002A\u002A,*%
%TO.N,*%
X200660000Y-93980000D03*
%TD*%
%TO.P,REF\u002A\u002A,*%
%TO.N,*%
X208280000Y-35560000D03*
%TD*%
%TO.P,REF\u002A\u002A,*%
%TO.N,*%
X193040000Y-27940000D03*
%TD*%
%TO.P,REF\u002A\u002A,*%
%TO.N,*%
X180340000Y-38100000D03*
%TD*%
%TO.P,REF\u002A\u002A,*%
%TO.N,*%
X246380000Y-76200000D03*
%TD*%
%TO.P,REF\u002A\u002A,*%
%TO.N,*%
X254000000Y-63500000D03*
%TD*%
%TO.P,REF\u002A\u002A,*%
%TO.N,*%
X231140000Y-30480000D03*
%TD*%
%TO.P,REF\u002A\u002A,*%
%TO.N,*%
X226060000Y-35560000D03*
%TD*%
%TO.P,REF\u002A\u002A,*%
%TO.N,*%
X162560000Y-50800000D03*
%TD*%
%TO.P,REF\u002A\u002A,*%
%TO.N,*%
X246380000Y-53340000D03*
%TD*%
%TO.P,REF\u002A\u002A,*%
%TO.N,*%
X220980000Y-38100000D03*
%TD*%
%TO.P,REF\u002A\u002A,*%
%TO.N,*%
X231140000Y-71120000D03*
%TD*%
%TO.P,REF\u002A\u002A,*%
%TO.N,*%
X228600000Y-30480000D03*
%TD*%
%TO.P,REF\u002A\u002A,*%
%TO.N,*%
X254000000Y-83820000D03*
%TD*%
%TO.P,REF\u002A\u002A,*%
%TO.N,*%
X215900000Y-66040000D03*
%TD*%
%TO.P,REF\u002A\u002A,*%
%TO.N,*%
X218440000Y-91440000D03*
%TD*%
%TO.P,REF\u002A\u002A,*%
%TO.N,*%
X195580000Y-27940000D03*
%TD*%
%TO.P,REF\u002A\u002A,*%
%TO.N,*%
X210820000Y-30480000D03*
%TD*%
%TO.P,REF\u002A\u002A,*%
%TO.N,*%
X177800000Y-88900000D03*
%TD*%
%TO.P,REF\u002A\u002A,*%
%TO.N,*%
X157480000Y-38100000D03*
%TD*%
%TO.P,REF\u002A\u002A,*%
%TO.N,*%
X241300000Y-17780000D03*
%TD*%
%TO.P,REF\u002A\u002A,*%
%TO.N,*%
X215900000Y-86360000D03*
%TD*%
%TO.P,REF\u002A\u002A,*%
%TO.N,*%
X185420000Y-76200000D03*
%TD*%
%TO.P,REF\u002A\u002A,*%
%TO.N,*%
X187960000Y-73660000D03*
%TD*%
%TO.P,REF\u002A\u002A,*%
%TO.N,*%
X210820000Y-38100000D03*
%TD*%
%TO.P,REF\u002A\u002A,*%
%TO.N,*%
X213360000Y-66040000D03*
%TD*%
%TO.P,REF\u002A\u002A,*%
%TO.N,*%
X228600000Y-43180000D03*
%TD*%
%TO.P,REF\u002A\u002A,*%
%TO.N,*%
X167640000Y-101600000D03*
%TD*%
%TO.P,REF\u002A\u002A,*%
%TO.N,*%
X203200000Y-71120000D03*
%TD*%
%TO.P,REF\u002A\u002A,*%
%TO.N,*%
X200660000Y-73660000D03*
%TD*%
%TO.P,REF\u002A\u002A,*%
%TO.N,*%
X231140000Y-58420000D03*
%TD*%
%TO.P,REF\u002A\u002A,*%
%TO.N,*%
X233680000Y-78740000D03*
%TD*%
%TO.P,,*%
%TO.N,*%
X238760000Y-101600000D03*
%TD*%
%TO.P,REF\u002A\u002A,*%
%TO.N,*%
X233680000Y-71120000D03*
%TD*%
%TO.P,REF\u002A\u002A,*%
%TO.N,*%
X182880000Y-91440000D03*
%TD*%
%TO.P,REF\u002A\u002A,*%
%TO.N,*%
X208280000Y-22860000D03*
%TD*%
%TO.P,REF\u002A\u002A,*%
%TO.N,*%
X175260000Y-78740000D03*
%TD*%
%TO.P,REF\u002A\u002A,*%
%TO.N,*%
X167640000Y-93980000D03*
%TD*%
%TO.P,REF\u002A\u002A,*%
%TO.N,*%
X190500000Y-60960000D03*
%TD*%
%TO.P,REF\u002A\u002A,*%
%TO.N,*%
X200660000Y-66040000D03*
%TD*%
%TO.P,REF\u002A\u002A,*%
%TO.N,*%
X198120000Y-43180000D03*
%TD*%
%TO.P,REF\u002A\u002A,*%
%TO.N,*%
X208280000Y-88900000D03*
%TD*%
%TO.P,REF\u002A\u002A,*%
%TO.N,*%
X246380000Y-38100000D03*
%TD*%
%TO.P,REF\u002A\u002A,*%
%TO.N,*%
X236220000Y-71120000D03*
%TD*%
%TO.P,REF\u002A\u002A,*%
%TO.N,*%
X167640000Y-60960000D03*
%TD*%
%TO.P,REF\u002A\u002A,*%
%TO.N,*%
X218440000Y-66040000D03*
%TD*%
%TO.P,REF\u002A\u002A,*%
%TO.N,*%
X215900000Y-68580000D03*
%TD*%
%TO.P,REF\u002A\u002A,*%
%TO.N,*%
X236220000Y-99060000D03*
%TD*%
%TO.P,REF\u002A\u002A,*%
%TO.N,*%
X193040000Y-78740000D03*
%TD*%
%TO.P,REF\u002A\u002A,*%
%TO.N,*%
X165100000Y-63500000D03*
%TD*%
%TO.P,REF\u002A\u002A,*%
%TO.N,*%
X218440000Y-86360000D03*
%TD*%
%TO.P,REF\u002A\u002A,*%
%TO.N,*%
X195580000Y-38100000D03*
%TD*%
%TO.P,REF\u002A\u002A,*%
%TO.N,*%
X210820000Y-50800000D03*
%TD*%
%TO.P,REF\u002A\u002A,*%
%TO.N,*%
X231140000Y-55880000D03*
%TD*%
%TO.P,REF\u002A\u002A,*%
%TO.N,*%
X190500000Y-73660000D03*
%TD*%
%TO.P,REF\u002A\u002A,*%
%TO.N,*%
X172720000Y-68580000D03*
%TD*%
%TO.P,REF\u002A\u002A,*%
%TO.N,*%
X167640000Y-68580000D03*
%TD*%
%TO.P,REF\u002A\u002A,*%
%TO.N,*%
X213360000Y-86360000D03*
%TD*%
%TO.P,REF\u002A\u002A,*%
%TO.N,*%
X165100000Y-73660000D03*
%TD*%
%TO.P,REF\u002A\u002A,*%
%TO.N,*%
X254000000Y-33020000D03*
%TD*%
%TO.P,REF\u002A\u002A,*%
%TO.N,*%
X165100000Y-53340000D03*
%TD*%
%TO.P,REF\u002A\u002A,*%
%TO.N,*%
X187960000Y-17780000D03*
%TD*%
%TO.P,REF\u002A\u002A,*%
%TO.N,*%
X195580000Y-78740000D03*
%TD*%
%TO.P,REF\u002A\u002A,*%
%TO.N,*%
X243840000Y-93980000D03*
%TD*%
%TO.P,REF\u002A\u002A,*%
%TO.N,*%
X243840000Y-83820000D03*
%TD*%
%TO.P,REF\u002A\u002A,*%
%TO.N,*%
X190500000Y-48260000D03*
%TD*%
%TO.P,REF\u002A\u002A,*%
%TO.N,*%
X165100000Y-58420000D03*
%TD*%
%TO.P,REF\u002A\u002A,*%
%TO.N,*%
X190500000Y-58420000D03*
%TD*%
%TO.P,REF\u002A\u002A,*%
%TO.N,*%
X228600000Y-50800000D03*
%TD*%
%TO.P,REF\u002A\u002A,*%
%TO.N,*%
X213360000Y-33020000D03*
%TD*%
%TO.P,REF\u002A\u002A,*%
%TO.N,*%
X185420000Y-73660000D03*
%TD*%
%TO.P,REF\u002A\u002A,*%
%TO.N,*%
X195580000Y-66040000D03*
%TD*%
%TO.P,REF\u002A\u002A,*%
%TO.N,*%
X226060000Y-86360000D03*
%TD*%
%TO.P,REF\u002A\u002A,*%
%TO.N,*%
X238760000Y-99060000D03*
%TD*%
%TO.P,,*%
%TO.N,*%
X198120000Y-101600000D03*
%TD*%
%TO.P,REF\u002A\u002A,*%
%TO.N,*%
X246380000Y-30480000D03*
%TD*%
%TO.P,REF\u002A\u002A,*%
%TO.N,*%
X223520000Y-48260000D03*
%TD*%
%TO.P,REF\u002A\u002A,*%
%TO.N,*%
X198120000Y-38100000D03*
%TD*%
%TO.P,REF\u002A\u002A,*%
%TO.N,*%
X246380000Y-43180000D03*
%TD*%
%TO.P,REF\u002A\u002A,*%
%TO.N,*%
X162560000Y-99060000D03*
%TD*%
%TO.P,REF\u002A\u002A,*%
%TO.N,*%
X233680000Y-53340000D03*
%TD*%
%TO.P,,*%
%TO.N,*%
X175260000Y-99060000D03*
%TD*%
%TO.P,REF\u002A\u002A,*%
%TO.N,*%
X254000000Y-71120000D03*
%TD*%
%TO.P,REF\u002A\u002A,*%
%TO.N,*%
X203200000Y-20320000D03*
%TD*%
%TO.P,REF\u002A\u002A,*%
%TO.N,*%
X236220000Y-63500000D03*
%TD*%
%TO.P,REF\u002A\u002A,*%
%TO.N,*%
X185420000Y-83820000D03*
%TD*%
%TO.P,REF\u002A\u002A,*%
%TO.N,*%
X180340000Y-76200000D03*
%TD*%
%TO.P,,*%
%TO.N,*%
X203200000Y-101600000D03*
%TD*%
%TO.P,,*%
%TO.N,*%
X190500000Y-99060000D03*
%TD*%
%TO.P,REF\u002A\u002A,*%
%TO.N,*%
X208280000Y-40640000D03*
%TD*%
%TO.P,REF\u002A\u002A,*%
%TO.N,*%
X200660000Y-91440000D03*
%TD*%
%TO.P,REF\u002A\u002A,*%
%TO.N,*%
X210820000Y-63500000D03*
%TD*%
%TO.P,REF\u002A\u002A,*%
%TO.N,*%
X213360000Y-55880000D03*
%TD*%
%TO.P,REF\u002A\u002A,*%
%TO.N,*%
X193040000Y-33020000D03*
%TD*%
%TO.P,REF\u002A\u002A,*%
%TO.N,*%
X198120000Y-55880000D03*
%TD*%
%TO.P,REF\u002A\u002A,*%
%TO.N,*%
X160020000Y-76200000D03*
%TD*%
%TO.P,REF\u002A\u002A,*%
%TO.N,*%
X157480000Y-71120000D03*
%TD*%
%TO.P,REF\u002A\u002A,*%
%TO.N,*%
X246380000Y-63500000D03*
%TD*%
%TO.P,REF\u002A\u002A,*%
%TO.N,*%
X243840000Y-48260000D03*
%TD*%
%TO.P,REF\u002A\u002A,*%
%TO.N,*%
X246380000Y-81280000D03*
%TD*%
%TO.P,REF\u002A\u002A,*%
%TO.N,*%
X190500000Y-101600000D03*
%TD*%
%TO.P,REF\u002A\u002A,*%
%TO.N,*%
X251460000Y-93980000D03*
%TD*%
%TO.P,REF\u002A\u002A,*%
%TO.N,*%
X165100000Y-45720000D03*
%TD*%
%TO.P,REF\u002A\u002A,*%
%TO.N,*%
X248920000Y-43180000D03*
%TD*%
%TO.P,REF\u002A\u002A,*%
%TO.N,*%
X167640000Y-17780000D03*
%TD*%
%TO.P,REF\u002A\u002A,*%
%TO.N,*%
X182880000Y-101600000D03*
%TD*%
%TO.P,REF\u002A\u002A,*%
%TO.N,*%
X157480000Y-83820000D03*
%TD*%
%TO.P,REF\u002A\u002A,*%
%TO.N,*%
X175260000Y-48260000D03*
%TD*%
%TO.P,REF\u002A\u002A,*%
%TO.N,*%
X193040000Y-93980000D03*
%TD*%
%TO.P,REF\u002A\u002A,*%
%TO.N,*%
X243840000Y-40640000D03*
%TD*%
%TO.P,REF\u002A\u002A,*%
%TO.N,*%
X208280000Y-25400000D03*
%TD*%
%TO.P,REF\u002A\u002A,*%
%TO.N,*%
X157480000Y-63500000D03*
%TD*%
%TO.P,REF\u002A\u002A,*%
%TO.N,*%
X198120000Y-40640000D03*
%TD*%
%TO.P,REF\u002A\u002A,*%
%TO.N,*%
X238760000Y-76200000D03*
%TD*%
%TO.P,REF\u002A\u002A,*%
%TO.N,*%
X167640000Y-25400000D03*
%TD*%
%TO.P,REF\u002A\u002A,*%
%TO.N,*%
X226060000Y-22860000D03*
%TD*%
%TO.P,REF\u002A\u002A,*%
%TO.N,*%
X190500000Y-35560000D03*
%TD*%
%TO.P,REF\u002A\u002A,*%
%TO.N,*%
X157480000Y-48260000D03*
%TD*%
%TO.P,REF\u002A\u002A,*%
%TO.N,*%
X185420000Y-86360000D03*
%TD*%
%TO.P,REF\u002A\u002A,*%
%TO.N,*%
X172720000Y-86360000D03*
%TD*%
%TO.P,REF\u002A\u002A,*%
%TO.N,*%
X203200000Y-66040000D03*
%TD*%
%TO.P,REF\u002A\u002A,*%
%TO.N,*%
X180340000Y-30480000D03*
%TD*%
%TO.P,REF\u002A\u002A,*%
%TO.N,*%
X185420000Y-27940000D03*
%TD*%
%TO.P,REF\u002A\u002A,*%
%TO.N,*%
X167640000Y-73660000D03*
%TD*%
%TO.P,REF\u002A\u002A,*%
%TO.N,*%
X170180000Y-25400000D03*
%TD*%
%TO.P,REF\u002A\u002A,*%
%TO.N,*%
X223520000Y-99060000D03*
%TD*%
%TO.P,REF\u002A\u002A,*%
%TO.N,*%
X172720000Y-17780000D03*
%TD*%
%TO.P,REF\u002A\u002A,*%
%TO.N,*%
X190500000Y-50800000D03*
%TD*%
%TO.P,REF\u002A\u002A,*%
%TO.N,*%
X223520000Y-43180000D03*
%TD*%
%TO.P,REF\u002A\u002A,*%
%TO.N,*%
X187960000Y-22860000D03*
%TD*%
%TO.P,REF\u002A\u002A,*%
%TO.N,*%
X193040000Y-68580000D03*
%TD*%
%TO.P,REF\u002A\u002A,*%
%TO.N,*%
X172720000Y-40640000D03*
%TD*%
%TO.P,REF\u002A\u002A,*%
%TO.N,*%
X203200000Y-86360000D03*
%TD*%
%TO.P,REF\u002A\u002A,*%
%TO.N,*%
X215900000Y-38100000D03*
%TD*%
%TO.P,REF\u002A\u002A,*%
%TO.N,*%
X251460000Y-88900000D03*
%TD*%
%TO.P,REF\u002A\u002A,*%
%TO.N,*%
X200660000Y-55880000D03*
%TD*%
%TO.P,REF\u002A\u002A,*%
%TO.N,*%
X180340000Y-25400000D03*
%TD*%
%TO.P,REF\u002A\u002A,*%
%TO.N,*%
X251460000Y-20320000D03*
%TD*%
%TO.P,REF\u002A\u002A,*%
%TO.N,*%
X218440000Y-93980000D03*
%TD*%
%TO.P,REF\u002A\u002A,*%
%TO.N,*%
X170180000Y-40640000D03*
%TD*%
%TO.P,REF\u002A\u002A,*%
%TO.N,*%
X236220000Y-30480000D03*
%TD*%
%TO.P,REF\u002A\u002A,*%
%TO.N,*%
X165100000Y-20320000D03*
%TD*%
%TO.P,REF\u002A\u002A,*%
%TO.N,*%
X170180000Y-30480000D03*
%TD*%
%TO.P,REF\u002A\u002A,*%
%TO.N,*%
X165100000Y-78740000D03*
%TD*%
%TO.P,REF\u002A\u002A,*%
%TO.N,*%
X167640000Y-22860000D03*
%TD*%
%TO.P,REF\u002A\u002A,*%
%TO.N,*%
X248920000Y-50800000D03*
%TD*%
%TO.P,REF\u002A\u002A,*%
%TO.N,*%
X203200000Y-45720000D03*
%TD*%
%TO.P,REF\u002A\u002A,*%
%TO.N,*%
X228600000Y-35560000D03*
%TD*%
%TO.P,REF\u002A\u002A,*%
%TO.N,*%
X248920000Y-91440000D03*
%TD*%
%TO.P,REF\u002A\u002A,*%
%TO.N,*%
X165100000Y-81280000D03*
%TD*%
%TO.P,REF\u002A\u002A,*%
%TO.N,*%
X157480000Y-50800000D03*
%TD*%
%TO.P,REF\u002A\u002A,*%
%TO.N,*%
X220980000Y-66040000D03*
%TD*%
%TO.P,REF\u002A\u002A,*%
%TO.N,*%
X215900000Y-60960000D03*
%TD*%
%TO.P,REF\u002A\u002A,*%
%TO.N,*%
X228600000Y-76200000D03*
%TD*%
%TO.P,REF\u002A\u002A,*%
%TO.N,*%
X238760000Y-38100000D03*
%TD*%
%TO.P,REF\u002A\u002A,*%
%TO.N,*%
X182880000Y-60960000D03*
%TD*%
%TO.P,REF\u002A\u002A,*%
%TO.N,*%
X157480000Y-22860000D03*
%TD*%
%TO.P,REF\u002A\u002A,*%
%TO.N,*%
X236220000Y-27940000D03*
%TD*%
%TO.P,REF\u002A\u002A,*%
%TO.N,*%
X195580000Y-43180000D03*
%TD*%
%TO.P,REF\u002A\u002A,*%
%TO.N,*%
X208280000Y-33020000D03*
%TD*%
%TO.P,REF\u002A\u002A,*%
%TO.N,*%
X170180000Y-48260000D03*
%TD*%
%TO.P,REF\u002A\u002A,*%
%TO.N,*%
X165100000Y-35560000D03*
%TD*%
%TO.P,REF\u002A\u002A,*%
%TO.N,*%
X238760000Y-73660000D03*
%TD*%
%TO.P,REF\u002A\u002A,*%
%TO.N,*%
X233680000Y-55880000D03*
%TD*%
%TO.P,,*%
%TO.N,*%
X218440000Y-101600000D03*
%TD*%
%TO.P,REF\u002A\u002A,*%
%TO.N,*%
X177800000Y-45720000D03*
%TD*%
%TO.P,REF\u002A\u002A,*%
%TO.N,*%
X182880000Y-83820000D03*
%TD*%
%TO.P,REF\u002A\u002A,*%
%TO.N,*%
X241300000Y-63500000D03*
%TD*%
%TO.P,REF\u002A\u002A,*%
%TO.N,*%
X220980000Y-20320000D03*
%TD*%
%TO.P,REF\u002A\u002A,*%
%TO.N,*%
X172720000Y-53340000D03*
%TD*%
%TO.P,REF\u002A\u002A,*%
%TO.N,*%
X215900000Y-73660000D03*
%TD*%
%TO.P,REF\u002A\u002A,*%
%TO.N,*%
X223520000Y-86360000D03*
%TD*%
%TO.P,REF\u002A\u002A,*%
%TO.N,*%
X231140000Y-22860000D03*
%TD*%
%TO.P,REF\u002A\u002A,*%
%TO.N,*%
X198120000Y-25400000D03*
%TD*%
%TO.P,REF\u002A\u002A,*%
%TO.N,*%
X231140000Y-78740000D03*
%TD*%
%TO.P,REF\u002A\u002A,*%
%TO.N,*%
X220980000Y-43180000D03*
%TD*%
%TO.P,REF\u002A\u002A,*%
%TO.N,*%
X231140000Y-50800000D03*
%TD*%
%TO.P,REF\u002A\u002A,*%
%TO.N,*%
X228600000Y-22860000D03*
%TD*%
%TO.P,REF\u002A\u002A,*%
%TO.N,*%
X236220000Y-33020000D03*
%TD*%
%TO.P,REF\u002A\u002A,*%
%TO.N,*%
X215900000Y-53340000D03*
%TD*%
%TO.P,REF\u002A\u002A,*%
%TO.N,*%
X215900000Y-88900000D03*
%TD*%
%TO.P,REF\u002A\u002A,*%
%TO.N,*%
X177800000Y-17780000D03*
%TD*%
%TO.P,REF\u002A\u002A,*%
%TO.N,*%
X243840000Y-53340000D03*
%TD*%
%TO.P,REF\u002A\u002A,*%
%TO.N,*%
X228600000Y-40640000D03*
%TD*%
%TO.P,,*%
%TO.N,*%
X223520000Y-101600000D03*
%TD*%
%TO.P,REF\u002A\u002A,*%
%TO.N,*%
X185420000Y-101600000D03*
%TD*%
%TO.P,REF\u002A\u002A,*%
%TO.N,*%
X241300000Y-33020000D03*
%TD*%
%TO.P,REF\u002A\u002A,*%
%TO.N,*%
X175260000Y-83820000D03*
%TD*%
%TO.P,REF\u002A\u002A,*%
%TO.N,*%
X182880000Y-22860000D03*
%TD*%
%TO.P,REF\u002A\u002A,*%
%TO.N,*%
X241300000Y-38100000D03*
%TD*%
%TO.P,REF\u002A\u002A,*%
%TO.N,*%
X185420000Y-43180000D03*
%TD*%
%TO.P,REF\u002A\u002A,*%
%TO.N,*%
X238760000Y-71120000D03*
%TD*%
%TO.P,REF\u002A\u002A,*%
%TO.N,*%
X175260000Y-101600000D03*
%TD*%
%TO.P,REF\u002A\u002A,*%
%TO.N,*%
X236220000Y-17780000D03*
%TD*%
%TO.P,REF\u002A\u002A,*%
%TO.N,*%
X175260000Y-60960000D03*
%TD*%
%TO.P,REF\u002A\u002A,*%
%TO.N,*%
X172720000Y-38100000D03*
%TD*%
%TO.P,REF\u002A\u002A,*%
%TO.N,*%
X251460000Y-55880000D03*
%TD*%
%TO.P,REF\u002A\u002A,*%
%TO.N,*%
X228600000Y-71120000D03*
%TD*%
%TO.P,REF\u002A\u002A,*%
%TO.N,*%
X182880000Y-58420000D03*
%TD*%
%TO.P,REF\u002A\u002A,*%
%TO.N,*%
X223520000Y-60960000D03*
%TD*%
%TO.P,REF\u002A\u002A,*%
%TO.N,*%
X162560000Y-22860000D03*
%TD*%
%TO.P,REF\u002A\u002A,*%
%TO.N,*%
X215900000Y-27940000D03*
%TD*%
%TO.P,,*%
%TO.N,*%
X180340000Y-99060000D03*
%TD*%
%TO.P,REF\u002A\u002A,*%
%TO.N,*%
X226060000Y-63500000D03*
%TD*%
%TO.P,REF\u002A\u002A,*%
%TO.N,*%
X190500000Y-38100000D03*
%TD*%
%TO.P,REF\u002A\u002A,*%
%TO.N,*%
X210820000Y-73660000D03*
%TD*%
%TO.P,REF\u002A\u002A,*%
%TO.N,*%
X228600000Y-83820000D03*
%TD*%
%TO.P,REF\u002A\u002A,*%
%TO.N,*%
X167640000Y-81280000D03*
%TD*%
%TO.P,REF\u002A\u002A,*%
%TO.N,*%
X231140000Y-91440000D03*
%TD*%
%TO.P,REF\u002A\u002A,*%
%TO.N,*%
X210820000Y-45720000D03*
%TD*%
%TO.P,REF\u002A\u002A,*%
%TO.N,*%
X254000000Y-35560000D03*
%TD*%
%TO.P,REF\u002A\u002A,*%
%TO.N,*%
X190500000Y-25400000D03*
%TD*%
%TO.P,REF\u002A\u002A,*%
%TO.N,*%
X215900000Y-17780000D03*
%TD*%
%TO.P,REF\u002A\u002A,*%
%TO.N,*%
X205740000Y-50800000D03*
%TD*%
%TO.P,REF\u002A\u002A,*%
%TO.N,*%
X200660000Y-101600000D03*
%TD*%
%TO.P,REF\u002A\u002A,*%
%TO.N,*%
X160020000Y-53340000D03*
%TD*%
%TO.P,REF\u002A\u002A,*%
%TO.N,*%
X233680000Y-33020000D03*
%TD*%
%TO.P,REF\u002A\u002A,*%
%TO.N,*%
X187960000Y-93980000D03*
%TD*%
%TO.P,REF\u002A\u002A,*%
%TO.N,*%
X177800000Y-78740000D03*
%TD*%
%TO.P,REF\u002A\u002A,*%
%TO.N,*%
X180340000Y-66040000D03*
%TD*%
%TO.P,REF\u002A\u002A,*%
%TO.N,*%
X180340000Y-55880000D03*
%TD*%
%TO.P,REF\u002A\u002A,*%
%TO.N,*%
X251460000Y-48260000D03*
%TD*%
%TO.P,REF\u002A\u002A,*%
%TO.N,*%
X228600000Y-58420000D03*
%TD*%
%TO.P,REF\u002A\u002A,*%
%TO.N,*%
X228600000Y-101600000D03*
%TD*%
%TO.P,REF\u002A\u002A,*%
%TO.N,*%
X243840000Y-20320000D03*
%TD*%
%TO.P,REF\u002A\u002A,*%
%TO.N,*%
X243840000Y-66040000D03*
%TD*%
%TO.P,REF\u002A\u002A,*%
%TO.N,*%
X246380000Y-17780000D03*
%TD*%
%TO.P,REF\u002A\u002A,*%
%TO.N,*%
X248920000Y-53340000D03*
%TD*%
%TO.P,REF\u002A\u002A,*%
%TO.N,*%
X180340000Y-45720000D03*
%TD*%
%TO.P,REF\u002A\u002A,*%
%TO.N,*%
X193040000Y-58420000D03*
%TD*%
%TO.P,,*%
%TO.N,*%
X200660000Y-99060000D03*
%TD*%
%TO.P,REF\u002A\u002A,*%
%TO.N,*%
X218440000Y-22860000D03*
%TD*%
%TO.P,REF\u002A\u002A,*%
%TO.N,*%
X182880000Y-68580000D03*
%TD*%
%TO.P,REF\u002A\u002A,*%
%TO.N,*%
X195580000Y-22860000D03*
%TD*%
%TO.P,REF\u002A\u002A,*%
%TO.N,*%
X208280000Y-43180000D03*
%TD*%
%TO.P,REF\u002A\u002A,*%
%TO.N,*%
X208280000Y-20320000D03*
%TD*%
%TO.P,REF\u002A\u002A,*%
%TO.N,*%
X251460000Y-58420000D03*
%TD*%
%TO.P,REF\u002A\u002A,*%
%TO.N,*%
X213360000Y-17780000D03*
%TD*%
%TO.P,REF\u002A\u002A,*%
%TO.N,*%
X175260000Y-25400000D03*
%TD*%
%TO.P,REF\u002A\u002A,*%
%TO.N,*%
X223520000Y-83820000D03*
%TD*%
%TO.P,REF\u002A\u002A,*%
%TO.N,*%
X182880000Y-93980000D03*
%TD*%
%TO.P,REF\u002A\u002A,*%
%TO.N,*%
X205740000Y-68580000D03*
%TD*%
%TO.P,REF\u002A\u002A,*%
%TO.N,*%
X203200000Y-33020000D03*
%TD*%
%TO.P,REF\u002A\u002A,*%
%TO.N,*%
X175260000Y-66040000D03*
%TD*%
%TO.P,REF\u002A\u002A,*%
%TO.N,*%
X208280000Y-83820000D03*
%TD*%
%TO.P,REF\u002A\u002A,*%
%TO.N,*%
X241300000Y-86360000D03*
%TD*%
%TO.P,REF\u002A\u002A,*%
%TO.N,*%
X170180000Y-45720000D03*
%TD*%
%TO.P,REF\u002A\u002A,*%
%TO.N,*%
X172720000Y-22860000D03*
%TD*%
%TO.P,REF\u002A\u002A,*%
%TO.N,*%
X210820000Y-55880000D03*
%TD*%
%TO.P,REF\u002A\u002A,*%
%TO.N,*%
X233680000Y-30480000D03*
%TD*%
%TO.P,REF\u002A\u002A,*%
%TO.N,*%
X215900000Y-30480000D03*
%TD*%
%TO.P,REF\u002A\u002A,*%
%TO.N,*%
X228600000Y-66040000D03*
%TD*%
%TO.P,REF\u002A\u002A,*%
%TO.N,*%
X223520000Y-27940000D03*
%TD*%
%TO.P,REF\u002A\u002A,*%
%TO.N,*%
X190500000Y-83820000D03*
%TD*%
%TO.P,REF\u002A\u002A,*%
%TO.N,*%
X200660000Y-58420000D03*
%TD*%
%TO.P,REF\u002A\u002A,*%
%TO.N,*%
X220980000Y-58420000D03*
%TD*%
%TO.P,REF\u002A\u002A,*%
%TO.N,*%
X220980000Y-50800000D03*
%TD*%
%TO.P,REF\u002A\u002A,*%
%TO.N,*%
X241300000Y-66040000D03*
%TD*%
%TO.P,REF\u002A\u002A,*%
%TO.N,*%
X167640000Y-50800000D03*
%TD*%
%TO.P,REF\u002A\u002A,*%
%TO.N,*%
X172720000Y-43180000D03*
%TD*%
%TO.P,REF\u002A\u002A,*%
%TO.N,*%
X175260000Y-35560000D03*
%TD*%
%TO.P,REF\u002A\u002A,*%
%TO.N,*%
X175260000Y-55880000D03*
%TD*%
%TO.P,REF\u002A\u002A,*%
%TO.N,*%
X226060000Y-91440000D03*
%TD*%
%TO.P,REF\u002A\u002A,*%
%TO.N,*%
X254000000Y-66040000D03*
%TD*%
%TO.P,REF\u002A\u002A,*%
%TO.N,*%
X185420000Y-38100000D03*
%TD*%
%TO.P,REF\u002A\u002A,*%
%TO.N,*%
X165100000Y-40640000D03*
%TD*%
%TO.P,REF\u002A\u002A,*%
%TO.N,*%
X195580000Y-25400000D03*
%TD*%
%TO.P,REF\u002A\u002A,*%
%TO.N,*%
X251460000Y-27940000D03*
%TD*%
%TO.P,REF\u002A\u002A,*%
%TO.N,*%
X185420000Y-78740000D03*
%TD*%
%TO.P,REF\u002A\u002A,*%
%TO.N,*%
X241300000Y-55880000D03*
%TD*%
%TO.P,REF\u002A\u002A,*%
%TO.N,*%
X251460000Y-17780000D03*
%TD*%
%TO.P,REF\u002A\u002A,*%
%TO.N,*%
X203200000Y-55880000D03*
%TD*%
%TO.P,REF\u002A\u002A,*%
%TO.N,*%
X231140000Y-48260000D03*
%TD*%
%TO.P,REF\u002A\u002A,*%
%TO.N,*%
X220980000Y-45720000D03*
%TD*%
%TO.P,REF\u002A\u002A,*%
%TO.N,*%
X243840000Y-30480000D03*
%TD*%
%TO.P,REF\u002A\u002A,*%
%TO.N,*%
X172720000Y-48260000D03*
%TD*%
%TO.P,REF\u002A\u002A,*%
%TO.N,*%
X223520000Y-78740000D03*
%TD*%
%TO.P,REF\u002A\u002A,*%
%TO.N,*%
X182880000Y-50800000D03*
%TD*%
%TO.P,REF\u002A\u002A,*%
%TO.N,*%
X220980000Y-91440000D03*
%TD*%
%TO.P,REF\u002A\u002A,*%
%TO.N,*%
X193040000Y-81280000D03*
%TD*%
%TO.P,REF\u002A\u002A,*%
%TO.N,*%
X190500000Y-43180000D03*
%TD*%
%TO.P,REF\u002A\u002A,*%
%TO.N,*%
X254000000Y-20320000D03*
%TD*%
%TO.P,REF\u002A\u002A,*%
%TO.N,*%
X220980000Y-86360000D03*
%TD*%
%TO.P,REF\u002A\u002A,*%
%TO.N,*%
X205740000Y-83820000D03*
%TD*%
%TO.P,REF\u002A\u002A,*%
%TO.N,*%
X203200000Y-22860000D03*
%TD*%
%TO.P,REF\u002A\u002A,*%
%TO.N,*%
X180340000Y-73660000D03*
%TD*%
%TO.P,REF\u002A\u002A,*%
%TO.N,*%
X162560000Y-60960000D03*
%TD*%
%TO.P,REF\u002A\u002A,*%
%TO.N,*%
X170180000Y-58420000D03*
%TD*%
%TO.P,REF\u002A\u002A,*%
%TO.N,*%
X162560000Y-17780000D03*
%TD*%
%TO.P,REF\u002A\u002A,*%
%TO.N,*%
X165100000Y-99060000D03*
%TD*%
%TO.P,REF\u002A\u002A,*%
%TO.N,*%
X187960000Y-58420000D03*
%TD*%
%TO.P,REF\u002A\u002A,*%
%TO.N,*%
X200660000Y-22860000D03*
%TD*%
%TO.P,REF\u002A\u002A,*%
%TO.N,*%
X172720000Y-20320000D03*
%TD*%
%TO.P,REF\u002A\u002A,*%
%TO.N,*%
X200660000Y-71120000D03*
%TD*%
%TO.P,REF\u002A\u002A,*%
%TO.N,*%
X200660000Y-63500000D03*
%TD*%
%TO.P,REF\u002A\u002A,*%
%TO.N,*%
X223520000Y-68580000D03*
%TD*%
%TO.P,REF\u002A\u002A,*%
%TO.N,*%
X162560000Y-35560000D03*
%TD*%
%TO.P,REF\u002A\u002A,*%
%TO.N,*%
X185420000Y-99060000D03*
%TD*%
%TO.P,REF\u002A\u002A,*%
%TO.N,*%
X223520000Y-50800000D03*
%TD*%
%TO.P,REF\u002A\u002A,*%
%TO.N,*%
X254000000Y-55880000D03*
%TD*%
%TO.P,REF\u002A\u002A,*%
%TO.N,*%
X210820000Y-60960000D03*
%TD*%
%TO.P,,*%
%TO.N,*%
X170180000Y-99060000D03*
%TD*%
%TO.P,REF\u002A\u002A,*%
%TO.N,*%
X213360000Y-22860000D03*
%TD*%
%TO.P,REF\u002A\u002A,*%
%TO.N,*%
X208280000Y-101600000D03*
%TD*%
%TO.P,REF\u002A\u002A,*%
%TO.N,*%
X160020000Y-71120000D03*
%TD*%
%TO.P,REF\u002A\u002A,*%
%TO.N,*%
X243840000Y-33020000D03*
%TD*%
%TO.P,REF\u002A\u002A,*%
%TO.N,*%
X180340000Y-78740000D03*
%TD*%
%TO.P,REF\u002A\u002A,*%
%TO.N,*%
X248920000Y-81280000D03*
%TD*%
%TO.P,REF\u002A\u002A,*%
%TO.N,*%
X200660000Y-35560000D03*
%TD*%
%TO.P,REF\u002A\u002A,*%
%TO.N,*%
X220980000Y-17780000D03*
%TD*%
%TO.P,REF\u002A\u002A,*%
%TO.N,*%
X218440000Y-50800000D03*
%TD*%
%TO.P,REF\u002A\u002A,*%
%TO.N,*%
X195580000Y-101600000D03*
%TD*%
%TO.P,REF\u002A\u002A,*%
%TO.N,*%
X200660000Y-25400000D03*
%TD*%
%TO.P,REF\u002A\u002A,*%
%TO.N,*%
X243840000Y-76200000D03*
%TD*%
%TO.P,REF\u002A\u002A,*%
%TO.N,*%
X177800000Y-91440000D03*
%TD*%
%TO.P,REF\u002A\u002A,*%
%TO.N,*%
X231140000Y-66040000D03*
%TD*%
%TO.P,REF\u002A\u002A,*%
%TO.N,*%
X172720000Y-78740000D03*
%TD*%
%TO.P,REF\u002A\u002A,*%
%TO.N,*%
X165100000Y-93980000D03*
%TD*%
%TO.P,REF\u002A\u002A,*%
%TO.N,*%
X223520000Y-91440000D03*
%TD*%
%TO.P,REF\u002A\u002A,*%
%TO.N,*%
X213360000Y-63500000D03*
%TD*%
%TO.P,REF\u002A\u002A,*%
%TO.N,*%
X228600000Y-45720000D03*
%TD*%
%TO.P,REF\u002A\u002A,*%
%TO.N,*%
X165100000Y-22860000D03*
%TD*%
%TO.P,REF\u002A\u002A,*%
%TO.N,*%
X162560000Y-40640000D03*
%TD*%
%TO.P,REF\u002A\u002A,*%
%TO.N,*%
X218440000Y-45720000D03*
%TD*%
%TO.P,,*%
%TO.N,*%
X238760000Y-101600000D03*
%TD*%
%TO.P,REF\u002A\u002A,*%
%TO.N,*%
X172720000Y-83820000D03*
%TD*%
%TO.P,REF\u002A\u002A,*%
%TO.N,*%
X215900000Y-91440000D03*
%TD*%
%TO.P,REF\u002A\u002A,*%
%TO.N,*%
X208280000Y-48260000D03*
%TD*%
%TO.P,REF\u002A\u002A,*%
%TO.N,*%
X182880000Y-66040000D03*
%TD*%
%TO.P,REF\u002A\u002A,*%
%TO.N,*%
X160020000Y-55880000D03*
%TD*%
%TO.P,REF\u002A\u002A,*%
%TO.N,*%
X180340000Y-88900000D03*
%TD*%
%TO.P,REF\u002A\u002A,*%
%TO.N,*%
X218440000Y-48260000D03*
%TD*%
%TO.P,REF\u002A\u002A,*%
%TO.N,*%
X205740000Y-63500000D03*
%TD*%
%TO.P,REF\u002A\u002A,*%
%TO.N,*%
X180340000Y-40640000D03*
%TD*%
%TO.P,,*%
%TO.N,*%
X182880000Y-101600000D03*
%TD*%
%TO.P,REF\u002A\u002A,*%
%TO.N,*%
X218440000Y-35560000D03*
%TD*%
%TO.P,REF\u002A\u002A,*%
%TO.N,*%
X190500000Y-66040000D03*
%TD*%
%TO.P,REF\u002A\u002A,*%
%TO.N,*%
X205740000Y-58420000D03*
%TD*%
%TO.P,REF\u002A\u002A,*%
%TO.N,*%
X180340000Y-17780000D03*
%TD*%
%TO.P,REF\u002A\u002A,*%
%TO.N,*%
X157480000Y-66040000D03*
%TD*%
%TO.P,REF\u002A\u002A,*%
%TO.N,*%
X165100000Y-60960000D03*
%TD*%
%TO.P,REF\u002A\u002A,*%
%TO.N,*%
X182880000Y-30480000D03*
%TD*%
%TO.P,REF\u002A\u002A,*%
%TO.N,*%
X231140000Y-53340000D03*
%TD*%
%TO.P,REF\u002A\u002A,*%
%TO.N,*%
X233680000Y-81280000D03*
%TD*%
%TO.P,REF\u002A\u002A,*%
%TO.N,*%
X190500000Y-76200000D03*
%TD*%
%TO.P,REF\u002A\u002A,*%
%TO.N,*%
X195580000Y-88900000D03*
%TD*%
%TO.P,REF\u002A\u002A,*%
%TO.N,*%
X195580000Y-81280000D03*
%TD*%
%TO.P,REF\u002A\u002A,*%
%TO.N,*%
X167640000Y-91440000D03*
%TD*%
%TO.P,REF\u002A\u002A,*%
%TO.N,*%
X254000000Y-30480000D03*
%TD*%
%TO.P,REF\u002A\u002A,*%
%TO.N,*%
X177800000Y-58420000D03*
%TD*%
%TO.P,REF\u002A\u002A,*%
%TO.N,*%
X187960000Y-68580000D03*
%TD*%
%TO.P,REF\u002A\u002A,*%
%TO.N,*%
X190500000Y-30480000D03*
%TD*%
%TO.P,REF\u002A\u002A,*%
%TO.N,*%
X248920000Y-60960000D03*
%TD*%
%TO.P,REF\u002A\u002A,*%
%TO.N,*%
X228600000Y-60960000D03*
%TD*%
%TO.P,REF\u002A\u002A,*%
%TO.N,*%
X248920000Y-68580000D03*
%TD*%
%TO.P,REF\u002A\u002A,*%
%TO.N,*%
X205740000Y-45720000D03*
%TD*%
%TO.P,REF\u002A\u002A,*%
%TO.N,*%
X241300000Y-48260000D03*
%TD*%
%TO.P,REF\u002A\u002A,*%
%TO.N,*%
X236220000Y-40640000D03*
%TD*%
%TO.P,REF\u002A\u002A,*%
%TO.N,*%
X167640000Y-35560000D03*
%TD*%
D15*
%TO.N,*%
X157480000Y-93980000D02*
X157480000Y-91440000D01*
X254000000Y-71120000D02*
X254000000Y-68580000D01*
X254000000Y-53340000D02*
X254000000Y-50800000D01*
X254000000Y-38100000D02*
X254000000Y-35560000D01*
X157480000Y-22860000D02*
X157480000Y-20320000D01*
X254000000Y-96520000D02*
X254000000Y-93980000D01*
X157480000Y-58420000D02*
X157480000Y-55880000D01*
X157480000Y-81280000D02*
X157480000Y-78740000D01*
X254000000Y-99060000D02*
X254000000Y-96520000D01*
X157480000Y-27940000D02*
X157480000Y-25400000D01*
X254000000Y-30480000D02*
X254000000Y-27940000D01*
X254000000Y-60960000D02*
X254000000Y-58420000D01*
X157480000Y-68580000D02*
X157480000Y-66040000D01*
D16*
X190500000Y-101600000D02*
X190500000Y-109220000D01*
D17*
X193040000Y-109220000D02*
X193040000Y-101600000D01*
X177800000Y-109220000D02*
X177800000Y-101600000D01*
D15*
X254000000Y-25400000D02*
X254000000Y-22860000D01*
X254000000Y-83820000D02*
X254000000Y-81280000D01*
D17*
X167640000Y-109220000D02*
X167640000Y-101600000D01*
D15*
X254000000Y-48260000D02*
X254000000Y-45720000D01*
X254000000Y-40640000D02*
X254000000Y-38100000D01*
X157480000Y-45720000D02*
X157480000Y-43180000D01*
D17*
X241300000Y-109220000D02*
X241300000Y-101600000D01*
D15*
X157480000Y-33020000D02*
X157480000Y-30480000D01*
X157421627Y-35558407D02*
X157421627Y-33018407D01*
X254000000Y-86360000D02*
X254000000Y-83820000D01*
X254000000Y-93980000D02*
X254000000Y-91440000D01*
X157480000Y-60960000D02*
X157480000Y-58420000D01*
X254000000Y-35560000D02*
X254000000Y-33020000D01*
X254000000Y-73660000D02*
X254000000Y-71120000D01*
X157480000Y-63500000D02*
X157480000Y-60960000D01*
X254000000Y-81280000D02*
X254000000Y-78740000D01*
X157480000Y-53340000D02*
X157480000Y-50800000D01*
X254000000Y-50800000D02*
X254000000Y-48260000D01*
X254000000Y-22860000D02*
X254000000Y-20320000D01*
X157480000Y-30480000D02*
X157480000Y-27940000D01*
D16*
X243840000Y-101600000D02*
X243840000Y-109220000D01*
X200660000Y-101600000D02*
X200660000Y-109220000D01*
D15*
X254000000Y-27940000D02*
X254000000Y-25400000D01*
D16*
X215900000Y-101600000D02*
X215900000Y-109220000D01*
X205740000Y-101600000D02*
X205740000Y-109220000D01*
D15*
X157480000Y-88900000D02*
X157480000Y-86360000D01*
X157480000Y-43180000D02*
X157480000Y-40640000D01*
D16*
X195580000Y-101600000D02*
X195580000Y-109220000D01*
D15*
X254000000Y-43180000D02*
X254000000Y-40640000D01*
X254000000Y-63500000D02*
X254000000Y-60960000D01*
X157480000Y-40640000D02*
X157480000Y-38100000D01*
X254000000Y-68580000D02*
X254000000Y-66040000D01*
D17*
X180340000Y-109220000D02*
X180340000Y-101600000D01*
D16*
X210820000Y-101600000D02*
X210820000Y-109220000D01*
X233680000Y-101600000D02*
X233680000Y-109220000D01*
D15*
X157480000Y-71120000D02*
X157480000Y-68580000D01*
X157480000Y-73660000D02*
X157480000Y-71120000D01*
D17*
X182880000Y-109220000D02*
X182880000Y-101600000D01*
D15*
X254000000Y-66040000D02*
X254000000Y-63500000D01*
D17*
X213360000Y-109220000D02*
X213360000Y-101600000D01*
X172720000Y-109220000D02*
X172720000Y-101600000D01*
X231140000Y-109220000D02*
X231140000Y-101600000D01*
D15*
X157480000Y-91440000D02*
X157480000Y-88900000D01*
X254000000Y-78740000D02*
X254000000Y-76200000D01*
D16*
X226060000Y-101600000D02*
X226060000Y-109220000D01*
D17*
X236220000Y-109220000D02*
X236220000Y-101600000D01*
X198120000Y-109220000D02*
X198120000Y-101600000D01*
D16*
X228600000Y-101600000D02*
X228600000Y-109220000D01*
X175260000Y-101600000D02*
X175260000Y-109220000D01*
D15*
X254000000Y-33020000D02*
X254000000Y-30480000D01*
D17*
X223520000Y-109220000D02*
X223520000Y-101600000D01*
D15*
X157480000Y-48260000D02*
X157480000Y-45720000D01*
X254000000Y-55880000D02*
X254000000Y-53340000D01*
X254000000Y-76200000D02*
X254000000Y-73660000D01*
X157480000Y-25400000D02*
X157480000Y-22860000D01*
D17*
X203200000Y-109220000D02*
X203200000Y-101600000D01*
D15*
X157480000Y-99060000D02*
X157480000Y-96520000D01*
X157480000Y-66040000D02*
X157480000Y-63500000D01*
D16*
X170180000Y-101600000D02*
X170180000Y-109220000D01*
D15*
X157480000Y-96520000D02*
X157480000Y-93980000D01*
X254000000Y-88900000D02*
X254000000Y-86360000D01*
D16*
X185420000Y-101600000D02*
X185420000Y-109220000D01*
D15*
X157480000Y-78740000D02*
X157480000Y-76200000D01*
X254000000Y-58420000D02*
X254000000Y-55880000D01*
X157480000Y-83820000D02*
X157480000Y-81280000D01*
X157480000Y-76200000D02*
X157480000Y-73660000D01*
D17*
X218440000Y-109220000D02*
X218440000Y-101600000D01*
D15*
X254000000Y-45720000D02*
X254000000Y-43180000D01*
X157480000Y-86360000D02*
X157480000Y-83820000D01*
D16*
X220980000Y-101600000D02*
X220980000Y-109220000D01*
D15*
X157480000Y-50800000D02*
X157480000Y-48260000D01*
D17*
X208280000Y-109220000D02*
X208280000Y-101600000D01*
D15*
X157480000Y-55880000D02*
X157480000Y-53340000D01*
X157421627Y-38126798D02*
X157421627Y-35586798D01*
D17*
X187960000Y-109220000D02*
X187960000Y-101600000D01*
D16*
X238760000Y-101600000D02*
X238760000Y-109220000D01*
D15*
X254000000Y-91440000D02*
X254000000Y-88900000D01*
%TD*%
M02*
